<svg width="95" height="96" viewBox="0 0 95 96" fill="none" xmlns="http://www.w3.org/2000/svg">
<path d="M40.4038 58.7313L28.7887 47.115C28.0963 46.4233 27.2258 46.0692 26.1775 46.0525C25.13 46.0367 24.2438 46.3908 23.5188 47.115C22.7946 47.84 22.4325 48.7183 22.4325 49.75C22.4325 50.7817 22.7946 51.66 23.5188 52.385L37.24 66.1062C38.1442 67.0096 39.1988 67.4613 40.4038 67.4613C41.6088 67.4613 42.6633 67.0096 43.5675 66.1062L71.385 38.2887C72.0767 37.5963 72.4308 36.7258 72.4475 35.6775C72.4633 34.63 72.1092 33.7438 71.385 33.0188C70.66 32.2946 69.7817 31.9325 68.75 31.9325C67.7183 31.9325 66.84 32.2946 66.115 33.0188L40.4038 58.7313ZM47.5088 95.5C40.9388 95.5 34.7633 94.2533 28.9825 91.76C23.2017 89.2667 18.1733 85.8829 13.8975 81.6087C9.62167 77.3346 6.23625 72.3083 3.74125 66.53C1.24708 60.7517 0 54.5779 0 48.0088C0 41.4388 1.24667 35.2633 3.74 29.4825C6.23333 23.7017 9.61708 18.6733 13.8913 14.3975C18.1654 10.1217 23.1917 6.73625 28.97 4.24125C34.7483 1.74708 40.9221 0.5 47.4912 0.5C54.0612 0.5 60.2367 1.74666 66.0175 4.24C71.7983 6.73333 76.8267 10.1171 81.1025 14.3913C85.3783 18.6654 88.7638 23.6917 91.2588 29.47C93.7529 35.2483 95 41.4221 95 47.9912C95 54.5612 93.7533 60.7367 91.26 66.5175C88.7667 72.2983 85.3829 77.3267 81.1087 81.6025C76.8346 85.8783 71.8083 89.2638 66.03 91.7588C60.2517 94.2529 54.0779 95.5 47.5088 95.5Z" fill="#1FD18E"/>
</svg>
