<svg width="159" height="36" viewBox="0 0 159 36" fill="none" xmlns="http://www.w3.org/2000/svg">
<path d="M0 5.44253C1.48465 3.97618 3.01315 2.55113 4.43641 1.02747C4.74421 0.678966 5.12774 0.405738 5.55753 0.228781C5.98733 0.0518245 6.45193 -0.0241492 6.91564 0.00669897C16.3213 0.0469721 25.7281 0.0299334 35.1333 0.0304498C35.9803 0.0304498 35.9813 0.0304498 35.9813 0.864309V29.7659C35.9813 30.5797 35.9813 30.5797 35.1622 30.5797C33.7869 30.5797 32.4116 30.5874 31.0353 30.5647C30.6742 30.5585 30.5638 30.6679 30.5674 31.0232C30.5818 32.4818 30.5622 33.9404 30.5798 35.399C30.5849 35.8306 30.4503 36.0005 29.9984 36C20.068 35.9904 10.1374 35.9873 0.206345 35.9907C0.138767 35.9907 0.0711889 35.9824 0.00309517 35.9778V5.44253M33.3138 15.2604V3.40719C33.3138 2.70448 33.3107 2.70293 32.6019 2.70293C24.7264 2.70052 16.851 2.69863 8.97548 2.69725C8.26978 2.69725 8.26513 2.70138 8.26462 3.40668C8.26152 11.3092 8.2598 19.2115 8.25946 27.1136C8.25946 27.8153 8.26256 27.8178 8.97341 27.8178C16.8489 27.8178 24.7244 27.8178 32.5999 27.8178C33.3112 27.8178 33.3138 27.8153 33.3143 27.1141C33.3143 23.1632 33.3143 19.2121 33.3143 15.2609M2.65823 31.4176L2.78772 31.4956C3.52901 30.7593 4.25586 30.005 5.01779 29.2919C5.18596 29.141 5.31803 28.9542 5.40421 28.7452C5.49039 28.5362 5.52846 28.3105 5.51559 28.0848C5.50149 21.7616 5.4984 15.4383 5.50631 9.11513V9.01186C5.5027 8.30295 5.49186 8.28901 4.80422 8.28901C4.34613 8.28695 3.88788 8.28695 3.42945 8.28901C2.66597 8.28901 2.66494 8.28901 2.66442 9.04698C2.66236 16.3195 2.66013 23.5919 2.65772 30.8641V31.4187M5.03687 33.2258C5.26033 33.3232 5.50581 33.3589 5.74773 33.3291C12.825 33.3315 19.9023 33.3315 26.9796 33.3291C27.0827 33.3291 27.1859 33.3208 27.285 33.3291C27.6507 33.36 27.8122 33.2077 27.8008 32.8298C27.7843 32.2195 27.7807 31.6097 27.8008 30.9994C27.8147 30.5864 27.627 30.48 27.2478 30.4831C20.9003 30.49 14.5528 30.4919 8.20529 30.4888C8.11274 30.4735 8.01805 30.4771 7.92693 30.4994C7.8358 30.5217 7.75011 30.5621 7.67499 30.6184C6.80679 31.4713 5.94427 32.329 5.03429 33.2294M5.43718 3.94623C4.89037 4.49302 4.40546 4.9732 3.92674 5.46215C3.82357 5.57007 3.84317 5.70947 4.00876 5.71618C4.43022 5.73322 4.85271 5.72703 5.27468 5.71205C5.3354 5.70602 5.39141 5.67667 5.43095 5.63016C5.47049 5.58366 5.49047 5.52362 5.4867 5.46267C5.53122 4.95715 5.5139 4.44807 5.43512 3.94675" fill="#4AC7C9"/>
<path d="M27.3231 17.5033C27.3231 18.6056 27.3231 19.708 27.3257 20.8077C27.3257 20.9513 27.2653 21.1625 27.4459 21.21C27.6481 21.2616 27.7946 21.1067 27.872 20.9234C27.9883 20.6785 28.067 20.4174 28.1052 20.1489C28.2083 19.1065 28.3084 18.0635 28.4338 17.0241C28.5368 16.564 28.6043 16.0965 28.6355 15.6259C28.6272 15.3471 28.8191 15.2036 29.1034 15.2036C29.5618 15.2036 30.02 15.2036 30.4781 15.2036C30.7361 15.2036 30.8423 15.3146 30.8139 15.5836C30.6809 16.8274 30.5653 18.0728 30.4286 19.3161C30.3528 20.0054 30.2646 20.6942 30.1495 21.3772C30.096 21.8855 29.8942 22.3668 29.5692 22.761C29.1281 23.1931 28.5356 23.4353 27.9184 23.4358C26.8016 23.4998 25.678 23.4828 24.5586 23.4477C22.9672 23.3961 22.2831 22.7135 22.0892 21.1299C21.8901 19.5051 21.6502 17.8849 21.4325 16.2621C21.412 16.077 21.4015 15.8911 21.401 15.7049C21.3938 15.4297 21.5357 15.3094 21.8075 15.3048C22.2997 15.2976 22.7913 15.2805 23.2829 15.263C23.5186 15.2547 23.6156 15.3729 23.6378 15.596C23.7776 16.9901 23.9318 18.3841 24.0598 19.7823C24.1209 20.149 24.2268 20.5067 24.375 20.8475C24.4157 20.9668 24.4781 21.1434 24.6422 21.0995C24.8062 21.0556 24.7541 20.8713 24.7541 20.7453C24.7588 19.5412 24.7577 18.3371 24.7577 17.131C24.7577 16.1645 24.7459 15.1974 24.7629 14.2314C24.7696 13.8415 24.6334 13.6799 24.2321 13.6908C23.4856 13.7109 22.7361 13.6789 21.9917 13.7021C21.5604 13.7156 21.3603 13.5767 21.3907 13.1228C21.4121 12.7333 21.4121 12.3429 21.3907 11.9533C21.3742 11.5754 21.5455 11.4422 21.9097 11.4479C22.6731 11.4603 23.4376 11.435 24.2001 11.4561C24.6231 11.468 24.7727 11.3012 24.7603 10.8882C24.7392 10.1596 24.7928 9.4275 24.7459 8.70155C24.7033 8.48154 24.7124 8.25463 24.7725 8.03875C24.8326 7.82287 24.942 7.62392 25.0921 7.45762C25.2422 7.29133 25.4289 7.16223 25.6373 7.08053C25.8458 6.99883 26.0705 6.96676 26.2935 6.98685C27.6827 6.92489 29.0791 6.96826 30.4683 6.96362C30.7479 6.96362 30.8681 7.10509 30.8681 7.37202C30.8681 7.86408 30.8614 8.35562 30.8728 8.84716C30.881 9.20445 30.7046 9.32062 30.3708 9.31649C29.6068 9.30668 28.8428 9.30926 28.0788 9.31649C27.5114 9.32217 27.3345 9.47139 27.3314 10.0393C27.3211 11.7396 27.1431 11.421 28.654 11.4515C29.1972 11.4623 29.741 11.4701 30.2836 11.4515C30.7283 11.4344 30.8975 11.6281 30.8748 12.0582C30.8562 12.4304 30.8562 12.8048 30.8748 13.177C30.8934 13.5787 30.7128 13.713 30.3259 13.7052C29.5114 13.6882 28.6958 13.7166 27.8818 13.6944C27.4639 13.683 27.3092 13.8302 27.3143 14.2525C27.3345 15.3368 27.3211 16.4211 27.3211 17.5085" fill="#4AC7C9"/>
<path d="M15.8768 11.452C16.6919 11.452 17.507 11.4623 18.3215 11.4479C18.7053 11.4412 18.889 11.5759 18.8683 11.9797C18.8468 12.3694 18.8468 12.76 18.8683 13.1497C18.8936 13.5808 18.6976 13.7078 18.2921 13.7016C17.1572 13.6851 16.0172 13.7016 14.8797 13.6933C14.5741 13.6886 14.2697 13.7327 13.978 13.824C13.8279 13.8595 13.6911 13.9373 13.5839 14.0482C13.4767 14.1591 13.4034 14.2985 13.3728 14.4498C13.2916 14.7788 13.2514 15.1166 13.2532 15.4555C13.3455 16.8708 13.3455 18.316 14.1972 19.5557C14.7512 20.3632 15.3837 21.0277 16.5062 20.9301C16.9612 20.8904 17.1768 20.6843 17.1943 20.2873C17.2248 19.5593 17.2315 18.8282 17.1943 18.1007C17.167 17.5327 16.9509 17.3727 16.3865 17.368C15.1551 17.3577 15.2738 17.4997 15.2728 16.2445C15.2728 15.1086 15.1696 15.2015 16.3102 15.1979C17.0728 15.1785 17.8359 15.2144 18.5934 15.3053C19.2717 15.4019 19.6875 15.7901 19.7458 16.6947C19.8307 18.1511 19.834 19.6112 19.7556 21.068C19.7433 21.3958 19.6663 21.7179 19.5291 22.0158C19.3919 22.3137 19.1971 22.5815 18.9561 22.8038C18.7151 23.0261 18.4325 23.1984 18.1247 23.311C17.8168 23.4235 17.4898 23.474 17.1624 23.4596C16.2805 23.5043 15.3999 23.3501 14.5856 23.0085C13.7713 22.6668 13.0441 22.1464 12.4577 21.4857C11.6969 20.5965 11.1602 19.5377 10.8926 18.3981C10.536 17.1431 10.4009 15.8354 10.4933 14.5339C10.6594 12.5915 11.6034 11.6136 13.5317 11.4634C14.3055 11.4029 15.0932 11.4535 15.8743 11.4535" fill="#4AC7C9"/>
<path d="M158.994 17.8105C158.994 19.8168 158.991 21.8225 158.994 23.8288C158.987 24.3784 158.902 24.9242 158.741 25.4499C158.239 27.2076 156.918 27.9225 155.238 28.0728C152.568 28.367 149.873 28.333 147.212 27.9716C146.477 27.9155 145.782 27.6108 145.242 27.1076C144.702 26.6043 144.349 25.9324 144.241 25.2019C144.014 24.1486 143.901 23.0742 143.903 21.9968C143.883 19.2105 143.872 16.4219 143.909 13.6351C143.924 12.6223 144.017 11.6123 144.188 10.6139C144.497 8.78934 145.668 7.80991 147.646 7.55105C150.204 7.21778 152.795 7.21778 155.353 7.55105C157.642 7.84591 158.934 9.23562 158.98 11.6019C159.02 13.6705 158.989 15.7402 158.989 17.8099H158.993M148.457 17.8773C148.457 19.2282 148.457 20.5806 148.457 21.9345C148.457 22.2934 148.495 22.6513 148.572 23.0019C148.62 23.2966 148.761 23.5681 148.975 23.7767C149.188 23.9853 149.463 24.1201 149.758 24.1613C150.732 24.3651 151.734 24.3976 152.718 24.2573C153.995 24.0779 154.38 23.6745 154.519 22.3819C154.538 22.1716 154.545 21.9604 154.541 21.7493C154.541 19.1303 154.542 16.5112 154.544 13.8922C154.548 13.4483 154.498 13.0056 154.395 12.5739C154.349 12.3221 154.231 12.0888 154.056 11.9018C153.882 11.7147 153.657 11.5817 153.409 11.5185C152.136 11.1791 150.795 11.1886 149.527 11.5459C149.288 11.6047 149.072 11.7334 148.906 11.9156C148.741 12.0978 148.634 12.3252 148.598 12.5688C148.507 12.9818 148.458 13.403 148.453 13.8259C148.461 15.1779 148.456 16.5293 148.456 17.8831" fill="#4AC7C9"/>
<path d="M125.74 17.8173C125.74 15.4737 125.74 13.1309 125.74 10.7888C125.737 10.3665 125.779 9.94504 125.865 9.53164C125.94 8.97839 126.216 8.47195 126.639 8.10791C127.062 7.74388 127.603 7.54742 128.161 7.55564C131.035 7.52478 133.913 7.47735 136.782 7.57849C137.559 7.55712 138.33 7.72686 139.027 8.07285C139.724 8.41883 140.325 8.9305 140.778 9.56306C141.25 10.3175 141.53 11.1767 141.592 12.0648C141.759 13.7027 141.723 15.3549 141.487 16.9842C141.232 19.498 140.294 21.894 138.776 23.9128C137.791 25.218 136.524 26.2828 135.069 27.027C133.614 27.7713 132.009 28.1758 130.376 28.2099C129.827 28.2379 129.277 28.2259 128.727 28.2151C126.754 28.1774 125.759 27.1962 125.745 25.2271C125.728 22.7573 125.741 20.2865 125.741 17.8162L125.74 17.8173ZM130.298 17.6939C130.298 19.3625 130.295 21.0305 130.298 22.6991C130.301 23.9196 130.711 24.2471 131.921 23.9745C132.578 23.8041 133.195 23.5036 133.734 23.0907C134.274 22.6778 134.725 22.1609 135.061 21.5705C136.594 19.1621 137.279 16.3102 137.007 13.4676C136.931 12.3882 136.403 11.6762 135.498 11.5334C134.099 11.3083 132.675 11.2762 131.266 11.4379C130.467 11.5322 130.304 11.7476 130.3 12.5608C130.292 14.2716 130.3 15.9819 130.296 17.6928" fill="#4AC7C9"/>
<path d="M54.4047 7.65734C55.8851 7.65734 57.3655 7.67449 58.8454 7.64877C59.4037 7.63906 59.6635 7.79963 59.6344 8.40134C59.5961 9.18134 59.6012 9.96534 59.6344 10.7442C59.6572 11.2951 59.4488 11.4871 58.8979 11.4836C56.8254 11.4625 54.753 11.4751 52.6806 11.4756C52.4693 11.4756 52.2569 11.4688 52.0463 11.4825C50.4774 11.5836 49.9133 12.1145 49.8591 13.6842C49.7694 16.2762 49.9373 18.8351 51.1807 21.1968C52.0885 22.9196 53.6214 24.3042 55.5837 24.1653C56.3658 24.1082 56.6856 23.8145 56.689 23.0225C56.6958 21.6916 56.6975 20.3608 56.689 19.0299C56.6833 18.2299 56.4115 17.9625 55.6248 17.9476C55.0539 17.9368 54.4829 17.9322 53.912 17.9476C53.4713 17.9591 53.2435 17.8082 53.2538 17.3282C53.2726 16.4202 53.2686 15.5116 53.2538 14.6031C53.2481 14.1733 53.4279 13.9933 53.8589 13.9973C55.59 14.0133 57.333 13.8688 59.0457 14.1648C60.5244 14.4208 61.0394 14.9888 61.1267 16.8071C61.2466 19.2945 61.1935 21.7922 61.141 24.2836C61.1383 24.8562 61.0206 25.4223 60.7951 25.9485C60.5695 26.4746 60.2406 26.95 59.8279 27.3465C59.6131 27.5513 59.358 27.7092 59.0789 27.8099C57.8857 28.3314 56.5691 28.503 55.2822 28.3048C54.3117 28.1253 53.3331 28.0191 52.3706 27.7579C51.3263 27.4159 50.3673 26.854 49.5582 26.1099C47.3841 24.3413 46.3 21.8939 45.5989 19.2745C45.2736 18.1791 45.1196 17.0399 45.1421 15.8973C45.2169 14.2973 44.9223 12.6808 45.3796 11.1071C45.5459 10.3405 45.9235 9.63594 46.4695 9.07326C47.0155 8.51058 47.7082 8.11231 48.4689 7.92363C49.1414 7.74015 49.8357 7.64828 50.5328 7.65048C51.8213 7.67506 53.1127 7.65734 54.4024 7.65734" fill="#4AC7C9"/>
<path d="M118.005 15.3528C118.005 13.0099 118.02 10.6625 117.995 8.31734C117.988 7.70705 118.202 7.49791 118.807 7.51734C119.842 7.55448 120.879 7.5402 121.915 7.52305C122.379 7.51448 122.56 7.70305 122.558 8.15962C122.55 12.8499 122.563 17.5396 122.539 22.2305C122.513 23.1164 122.437 24.0001 122.311 24.8773C122.265 25.5923 121.986 26.2724 121.516 26.8128C121.046 27.3533 120.412 27.7241 119.711 27.8682C119.163 28.0277 118.598 28.1236 118.027 28.1539C115.559 28.2145 113.082 28.4225 110.628 27.9528C109.872 27.8755 109.166 27.5404 108.627 27.0035C108.089 26.4666 107.751 25.7607 107.671 25.0042C107.533 24.321 107.461 23.6259 107.457 22.9288C107.465 18.0907 107.465 13.2526 107.457 8.41448C107.457 7.54705 107.474 7.53334 108.35 7.53105C109.225 7.52877 110.084 7.53105 110.951 7.53105C111.91 7.53105 111.914 7.53448 111.914 8.47505C111.914 12.8061 111.914 17.1372 111.914 21.4682C111.898 21.9756 111.948 22.4829 112.063 22.9773C112.118 23.2812 112.267 23.5602 112.488 23.7754C112.709 23.9906 112.992 24.1311 113.297 24.1773C114.296 24.3615 115.317 24.3837 116.323 24.2431C117.504 24.0756 117.983 23.5248 117.99 22.3236C118.004 19.9996 117.994 17.6756 117.994 15.3522H118.002" fill="#4AC7C9"/>
<path d="M63.9238 17.8225V10.8511C63.9238 10.5768 63.9181 10.3008 63.9455 10.0282C64.1168 8.30534 64.944 7.54077 66.6751 7.53334C69.444 7.52134 72.213 7.53906 74.9813 7.51849C75.546 7.51449 75.7915 7.68591 75.7618 8.27848C75.7247 9.03677 75.7241 9.79963 75.7618 10.5585C75.7915 11.1573 75.5803 11.3853 74.9659 11.3722C73.4656 11.3408 71.9646 11.3619 70.4637 11.3625C70.2735 11.3625 70.0829 11.3591 69.8927 11.3659C68.6042 11.4133 68.3827 11.6402 68.3798 12.9088C68.3798 13.4368 68.4004 13.9653 68.3747 14.4922C68.3496 14.9911 68.5608 15.1573 69.0472 15.1533C70.9918 15.1368 72.9357 15.1453 74.8814 15.1482C75.7019 15.1482 75.7264 15.1768 75.7298 16.0111C75.7327 16.7082 75.7344 17.4048 75.7298 18.1019C75.7241 18.8722 75.6585 18.9442 74.9014 18.9459C72.9991 18.9511 71.0962 18.9459 69.1922 18.9493C68.4129 18.9493 68.3815 18.9853 68.3792 19.7825C68.3758 20.8172 68.3758 21.8518 68.3792 22.8865C68.3838 23.9042 68.534 24.1436 69.5645 24.2099C70.8696 24.2956 72.1827 24.2579 73.4924 24.2705C74.0422 24.2756 74.592 24.2819 75.1412 24.2705C75.5637 24.2619 75.7601 24.4345 75.7532 24.8711C75.739 25.7579 75.7418 26.6425 75.7532 27.5316C75.7572 27.9316 75.5894 28.1076 75.1863 28.1076C72.2695 28.0991 69.3515 28.1379 66.4353 28.0802C64.7585 28.0471 63.9563 27.1162 63.9346 25.2968C63.9049 22.8053 63.9272 20.3133 63.9272 17.8213H63.9215" fill="#4AC7C9"/>
<path d="M100.116 21.1396C100.116 22.5339 100.113 23.9282 100.121 25.3231C100.121 25.4945 100.029 25.7533 100.288 25.8013C100.494 25.8396 100.621 25.6333 100.721 25.4762C100.977 24.9191 101.105 24.3112 101.094 23.6979C101.298 22.0859 101.454 20.4699 101.63 18.8551C101.63 18.759 101.65 18.664 101.689 18.5764C101.728 18.4888 101.786 18.4105 101.858 18.3468C101.93 18.2832 102.014 18.2355 102.106 18.2071C102.197 18.1787 102.294 18.1701 102.389 18.1819C102.919 18.1853 103.448 18.1939 103.975 18.1791C104.418 18.1665 104.552 18.3796 104.571 18.7968C104.549 19.6409 104.458 20.4818 104.3 21.3111C104.128 22.7968 103.974 24.2888 103.76 25.7682C103.712 26.6215 103.359 27.429 102.765 28.0431C102.435 28.3454 102.018 28.5353 101.574 28.5853C99.5696 28.8328 97.5633 28.6053 95.56 28.5608C94.3097 28.5328 93.5726 27.5139 93.3488 26.1099C93.0063 23.9665 92.835 21.8036 92.529 19.6579C92.3286 18.2442 92.368 18.1608 93.7776 18.1819C95.3527 18.2048 95.2871 17.8065 95.528 19.7928C95.7261 21.4265 95.8808 23.0653 96.0572 24.7019C96.0656 24.8073 96.0834 24.9117 96.1104 25.0139C96.1817 25.2551 96.2468 25.6288 96.5014 25.5968C96.816 25.5573 96.6607 25.1808 96.6624 24.9591C96.6756 22.3391 96.659 19.7196 96.6853 17.0996C96.691 16.4973 96.5031 16.2688 95.886 16.2996C94.9788 16.3402 94.0682 16.2893 93.1587 16.3168C92.6272 16.3328 92.4388 16.1156 92.4656 15.6042C92.4925 15.0979 92.4925 14.5905 92.4656 14.0842C92.4376 13.5699 92.6369 13.3591 93.1627 13.3733C94.0927 13.3991 95.0245 13.3556 95.9539 13.3882C96.5168 13.4076 96.683 13.1808 96.6841 12.6453C96.6356 11.5699 96.666 10.4923 96.7749 9.42134C96.9462 8.27848 97.4634 7.70705 98.6384 7.67734C100.414 7.6362 102.191 7.67048 103.968 7.6602C104.402 7.6602 104.581 7.84248 104.569 8.26934C104.555 8.81791 104.548 9.36877 104.573 9.91677C104.594 10.4025 104.405 10.6088 103.91 10.5979C103.022 10.5779 102.133 10.5859 101.245 10.5979C100.245 10.6099 100.12 10.7436 100.118 11.7436C100.114 13.3842 100.114 13.3842 101.765 13.3842C102.484 13.3842 103.203 13.3973 103.922 13.3808C104.372 13.3699 104.589 13.5351 104.571 14.0093C104.551 14.5808 104.555 15.1522 104.571 15.7202C104.583 16.1545 104.393 16.3253 103.963 16.3191C102.948 16.3059 101.932 16.3436 100.919 16.3059C100.324 16.2831 100.09 16.4648 100.107 17.0888C100.146 18.4396 100.119 19.7928 100.119 21.1459" fill="#4AC7C9"/>
<path d="M82.09 19.6585V12.2431C82.09 11.3825 82.0734 11.3682 81.1896 11.3665C80.1745 11.3665 79.1589 11.3545 78.1444 11.3665C77.6819 11.3734 77.4981 11.1779 77.5066 10.7219C77.5232 9.85621 77.5203 8.98935 77.5066 8.12307C77.5009 7.68821 77.6985 7.52421 78.1227 7.52592C82.2892 7.5324 86.4558 7.5324 90.6224 7.52592C91.0597 7.52592 91.2293 7.71507 91.2241 8.13735C91.2133 9.00364 91.2098 9.86992 91.2241 10.7362C91.2333 11.2042 91.0226 11.3722 90.5716 11.3648C89.5359 11.3505 88.4991 11.3579 87.4629 11.3648C86.6807 11.3682 86.6396 11.4071 86.6391 12.1939C86.6368 17.1589 86.6368 22.124 86.6391 27.0894C86.6391 28.1071 86.6391 28.1082 85.6268 28.1088C84.7385 28.1088 83.8501 28.1088 82.9618 28.1088C82.1105 28.1088 82.09 28.0859 82.0894 27.2014C82.0894 24.6871 82.09 22.1728 82.09 19.6585Z" fill="#4AC7C9"/>
</svg>
