<svg width="160" height="36" viewBox="0 0 160 36" fill="none" xmlns="http://www.w3.org/2000/svg">
<path d="M0 5.44253C1.48865 3.97618 3.02127 2.55113 4.44837 1.02747C4.757 0.678966 5.14157 0.405738 5.57251 0.228781C6.00346 0.0518245 6.46932 -0.0241492 6.93428 0.00669897C16.3653 0.0469721 25.7974 0.0299334 35.228 0.0304498C36.0773 0.0304498 36.0783 0.0304498 36.0783 0.864309V29.7659C36.0783 30.5797 36.0783 30.5797 35.2569 30.5797C33.8779 30.5797 32.4989 30.5874 31.1189 30.5647C30.7568 30.5585 30.6461 30.6679 30.6498 31.0232C30.6643 32.4818 30.6446 33.9404 30.6622 35.399C30.6674 35.8306 30.5324 36.0005 30.0792 36C20.1221 35.9904 10.1647 35.9873 0.206901 35.9907C0.139141 35.9907 0.0713808 35.9824 0.00310351 35.9778V5.44253M33.4036 15.2604V3.40719C33.4036 2.70448 33.4005 2.70293 32.6898 2.70293C24.7931 2.70052 16.8964 2.69863 8.99967 2.69725C8.29207 2.69725 8.28741 2.70138 8.28689 3.40668C8.28379 11.3092 8.28207 19.2115 8.28172 27.1136C8.28172 27.8153 8.28483 27.8178 8.9976 27.8178C16.8943 27.8178 24.791 27.8178 32.6877 27.8178C33.401 27.8178 33.4036 27.8153 33.4041 27.1141C33.4041 23.1632 33.4041 19.2121 33.4041 15.2609M2.6654 31.4176L2.79523 31.4956C3.53852 30.7593 4.26733 30.005 5.03131 29.2919C5.19994 29.141 5.33237 28.9542 5.41878 28.7452C5.50519 28.5362 5.54336 28.3105 5.53046 28.0848C5.51632 21.7616 5.51322 15.4383 5.52115 9.11513V9.01186C5.51753 8.30295 5.50666 8.28901 4.81717 8.28901C4.35785 8.28695 3.89836 8.28695 3.43869 8.28901C2.67316 8.28901 2.67212 8.28901 2.67161 9.04698C2.66954 16.3195 2.6673 23.5919 2.66488 30.8641V31.4187M5.05045 33.2258C5.27451 33.3232 5.52065 33.3589 5.76322 33.3291C12.8596 33.3315 19.9559 33.3315 27.0523 33.3291C27.1557 33.3291 27.2592 33.3208 27.3585 33.3291C27.7252 33.36 27.8871 33.2077 27.8757 32.8298C27.8592 32.2195 27.8556 31.6097 27.8757 30.9994C27.8897 30.5864 27.7014 30.48 27.3213 30.4831C20.9566 30.49 14.592 30.4919 8.22741 30.4888C8.1346 30.4735 8.03967 30.4771 7.94829 30.4994C7.85692 30.5217 7.771 30.5621 7.69568 30.6184C6.82514 31.4713 5.9603 32.329 5.04786 33.2294M5.45184 3.94623C4.90355 4.49302 4.41733 4.9732 3.93732 5.46215C3.83387 5.57007 3.85353 5.70947 4.01957 5.71618C4.44216 5.73322 4.86579 5.72703 5.2889 5.71205C5.34978 5.70602 5.40594 5.67667 5.44559 5.63016C5.48523 5.58366 5.50527 5.52362 5.50149 5.46267C5.54613 4.95715 5.52876 4.44807 5.44977 3.94675" fill="white"/>
<path d="M27.3967 17.5033C27.3967 18.6056 27.3967 19.708 27.3993 20.8077C27.3993 20.9513 27.3388 21.1625 27.5198 21.21C27.7226 21.2616 27.8695 21.1067 27.9471 20.9234C28.0637 20.6785 28.1426 20.4174 28.1809 20.1489C28.2843 19.1065 28.3847 18.0635 28.5104 17.0241C28.6137 16.564 28.6813 16.0965 28.7126 15.6259C28.7043 15.3471 28.8968 15.2036 29.1818 15.2036C29.6414 15.2036 30.1009 15.2036 30.5602 15.2036C30.8189 15.2036 30.9254 15.3146 30.897 15.5836C30.7635 16.8274 30.6477 18.0728 30.5106 19.3161C30.4346 20.0054 30.3461 20.6942 30.2308 21.3772C30.1771 21.8855 29.9747 22.3668 29.6488 22.761C29.2066 23.1931 28.6125 23.4353 27.9936 23.4358C26.8738 23.4998 25.7472 23.4828 24.6248 23.4477C23.0291 23.3961 22.3432 22.7135 22.1487 21.1299C21.949 19.5051 21.7085 17.8849 21.4902 16.2621C21.4697 16.077 21.4592 15.8911 21.4587 15.7049C21.4514 15.4297 21.5937 15.3094 21.8663 15.3048C22.3597 15.2976 22.8527 15.2805 23.3456 15.263C23.582 15.2547 23.6792 15.3729 23.7015 15.596C23.8417 16.9901 23.9963 18.3841 24.1246 19.7823C24.1859 20.149 24.292 20.5067 24.4406 20.8475C24.4815 20.9668 24.5441 21.1434 24.7086 21.0995C24.8731 21.0556 24.8208 20.8713 24.8208 20.7453C24.8255 19.5412 24.8244 18.3371 24.8244 17.131C24.8244 16.1645 24.8125 15.1974 24.8296 14.2314C24.8363 13.8415 24.6998 13.6799 24.2974 13.6908C23.5489 13.7109 22.7973 13.6789 22.0509 13.7021C21.6185 13.7156 21.4178 13.5767 21.4483 13.1228C21.4697 12.7333 21.4697 12.3429 21.4483 11.9533C21.4318 11.5754 21.6035 11.4422 21.9687 11.4479C22.7342 11.4603 23.5008 11.435 24.2653 11.4561C24.6894 11.468 24.8394 11.3012 24.827 10.8882C24.8058 10.1596 24.8596 9.4275 24.8125 8.70155C24.7699 8.48154 24.779 8.25463 24.8393 8.03875C24.8995 7.82287 25.0092 7.62392 25.1597 7.45762C25.3102 7.29133 25.4974 7.16223 25.7064 7.08053C25.9155 6.99883 26.1407 6.96676 26.3643 6.98685C27.7573 6.92489 29.1575 6.96826 30.5504 6.96362C30.8308 6.96362 30.9513 7.10509 30.9513 7.37202C30.9513 7.86408 30.9446 8.35562 30.9559 8.84716C30.9642 9.20445 30.7873 9.32062 30.4527 9.31649C29.6866 9.30668 28.9206 9.30926 28.1545 9.31649C27.5855 9.32217 27.4081 9.47139 27.405 10.0393C27.3947 11.7396 27.2162 11.421 28.7312 11.4515C29.2759 11.4623 29.8211 11.4701 30.3652 11.4515C30.8111 11.4344 30.9808 11.6281 30.958 12.0582C30.9394 12.4304 30.9394 12.8048 30.958 13.177C30.9766 13.5787 30.7956 13.713 30.4077 13.7052C29.5909 13.6882 28.7731 13.7166 27.9569 13.6944C27.5379 13.683 27.3828 13.8302 27.3879 14.2525C27.4081 15.3368 27.3947 16.4211 27.3947 17.5085" fill="white"/>
<path d="M15.9185 11.452C16.7358 11.452 17.553 11.4623 18.3698 11.4479C18.7546 11.4412 18.9388 11.5759 18.9181 11.9797C18.8965 12.3694 18.8965 12.76 18.9181 13.1497C18.9434 13.5808 18.7469 13.7078 18.3403 13.7016C17.2023 13.6851 16.0592 13.7016 14.9187 13.6934C14.6123 13.6887 14.307 13.7328 14.0145 13.824C13.8641 13.8595 13.7269 13.9373 13.6194 14.0482C13.5119 14.1591 13.4384 14.2985 13.4078 14.4498C13.3263 14.7788 13.286 15.1166 13.2878 15.4556C13.3804 16.8708 13.3804 18.316 14.2344 19.5557C14.7899 20.3632 15.424 21.0277 16.5496 20.9301C17.0058 20.8904 17.222 20.6844 17.2396 20.2873C17.2701 19.5593 17.2768 18.8282 17.2396 18.1007C17.2122 17.5327 16.9954 17.3727 16.4296 17.368C15.1949 17.3577 15.3139 17.4997 15.3128 16.2445C15.3128 15.1086 15.2094 15.2015 16.353 15.1979C17.1177 15.1785 17.8828 15.2144 18.6424 15.3053C19.3226 15.4019 19.7395 15.7901 19.7979 16.6947C19.8831 18.1512 19.8863 19.6112 19.8077 21.068C19.7954 21.3958 19.7182 21.7179 19.5806 22.0158C19.443 22.3137 19.2478 22.5815 19.0061 22.8038C18.7644 23.0261 18.4811 23.1985 18.1724 23.311C17.8638 23.4235 17.5358 23.474 17.2075 23.4596C16.3233 23.5043 15.4403 23.3501 14.6238 23.0085C13.8073 22.6668 13.0781 22.1464 12.4902 21.4857C11.7273 20.5965 11.1891 19.5377 10.9208 18.3981C10.5633 17.1431 10.4278 15.8354 10.5205 14.5339C10.687 12.5915 11.6336 11.6136 13.5671 11.4634C14.343 11.403 15.1328 11.4536 15.9159 11.4536" fill="white"/>
<path d="M159.422 17.8105C159.422 19.8168 159.419 21.8225 159.422 23.8288C159.415 24.3784 159.329 24.9242 159.169 25.4499C158.665 27.2076 157.341 27.9225 155.655 28.0728C152.979 28.367 150.277 28.333 147.608 27.9716C146.871 27.9155 146.174 27.6108 145.633 27.1076C145.091 26.6043 144.737 25.9324 144.629 25.2019C144.402 24.1487 144.288 23.0742 144.29 21.9968C144.27 19.2105 144.259 16.4219 144.296 13.6351C144.311 12.6223 144.405 11.6123 144.576 10.6139C144.886 8.78936 146.06 7.80993 148.043 7.55107C150.608 7.2178 153.206 7.2178 155.771 7.55107C158.066 7.84593 159.362 9.23564 159.408 11.6019C159.448 13.6705 159.416 15.7402 159.416 17.8099H159.42M148.857 17.8774C148.857 19.2282 148.857 20.5806 148.857 21.9345C148.856 22.2934 148.895 22.6513 148.971 23.0019C149.02 23.2966 149.162 23.5681 149.376 23.7767C149.59 23.9853 149.865 24.1201 150.162 24.1614C151.138 24.3651 152.142 24.3976 153.129 24.2574C154.41 24.0779 154.795 23.6745 154.935 22.3819C154.954 22.1716 154.961 21.9604 154.957 21.7494C154.957 19.1303 154.958 16.5113 154.96 13.8922C154.964 13.4483 154.914 13.0056 154.81 12.5739C154.764 12.3221 154.646 12.0889 154.471 11.9018C154.296 11.7148 154.07 11.5817 153.822 11.5185C152.545 11.1791 151.201 11.1886 149.929 11.5459C149.69 11.6047 149.473 11.7335 149.307 11.9156C149.141 12.0978 149.034 12.3252 148.998 12.5688C148.907 12.9818 148.858 13.403 148.852 13.8259C148.861 15.1779 148.856 16.5294 148.856 17.8831" fill="white"/>
<path d="M126.08 17.8174C126.08 15.4738 126.08 13.1309 126.08 10.7888C126.077 10.3665 126.118 9.94507 126.205 9.53167C126.281 8.97842 126.557 8.47198 126.981 8.10794C127.405 7.74391 127.948 7.54745 128.507 7.55567C131.389 7.52481 134.275 7.47738 137.151 7.57852C137.931 7.55715 138.704 7.72689 139.403 8.07288C140.101 8.41886 140.704 8.93053 141.159 9.56309C141.632 10.3176 141.912 11.1767 141.975 12.0648C142.142 13.7028 142.106 15.3549 141.869 16.9842C141.613 19.498 140.673 21.894 139.151 23.9128C138.164 25.218 136.893 26.2828 135.434 27.0271C133.975 27.7714 132.366 28.1758 130.728 28.2099C130.178 28.2379 129.626 28.226 129.075 28.2151C127.096 28.1774 126.098 27.1962 126.085 25.2271C126.067 22.7574 126.081 20.2865 126.081 17.8162L126.08 17.8174ZM130.651 17.694C130.651 19.3625 130.647 21.0305 130.651 22.6991C130.653 23.9197 131.064 24.2471 132.278 23.9745C132.937 23.8041 133.555 23.5036 134.096 23.0907C134.636 22.6778 135.089 22.1609 135.426 21.5705C136.963 19.1621 137.65 16.3102 137.378 13.4677C137.301 12.3882 136.772 11.6762 135.865 11.5334C134.461 11.3084 133.033 11.2763 131.621 11.438C130.819 11.5322 130.656 11.7477 130.652 12.5608C130.644 14.2717 130.652 15.982 130.648 17.6928" fill="white"/>
<path d="M54.5513 7.65736C56.0357 7.65736 57.5201 7.6745 59.0039 7.64879C59.5638 7.63907 59.8243 7.79964 59.7951 8.40136C59.7567 9.18136 59.7619 9.96536 59.7951 10.7442C59.818 11.2951 59.609 11.4871 59.0566 11.4836C56.9786 11.4625 54.9006 11.4751 52.8225 11.4756C52.6107 11.4756 52.3978 11.4688 52.1865 11.4825C50.6134 11.5836 50.0478 12.1145 49.9934 13.6842C49.9036 16.2762 50.0719 18.8351 51.3187 21.1968C52.2289 22.9196 53.7659 24.3042 55.7335 24.1654C56.5177 24.1082 56.8383 23.8145 56.8418 23.0225C56.8486 21.6916 56.8503 20.3608 56.8418 19.0299C56.836 18.2299 56.5635 17.9625 55.7747 17.9476C55.2022 17.9368 54.6298 17.9322 54.0573 17.9476C53.6154 17.9591 53.387 17.8082 53.3973 17.3282C53.4162 16.4202 53.4122 15.5116 53.3973 14.6031C53.3916 14.1734 53.5719 13.9934 54.0041 13.9974C55.7398 14.0134 57.4875 13.8688 59.2049 14.1648C60.6875 14.4208 61.2039 14.9888 61.2915 16.8071C61.4117 19.2945 61.3585 21.7922 61.3058 24.2836C61.303 24.8562 61.1851 25.4223 60.9589 25.9485C60.7327 26.4746 60.4029 26.95 59.9891 27.3465C59.7737 27.5513 59.5179 27.7092 59.2381 27.8099C58.0417 28.3314 56.7215 28.503 55.4312 28.3048C54.458 28.1254 53.4768 28.0191 52.5117 27.7579C51.4646 27.4159 50.5031 26.854 49.6918 26.1099C47.5118 24.3414 46.4247 21.8939 45.7218 19.2745C45.3956 18.1791 45.2411 17.0399 45.2638 15.8974C45.3388 14.2974 45.0434 12.6808 45.5019 11.1071C45.6687 10.3405 46.0472 9.63595 46.5947 9.07327C47.1422 8.51059 47.8368 8.11233 48.5995 7.92364C49.2739 7.74017 49.97 7.64829 50.6689 7.6505C51.961 7.67507 53.2559 7.65736 54.5491 7.65736" fill="white"/>
<path d="M118.322 15.3528C118.322 13.01 118.337 10.6625 118.312 8.31739C118.305 7.7071 118.52 7.49796 119.126 7.51738C120.164 7.55453 121.204 7.54024 122.243 7.5231C122.708 7.51453 122.889 7.7031 122.888 8.15967C122.88 12.85 122.892 17.5397 122.869 22.2305C122.843 23.1164 122.766 24.0002 122.64 24.8774C122.594 25.5923 122.314 26.2724 121.843 26.8129C121.372 27.3533 120.736 27.7242 120.033 27.8682C119.483 28.0278 118.916 28.1236 118.345 28.154C115.869 28.2145 113.386 28.4225 110.926 27.9528C110.167 27.8756 109.459 27.5404 108.919 27.0035C108.379 26.4666 108.041 25.7607 107.961 25.0042C107.822 24.321 107.75 23.6259 107.746 22.9288C107.753 18.0907 107.753 13.2526 107.746 8.41453C107.746 7.5471 107.763 7.53339 108.641 7.5311C109.519 7.52881 110.38 7.5311 111.25 7.5311C112.211 7.5311 112.215 7.53453 112.215 8.4751C112.215 12.8061 112.215 17.1372 112.215 21.4682C112.199 21.9756 112.249 22.483 112.365 22.9774C112.42 23.2812 112.569 23.5603 112.79 23.7754C113.012 23.9906 113.296 24.1312 113.602 24.1774C114.603 24.3615 115.627 24.3837 116.636 24.2431C117.82 24.0757 118.3 23.5248 118.307 22.3237C118.322 19.9997 118.311 17.6757 118.311 15.3522H118.319" fill="white"/>
<path d="M64.0964 17.8225V10.851C64.0964 10.5768 64.0907 10.3008 64.1182 10.0282C64.2899 8.30533 65.1194 7.54075 66.8551 7.53333C69.6315 7.52133 72.4079 7.53904 75.1838 7.51847C75.7499 7.51447 75.9961 7.6859 75.9663 8.27847C75.9291 9.03675 75.9285 9.79961 75.9663 10.5585C75.9961 11.1573 75.7843 11.3853 75.1683 11.3722C73.6639 11.3408 72.1589 11.3619 70.6539 11.3625C70.4633 11.3625 70.2721 11.359 70.0815 11.3659C68.7894 11.4133 68.5673 11.6402 68.5644 12.9088C68.5644 13.4368 68.585 13.9653 68.5593 14.4922C68.5341 14.991 68.7459 15.1573 69.2336 15.1533C71.1834 15.1368 73.1327 15.1453 75.0836 15.1482C75.9062 15.1482 75.9308 15.1768 75.9343 16.011C75.9371 16.7082 75.9388 17.4048 75.9343 18.1019C75.9285 18.8722 75.8627 18.9442 75.1036 18.9459C73.1962 18.951 71.2882 18.9459 69.3791 18.9493C68.5976 18.9493 68.5662 18.9853 68.5639 19.7825C68.5604 20.8171 68.5604 21.8518 68.5639 22.8865C68.5684 23.9042 68.719 24.1436 69.7523 24.2099C71.0609 24.2956 72.3776 24.2579 73.6908 24.2705C74.2421 24.2756 74.7934 24.2819 75.3441 24.2705C75.7677 24.2619 75.9646 24.4345 75.9577 24.871C75.9434 25.7579 75.9463 26.6425 75.9577 27.5316C75.9617 27.9316 75.7934 28.1076 75.3893 28.1076C72.4646 28.099 69.5388 28.1379 66.6146 28.0802C64.9333 28.047 64.129 27.1162 64.1073 25.2968C64.0775 22.8053 64.0998 20.3133 64.0998 17.8213H64.0941" fill="white"/>
<path d="M100.385 21.1397C100.385 22.5339 100.382 23.9282 100.39 25.3231C100.39 25.4945 100.298 25.7534 100.558 25.8014C100.764 25.8397 100.892 25.6334 100.991 25.4762C101.248 24.9191 101.376 24.3113 101.366 23.6979C101.57 22.0859 101.727 20.4699 101.903 18.8551C101.903 18.759 101.923 18.6641 101.962 18.5764C102.002 18.4888 102.059 18.4106 102.131 18.3469C102.203 18.2832 102.288 18.2356 102.38 18.2071C102.472 18.1787 102.569 18.1701 102.664 18.1819C103.195 18.1854 103.726 18.1939 104.255 18.1791C104.698 18.1665 104.833 18.3797 104.852 18.7968C104.83 19.6409 104.739 20.4818 104.58 21.3111C104.408 22.7968 104.253 24.2888 104.039 25.7682C103.991 26.6215 103.637 27.4291 103.041 28.0431C102.711 28.3454 102.292 28.5353 101.847 28.5854C99.8371 28.8328 97.8254 28.6054 95.8167 28.5608C94.563 28.5328 93.824 27.5139 93.5996 26.1099C93.2561 23.9665 93.0843 21.8037 92.7775 19.6579C92.5766 18.2442 92.6161 18.1608 94.0295 18.1819C95.6089 18.2048 95.543 17.8065 95.7846 19.7928C95.9833 21.4265 96.1384 23.0654 96.3153 24.7019C96.3237 24.8073 96.3415 24.9117 96.3685 25.0139C96.4401 25.2551 96.5054 25.6288 96.7607 25.5968C97.0761 25.5574 96.9204 25.1808 96.9221 24.9591C96.9353 22.3391 96.9187 19.7197 96.945 17.0997C96.9507 16.4974 96.7624 16.2688 96.1436 16.2997C95.2339 16.3402 94.3208 16.2894 93.4089 16.3168C92.876 16.3328 92.6871 16.1157 92.714 15.6042C92.7409 15.0979 92.7409 14.5905 92.714 14.0842C92.6859 13.5699 92.8857 13.3591 93.4129 13.3734C94.3455 13.3991 95.2797 13.3557 96.2117 13.3882C96.7761 13.4077 96.9427 13.1808 96.9439 12.6454C96.8952 11.5699 96.9256 10.4924 97.0349 9.42137C97.2066 8.27851 97.7252 7.70708 98.9034 7.67737C100.684 7.63623 102.466 7.67051 104.247 7.66023C104.682 7.66023 104.862 7.84251 104.85 8.26937C104.836 8.81794 104.829 9.3688 104.854 9.9168C104.875 10.4025 104.686 10.6088 104.189 10.5979C103.299 10.5779 102.407 10.5859 101.517 10.5979C100.514 10.6099 100.389 10.7437 100.387 11.7437C100.383 13.3842 100.383 13.3842 102.038 13.3842C102.759 13.3842 103.481 13.3974 104.201 13.3808C104.652 13.3699 104.87 13.5351 104.852 14.0094C104.832 14.5808 104.836 15.1522 104.852 15.7202C104.864 16.1545 104.673 16.3254 104.243 16.3191C103.225 16.3059 102.206 16.3437 101.19 16.3059C100.593 16.2831 100.359 16.4648 100.376 17.0888C100.415 18.4397 100.388 19.7928 100.388 21.1459" fill="white"/>
<path d="M82.3108 19.6585V12.2431C82.3108 11.3825 82.2942 11.3682 81.4081 11.3665C80.3902 11.3665 79.3718 11.3545 78.3546 11.3665C77.8909 11.3734 77.7065 11.1779 77.7151 10.7219C77.7317 9.85621 77.7289 8.98935 77.7151 8.12307C77.7094 7.68821 77.9075 7.52421 78.3328 7.52592C82.5106 7.5324 86.6884 7.5324 90.8662 7.52592C91.3047 7.52592 91.4747 7.71507 91.4696 8.13735C91.4587 9.00364 91.4553 9.86992 91.4696 10.7362C91.4787 11.2042 91.2675 11.3722 90.8153 11.3648C89.7768 11.3505 88.7372 11.3579 87.6982 11.3648C86.914 11.3682 86.8727 11.4071 86.8722 12.1939C86.8699 17.1589 86.8699 22.124 86.8722 27.0894C86.8722 28.1071 86.8722 28.1082 85.8572 28.1088C84.9665 28.1088 84.0757 28.1088 83.185 28.1088C82.3314 28.1088 82.3108 28.0859 82.3103 27.2014C82.3103 24.6871 82.3108 22.1728 82.3108 19.6585Z" fill="white"/>
</svg>
