<svg width="37" height="36" viewBox="0 0 37 36" fill="#000" xmlns="http://www.w3.org/2000/svg">
<path d="M0 5.44253C1.48865 3.97618 3.02127 2.55113 4.44837 1.02747C4.757 0.678966 5.14157 0.405738 5.57251 0.228781C6.00346 0.0518245 6.46932 -0.0241492 6.93428 0.00669897C16.3653 0.0469721 25.7974 0.0299334 35.228 0.0304498C36.0773 0.0304498 36.0783 0.0304498 36.0783 0.864309V29.7659C36.0783 30.5797 36.0783 30.5797 35.2569 30.5797C33.8779 30.5797 32.4989 30.5874 31.1189 30.5647C30.7568 30.5585 30.6461 30.6679 30.6498 31.0232C30.6643 32.4818 30.6446 33.9404 30.6622 35.399C30.6674 35.8306 30.5324 36.0005 30.0792 36C20.1221 35.9904 10.1647 35.9873 0.206901 35.9907C0.139141 35.9907 0.0713808 35.9824 0.00310351 35.9778V5.44253M33.4036 15.2604V3.40719C33.4036 2.70448 33.4005 2.70293 32.6898 2.70293C24.7931 2.70052 16.8964 2.69863 8.99967 2.69725C8.29207 2.69725 8.28741 2.70138 8.28689 3.40668C8.28379 11.3092 8.28207 19.2115 8.28172 27.1136C8.28172 27.8153 8.28483 27.8178 8.9976 27.8178C16.8943 27.8178 24.791 27.8178 32.6877 27.8178C33.401 27.8178 33.4036 27.8153 33.4041 27.1141C33.4041 23.1632 33.4041 19.2121 33.4041 15.2609M2.6654 31.4176L2.79523 31.4956C3.53852 30.7593 4.26733 30.005 5.03131 29.2919C5.19994 29.141 5.33237 28.9542 5.41878 28.7452C5.50519 28.5362 5.54336 28.3105 5.53046 28.0848C5.51632 21.7616 5.51322 15.4383 5.52115 9.11513V9.01186C5.51753 8.30295 5.50666 8.28901 4.81717 8.28901C4.35785 8.28695 3.89836 8.28695 3.43869 8.28901C2.67316 8.28901 2.67212 8.28901 2.67161 9.04698C2.66954 16.3195 2.6673 23.5919 2.66488 30.8641V31.4187M5.05045 33.2258C5.27451 33.3232 5.52065 33.3589 5.76322 33.3291C12.8596 33.3315 19.9559 33.3315 27.0523 33.3291C27.1557 33.3291 27.2592 33.3208 27.3585 33.3291C27.7252 33.36 27.8871 33.2077 27.8757 32.8298C27.8592 32.2195 27.8556 31.6097 27.8757 30.9994C27.8897 30.5864 27.7014 30.48 27.3213 30.4831C20.9566 30.49 14.592 30.4919 8.22741 30.4888C8.1346 30.4735 8.03967 30.4771 7.94829 30.4994C7.85692 30.5217 7.771 30.5621 7.69568 30.6184C6.82514 31.4713 5.9603 32.329 5.04786 33.2294M5.45184 3.94623C4.90355 4.49302 4.41733 4.9732 3.93732 5.46215C3.83387 5.57007 3.85353 5.70947 4.01957 5.71618C4.44216 5.73322 4.86579 5.72703 5.2889 5.71205C5.34978 5.70602 5.40594 5.67667 5.44559 5.63016C5.48523 5.58366 5.50527 5.52362 5.50149 5.46267C5.54613 4.95715 5.52876 4.44807 5.44977 3.94675" fill="white"/>
<path d="M27.3967 17.5033C27.3967 18.6056 27.3967 19.708 27.3993 20.8077C27.3993 20.9513 27.3388 21.1625 27.5198 21.21C27.7226 21.2616 27.8695 21.1067 27.9471 20.9234C28.0637 20.6785 28.1426 20.4174 28.1809 20.1489C28.2843 19.1065 28.3847 18.0635 28.5104 17.0241C28.6137 16.564 28.6813 16.0965 28.7126 15.6259C28.7043 15.3471 28.8968 15.2036 29.1818 15.2036C29.6414 15.2036 30.1009 15.2036 30.5602 15.2036C30.8189 15.2036 30.9254 15.3146 30.897 15.5836C30.7635 16.8274 30.6477 18.0728 30.5106 19.3161C30.4346 20.0054 30.3461 20.6942 30.2308 21.3772C30.1771 21.8855 29.9747 22.3668 29.6488 22.761C29.2066 23.1931 28.6125 23.4353 27.9936 23.4358C26.8738 23.4998 25.7472 23.4828 24.6248 23.4477C23.0291 23.3961 22.3432 22.7135 22.1487 21.1299C21.949 19.5051 21.7085 17.8849 21.4902 16.2621C21.4697 16.077 21.4592 15.8911 21.4587 15.7049C21.4514 15.4297 21.5937 15.3094 21.8663 15.3048C22.3597 15.2976 22.8527 15.2805 23.3456 15.263C23.582 15.2547 23.6792 15.3729 23.7015 15.596C23.8417 16.9901 23.9963 18.3841 24.1246 19.7823C24.1859 20.149 24.292 20.5067 24.4406 20.8475C24.4815 20.9668 24.5441 21.1434 24.7086 21.0995C24.8731 21.0556 24.8208 20.8713 24.8208 20.7453C24.8255 19.5412 24.8244 18.3371 24.8244 17.131C24.8244 16.1645 24.8125 15.1974 24.8296 14.2314C24.8363 13.8415 24.6998 13.6799 24.2974 13.6908C23.5489 13.7109 22.7973 13.6789 22.0509 13.7021C21.6185 13.7156 21.4178 13.5767 21.4483 13.1228C21.4697 12.7333 21.4697 12.3429 21.4483 11.9533C21.4318 11.5754 21.6035 11.4422 21.9687 11.4479C22.7342 11.4603 23.5008 11.435 24.2653 11.4561C24.6894 11.468 24.8394 11.3012 24.827 10.8882C24.8058 10.1596 24.8596 9.4275 24.8125 8.70155C24.7699 8.48154 24.779 8.25463 24.8393 8.03875C24.8995 7.82287 25.0092 7.62392 25.1597 7.45762C25.3102 7.29133 25.4974 7.16223 25.7064 7.08053C25.9155 6.99883 26.1407 6.96676 26.3643 6.98685C27.7573 6.92489 29.1575 6.96826 30.5504 6.96362C30.8308 6.96362 30.9513 7.10509 30.9513 7.37202C30.9513 7.86408 30.9446 8.35562 30.9559 8.84716C30.9642 9.20445 30.7873 9.32062 30.4527 9.31649C29.6866 9.30668 28.9206 9.30926 28.1545 9.31649C27.5855 9.32217 27.4081 9.47139 27.405 10.0393C27.3947 11.7396 27.2162 11.421 28.7312 11.4515C29.2759 11.4623 29.8211 11.4701 30.3652 11.4515C30.8111 11.4344 30.9808 11.6281 30.958 12.0582C30.9394 12.4304 30.9394 12.8048 30.958 13.177C30.9766 13.5787 30.7956 13.713 30.4077 13.7052C29.5909 13.6882 28.7731 13.7166 27.9569 13.6944C27.5379 13.683 27.3828 13.8302 27.3879 14.2525C27.4081 15.3368 27.3947 16.4211 27.3947 17.5085" fill="white"/>
<path d="M15.9185 11.452C16.7358 11.452 17.553 11.4623 18.3698 11.4479C18.7546 11.4412 18.9388 11.5759 18.9181 11.9797C18.8965 12.3694 18.8965 12.76 18.9181 13.1497C18.9434 13.5808 18.7469 13.7078 18.3403 13.7016C17.2023 13.6851 16.0592 13.7016 14.9187 13.6934C14.6123 13.6887 14.307 13.7328 14.0145 13.824C13.8641 13.8595 13.7269 13.9373 13.6194 14.0482C13.5119 14.1591 13.4384 14.2985 13.4078 14.4498C13.3263 14.7788 13.286 15.1166 13.2878 15.4556C13.3804 16.8708 13.3804 18.316 14.2344 19.5557C14.7899 20.3632 15.424 21.0277 16.5496 20.9301C17.0058 20.8904 17.222 20.6844 17.2396 20.2873C17.2701 19.5593 17.2768 18.8282 17.2396 18.1007C17.2122 17.5327 16.9954 17.3727 16.4296 17.368C15.1949 17.3577 15.3139 17.4997 15.3128 16.2445C15.3128 15.1086 15.2094 15.2015 16.353 15.1979C17.1177 15.1785 17.8828 15.2144 18.6424 15.3053C19.3226 15.4019 19.7395 15.7901 19.7979 16.6947C19.8831 18.1512 19.8863 19.6112 19.8077 21.068C19.7954 21.3958 19.7182 21.7179 19.5806 22.0158C19.443 22.3137 19.2478 22.5815 19.0061 22.8038C18.7644 23.0261 18.4811 23.1985 18.1724 23.311C17.8638 23.4235 17.5358 23.474 17.2075 23.4596C16.3233 23.5043 15.4403 23.3501 14.6238 23.0085C13.8073 22.6668 13.0781 22.1464 12.4902 21.4857C11.7273 20.5965 11.1891 19.5377 10.9208 18.3981C10.5633 17.1431 10.4278 15.8354 10.5205 14.5339C10.687 12.5915 11.6336 11.6136 13.5671 11.4634C14.343 11.403 15.1328 11.4536 15.9159 11.4536" fill="white"/>
</svg>


