<svg width="251" height="250" viewBox="0 0 251 250" fill="none" xmlns="http://www.w3.org/2000/svg">
<path d="M163.337 20.0453C144.934 20.3623 130.741 35.4123 114.989 44.9313C91.1964 59.3093 60.6429 62.2273 40.5499 81.4403C26.7929 94.5948 19.9894 114.418 21.9244 133.353C23.8594 152.289 34.2439 170.039 49.2834 181.706C58.8729 189.144 70.1289 194.159 81.6144 198.08C93.2544 202.055 105.373 204.995 117.672 205.15C134.719 205.365 151.464 200.211 166.884 192.939C177.607 187.882 187.945 181.702 196.379 173.37C204.347 165.497 210.457 155.83 214.642 145.439C224.986 119.756 223.34 90.3248 214.373 64.1288C206.957 42.4598 188.819 19.6058 163.337 20.0453Z" fill="#1FD18E"/>
<path opacity="0.7" d="M163.337 20.0453C144.934 20.3623 130.741 35.4123 114.989 44.9313C91.1964 59.3093 60.6429 62.2273 40.5499 81.4403C26.7929 94.5948 19.9894 114.418 21.9244 133.353C23.8594 152.289 34.2439 170.039 49.2834 181.706C58.8729 189.144 70.1289 194.159 81.6144 198.08C93.2544 202.055 105.373 204.995 117.672 205.15C134.719 205.365 151.464 200.211 166.884 192.939C177.607 187.882 187.945 181.702 196.379 173.37C204.347 165.497 210.457 155.83 214.642 145.439C224.986 119.756 223.34 90.3248 214.373 64.1288C206.957 42.4598 188.819 19.6058 163.337 20.0453Z" fill="white"/>
<path opacity="0.1" d="M174.747 126.027C174.615 122.261 174.371 118.244 173.965 114.088C173.421 105.793 172.379 98.0397 170.493 93.1677C170.493 93.1672 170.493 93.1667 170.492 93.1662C170.492 93.1657 170.492 93.1647 170.492 93.1642L170.483 93.1647C160.116 91.0412 106.19 94.9757 106.151 94.9787L105.812 93.4802C105.769 93.2812 105.723 93.0822 105.677 92.8837L105.441 91.8392L105.373 91.6012C105.024 90.1922 104.63 88.7937 104.167 87.4102C104.167 87.4102 104.167 87.4102 104.167 87.4102L104.166 87.4092C104.166 87.4092 63.2864 83.7592 49.7264 87.2992V87.3012C49.7259 87.3012 49.7259 87.3012 49.7254 87.3012C49.7279 87.4202 49.7284 87.5352 49.7304 87.6537L49.7704 91.0017C49.8099 97.4772 49.6599 103.548 49.9954 110.222L49.9959 110.269C49.9939 110.269 49.9924 110.269 49.9904 110.269C49.9744 110.269 49.9029 110.272 49.7919 110.291C48.6929 110.434 47.8089 111.19 47.4614 112.186C47.3304 112.562 47.2734 112.971 47.3134 113.395L47.5084 115.475C47.5114 115.509 47.5129 115.54 47.5159 115.575C48.0159 120.885 48.5059 126.145 48.5059 126.145L48.5119 126.145C48.5289 126.154 48.7679 126.17 49.1944 126.193L51.4394 126.349C46.6609 126.793 41.4529 133.101 41.6699 138.525C41.8874 143.953 36.6709 154.169 37.9749 160.037C38.9929 164.618 44.1174 171.981 46.6264 177.576C46.5664 177.92 46.5004 178.29 46.4284 178.687L35.2334 201.161C35.9819 200.06 42.7199 229.409 74.0834 223.195L96.3879 186.856C98.5624 185.185 101.088 182.986 103.18 180.471C104.134 179.458 104.881 178.474 105.283 177.562C105.283 177.561 105.284 177.56 105.284 177.559C106.087 176.241 106.72 174.866 107.091 173.459C107.19 173.083 107.294 172.704 107.402 172.322C109.222 167.688 111.654 161.361 113.434 156.979C136.918 156.284 161.606 154.849 173.999 151.931C174.008 151.93 174.017 151.929 174.026 151.928C175.224 143.781 175.25 134.634 174.747 126.027ZM54.0589 146.561C54.0589 146.561 53.7629 144.653 53.7119 142.475C53.9859 143.914 54.2824 145.351 54.5989 146.79C54.4209 146.709 54.2419 146.628 54.0589 146.561Z" fill="black"/>
<path d="M32.6816 199.73C32.6816 199.73 42.7221 229.41 74.0856 223.196C74.0856 223.196 81.0436 190.524 86.8761 185.715C90.6376 182.613 98.9436 177.052 100.717 173.029C102.525 168.926 109.623 149.888 111.004 147.586C112.385 145.285 96.0431 118.822 96.0431 118.822L61.6236 136.581L42.4711 170.602C42.4711 170.602 38.7971 192.567 32.6816 199.73Z" fill="white"/>
<path d="M42.1345 173.217C42.1345 173.217 39.6775 191.572 31.5635 201.161" stroke="#263238" stroke-width="0.5" stroke-miterlimit="10" stroke-linecap="round" stroke-linejoin="round"/>
<path d="M74.0859 223.194C74.0859 223.194 81.0079 191.582 86.8764 185.713C86.8764 185.713 100.135 178 102.525 168.924C104.181 162.639 107.19 155.394 108.629 152.105" stroke="#263238" stroke-width="0.5" stroke-miterlimit="10" stroke-linecap="round" stroke-linejoin="round"/>
<path d="M76.8758 153.104C76.3623 152.786 84.8983 159.625 85.2298 168.924" stroke="#263238" stroke-width="0.5" stroke-miterlimit="10" stroke-linecap="round" stroke-linejoin="round"/>
<path d="M169.458 147.391C141.818 153.911 52.7981 153.036 52.7981 153.036C52.0481 151.456 51.1431 147.476 50.2681 142.866C48.5181 133.611 46.8831 121.816 46.8831 121.816L43.9381 121.611C43.9381 121.611 43.4481 116.351 42.9481 111.041C42.4531 105.731 45.4281 105.736 45.4281 105.736L45.2131 87.356L45.1581 82.766C58.7181 79.226 99.5981 82.876 99.5981 82.876L100.873 87.306L101.583 90.446L165.923 88.631C171.833 103.886 169.458 147.391 169.458 147.391Z" fill="#1FD18E"/>
<path d="M159.086 117.856L116.936 119.879C115.2 119.963 113.726 118.623 113.642 116.887L113.231 108.325C113.148 106.589 114.488 105.114 116.224 105.031L158.373 103.008C160.109 102.924 161.584 104.264 161.667 106L162.078 114.562C162.161 116.298 160.822 117.773 159.086 117.856Z" fill="#263238"/>
<path d="M162.272 123.268L162.403 124.692L113.815 126.574L113.774 125.295L162.272 123.268Z" fill="#263238"/>
<path d="M162.511 128.223L162.552 129.502L113.966 131.299L113.926 130.02L162.511 128.223Z" fill="#263238"/>
<path opacity="0.3" d="M165.924 88.6347C165.924 88.6347 173.096 122.636 169.459 147.395C169.459 147.395 124.12 152.712 108.596 151.854L107.959 143.58L109.258 143.378C109.258 143.378 102.985 96.1497 101.582 90.4467C101.582 90.4467 155.575 86.5062 165.924 88.6347Z" fill="black"/>
<path opacity="0.8" d="M106.463 143.455L107.006 149.711C107.006 149.711 61.3026 151.709 57.2861 150.259C53.2696 148.808 57.4991 146.481 68.1281 145.647C78.7566 144.812 106.463 143.455 106.463 143.455Z" fill="white"/>
<path d="M79.179 116.928C81.4858 116.928 83.356 115.236 83.356 113.15C83.356 111.063 81.4858 109.371 79.179 109.371C76.8721 109.371 75.002 111.063 75.002 113.15C75.002 115.236 76.8721 116.928 79.179 116.928Z" fill="#263238"/>
<path d="M46.8828 121.813C47.9338 132.812 49.6993 142.429 52.7968 153.037C72.1813 152.871 91.5623 152.653 110.939 152.034C130.317 151.414 150.236 150.107 169.459 147.393C169.459 147.393 172.901 117.013 165.924 88.6322C158.216 87.0282 101.796 90.4382 101.796 90.4382" stroke="#263238" stroke-width="0.5" stroke-miterlimit="10" stroke-linecap="round" stroke-linejoin="round"/>
<path d="M106.464 143.454L107.007 149.71L63.5243 150.713C61.7287 150.866 58.9357 151.101 57.2862 150.258C56.5327 149.872 55.9927 148.93 56.3472 148.162C56.6667 147.471 57.5112 147.228 58.2577 147.074C63.5792 145.981 69.0078 145.518 74.4253 145.118C86.0198 144.262 97.6347 143.68 109.257 143.375C109.016 143.382 106.177 119.981 105.863 117.823C104.633 109.37 103.462 100.887 101.944 92.48C101.357 89.2285 100.649 86.014 99.5982 82.876C81.6787 81.5955 62.9662 80.409 45.1562 82.767C45.3187 90.703 45.0262 97.7855 45.4282 105.734" stroke="#263238" stroke-width="0.5" stroke-miterlimit="10" stroke-linecap="round" stroke-linejoin="round"/>
<path d="M52.1305 150.681C52.1305 150.681 51.983 150.296 51.9385 149.703" stroke="#263238" stroke-width="0.5" stroke-linecap="round" stroke-linejoin="round"/>
<path d="M52.2285 147.785C52.895 146.12 54.891 144.243 60.313 143.64C70.208 142.54 91.781 140.562 104.433 140.078" stroke="#263238" stroke-width="0.5" stroke-linecap="round" stroke-linejoin="round" stroke-dasharray="1.96 1.96"/>
<path d="M105.412 140.044C105.753 140.033 106.086 140.023 106.411 140.014C106.365 139.683 106.32 139.352 106.274 139.021" stroke="#263238" stroke-width="0.5" stroke-linecap="round" stroke-linejoin="round"/>
<path d="M106.01 137.096C103.734 120.727 101.215 104.482 98.3281 88.207" stroke="#263238" stroke-width="0.5" stroke-linecap="round" stroke-linejoin="round" stroke-dasharray="1.94 1.94"/>
<path d="M98.1583 87.2529C98.0998 86.9239 98.0408 86.5954 97.9823 86.2664C97.9823 86.2664 97.6338 86.2399 96.9873 86.1934" stroke="#263238" stroke-width="0.5" stroke-linecap="round" stroke-linejoin="round"/>
<path d="M94.9606 86.054C86.6466 85.498 63.0006 84.1165 47.2246 85.1955" stroke="#263238" stroke-width="0.5" stroke-linecap="round" stroke-linejoin="round" stroke-dasharray="2.03 2.03"/>
<path d="M46.2055 85.2695C45.8695 85.2955 45.538 85.3225 45.21 85.3505" stroke="#263238" stroke-width="0.5" stroke-linecap="round" stroke-linejoin="round"/>
<path d="M43.9416 121.61L42.7471 108.861C42.5956 107.246 43.8121 105.828 45.4311 105.735C52.7801 105.31 71.7911 104.312 79.0881 104.896C82.5921 105.176 86.3911 106.299 88.0986 109.65C89.5051 112.41 89.7181 116.551 87.3496 118.821C83.7491 122.27 76.9231 122.005 72.2801 122.169C63.6321 122.474 43.9486 121.683 43.9416 121.61Z" stroke="#263238" stroke-width="0.5" stroke-miterlimit="10" stroke-linecap="round" stroke-linejoin="round"/>
<path d="M89.1423 113.819C89.1573 113.463 90.9598 121.142 84.3093 123.676C77.6588 126.209 46.8828 125.414 46.8828 125.414V121.815C46.8828 121.815 68.6573 122.271 72.2788 122.17C75.9003 122.07 88.7498 123.279 89.1423 113.819Z" fill="#263238"/>
<path d="M82.7441 156.719C82.7441 156.719 88.1821 159.905 90.2211 165.886" stroke="#263238" stroke-width="0.5" stroke-miterlimit="10" stroke-linecap="round" stroke-linejoin="round"/>
<path d="M42.8926 107.653C42.8926 107.653 69.5741 106.399 76.3621 106.625C83.1501 106.852 86.4776 108.343 87.1556 112.599C87.8336 116.855 83.7156 119.524 80.4351 119.976C77.1541 120.428 43.9396 120.622 43.9396 120.622" stroke="#263238" stroke-width="0.5" stroke-miterlimit="10" stroke-linecap="round" stroke-linejoin="round" stroke-dasharray="2 2"/>
<path d="M61.2254 159.203C61.2254 159.203 57.0959 144.858 49.4884 142.032C49.4884 142.032 47.9669 132.242 51.2274 131.703C54.4874 131.165 63.6164 125.134 61.2254 117.608C58.8344 110.082 51.6619 121.384 46.8804 121.819C42.0989 122.253 36.8824 128.568 37.0999 133.996C37.3174 139.424 32.1009 149.639 33.4049 155.507C34.7089 161.376 42.7509 171.808 43.4029 177.242" fill="white"/>
<path d="M61.2254 159.203C61.2254 159.203 57.0959 144.858 49.4884 142.032C49.4884 142.032 47.9669 132.242 51.2274 131.703C54.4874 131.165 63.6164 125.134 61.2254 117.608C58.8344 110.082 51.6619 121.384 46.8804 121.819C42.0989 122.253 36.8824 128.568 37.0999 133.996C37.3174 139.424 32.1009 149.639 33.4049 155.507C34.7089 161.376 42.7509 171.808 43.4029 177.242" stroke="#263238" stroke-width="0.5" stroke-miterlimit="10" stroke-linecap="round" stroke-linejoin="round"/>
<path d="M51.2207 119.609C51.2207 119.609 56.9452 120.649 60.0587 117.018C63.1722 113.387 59.5872 113.152 59.5872 113.152L51.2207 119.609Z" fill="white" stroke="#263238" stroke-width="0.5" stroke-miterlimit="10" stroke-linecap="round" stroke-linejoin="round"/>
<path d="M40.9961 127.709C42.0371 127.777 43.0591 128.112 43.9381 128.674" stroke="#263238" stroke-width="0.5" stroke-miterlimit="10" stroke-linecap="round" stroke-linejoin="round"/>
<path d="M40.8252 129.789C41.8597 129.885 42.8647 130.283 43.6847 130.921" stroke="#263238" stroke-width="0.5" stroke-miterlimit="10" stroke-linecap="round" stroke-linejoin="round"/>
<path d="M56.2773 149.004C56.2773 149.004 80.7908 147.739 87.2303 148.106" stroke="#263238" stroke-width="0.5" stroke-miterlimit="10" stroke-linecap="round" stroke-linejoin="round"/>
<path d="M81.2646 146.239C81.2646 146.239 87.4301 145.759 91.2721 146.239" stroke="#263238" stroke-width="0.5" stroke-miterlimit="10" stroke-linecap="round" stroke-linejoin="round"/>
<path d="M96.8848 148.039H106.864" stroke="#263238" stroke-width="0.5" stroke-miterlimit="10" stroke-linecap="round" stroke-linejoin="round"/>
<path d="M102.918 93.2459C102.918 93.2459 146.733 89.3344 164.338 91.5679C164.338 91.5679 169.088 100.302 168.057 145.077C168.057 145.077 139.559 149.005 108.415 149.511" stroke="#263238" stroke-width="0.5" stroke-miterlimit="10" stroke-linecap="round" stroke-linejoin="round" stroke-dasharray="2 2"/>
<g opacity="0.1">
<path d="M221.525 155.194C220.281 149.9 218.456 147.91 216.629 146.38C216.629 146.38 216.586 143.369 214.241 141.669C213.646 141.137 212.954 140.646 212.224 140.177C210.022 138.526 207.595 136.657 207.595 136.657C206.455 133.357 204.912 129.362 203.244 125.432L203.328 126.326C201.619 122.152 199.943 117.994 199.472 116.616C199.469 116.607 199.465 116.596 199.462 116.587C199.949 117.916 200.467 119.198 201.015 120.386L194.75 98.2601C194.601 97.3691 194.45 96.4931 194.292 95.6501C193.995 93.1616 193.175 88.4381 191.211 88.1076C191.139 88.0931 191.066 88.0851 190.992 88.0856C190.992 88.0856 188.679 87.0821 188.679 91.1911C185.923 92.1091 184.858 94.1671 184.591 96.6366C184.461 97.3461 184.429 98.1256 184.545 98.9846C184.592 99.8891 184.7 100.815 184.836 101.735L176.005 90.1091L175.143 88.9751L164.205 74.5741L149.489 55.2026C147.186 52.1746 142.866 51.5816 139.838 53.8841L121.595 67.7491L114.467 73.1611C109 76.0066 110.428 81.6271 111.943 83.6211L143.776 125.527C143.463 125.493 143.283 125.503 143.283 125.503C143.283 125.503 142.372 123.356 140.122 123.698C139.672 123.713 139.222 123.854 138.781 124.143C138.419 124.327 138.126 124.606 137.889 124.957C137.661 125.229 137.437 125.543 137.219 125.914C136.071 127.877 137.131 132.671 138.787 138.529C138.892 138.907 138.996 139.271 139.096 139.614C139.101 139.631 139.107 139.651 139.112 139.669C139.251 140.151 139.393 140.638 139.537 141.131C141.157 146.753 144.189 157.787 144.747 163.195C144.787 163.719 144.812 164.23 144.824 164.731C144.861 170.96 142.094 181.394 143.283 185.7C143.439 186.266 143.597 186.809 143.76 187.341C144.643 190.222 145.435 192.946 146.824 195.654C148.515 198.95 150.53 202.117 152.413 205.311C155.874 211.184 159.456 216.986 163.155 222.711C164.856 225.345 166.853 227.742 168.783 230.223C169.665 231.356 171.598 233.064 171.934 234.519C171.934 234.519 189.048 235.934 198.63 229.847L197.727 216.229L204.151 179.301C205.986 176.52 211.631 171.077 212.785 169.356C213.366 168.501 213.937 167.654 214.491 166.82C218.718 162.878 220.835 159.8 221.762 156.265C221.761 156.263 221.695 155.859 221.525 155.194ZM161.592 162.42C161.591 162.418 161.59 162.413 161.589 162.411C161.59 162.415 161.592 162.419 161.594 162.423C161.594 162.423 161.592 162.421 161.592 162.42ZM162.276 163.263L162.193 163.099C162.981 163.481 164.879 164.262 167.685 164.7C165.699 164.469 163.444 164.152 162.276 163.263ZM169.485 164.916H169.483C169.782 164.941 170.089 164.962 170.403 164.978C170.127 164.98 169.822 164.962 169.485 164.916ZM162.086 162.885L160.938 160.604C159.335 156.013 155.721 145.194 155.706 145.15C155.706 145.149 155.706 145.148 155.705 145.147C155.703 145.135 154.762 140.684 152.885 136.022C154.556 136.606 156.478 136.37 157.993 135.219L166.741 128.574C167.645 129.119 168.572 129.608 169.478 130.039L177.67 136.446L171.171 163.162L162.086 162.885ZM195.259 101.354V101.353C195.935 104.547 197.014 109.135 198.435 113.581C197.363 110.377 196.032 106.032 195.259 101.354Z" fill="black"/>
<path d="M158.121 229.727L158.174 229.963C158.174 229.963 158.156 229.877 158.121 229.727Z" fill="black"/>
</g>
<path d="M188.506 102.337C189.025 102.005 196.336 98.0168 199.992 109.981C203.648 121.945 207.968 142.307 207.968 142.307L199.25 144.014C199.25 144.014 191.172 139.715 183.932 128.947C183.932 128.947 173.782 126.316 169.363 120.065C165.346 114.384 177.704 93.5312 177.704 93.5312L188.506 102.337Z" fill="white"/>
<path d="M185.36 117.227C187.522 120.467 191.612 127.282 197.132 129.429" stroke="#263238" stroke-width="0.5" stroke-miterlimit="10" stroke-linecap="round" stroke-linejoin="round"/>
<path d="M179.25 120.715C180.27 121.119 182.774 122.556 183.932 122.611C183.932 122.611 189.026 132.698 197.439 135.971" stroke="#263238" stroke-width="0.5" stroke-miterlimit="10" stroke-linecap="round" stroke-linejoin="round"/>
<path d="M174.576 124.426C177.704 127.042 181.425 128.828 183.932 128.947C183.932 128.947 189.026 139.033 197.439 142.307" stroke="#263238" stroke-width="0.5" stroke-miterlimit="10" stroke-linecap="round" stroke-linejoin="round"/>
<path d="M193.28 110.592L165.631 131.595C163.23 133.419 159.806 132.951 157.983 130.551L119.579 79.9962C117.756 77.5957 118.223 74.1717 120.624 72.3482L148.273 51.3447C150.674 49.5212 154.098 49.9887 155.921 52.3892L194.325 102.944C196.149 105.344 195.681 108.768 193.28 110.592Z" fill="#263238"/>
<path d="M192.482 109.503L167.111 128.78C164.077 131.083 159.763 130.496 157.46 127.462L120.786 79.1811C120.174 78.3736 119.764 77.4716 119.556 76.5381C118.97 73.9896 119.884 71.2206 122.105 69.5361L129.233 64.1241L147.475 50.2591C150.503 47.9566 154.824 48.5496 157.126 51.5776L171.843 70.9491L182.781 85.3501L193.801 99.8581C196.103 102.886 195.51 107.207 192.482 109.503Z" fill="#1FD18E"/>
<path opacity="0.1" d="M171.84 70.9491L129.23 64.1241L147.473 50.2591C150.501 47.9566 154.822 48.5496 157.124 51.5776L171.84 70.9491Z" fill="black"/>
<path opacity="0.1" d="M192.481 109.504L167.111 128.781C164.077 131.084 159.762 130.497 157.46 127.463L120.786 79.1821C120.174 78.3746 119.764 77.4726 119.556 76.5391L183.641 86.4856L193.8 99.8596C196.102 102.887 195.509 107.208 192.481 109.504Z" fill="black"/>
<path d="M158.989 65.5454L154.507 68.9504C153.611 69.6309 152.332 69.4564 151.652 68.5604L146.226 61.4174C145.545 60.5214 145.72 59.2429 146.616 58.5624L151.098 55.1574C151.994 54.4764 153.273 54.6514 153.953 55.5474L159.379 62.6904C160.06 63.5864 159.885 64.8649 158.989 65.5454Z" fill="white" stroke="#263238" stroke-width="0.5" stroke-miterlimit="10" stroke-linecap="round" stroke-linejoin="round"/>
<path d="M148.953 56.7852L156.687 67.2932" stroke="#263238" stroke-width="0.5" stroke-miterlimit="10" stroke-linecap="round" stroke-linejoin="round"/>
<path d="M148.953 65.0085L156.687 59.1465" stroke="#263238" stroke-width="0.5" stroke-miterlimit="10" stroke-linecap="round" stroke-linejoin="round"/>
<path d="M163.931 125.632L162.613 126.604L146.509 105.403L147.815 104.412L163.931 125.632Z" fill="#263238"/>
<path d="M166.164 123.979L164.846 124.957L148.723 103.724L150.022 102.734L166.164 123.979Z" fill="#263238"/>
<path d="M168.396 122.335L167.078 123.307L150.93 102.049L152.235 101.059L168.396 122.335Z" fill="#263238"/>
<path d="M170.631 120.679L169.313 121.65L153.379 100.67L154.678 99.6797L170.631 120.679Z" fill="#263238"/>
<path d="M173.039 118.902L171.721 119.873L155.762 98.8611L157.067 97.8711L173.039 118.902Z" fill="#263238"/>
<path d="M173.039 94.1789L171.721 95.1504L155.762 74.1384L157.067 73.1484L173.039 94.1789Z" fill="#263238"/>
<path d="M138.282 57.3065L136.24 58.8574L181.216 118.064L183.257 116.513L138.282 57.3065Z" fill="#263238"/>
<path d="M192.482 109.503L167.111 128.78C164.077 131.083 159.763 130.496 157.46 127.462L120.786 79.1811C120.174 78.3736 119.764 77.4716 119.556 76.5381C118.97 73.9896 119.884 71.2206 122.105 69.5361L129.233 64.1241L147.475 50.2591C150.503 47.9566 154.824 48.5496 157.126 51.5776L171.843 70.9491L182.781 85.3501L193.801 99.8581C196.103 102.886 195.51 107.207 192.482 109.503Z" stroke="#263238" stroke-width="0.5" stroke-miterlimit="10" stroke-linecap="round" stroke-linejoin="round"/>
<path d="M171.934 234.518C171.934 234.518 201.463 245.025 210.397 222.144C210.397 222.144 196.422 205.156 204.052 191.256C208.854 182.508 222.129 163.192 222.129 163.192C222.129 163.192 227.672 157.927 229.4 152.636C229.4 152.636 228.45 146.744 224.268 142.753C224.268 142.753 224.225 139.743 221.88 138.042C219.534 136.342 215.235 133.031 215.235 133.031C215.235 133.031 208.164 116.069 207.111 112.989C206.059 109.909 203.955 104.125 202.898 97.7276C201.841 91.3301 200.869 84.4381 198.63 84.4596C198.63 84.4596 196.318 83.4561 196.318 87.5651C196.318 87.5651 191.471 90.0606 192.183 95.3536C192.895 100.647 193.558 103.376 193.369 106.356C193.18 109.336 194.133 119.662 196.525 122.9C196.525 122.9 197.324 137.402 198.52 141.178C198.556 141.294 198.593 141.399 198.63 141.494C199.887 144.686 187.297 157.019 180.483 160.32C180.483 160.32 179.771 161.653 177.125 161.289C174.479 160.926 170.003 160.754 169.231 158.794C168.46 156.833 163.345 141.521 163.345 141.521C163.345 141.521 159.2 121.874 150.921 121.875C150.921 121.875 149.661 118.872 146.419 120.515C143.177 122.157 145.3 131.095 146.734 135.985C148.169 140.876 151.804 153.732 152.394 159.647C152.985 165.563 149.634 177.409 150.921 182.071C152.207 186.732 153.577 189.878 157.598 197.508C161.62 205.139 170.52 227.866 171.934 234.518Z" fill="white"/>
<path d="M171.933 234.52C171.933 234.52 165.613 210.727 156.321 195.346C147.028 179.966 152.476 174.518 152.476 161.701C152.476 148.884 142.043 127.095 144.856 122.288C147.669 117.482 151.514 121.327 153.117 125.813C154.719 130.299 152.476 132.862 147.99 133.183" stroke="#263238" stroke-width="0.5" stroke-miterlimit="10" stroke-linecap="round" stroke-linejoin="round"/>
<path d="M150.92 121.877C150.92 121.877 156.312 121.551 159.629 130.176C162.946 138.801 168.253 160.694 173.782 167.329" stroke="#263238" stroke-width="0.5" stroke-miterlimit="10" stroke-linecap="round" stroke-linejoin="round"/>
<path d="M169.419 159.25C169.45 159.319 177.141 163.608 189.083 159.849" stroke="#263238" stroke-width="0.5" stroke-miterlimit="10" stroke-linecap="round" stroke-linejoin="round"/>
<path d="M151.941 147.192C153.119 145.715 155.13 144.952 156.991 145.277" stroke="#263238" stroke-width="0.5" stroke-miterlimit="10" stroke-linecap="round" stroke-linejoin="round"/>
<path d="M152.969 149.907C153.981 148.656 155.756 148.079 157.31 148.495" stroke="#263238" stroke-width="0.5" stroke-miterlimit="10" stroke-linecap="round" stroke-linejoin="round"/>
<path d="M196.316 87.5664C188.466 90.1809 194.307 102.035 193.368 106.357C192.428 110.679 194.871 118.966 196.75 123.456C196.75 128.718 198.629 141.495 198.629 141.495C197.469 145.557 187.789 157.54 178.384 161.291" stroke="#263238" stroke-width="0.5" stroke-miterlimit="10" stroke-linecap="round" stroke-linejoin="round"/>
<path d="M202.076 93.5344C202.076 93.5344 201.494 84.4609 198.629 84.4609C195.764 84.4609 195.937 90.5754 197.133 95.1124C198.328 99.6489 202.949 98.9784 202.076 93.5344Z" stroke="#263238" stroke-width="0.5" stroke-miterlimit="10" stroke-linecap="round" stroke-linejoin="round"/>
<path d="M202.075 93.5352C202.075 93.5352 204.516 107.802 208.652 116.762" stroke="#263238" stroke-width="0.5" stroke-miterlimit="10" stroke-linecap="round" stroke-linejoin="round"/>
<path d="M213.526 150.168C215.524 146.93 216.412 143.865 217.153 139.965C216.965 137.521 214.161 129.537 210.883 121.807" stroke="#263238" stroke-width="0.5" stroke-miterlimit="10" stroke-linecap="round" stroke-linejoin="round"/>
<path d="M215.488 133.781C218.731 136.223 224.378 138.096 223.724 142.308C223.11 146.259 221.581 150.418 219.374 154.25" stroke="#263238" stroke-width="0.5" stroke-miterlimit="10" stroke-linecap="round" stroke-linejoin="round"/>
<path d="M211.117 223.197C211.117 223.197 199.813 207.501 202.077 196.662C203.742 188.687 214.45 174.744 222.129 163.193C226.357 159.25 228.473 156.173 229.4 152.637C228.042 145.962 225.846 144.016 223.726 142.309" stroke="#263238" stroke-width="0.5" stroke-miterlimit="10" stroke-linecap="round" stroke-linejoin="round"/>
<path d="M214.133 136.372C211.625 135.653 208.821 136.035 206.597 137.399" stroke="#263238" stroke-width="0.5" stroke-miterlimit="10" stroke-linecap="round" stroke-linejoin="round"/>
<path d="M213.513 139.059C211.99 138.821 210.391 139.102 209.041 139.845" stroke="#263238" stroke-width="0.5" stroke-miterlimit="10" stroke-linecap="round" stroke-linejoin="round"/>
</svg>
