<svg width="251" height="250" viewBox="0 0 251 250" fill="none" xmlns="http://www.w3.org/2000/svg">
<path d="M124.643 235.167C184.76 235.167 233.494 206.25 233.494 170.579C233.494 134.908 184.76 105.99 124.643 105.99C64.5262 105.99 15.792 134.908 15.792 170.579C15.792 206.25 64.5262 235.167 124.643 235.167Z" fill="#F5F5F5"/>
<path d="M148.104 154.162L82.7792 191.897C81.9827 192.302 81.0407 192.302 80.2442 191.897L72.4742 187.627C71.7742 187.222 71.7742 186.567 72.4742 186.167L137.819 148.427C138.616 148.022 139.558 148.022 140.354 148.427L148.104 152.697C148.804 153.127 148.804 153.757 148.104 154.162Z" fill="#E0E0E0"/>
<path d="M167.145 214.156C181.376 214.156 192.912 207.888 192.912 200.156C192.912 192.424 181.376 186.156 167.145 186.156C152.914 186.156 141.378 192.424 141.378 200.156C141.378 207.888 152.914 214.156 167.145 214.156Z" fill="#E0E0E0"/>
<path d="M201.937 163.88C207.978 163.88 212.875 161.219 212.875 157.937C212.875 154.655 207.978 151.994 201.937 151.994C195.896 151.994 190.999 154.655 190.999 157.937C190.999 161.219 195.896 163.88 201.937 163.88Z" fill="#E0E0E0"/>
<path d="M45.1036 170.579C54.7131 170.579 62.5031 166.346 62.5031 161.125C62.5031 155.904 54.7131 151.672 45.1036 151.672C35.4941 151.672 27.7041 155.904 27.7041 161.125C27.7041 166.346 35.4941 170.579 45.1036 170.579Z" fill="#E0E0E0"/>
<path d="M187.442 32.5361L190.812 34.4811V31.8061C190.812 30.2521 192.084 29.715 193.638 30.612L193.755 30.6801C194.439 31.0746 195.067 31.6835 195.557 32.3745C195.644 29.756 197.849 28.872 200.538 30.4245L200.746 30.5451C203.49 32.1291 205.734 35.6711 205.734 38.4145V43.0941L208.846 44.8901C210.164 45.6511 211.242 47.3525 211.242 48.6705C211.242 49.9886 210.164 50.4445 208.846 49.6835L204.702 47.2915C204.701 47.2925 204.7 47.2931 204.699 47.2941L196.584 42.6086C196.583 42.607 196.582 42.6055 196.582 42.604L187.442 37.3286C186.124 36.5676 185.046 34.866 185.046 33.548C185.046 32.231 186.124 31.7751 187.442 32.5361Z" fill="#E0E0E0"/>
<path d="M211.286 27.524L213.61 28.8655V27.0205C213.61 25.9485 214.487 25.578 215.559 26.197L215.64 26.244C216.111 26.516 216.545 26.9365 216.883 27.4125C216.943 25.6065 218.463 24.997 220.318 26.0675L220.461 26.1505C222.354 27.243 223.902 29.686 223.902 31.5785V34.806L226.048 36.045C226.957 36.57 227.701 37.743 227.701 38.6525C227.701 39.5615 226.957 39.876 226.048 39.351L223.19 37.7015C223.189 37.702 223.188 37.703 223.188 37.703L217.591 34.4715C217.59 34.4705 217.59 34.4695 217.589 34.4685L211.286 30.83C210.377 30.305 209.633 29.132 209.633 28.2225C209.633 27.3135 210.377 26.999 211.286 27.524Z" fill="#E0E0E0"/>
<path d="M39.8714 101.08C40.7699 100.989 41.6754 101.152 42.4864 101.55C44.0564 102.31 45.3564 103.52 46.7514 104.55C48.1464 105.58 49.7514 106.55 51.4814 106.595C53.2114 106.64 55.1064 105.565 55.4214 103.85C55.4419 103.547 55.5179 103.25 55.6464 102.975C56.0024 102.523 56.6169 102.365 57.1464 102.59C57.6509 102.819 58.1314 103.097 58.5814 103.42C60.3464 104.46 62.5814 104.225 64.5814 103.92C66.2664 103.675 68.3964 102.92 68.3914 101.225C68.3914 100.115 67.3914 99.2899 66.6514 98.4849C65.9114 97.6799 65.2614 96.3849 65.9614 95.5199C66.2299 95.2279 66.5774 95.0194 66.9614 94.9199C69.0714 94.2349 71.6564 95.1499 73.4614 93.8299C74.7814 92.8299 75.0914 90.8299 74.3964 89.3649C73.6184 87.8869 72.2279 86.8274 70.5964 86.4699C69.1814 86.1099 67.3814 85.9449 66.8514 84.5799C66.3914 83.3849 67.3214 82.0799 68.3514 81.3599C69.3814 80.6399 70.6664 80.1099 71.3964 79.0599C72.1294 77.9164 72.1679 76.4604 71.4964 75.2799C70.8049 74.1264 69.6459 73.3309 68.3214 73.0999C67.6619 73.0504 67.0119 72.9089 66.3914 72.6799C65.8014 72.3799 65.3564 71.6349 65.6764 71.0549C65.8664 70.7049 66.2714 70.5249 66.5014 70.1999C66.9464 69.5749 66.5614 68.6449 65.9314 68.1999C65.2579 67.8194 64.5319 67.5414 63.7764 67.3749C62.2464 66.8749 60.7764 65.3749 61.2164 63.8349C61.6564 62.2949 63.8864 61.7049 64.5364 60.1549C65.1164 58.7899 64.2014 57.1899 62.9714 56.3549C61.7414 55.5199 60.2114 55.2049 58.8714 54.5699C57.5314 53.9349 56.2314 52.8149 56.1214 51.3299C56.0114 49.8449 57.1464 48.5349 58.0764 47.3299C59.0064 46.1249 59.7914 44.4349 58.9814 43.1499C58.1714 41.8649 56.4814 41.8399 55.0764 41.3949C53.3604 40.8394 51.9619 39.5794 51.2314 37.9299C50.8614 37.0699 50.6814 36.1349 50.2314 35.3149C48.8714 32.7599 45.3714 31.6449 42.6814 31.9549C41.2714 32.1449 40.8014 32.6449 40.1164 33.6949C39.7214 34.3099 39.3164 34.6199 39.1764 35.4649C38.9714 36.6999 39.6264 38.2649 38.4614 39.2099C36.6914 40.6399 33.9614 38.7099 34.0814 41.9149C34.0794 43.2704 34.2799 44.6184 34.6764 45.9149C35.1764 47.2599 36.1214 47.8399 35.3214 49.3499C34.2814 51.2999 33.6014 51.2899 31.5214 51.2849C30.0214 51.2849 28.7564 51.1999 27.6514 52.3449C25.7064 54.3449 26.8614 56.1699 28.5864 57.7199C30.5514 59.4799 29.5114 60.2549 29.2564 62.5349C29.1314 63.6349 29.3814 63.9699 28.4014 64.6999C26.5414 66.0799 25.5064 65.6149 26.0264 68.3149C26.5264 70.7799 25.7664 69.9349 23.6314 70.8549C21.7364 71.6699 20.4864 73.7099 18.9514 74.9799C17.9514 75.7999 16.4514 76.4299 16.3714 77.8649C16.1914 80.6149 19.6114 80.0149 21.2364 80.6699C23.8914 81.7449 23.1014 85.2249 21.0264 86.5299C18.8314 87.9049 15.6314 88.4199 15.4564 91.5649C15.3214 93.9799 16.6914 94.5149 18.5664 95.3199C20.0664 95.9649 19.8714 96.1549 19.8664 97.9399C19.8664 101.54 21.0764 102.56 24.6264 101.97C25.5964 101.81 27.0814 101.4 28.0514 101.69C29.4064 102.1 28.9514 102.435 28.9864 103.57C29.0864 106.475 32.4864 105.655 33.9014 104.41C35.5514 102.965 37.6264 101.3 39.8714 101.08Z" fill="#1FD18E"/>
<path opacity="0.15" d="M66.9264 94.9501C68.5464 94.4251 70.4264 94.8351 72.0464 94.4501C71.1024 94.2286 70.1429 94.0781 69.1764 94.0001C66.8589 93.8986 64.6084 94.7921 62.9914 96.4551C63.8404 97.5011 64.2824 98.8186 64.2364 100.165C60.2364 101.255 56.2364 95.8651 52.4264 97.5051C52.6614 99.4501 52.4264 102.065 50.5414 102.505C49.4264 102.755 48.3064 102.005 47.6164 101.1C46.9264 100.195 46.5014 99.1001 45.8064 98.1901C43.7919 95.7521 40.2574 95.2376 37.6314 97.0001C36.5914 97.7551 35.2914 98.8951 34.2564 98.1401C33.1414 97.3351 33.8214 95.1401 32.5914 94.5351C31.7714 94.1251 30.6264 94.7701 29.9414 94.1701C29.6874 93.8921 29.5234 93.5431 29.4714 93.1701C28.9714 91.1151 28.5614 88.7401 29.8564 87.0701C31.0064 85.5701 33.4414 84.6701 33.1814 82.8101C32.9564 81.2201 30.9364 80.7351 29.3364 80.5501C27.7364 80.3651 25.7214 79.6151 25.8014 78.0101C25.8814 76.4051 28.0164 75.6751 28.3314 74.1301C28.4614 73.4701 28.2414 72.7351 28.5414 72.1301C28.9964 71.2251 30.2964 71.1901 31.0414 70.5201C32.4064 69.3101 31.3464 67.0501 31.7314 65.2701C32.0064 64.0101 33.0264 63.0201 33.3614 61.7701C34.0414 59.2701 31.7764 56.9201 29.4114 55.9051C28.4779 55.5766 27.5799 55.1546 26.7314 54.6451L26.6464 54.5801C26.7014 55.7051 27.5364 56.7501 28.5864 57.6901C30.5514 59.4501 29.5114 60.2251 29.2564 62.5051C29.1314 63.6051 29.3814 63.9401 28.4014 64.6701C26.5414 66.0501 25.5064 65.5851 26.0264 68.2851C26.5264 70.7501 25.7664 69.9051 23.6314 70.8251C21.7364 71.6401 20.4864 73.6801 18.9514 74.9501C17.9514 75.7701 16.4514 76.4001 16.3714 77.8351C16.1914 80.5851 19.6114 79.9851 21.2364 80.6401C23.8914 81.7151 23.1014 85.1951 21.0264 86.5001C18.8314 87.8751 15.6314 88.3901 15.4564 91.5351C15.3214 93.9501 16.6914 94.4851 18.5664 95.2901C20.0664 95.9351 19.8714 96.1251 19.8664 97.9101C19.8664 101.51 21.0764 102.53 24.6264 101.94C25.5964 101.78 27.0814 101.37 28.0514 101.66C29.4064 102.07 28.9514 102.405 28.9864 103.54C29.0864 106.445 32.4864 105.625 33.9014 104.38C35.5514 102.95 37.6264 101.285 39.8664 101.065C40.7649 100.975 41.6704 101.138 42.4814 101.535C44.0514 102.295 45.3514 103.505 46.7464 104.535C48.1414 105.565 49.7464 106.535 51.4764 106.58C53.2064 106.625 55.1014 105.55 55.4164 103.835C55.4369 103.532 55.5129 103.236 55.6414 102.96C55.9974 102.508 56.6119 102.35 57.1414 102.575C57.6459 102.804 58.1264 103.082 58.5764 103.405C60.3414 104.445 62.5764 104.21 64.5764 103.905C66.2614 103.66 68.3914 102.905 68.3864 101.21C68.3864 100.1 67.3864 99.2751 66.6464 98.4701C65.9064 97.6651 65.2564 96.3701 65.9564 95.5051C66.2224 95.2346 66.5579 95.0426 66.9264 94.9501Z" fill="black"/>
<path d="M32.8711 67.5451L43.8011 89.2151V79.2451L44.9161 53.3301L46.5311 79.2451V85.9501L58.5311 64.9501L46.5311 90.7301V162.85C46.5071 163.094 46.3546 163.306 46.1311 163.405C45.5241 163.71 44.8081 163.71 44.2011 163.405C43.9776 163.306 43.8251 163.094 43.8011 162.85V94.7451L32.8711 67.5451Z" fill="#455A64"/>
<path d="M204.278 71.2607C201.257 69.5232 198.53 69.4612 196.566 70.7802L192.739 72.9747C190.38 74.0867 188.916 76.9122 188.985 81.0262V82.7017C189.101 89.6072 198.945 108.712 200.165 111.054C200.031 111.199 199.945 111.291 199.945 111.291L200.209 111.139C200.26 111.238 200.288 111.291 200.288 111.291C200.288 111.291 200.526 111.088 200.924 110.727L204.278 108.792C204.278 108.792 215.108 99.8642 215.108 92.5297V90.8542C215.108 83.4847 210.26 74.7147 204.278 71.2607ZM199.773 80.0167C203.005 82.0487 205.074 85.5002 205.343 89.3082C205.35 89.7297 205.32 90.1207 205.257 90.4807C204.939 90.3642 204.613 90.2162 204.279 90.0222C201.09 87.9327 199.087 84.4487 198.888 80.6412H198.86C198.86 80.2812 198.893 79.9492 198.944 79.6347C199.214 79.7382 199.49 79.8592 199.773 80.0167Z" fill="#1FD18E"/>
<path opacity="0.2" d="M188.984 82.7013C189.108 90.0633 200.288 111.29 200.288 111.29C200.288 111.29 210.974 102.212 210.857 94.8498V93.1743C210.734 85.8123 205.741 77.1183 199.698 73.7668C193.654 70.4153 188.861 73.6568 188.985 81.0258L188.984 82.7013ZM194.41 83.2368C194.355 79.8033 196.758 78.3403 199.773 80.0158C203.005 82.0478 205.074 85.4993 205.343 89.3073C205.405 92.7408 203.001 94.2038 199.979 92.5283C196.751 90.4928 194.684 87.0433 194.41 83.2368Z" fill="black"/>
<path d="M137.913 29.11L85.8629 59.408C84.3129 60.3105 83.3594 61.9685 83.3594 63.7625V185.955C83.3594 187.382 84.9074 188.273 86.1414 187.554L137.578 157.614C139.167 156.689 140.144 154.989 140.144 153.151V30.393C140.144 29.248 138.902 28.534 137.913 29.11Z" fill="#455A64"/>
<path d="M140.145 30.3915V30.554C140.145 30.4575 140.14 30.366 140.135 30.2695C140.145 30.31 140.145 30.3505 140.145 30.3915Z" fill="#37474F"/>
<path d="M136.357 46.5136L87.4548 74.9491C86.3028 75.6191 85.5938 76.8511 85.5938 78.1836V169.254C85.5938 169.953 86.3508 170.388 86.9548 170.037L136.289 141.351C137.18 140.832 137.729 139.879 137.729 138.848V47.3026C137.729 46.5986 136.966 46.1601 136.357 46.5136Z" fill="white"/>
<path d="M86.1391 187.555C86.0571 187.602 85.9736 187.642 85.8896 187.676C85.9731 187.634 86.0576 187.602 86.1391 187.555Z" fill="#37474F"/>
<path d="M140.114 30.076C139.905 29.12 138.807 28.591 137.912 29.11L85.8646 59.4075C85.1526 59.8245 84.5626 60.399 84.1406 61.0755C83.6371 61.864 83.3576 62.7945 83.3576 63.7605V185.953C83.3576 187.285 84.7101 188.15 85.8901 187.677C83.0066 189.101 79.2691 186.746 79.2691 186.746C75.8161 184.839 76.0706 181.376 76.0706 181.376V59.1835C76.0706 58.2985 76.3046 57.4445 76.7266 56.702C77.1591 55.939 77.7896 55.2885 78.5726 54.8305L130.625 24.533C130.625 24.533 132.751 23.1905 136.458 25.535C136.458 25.535 139.763 27.2995 140.114 30.076Z" fill="#263238"/>
<path d="M140.114 30.0775C139.906 29.1215 138.807 28.5925 137.912 29.1115L85.8651 59.409C85.1531 59.826 84.5631 60.4005 84.1411 61.077L76.7266 56.7039C77.1591 55.9409 77.7896 55.2905 78.5726 54.8325L130.625 24.535C130.625 24.535 132.751 23.1925 136.458 25.537C136.458 25.537 139.763 27.301 140.114 30.0775Z" fill="#37474F"/>
<path d="M104.897 59.3027C104.897 60.3822 104.022 61.7627 102.943 62.3857C101.863 63.0092 100.988 62.6392 100.988 61.5597C100.988 60.4802 101.863 59.0997 102.943 58.4767C104.022 57.8532 104.897 58.2232 104.897 59.3027Z" fill="#37474F"/>
<path d="M115.17 162.785C115.17 164.728 113.595 167.212 111.653 168.333C109.71 169.455 108.136 168.789 108.136 166.847C108.136 164.904 109.711 162.42 111.653 161.299C113.596 160.177 115.17 160.843 115.17 162.785Z" fill="#37474F"/>
<path d="M77.8711 80.1433C77.8711 81.0778 78.6286 82.2733 79.5636 82.8128C80.4981 83.3523 81.2561 83.0323 81.2561 82.0973C81.2561 81.1628 80.4986 79.9673 79.5636 79.4278C78.6286 78.8888 77.8711 79.2088 77.8711 80.1433Z" fill="#455A64"/>
<path d="M77.8711 91.5537C77.8711 92.4882 78.6286 93.6837 79.5636 94.2232C80.4981 94.7627 81.2561 94.4427 81.2561 93.5077C81.2561 92.5727 80.4986 91.3777 79.5636 90.8382C78.6286 90.2987 77.8711 90.6192 77.8711 91.5537Z" fill="#455A64"/>
<path d="M112.558 49.2714C112.558 49.7714 112.153 50.4114 111.652 50.7004C111.152 50.9894 110.746 50.8179 110.746 50.3174C110.746 49.8174 111.152 49.1774 111.652 48.8884C112.153 48.5994 112.558 48.7709 112.558 49.2714Z" fill="#37474F"/>
<path d="M108.696 58.5554L120.887 51.4584C121.544 51.0759 121.949 50.3729 121.949 49.6124C121.949 48.8849 121.16 48.4314 120.531 48.7974L108.34 55.8944C107.683 56.2769 107.278 56.9799 107.278 57.7404C107.278 58.4674 108.067 58.9214 108.696 58.5554Z" fill="#37474F"/>
<path d="M99.7907 67.7754V90.3479C99.7907 91.3669 99.4592 92.3549 98.8402 93.1614L85.5967 110.456V78.1859C85.5967 76.8479 86.3032 75.6159 87.4537 74.9469L99.7907 67.7754Z" fill="#E0E0E0"/>
<path d="M104.434 90.191L118.972 81.738C119.924 81.1845 120.51 80.166 120.51 79.065V55.7285L103.036 65.889V89.387C103.036 90.104 103.814 90.5515 104.434 90.191Z" fill="#E0E0E0"/>
<path d="M120.512 86.2379V99.7024C120.512 100.275 120.207 100.804 119.712 101.092L110.447 106.481C110.016 106.732 109.751 107.193 109.751 107.692V116.452C109.751 117.056 109.429 117.615 108.906 117.919L103.804 120.883C103.463 121.082 103.035 120.835 103.035 120.441V96.4759C103.035 95.7169 103.439 95.0154 104.095 94.6339L119.518 85.6669C119.959 85.4104 120.512 85.7284 120.512 86.2379Z" fill="#E0E0E0"/>
<path d="M112.272 107.724L119.96 103.25C120.205 103.107 120.513 103.284 120.513 103.568V110.407C120.513 110.879 120.262 111.315 119.853 111.553L112.346 115.917C112.08 116.071 111.746 115.879 111.746 115.572V108.639C111.746 108.262 111.946 107.914 112.272 107.724Z" fill="#E0E0E0"/>
<path d="M112.272 120.878L119.96 116.404C120.205 116.261 120.513 116.438 120.513 116.722V123.561C120.513 124.033 120.262 124.469 119.853 124.707L112.346 129.071C112.08 129.225 111.746 129.033 111.746 128.726V121.793C111.746 121.416 111.946 121.068 112.272 120.878Z" fill="#E0E0E0"/>
<path d="M112.272 131.359L119.96 126.884C120.205 126.742 120.513 126.918 120.513 127.202V138.212C120.513 138.684 120.262 139.12 119.853 139.358L112.346 143.722C112.08 143.876 111.746 143.684 111.746 143.377V132.274C111.746 131.897 111.946 131.549 112.272 131.359Z" fill="#E0E0E0"/>
<path d="M122.407 143.361V149.423L104.242 159.984V153.807C104.242 153.088 104.631 152.426 105.258 152.076L121.661 142.923C121.995 142.737 122.407 142.979 122.407 143.361Z" fill="#E0E0E0"/>
<path d="M99.7907 98.9391V127.583C99.7907 128.427 99.3407 129.209 98.6087 129.634L85.5967 137.2V116.291L99.0712 98.6956C99.3032 98.3886 99.7907 98.5511 99.7907 98.9391Z" fill="#E0E0E0"/>
<path d="M137.733 47.3035V60.7905L125.117 67.9855C124.637 68.2595 124.039 67.9125 124.039 67.359V53.675L136.36 46.5135C136.969 46.16 137.733 46.5995 137.733 47.3035Z" fill="#E0E0E0"/>
<path d="M137.733 69.2031V101.146L124.833 108.64C124.481 108.844 124.039 108.59 124.039 108.183V83.7256C124.039 82.8676 124.389 82.0461 125.007 81.4511L137.733 69.2031Z" fill="#E0E0E0"/>
<path d="M137.73 62.6895L124.733 70.7235C124.302 70.99 124.039 71.4615 124.039 71.969V77.109C124.039 77.494 124.501 77.692 124.78 77.4265L137.733 65.108L137.73 62.6895Z" fill="#E0E0E0"/>
<path d="M109.752 123.421V143.982C109.752 144.722 109.359 145.407 108.719 145.779L92.8823 154.982C92.5508 155.176 92.1318 154.938 92.1318 154.551V138.669C92.1318 138.194 92.3883 137.75 92.7948 137.512L102.374 131.928C102.786 131.691 103.037 131.247 103.037 130.771V126.932C103.037 126.438 103.299 125.988 103.725 125.738L108.728 122.831C109.182 122.567 109.752 122.896 109.752 123.421Z" fill="#E0E0E0"/>
<path d="M100.786 155.933V161.998L86.9547 170.039C86.3542 170.389 85.5977 169.951 85.5977 169.251V141.707L87.3422 140.688C87.6737 140.501 88.0862 140.738 88.0862 141.12V160.384C88.0862 160.953 88.6992 161.316 89.1992 161.041L99.5977 155.238C100.129 154.938 100.786 155.326 100.786 155.933Z" fill="#E0E0E0"/>
<path d="M137.733 106.055V137.681L126.103 144.49C125.54 144.822 124.833 144.415 124.833 143.765V114.821C124.833 114.045 125.246 113.333 125.915 112.939L137.733 106.055Z" fill="#E0E0E0"/>
<path d="M90.3516 157.933H89.8516V137.628C89.8516 137.081 90.1421 136.566 90.6106 136.284L100.974 130.034C101.281 129.848 101.472 129.51 101.472 129.151V94.7643C101.472 94.0598 101.847 93.3978 102.451 93.0358L121.08 81.8558C121.745 81.4568 122.158 80.7268 122.158 79.9508V69.7383H122.658V79.9508C122.658 80.9013 122.151 81.7953 121.336 82.2843L102.707 93.4643C102.254 93.7363 101.971 94.2348 101.971 94.7643V129.151C101.971 129.684 101.688 130.186 101.232 130.461L90.8681 136.711C90.5496 136.904 90.3516 137.255 90.3516 137.627V157.933Z" fill="#1FD18E"/>
<path opacity="0.4" d="M90.3516 157.933H89.8516V137.628C89.8516 137.081 90.1421 136.566 90.6106 136.284L100.974 130.034C101.281 129.848 101.472 129.51 101.472 129.151V94.7643C101.472 94.0598 101.847 93.3978 102.451 93.0358L121.08 81.8558C121.745 81.4568 122.158 80.7268 122.158 79.9508V69.7383H122.658V79.9508C122.658 80.9013 122.151 81.7953 121.336 82.2843L102.707 93.4643C102.254 93.7363 101.971 94.2348 101.971 94.7643V129.151C101.971 129.684 101.688 130.186 101.232 130.461L90.8681 136.711C90.5496 136.904 90.3516 137.255 90.3516 137.627V157.933Z" fill="black"/>
<path d="M91.453 156.999C91.453 157.746 90.848 158.7 90.1015 159.131C89.355 159.562 88.75 159.306 88.75 158.56C88.75 157.814 89.355 156.859 90.1015 156.428C90.848 155.997 91.453 156.253 91.453 156.999Z" fill="#1FD18E"/>
<path d="M123.713 68.9582C123.713 69.7047 123.108 70.6592 122.361 71.0902C121.615 71.5212 121.01 71.2652 121.01 70.5187C121.01 69.7722 121.615 68.8177 122.361 68.3867C123.108 67.9562 123.713 68.2122 123.713 68.9582Z" fill="#1FD18E"/>
<path d="M126.684 61.1271L126.683 61.1276C127.268 60.2076 127.66 59.2351 127.765 58.3261C128.047 55.8911 126.168 54.8281 123.571 55.9521C120.973 57.0761 118.631 59.9661 118.349 62.4011C118.244 63.3106 118.442 64.0276 118.865 64.5111L118.863 64.5121L118.895 64.5416C118.974 64.6271 119.06 64.7041 119.153 64.7736L121.876 67.2281C122.054 67.3881 122.456 67.2141 122.691 66.8751L126.281 61.7076C126.421 61.5181 126.557 61.3266 126.681 61.1316L126.684 61.1271ZM123.318 58.1376C124.63 57.5701 125.575 58.1051 125.433 59.3346C125.29 60.5646 124.115 62.0171 122.803 62.5851C121.491 63.1526 120.546 62.6176 120.688 61.3881C120.831 60.1581 122.006 58.7056 123.318 58.1376Z" fill="#1FD18E"/>
<path d="M110.734 124.681L105.725 127.557C105.449 127.716 105.278 128.011 105.278 128.33V133.871C105.278 134.026 105.447 134.124 105.582 134.046L107.283 133.069L107.875 134.06C107.911 134.121 108.003 134.11 108.024 134.042L108.567 132.332L110.553 131.191C110.887 131 111.092 130.644 111.092 130.259V124.888C111.092 124.704 110.893 124.589 110.734 124.681Z" fill="#1FD18E"/>
<path d="M106.855 130.49V131.075L106.548 131.252V130.672L105.896 129.97L106.225 129.78L106.711 130.308L107.201 129.217L107.504 129.041L106.855 130.49Z" fill="white"/>
<path d="M107.759 130.486C107.656 130.49 107.576 130.459 107.518 130.394C107.461 130.328 107.432 130.233 107.432 130.108C107.432 129.983 107.461 129.855 107.518 129.725C107.575 129.593 107.656 129.471 107.759 129.356C107.861 129.241 107.976 129.147 108.104 129.073C108.234 128.999 108.35 128.959 108.453 128.955C108.555 128.951 108.635 128.982 108.693 129.046C108.75 129.111 108.779 129.206 108.779 129.331C108.779 129.455 108.75 129.584 108.693 129.715C108.635 129.847 108.555 129.971 108.453 130.085C108.35 130.2 108.234 130.295 108.104 130.369C107.976 130.443 107.861 130.482 107.759 130.486ZM108.374 129.851C108.446 129.737 108.481 129.621 108.481 129.503C108.481 129.384 108.446 129.309 108.374 129.278C108.303 129.246 108.213 129.262 108.104 129.324C107.996 129.387 107.906 129.476 107.836 129.589C107.765 129.702 107.73 129.818 107.73 129.936C107.73 130.055 107.765 130.13 107.836 130.162C107.906 130.195 107.996 130.178 108.104 130.116C108.213 130.052 108.303 129.964 108.374 129.851Z" fill="white"/>
<path d="M110.287 127.826V129.091L110.006 129.254V129.093C109.958 129.177 109.899 129.255 109.828 129.327C109.757 129.398 109.681 129.458 109.598 129.506C109.43 129.603 109.297 129.633 109.199 129.595C109.102 129.558 109.054 129.446 109.054 129.261V128.539L109.35 128.367V129.05C109.35 129.163 109.375 129.234 109.427 129.26C109.478 129.287 109.551 129.272 109.646 129.218C109.751 129.157 109.835 129.075 109.898 128.974C109.96 128.873 109.991 128.761 109.991 128.637V127.997L110.287 127.826Z" fill="white"/>
<path d="M179.83 192.795C179.83 192.795 180.025 193.058 180.068 193.673C180.111 194.287 180.153 196.044 180.068 196.472C179.982 196.901 179.049 197.529 177.901 197.401C176.754 197.272 175.954 196.387 175.383 195.516C174.811 194.644 172.312 191.645 171.855 190.917C171.398 190.188 170.692 188.271 171.577 187.481C172.323 186.815 175.111 188.332 175.854 189.174C176.597 190.016 179.83 192.795 179.83 192.795Z" fill="#263238"/>
<path d="M167.955 201.612C167.955 201.612 168.31 202.105 168.512 203.011C168.692 203.816 168.98 205.747 168.829 206.326C168.756 206.606 167.755 207.317 166.769 207.374C166.183 207.408 165.48 207.43 164.913 207.448C164.489 207.462 164.076 207.567 163.699 207.76C163.016 208.111 161.796 208.709 160.557 209.181C158.686 209.895 156.229 210.167 155.044 209.924C153.858 209.681 152.475 208.945 151.917 208.196C151.658 207.85 151.736 207.176 151.971 206.981C153.418 205.775 155.815 205.182 157.301 204.563C159.805 203.52 162.718 201.732 163.085 201.441C163.451 201.152 167.955 201.612 167.955 201.612Z" fill="#263238"/>
<path d="M167.956 198.865V201.611C167.956 201.611 167.239 202.656 165.487 202.739C163.992 202.81 163.217 201.827 163.085 201.441C163.085 201.441 163.228 199.665 163.152 198.865H167.956Z" fill="#FFA8A7"/>
<path d="M179.829 191.136V192.793C179.829 192.793 179.584 193.662 177.927 193.715C176.634 193.756 175.893 193.085 175.893 193.085L175.547 190.652L179.829 191.136Z" fill="#FFA8A7"/>
<path d="M157.78 140.407C157.78 140.407 158.368 166.605 159.127 171.388C159.648 174.672 163.126 199.558 163.126 199.558C165.73 200.931 168.037 199.515 168.037 199.515C168.037 199.515 168.043 198.641 168.155 197.215C168.267 195.783 169.36 183.635 169.248 179.065C169.136 174.489 167.711 171.325 167.711 171.325L169.252 148.735L169.967 148.825C169.967 148.825 169.93 151.236 170.228 155.515C170.228 155.515 170.798 164.14 170.999 165.835C171.38 168.995 173.496 180.502 174.119 183.554C174.678 186.285 175.588 191.336 175.588 191.336C176.925 192.667 179.835 191.618 179.835 191.618C179.835 191.618 179.98 188.187 180.131 186.095C180.287 183.997 180.92 174.597 180.664 172.122C180.307 168.682 178.902 165.374 179.029 164.497C179.762 159.432 179.829 137.871 179.829 137.871L157.78 140.407Z" fill="#1FD18E"/>
<path opacity="0.4" d="M157.78 140.407C157.78 140.407 158.368 166.605 159.127 171.388C159.648 174.672 163.126 199.558 163.126 199.558C165.73 200.931 168.037 199.515 168.037 199.515C168.037 199.515 168.043 198.641 168.155 197.215C168.267 195.783 169.36 183.635 169.248 179.065C169.136 174.489 167.711 171.325 167.711 171.325L169.252 148.735L169.967 148.825C169.967 148.825 169.93 151.236 170.228 155.515C170.228 155.515 170.798 164.14 170.999 165.835C171.38 168.995 173.496 180.502 174.119 183.554C174.678 186.285 175.588 191.336 175.588 191.336C176.925 192.667 179.835 191.618 179.835 191.618C179.835 191.618 179.98 188.187 180.131 186.095C180.287 183.997 180.92 174.597 180.664 172.122C180.307 168.682 178.902 165.374 179.029 164.497C179.762 159.432 179.829 137.871 179.829 137.871L157.78 140.407Z" fill="black"/>
<path opacity="0.4" d="M169.25 148.733L169.967 148.824C169.967 148.824 169.924 151.387 170.245 155.935C170.245 155.935 170.384 158.107 170.555 160.536L171.727 148.953C175.071 147.123 177.302 143.961 177.302 143.961C172.551 147.602 169.249 148.728 169.249 148.728L169.25 148.733Z" fill="black"/>
<path d="M181.118 109.311C180.014 107.753 178.358 107.301 178.358 107.301L179.237 133.964C179.237 133.964 185.716 131.065 185.937 129.343C186.133 127.814 182.321 111.008 181.118 109.311Z" fill="#37474F"/>
<path d="M159.348 94.8481C159.319 93.7431 159.319 92.3246 159.35 91.8181C159.478 89.8451 160.069 89.0596 160.069 89.0596C162.487 85.9041 171.334 86.6136 171.964 88.3876C172.588 90.1431 173.828 99.8561 171.098 101.583C171.377 103.097 172.162 106.797 172.162 106.797C169.953 108.803 165.335 108.16 165.335 108.16C165.473 107.483 164.853 104.782 164.517 103.405C162.624 103.632 160.983 103.603 160.448 103.206C160.443 103.206 160.443 103.206 160.438 103.201C160.396 103.168 160.358 103.13 160.33 103.092C159.919 102.511 159.628 100.286 159.469 97.6136C158.967 97.6796 158.194 97.7466 158.095 97.5486C157.985 97.3286 158.886 95.6721 159.348 94.8481Z" fill="#FFA8A7"/>
<path d="M164.413 95.031C164.413 95.031 164.164 93.294 165.891 93.133C167.618 92.972 168.712 95.19 167.855 96.8165C166.997 98.443 165.891 98.545 165.891 98.545C165.891 98.545 165.675 100.423 165.873 101.776C165.963 102.393 166.509 102.835 167.132 102.817C168.38 102.78 170.628 102.595 172.291 101.784C174.716 100.601 176.371 98.147 177.288 94.6575C178.205 91.168 178.353 87.886 175.78 87.7675C175.78 87.7675 175.756 86.79 177.2 86.4075C177.2 86.4075 175.593 85.668 174.903 87.0085C174.903 87.0085 174.726 84.446 172.163 83.677C169.6 82.908 166.427 84.0515 163.667 84.6625C160.907 85.2735 157.269 84.956 156.953 85.3505C156.638 85.745 155.28 93.479 162.974 93.1185C162.973 93.1185 163.329 95.0015 164.413 95.031Z" fill="#263238"/>
<path d="M160.449 103.208C160.984 103.605 162.626 103.633 164.518 103.406C164.518 103.406 165.2 102.995 165.536 102.389C165.379 102.455 162.361 103.761 160.449 103.208Z" fill="#F28F8F"/>
<path d="M157.719 122.145V140.494C157.719 140.494 164.274 143.077 170.481 142.162C176.683 141.247 179.966 137.79 179.966 137.79C179.966 137.79 180.244 113.58 179.798 110.639C179.352 107.692 177.365 106.308 175.848 105.972C174.331 105.636 172.05 106.267 172.05 106.267C168.865 108.097 165.438 107.784 165.438 107.784C163.689 108.364 161.782 109.264 160.186 109.884C155.658 111.645 157.719 122.145 157.719 122.145Z" fill="#1FD18E"/>
<path opacity="0.4" d="M157.719 122.145V140.494C157.719 140.494 164.274 143.077 170.481 142.162C176.683 141.247 179.966 137.79 179.966 137.79C179.966 137.79 180.244 113.58 179.798 110.639C179.352 107.692 177.365 106.308 175.848 105.972C174.331 105.636 172.05 106.267 172.05 106.267C168.865 108.097 165.438 107.784 165.438 107.784C163.689 108.364 161.782 109.264 160.186 109.884C155.658 111.645 157.719 122.145 157.719 122.145Z" fill="white"/>
<path d="M145.65 120.911L141.467 108.337L148.125 104.633L148.656 104.757L152.308 117.206L145.65 120.911Z" fill="#37474F"/>
<path d="M146.181 121.034L141.998 108.46L148.656 104.756L152.839 117.33L146.181 121.034Z" fill="#455A64"/>
<path d="M146.327 119.751L142.879 109.369L148.612 106.143L152.059 116.525L146.327 119.751Z" fill="white"/>
<path d="M142.642 111.44C142.642 111.44 142.964 111.192 143.113 112.083C143.261 112.974 144.103 116.142 145.637 117.157C145.637 117.157 145.971 117.293 145.984 116.996C145.996 116.699 146.021 115.722 146.318 114.942C146.615 114.162 147.407 113.63 147.778 113.766C148.15 113.902 147.741 115.326 147.778 115.87C147.815 116.415 148.546 117.677 148.583 118.259C148.62 118.84 148.521 119.286 148.583 119.533C148.645 119.781 150.328 121.601 150.328 121.601L147.073 125.721C147.073 125.721 144.957 122.912 144.412 122.355C143.867 121.798 142.914 120.709 142.642 119.719C142.37 118.729 141.838 116.328 141.813 115.474C141.788 114.62 141.776 111.712 142.642 111.44Z" fill="#FFA8A7"/>
<path d="M161.477 109.336L163.605 109.039C163.605 109.039 165.288 109.138 164.892 114.188C164.496 119.237 159.463 132.899 158.209 134.558C156.526 136.786 154.595 135.429 154.199 134.917C153.803 134.404 149.621 129.682 147.071 125.722C147.071 125.722 147.665 121.985 150.536 121.564L153.902 125.005C153.902 125.005 154.931 121.15 156.012 117.01C156.986 113.28 158.012 110.128 161.477 109.336Z" fill="#37474F"/>
</svg>
