<svg width="221" height="220" viewBox="0 0 221 220" fill="none" xmlns="http://www.w3.org/2000/svg">
<path d="M39.0116 200.241C-0.470021 177.446 -0.470021 140.488 39.0116 117.694C78.4933 94.899 142.506 94.899 181.989 117.694C221.471 140.488 221.471 177.446 181.989 200.241C142.506 223.035 78.4933 223.035 39.0116 200.241Z" fill="#FAFAFA"/>
<path d="M65.3169 202.866C73.11 202.866 79.4277 199.218 79.4277 194.719C79.4277 190.219 73.11 186.572 65.3169 186.572C57.5237 186.572 51.2061 190.219 51.2061 194.719C51.2061 199.218 57.5237 202.866 65.3169 202.866Z" fill="#E0E0E0"/>
<path d="M83.2564 207.877C82.6176 208.246 81.5818 208.246 80.9425 207.877L67.904 200.342C67.2651 199.973 67.2651 199.375 67.904 199.006L130.189 163.037C130.827 162.668 131.863 162.668 132.503 163.037L145.542 170.572C146.18 170.941 146.183 171.543 145.547 171.917L83.2564 207.877Z" fill="#E0E0E0"/>
<path d="M204.183 86.77C203.483 85.7972 202.634 85.2608 201.877 85.2098L198.055 73.2488C198.285 73.1278 198.493 72.9457 198.666 72.6935C199.513 71.4527 199.208 69.0679 197.983 67.3665C196.759 65.665 195.079 65.2914 194.231 66.5322C193.383 67.773 193.688 70.1578 194.913 71.8593C195.613 72.8321 196.462 73.3685 197.219 73.4195L201.041 85.3805C200.811 85.5015 200.603 85.6837 200.431 85.9358C200.259 86.1879 200.137 86.4889 200.057 86.8197L191.573 81.6823C191.518 80.6043 191.12 79.4084 190.42 78.4355C189.195 76.7341 187.515 76.3605 186.667 77.6013C185.819 78.8421 186.125 81.2269 187.35 82.9284C188.574 84.6299 190.254 85.0034 191.102 83.7626C191.274 83.5105 191.396 83.2095 191.475 82.8787L199.959 88.0161C200.015 89.0941 200.413 90.29 201.113 91.2629C202.337 92.9643 204.017 93.3379 204.865 92.0971C205.714 90.8563 205.408 88.4715 204.183 86.77Z" fill="#E0E0E0"/>
<path d="M21.0566 170.467C21.629 169.651 22.3224 169.201 22.9415 169.158L26.0655 159.122C25.8772 159.02 25.7074 158.867 25.567 158.656C24.874 157.615 25.1235 155.613 26.1245 154.186C27.1255 152.758 28.4987 152.445 29.1917 153.486C29.8847 154.527 29.6348 156.528 28.6338 157.956C28.0614 158.772 27.3679 159.222 26.7488 159.265L23.6248 169.301C23.8127 169.402 23.9826 169.555 24.1234 169.767C24.2642 169.978 24.364 170.231 24.4287 170.508L31.3644 166.198C31.4098 165.293 31.7354 164.29 32.3078 163.474C33.3088 162.046 34.682 161.733 35.375 162.774C36.068 163.815 35.8181 165.816 34.8171 167.244C33.8161 168.671 32.4429 168.985 31.7499 167.944C31.6091 167.732 31.5092 167.479 31.4445 167.202L24.5088 171.512C24.4635 172.417 24.1379 173.42 23.5654 174.236C22.5644 175.664 21.1912 175.978 20.4982 174.937C19.8056 173.896 20.0556 171.895 21.0566 170.467Z" fill="#E0E0E0"/>
<path d="M146.736 26.9424C148.319 27.8563 149.602 26.8861 149.602 24.7759C149.602 22.6656 148.318 20.214 146.736 19.3005C145.153 18.3866 143.87 19.3564 143.87 21.4671C143.87 23.5769 145.153 26.0286 146.736 26.9424ZM151.708 34.6248C151.418 32.6426 150.216 30.6516 148.824 29.8482L144.648 27.437C143.257 26.6336 142.055 27.2364 141.764 28.8828L141.252 31.7829C141.151 32.3575 141.513 33.1632 141.999 33.4434L151.473 38.9135C151.958 39.1938 152.321 38.8062 152.219 38.1149L151.708 34.6248ZM153.691 28.86C154.828 29.5164 155.75 28.8195 155.75 27.3028C155.75 25.7866 154.828 24.0248 153.691 23.3683C152.553 22.7114 151.632 23.4088 151.632 24.9255C151.632 26.4417 152.553 28.203 153.691 28.86ZM157.562 36.4376L157.266 34.0242C157.053 32.6105 156.191 31.1766 155.191 30.5993L152.19 28.867C151.339 28.3755 150.594 28.6122 150.264 29.4148C151.723 30.6538 152.643 32.6404 153.09 34.8136L157.024 37.0774C157.599 37.4087 157.679 37.2569 157.562 36.4376Z" fill="#E0E0E0"/>
<path d="M192.976 168.083C194.559 167.169 195.842 164.718 195.842 162.608C195.842 160.497 194.559 159.527 192.976 160.441C191.394 161.355 190.11 163.806 190.11 165.916C190.11 168.027 191.394 168.997 192.976 168.083ZM186.021 170.001C187.158 169.344 188.08 167.583 188.08 166.066C188.08 164.55 187.158 163.852 186.021 164.509C184.884 165.166 183.962 166.928 183.962 168.444C183.962 169.96 184.884 170.657 186.021 170.001ZM198.46 172.923L197.948 170.023C197.658 168.377 196.455 167.775 195.064 168.578L190.888 170.989C189.496 171.792 188.294 173.783 188.004 175.765L187.493 179.255C187.391 179.947 187.753 180.334 188.239 180.054L197.713 174.584C198.199 174.304 198.561 173.498 198.46 172.923ZM189.447 170.555C189.117 169.753 188.373 169.516 187.521 170.008L184.52 171.74C183.52 172.318 182.658 173.752 182.446 175.165L182.15 177.579C182.033 178.398 182.112 178.55 182.687 178.218L186.621 175.954C187.069 173.781 187.989 171.794 189.447 170.555Z" fill="#E0E0E0"/>
<path d="M40.0965 84.2083C39.8281 83.5333 39.312 83.0027 38.6427 82.7145C37.9739 82.4259 37.2339 82.4149 36.5593 82.6837C35.5249 83.0947 34.9718 84.2224 34.8829 85.1574L34.8222 85.7941L34.3413 85.373C33.8547 84.9466 33.0974 84.5511 32.3002 84.5511C32.0252 84.5511 31.7449 84.5981 31.4699 84.7077C30.7945 84.9757 30.2643 85.4918 29.9756 86.161C29.6874 86.8303 29.676 87.5703 29.9444 88.2457C31.0048 90.9113 34.3871 91.5611 35.6604 91.8058L37.3698 92.134L38.3858 90.7225C39.1443 89.6687 41.1569 86.8738 40.0965 84.2083Z" fill="#E0E0E0"/>
<path d="M58.3566 195.298C54.6338 191.457 52.447 181.477 56.0783 178.43H74.5543C78.1848 181.476 76.0002 191.45 72.2795 195.295C72.2478 195.33 72.2109 195.365 72.1774 195.4C72.1348 195.443 72.0921 195.486 72.0494 195.527C71.9442 195.63 71.8329 195.731 71.7128 195.83C71.6833 195.854 71.6534 195.876 71.6239 195.901C71.5328 195.973 71.4426 196.045 71.3432 196.115C71.1844 196.229 71.0242 196.335 70.8618 196.426C67.7994 198.215 62.834 198.215 59.7721 196.426H59.7716H59.7712C59.6075 196.334 59.4465 196.228 59.2868 196.113C59.1939 196.048 59.1108 195.981 59.025 195.913C58.9884 195.884 58.9515 195.857 58.915 195.826C58.7992 195.731 58.6919 195.633 58.5902 195.534C58.5405 195.487 58.4912 195.437 58.4424 195.388C58.4142 195.358 58.3834 195.329 58.3566 195.298Z" fill="#37474F"/>
<path d="M72.9498 177.203C77.1655 179.664 77.1655 183.655 72.9498 186.116C68.7342 188.577 61.8988 188.577 57.6832 186.116C53.4675 183.654 53.4675 179.664 57.6836 177.203C61.8992 174.741 68.7342 174.741 72.9498 177.203Z" fill="#455A64"/>
<path d="M70.9218 178.387C74.0176 180.194 74.0176 183.125 70.9218 184.932C67.8259 186.74 62.8064 186.74 59.7106 184.932C56.6147 183.125 56.6147 180.194 59.7106 178.386C62.8068 176.579 67.8264 176.579 70.9218 178.387Z" fill="#263238"/>
<path d="M59.712 181.493C62.8079 179.686 67.8274 179.686 70.9232 181.493C71.7834 181.995 72.395 182.586 72.7778 183.213C72.3955 183.84 71.7834 184.43 70.9232 184.932C67.8274 186.74 62.8079 186.74 59.712 184.932C58.8518 184.43 58.2398 183.84 57.8574 183.213C58.2393 182.585 58.8518 181.995 59.712 181.493Z" fill="#FAFAFA"/>
<path d="M64.0752 156.854C62.6593 158.388 58.7239 158.81 57.0946 154.665C55.5665 150.776 53.9169 147.091 53.4466 145.664C52.9762 144.237 54.3873 143.766 54.3873 143.766C54.3873 143.766 54.4995 141.631 58.1198 143.078C61.7032 144.51 64.2939 146.722 65.8717 150.275C67.4276 153.777 66.4983 156.376 64.0752 156.854Z" fill="#1FD18E"/>
<path opacity="0.45" d="M64.0752 156.854C62.6593 158.388 58.7239 158.81 57.0946 154.665C55.5665 150.776 53.9169 147.091 53.4466 145.664C52.9762 144.237 54.3873 143.766 54.3873 143.766C54.3873 143.766 54.4995 141.631 58.1198 143.078C61.7032 144.51 64.2939 146.722 65.8717 150.275C67.4276 153.777 66.4983 156.376 64.0752 156.854Z" fill="white"/>
<path d="M65.6411 162.334C65.5729 161.609 65.4765 160.886 65.3274 160.172C65.0304 158.753 64.6256 157.362 64.1266 156.002C63.1107 153.229 61.693 150.628 59.9312 148.258C58.9408 146.926 57.8584 145.643 56.6343 144.518C56.5973 144.484 56.5683 144.567 56.5934 144.593C58.6099 146.763 60.3818 149.096 61.7572 151.727C63.0957 154.287 64.109 156.999 64.7444 159.818C64.9221 160.605 65.0915 161.397 65.2363 162.191C65.3837 162.998 65.4673 163.814 65.6033 164.622C65.6169 164.703 65.7419 164.753 65.7489 164.643C65.7947 163.877 65.7124 163.097 65.6411 162.334Z" fill="#1FD18E"/>
<path opacity="0.3" d="M65.6411 162.334C65.5729 161.609 65.4765 160.886 65.3274 160.172C65.0304 158.753 64.6256 157.362 64.1266 156.002C63.1107 153.229 61.693 150.628 59.9312 148.258C58.9408 146.926 57.8584 145.643 56.6343 144.518C56.5973 144.484 56.5683 144.567 56.5934 144.593C58.6099 146.763 60.3818 149.096 61.7572 151.727C63.0957 154.287 64.109 156.999 64.7444 159.818C64.9221 160.605 65.0915 161.397 65.2363 162.191C65.3837 162.998 65.4673 163.814 65.6033 164.622C65.6169 164.703 65.7419 164.753 65.7489 164.643C65.7947 163.877 65.7124 163.097 65.6411 162.334Z" fill="black"/>
<path d="M66.851 155.779C63.5999 156.784 61.1843 154.246 62.0203 150.267C62.8563 146.287 67.0367 141.869 68.6159 143.056C69.6015 142.07 71.7742 142.424 72.7963 145.656C73.8184 148.888 72.8891 157.189 66.851 155.779Z" fill="#1FD18E"/>
<path opacity="0.25" d="M66.851 155.779C63.5999 156.784 61.1843 154.246 62.0203 150.267C62.8563 146.287 67.0367 141.869 68.6159 143.056C69.6015 142.07 71.7742 142.424 72.7963 145.656C73.8184 148.888 72.8891 157.189 66.851 155.779Z" fill="white"/>
<path d="M68.7589 145.477C67.7913 147.762 67.1582 150.215 66.5976 152.627C66.0243 155.095 65.6441 157.602 65.3423 160.115C64.7589 164.978 64.6594 169.895 64.6907 174.788C64.6995 176.142 64.7188 177.496 64.7448 178.849C64.7712 180.241 64.7487 181.652 64.8684 183.039C64.9142 183.571 65.671 183.43 65.6802 182.942C65.7282 180.505 65.5944 178.057 65.5698 175.619C65.5451 173.209 65.5535 170.798 65.6151 168.388C65.7401 163.482 66.0982 158.575 66.9311 153.734C67.163 152.385 67.4204 151.038 67.735 149.706C68.0659 148.304 68.4716 146.922 68.8399 145.53C68.8544 145.475 68.791 145.402 68.7589 145.477Z" fill="#1FD18E"/>
<path opacity="0.3" d="M68.7589 145.477C67.7913 147.762 67.1582 150.215 66.5976 152.627C66.0243 155.095 65.6441 157.602 65.3423 160.115C64.7589 164.978 64.6594 169.895 64.6907 174.788C64.6995 176.142 64.7188 177.496 64.7448 178.849C64.7712 180.241 64.7487 181.652 64.8684 183.039C64.9142 183.571 65.671 183.43 65.6802 182.942C65.7282 180.505 65.5944 178.057 65.5698 175.619C65.5451 173.209 65.5535 170.798 65.6151 168.388C65.7401 163.482 66.0982 158.575 66.9311 153.734C67.163 152.385 67.4204 151.038 67.735 149.706C68.0659 148.304 68.4716 146.922 68.8399 145.53C68.8544 145.475 68.791 145.402 68.7589 145.477Z" fill="black"/>
<path d="M61.5608 167.449C60.1401 169.057 56.8849 168.915 54.7021 166.046C52.5193 163.176 51.2081 152.387 54.2801 153.074C54.9309 151.634 63.4203 155.092 64.5097 162.134C65.3017 167.252 61.5608 167.449 61.5608 167.449Z" fill="#1FD18E"/>
<path opacity="0.25" d="M61.5608 167.449C60.1401 169.057 56.8849 168.915 54.7021 166.046C52.5193 163.176 51.2081 152.387 54.2801 153.074C54.9309 151.634 63.4203 155.092 64.5097 162.134C65.3017 167.252 61.5608 167.449 61.5608 167.449Z" fill="white"/>
<path d="M64.1018 172.548C64.0134 171.881 63.8576 171.23 63.6829 170.58C63.3279 169.258 62.9055 167.957 62.4197 166.677C61.4271 164.059 60.1251 161.593 58.626 159.232C57.7962 157.925 56.925 156.62 55.9337 155.428C55.9064 155.395 55.8809 155.47 55.8963 155.493C56.6548 156.599 57.4231 157.691 58.1059 158.847C58.813 160.044 59.4466 161.286 60.0305 162.547C61.1547 164.975 62.0985 167.486 62.8307 170.059C63.0388 170.79 63.2099 171.53 63.4255 172.259C63.6495 173.015 63.932 173.757 64.1221 174.523C64.1498 174.634 64.2919 174.675 64.2774 174.528C64.2123 173.869 64.1889 173.207 64.1018 172.548Z" fill="#1FD18E"/>
<path opacity="0.3" d="M64.1018 172.548C64.0134 171.881 63.8576 171.23 63.6829 170.58C63.3279 169.258 62.9055 167.957 62.4197 166.677C61.4271 164.059 60.1251 161.593 58.626 159.232C57.7962 157.925 56.925 156.62 55.9337 155.428C55.9064 155.395 55.8809 155.47 55.8963 155.493C56.6548 156.599 57.4231 157.691 58.1059 158.847C58.813 160.044 59.4466 161.286 60.0305 162.547C61.1547 164.975 62.0985 167.486 62.8307 170.059C63.0388 170.79 63.2099 171.53 63.4255 172.259C63.6495 173.015 63.932 173.757 64.1221 174.523C64.1498 174.634 64.2919 174.675 64.2774 174.528C64.2123 173.869 64.1889 173.207 64.1018 172.548Z" fill="black"/>
<path d="M66.7597 165.855C64.9016 165.431 64.8087 163.199 67.1311 160.46C69.4534 157.721 75.3058 156.527 75.5848 157.682C76.8854 157.682 76.8854 161.756 74.0056 165.498C71.1258 169.24 66.9339 168.37 66.7597 165.855Z" fill="#1FD18E"/>
<path opacity="0.25" d="M66.7597 165.855C64.9016 165.431 64.8087 163.199 67.1311 160.46C69.4534 157.721 75.3058 156.527 75.5848 157.682C76.8854 157.682 76.8854 161.756 74.0056 165.498C71.1258 169.24 66.9339 168.37 66.7597 165.855Z" fill="white"/>
<path d="M70.399 161.872C69.1793 162.745 68.103 163.736 67.1826 164.926C66.2682 166.108 65.5515 167.418 65.0204 168.814C64.9597 168.974 65.2351 169.206 65.3007 169.033C66.3364 166.298 68.1356 163.757 70.4095 161.91C70.4232 161.898 70.4223 161.855 70.399 161.872Z" fill="#1FD18E"/>
<path opacity="0.3" d="M70.399 161.872C69.1793 162.745 68.103 163.736 67.1826 164.926C66.2682 166.108 65.5515 167.418 65.0204 168.814C64.9597 168.974 65.2351 169.206 65.3007 169.033C66.3364 166.298 68.1356 163.757 70.4095 161.91C70.4232 161.898 70.4223 161.855 70.399 161.872Z" fill="black"/>
<path d="M68.881 179.45C66.307 180.492 67.4101 183.557 69.9229 185.885C72.4358 188.214 76.0284 188.827 77.7563 188.705C79.4841 188.582 79.9263 188.345 79.9263 188.345C79.9263 188.345 80.2018 185.695 79.9131 184.085C79.507 181.82 77.8491 178.635 73.8464 177.55C69.8433 176.465 68.881 177.918 68.881 179.45Z" fill="#1FD18E"/>
<path opacity="0.45" d="M68.881 179.45C66.307 180.492 67.4101 183.557 69.9229 185.885C72.4358 188.214 76.0284 188.827 77.7563 188.705C79.4841 188.582 79.9263 188.345 79.9263 188.345C79.9263 188.345 80.2018 185.695 79.9131 184.085C79.507 181.82 77.8491 178.635 73.8464 177.55C69.8433 176.465 68.881 177.918 68.881 179.45Z" fill="white"/>
<path d="M76.0088 183.976C74.816 182.643 73.5704 181.319 72.0673 180.33C70.6017 179.365 68.6477 178.542 66.8903 179.143C66.2092 179.376 65.1505 180.055 65.2781 180.899C65.2909 180.982 65.4396 181.19 65.5399 181.075C65.855 180.712 66.0803 180.291 66.4666 179.993C66.8683 179.684 67.3492 179.528 67.8486 179.469C69.0749 179.326 70.3786 179.719 71.4575 180.29C73.1981 181.213 74.6026 182.645 75.9886 184.017C76.0036 184.032 76.0207 183.989 76.0088 183.976Z" fill="#1FD18E"/>
<path opacity="0.3" d="M76.0088 183.976C74.816 182.643 73.5704 181.319 72.0673 180.33C70.6017 179.365 68.6477 178.542 66.8903 179.143C66.2092 179.376 65.1505 180.055 65.2781 180.899C65.2909 180.982 65.4396 181.19 65.5399 181.075C65.855 180.712 66.0803 180.291 66.4666 179.993C66.8683 179.684 67.3492 179.528 67.8486 179.469C69.0749 179.326 70.3786 179.719 71.4575 180.29C73.1981 181.213 74.6026 182.645 75.9886 184.017C76.0036 184.032 76.0207 183.989 76.0088 183.976Z" fill="black"/>
<path d="M59.0822 166.27C59.3259 165.098 57.635 162.291 52.3576 161.753C47.0798 161.215 43.1269 163.454 42.3296 164.476C41.5323 165.498 41.1306 166.576 42.0876 166.843C43.0446 167.111 46.342 167.432 48.5072 168.429C50.6724 169.425 55.072 172.369 58.0754 171.494C61.0784 170.618 60.5751 167.434 59.0822 166.27Z" fill="#1FD18E"/>
<path opacity="0.45" d="M59.0822 166.27C59.3259 165.098 57.635 162.291 52.3576 161.753C47.0798 161.215 43.1269 163.454 42.3296 164.476C41.5323 165.498 41.1306 166.576 42.0876 166.843C43.0446 167.111 46.342 167.432 48.5072 168.429C50.6724 169.425 55.072 172.369 58.0754 171.494C61.0784 170.618 60.5751 167.434 59.0822 166.27Z" fill="white"/>
<path d="M63.0929 170.355C60.867 165.758 55.1311 164.355 50.4425 164.38C48.8893 164.389 47.3735 164.585 45.87 164.975C45.8493 164.98 45.8463 165.032 45.8713 165.028C48.3859 164.631 50.9921 164.542 53.5102 164.951C55.9988 165.355 58.4435 166.128 60.4908 167.642C61.4975 168.387 62.352 169.365 62.9869 170.442C63.0529 170.554 63.1383 170.449 63.0929 170.355Z" fill="#1FD18E"/>
<path opacity="0.3" d="M63.0929 170.355C60.867 165.758 55.1311 164.355 50.4425 164.38C48.8893 164.389 47.3735 164.585 45.87 164.975C45.8493 164.98 45.8463 165.032 45.8713 165.028C48.3859 164.631 50.9921 164.542 53.5102 164.951C55.9988 165.355 58.4435 166.128 60.4908 167.642C61.4975 168.387 62.352 169.365 62.9869 170.442C63.0529 170.554 63.1383 170.449 63.0929 170.355Z" fill="black"/>
<path d="M71.377 160.112C71.3093 161.958 73.907 163.029 76.4208 161.433C78.9345 159.838 81.5701 158.284 83.899 157.682C86.2279 157.08 87.331 155.18 86.5958 154.261C85.8601 153.341 84.6906 151.022 78.5671 151.779C72.4432 152.536 70.2744 155.295 69.4349 157.244C68.5954 159.192 70.4557 160.644 71.377 160.112Z" fill="#1FD18E"/>
<path opacity="0.45" d="M71.377 160.112C71.3093 161.958 73.907 163.029 76.4208 161.433C78.9345 159.838 81.5701 158.284 83.899 157.682C86.2279 157.08 87.331 155.18 86.5958 154.261C85.8601 153.341 84.6906 151.022 78.5671 151.779C72.4432 152.536 70.2744 155.295 69.4349 157.244C68.5954 159.192 70.4557 160.644 71.377 160.112Z" fill="white"/>
<path d="M81.3416 154.252C80.477 154.117 79.5539 154.312 78.7157 154.528C77.943 154.727 77.1915 154.998 76.4677 155.333C75.0302 155.999 73.7217 156.95 72.6388 158.106C72.3308 158.436 72.0374 158.781 71.7742 159.147C71.5384 159.475 71.2515 159.833 71.1204 160.218C71.079 160.339 71.2564 160.537 71.3637 160.413C71.6669 160.064 71.8944 159.636 72.179 159.268C72.4848 158.872 72.8122 158.495 73.1642 158.14C73.8713 157.427 74.6668 156.805 75.5235 156.281C76.3546 155.774 77.2219 155.341 78.138 155.009C78.6382 154.828 79.1456 154.681 79.6617 154.552C80.2112 154.414 80.7551 154.278 81.3266 154.32C81.3561 154.323 81.3711 154.257 81.3416 154.252Z" fill="#1FD18E"/>
<path opacity="0.3" d="M81.3416 154.252C80.477 154.117 79.5539 154.312 78.7157 154.528C77.943 154.727 77.1915 154.998 76.4677 155.333C75.0302 155.999 73.7217 156.95 72.6388 158.106C72.3308 158.436 72.0374 158.781 71.7742 159.147C71.5384 159.475 71.2515 159.833 71.1204 160.218C71.079 160.339 71.2564 160.537 71.3637 160.413C71.6669 160.064 71.8944 159.636 72.179 159.268C72.4848 158.872 72.8122 158.495 73.1642 158.14C73.8713 157.427 74.6668 156.805 75.5235 156.281C76.3546 155.774 77.2219 155.341 78.138 155.009C78.6382 154.828 79.1456 154.681 79.6617 154.552C80.2112 154.414 80.7551 154.278 81.3266 154.32C81.3561 154.323 81.3711 154.257 81.3416 154.252Z" fill="black"/>
<path d="M66.9816 170.073C66.1236 169.215 63.7947 169.414 62.6916 171.95C61.5885 174.486 63.9038 177.26 64.1625 178.041C65.2269 177.426 66.0541 177.792 67.9276 177.426C69.8011 177.06 71.6399 175.085 71.5171 172.763C71.3944 170.441 70.4136 168.908 66.9816 170.073Z" fill="#1FD18E"/>
<path opacity="0.45" d="M66.9816 170.073C66.1236 169.215 63.7947 169.414 62.6916 171.95C61.5885 174.486 63.9038 177.26 64.1625 178.041C65.2269 177.426 66.0541 177.792 67.9276 177.426C69.8011 177.06 71.6399 175.085 71.5171 172.763C71.3944 170.441 70.4136 168.908 66.9816 170.073Z" fill="white"/>
<path d="M66.9507 169.817C66.4909 170.041 66.0975 170.583 65.8137 170.994C65.5106 171.434 65.2624 171.914 65.0771 172.416C64.6996 173.437 64.5412 174.569 64.7529 175.644C64.7608 175.685 64.7947 175.648 64.7929 175.622C64.7225 174.525 64.8796 173.435 65.3354 172.43C65.5422 171.974 65.8023 171.544 66.1085 171.148C66.27 170.94 66.4416 170.739 66.6259 170.55C66.7839 170.389 66.9991 170.251 67.1187 170.059C67.1795 169.963 67.0814 169.754 66.9507 169.817Z" fill="#1FD18E"/>
<path opacity="0.3" d="M66.9507 169.817C66.4909 170.041 66.0975 170.583 65.8137 170.994C65.5106 171.434 65.2624 171.914 65.0771 172.416C64.6996 173.437 64.5412 174.569 64.7529 175.644C64.7608 175.685 64.7947 175.648 64.7929 175.622C64.7225 174.525 64.8796 173.435 65.3354 172.43C65.5422 171.974 65.8023 171.544 66.1085 171.148C66.27 170.94 66.4416 170.739 66.6259 170.55C66.7839 170.389 66.9991 170.251 67.1187 170.059C67.1795 169.963 67.0814 169.754 66.9507 169.817Z" fill="black"/>
<path d="M62.9431 175.211C62.8643 173.324 60.8192 171.829 57.9091 170.964C54.9985 170.098 51.8525 170.829 49.7286 173.138C47.6047 175.447 46.5034 177.414 47.3689 177.965C48.2339 178.515 52.0883 179.931 54.6055 180.718C57.1228 181.504 60.4263 181.74 62.9435 180.245C65.4603 178.751 65.3028 176.155 62.9431 175.211Z" fill="#1FD18E"/>
<path opacity="0.25" d="M62.9431 175.211C62.8643 173.324 60.8192 171.829 57.9091 170.964C54.9985 170.098 51.8525 170.829 49.7286 173.138C47.6047 175.447 46.5034 177.414 47.3689 177.965C48.2339 178.515 52.0883 179.931 54.6055 180.718C57.1228 181.504 60.4263 181.74 62.9435 180.245C65.4603 178.751 65.3028 176.155 62.9431 175.211Z" fill="white"/>
<path d="M63.1068 174.999C62.1726 174.457 61.0053 174.262 59.9445 174.155C58.8916 174.048 57.8276 174.069 56.7774 174.193C55.6668 174.324 54.5694 174.57 53.498 174.886C52.937 175.051 52.3818 175.235 51.8331 175.437C51.3227 175.625 50.7894 175.802 50.3107 176.063C50.2922 176.073 50.2812 176.136 50.3138 176.129C50.847 176.018 51.3684 175.81 51.8894 175.65C52.4513 175.477 53.0154 175.311 53.5843 175.163C54.6473 174.886 55.7244 174.668 56.8174 174.552C57.9077 174.437 59.013 174.428 60.102 174.563C61.129 174.691 62.0899 175.008 63.079 175.292C63.2819 175.35 63.2216 175.065 63.1068 174.999Z" fill="#1FD18E"/>
<path opacity="0.3" d="M63.1068 174.999C62.1726 174.457 61.0053 174.262 59.9445 174.155C58.8916 174.048 57.8276 174.069 56.7774 174.193C55.6668 174.324 54.5694 174.57 53.498 174.886C52.937 175.051 52.3818 175.235 51.8331 175.437C51.3227 175.625 50.7894 175.802 50.3107 176.063C50.2922 176.073 50.2812 176.136 50.3138 176.129C50.847 176.018 51.3684 175.81 51.8894 175.65C52.4513 175.477 53.0154 175.311 53.5843 175.163C54.6473 174.886 55.7244 174.668 56.8174 174.552C57.9077 174.437 59.013 174.428 60.102 174.563C61.129 174.691 62.0899 175.008 63.079 175.292C63.2819 175.35 63.2216 175.065 63.1068 174.999Z" fill="black"/>
<path d="M68.9482 172.4C66.8679 170.748 67.5613 166.784 74.842 166.57C82.1227 166.356 87.323 168.257 87.0916 170.6C88.2633 171.772 87.6693 175.054 81.7755 176.079C75.8821 177.104 67.446 176.595 68.9482 172.4Z" fill="#1FD18E"/>
<path opacity="0.25" d="M68.9482 172.4C66.8679 170.748 67.5613 166.784 74.842 166.57C82.1227 166.356 87.323 168.257 87.0916 170.6C88.2633 171.772 87.6693 175.054 81.7755 176.079C75.8821 177.104 67.446 176.595 68.9482 172.4Z" fill="white"/>
<path d="M83.6687 170.626C81.5364 170.234 79.3272 170.186 77.165 170.247C75.1674 170.303 73.0959 170.398 71.1604 170.937C70.6574 171.077 70.1668 171.256 69.696 171.481C69.4782 171.586 69.2635 171.698 69.0572 171.823C68.8922 171.924 68.7074 172.011 68.6475 172.205C68.6114 172.322 68.7474 172.464 68.8644 172.437C69.3071 172.333 69.7198 171.992 70.1378 171.805C70.5461 171.623 70.9694 171.473 71.398 171.346C72.2234 171.102 73.0744 170.955 73.9275 170.848C75.9603 170.594 78.0244 170.482 80.073 170.509C81.2702 170.525 82.4618 170.616 83.6546 170.711C83.6911 170.714 83.7052 170.633 83.6687 170.626Z" fill="#1FD18E"/>
<path opacity="0.3" d="M83.6687 170.626C81.5364 170.234 79.3272 170.186 77.165 170.247C75.1674 170.303 73.0959 170.398 71.1604 170.937C70.6574 171.077 70.1668 171.256 69.696 171.481C69.4782 171.586 69.2635 171.698 69.0572 171.823C68.8922 171.924 68.7074 172.011 68.6475 172.205C68.6114 172.322 68.7474 172.464 68.8644 172.437C69.3071 172.333 69.7198 171.992 70.1378 171.805C70.5461 171.623 70.9694 171.473 71.398 171.346C72.2234 171.102 73.0744 170.955 73.9275 170.848C75.9603 170.594 78.0244 170.482 80.073 170.509C81.2702 170.525 82.4618 170.616 83.6546 170.711C83.6911 170.714 83.7052 170.633 83.6687 170.626Z" fill="black"/>
<path d="M140.979 166.284L131.816 32.1461C131.599 28.9662 129.835 28.1253 128.267 27.3479C126.699 26.5699 124.174 26.1317 122.102 27.3281L69.0602 57.9516C66.9882 59.1475 65.4359 61.9833 65.593 64.285L74.7564 198.422C74.9135 200.724 76.5635 202.048 78.1317 202.826C79.6998 203.604 82.3988 204.437 84.4707 203.241L137.513 172.617C139.584 171.421 141.198 169.489 140.979 166.284Z" fill="#37474F"/>
<path d="M137.558 167.527L83.0143 199.018L73.8324 64.3455L66.4905 60.7036C65.8635 61.8494 65.5146 63.1337 65.5929 64.2843L74.7564 198.422C74.9134 200.724 76.5634 202.048 78.1316 202.826C79.6998 203.604 82.3987 204.437 84.4702 203.241L137.512 172.617C138.806 171.87 140.061 170.762 140.645 169.059L140.418 168.946L137.558 167.527Z" fill="#263238"/>
<path d="M127.748 31.1621L74.5533 61.875C73.1026 62.7106 72.0084 64.7091 72.1179 66.3168L81.2123 199.451C81.3808 201.921 83.3436 202.892 85.5678 201.606L137.347 171.713C138.988 170.764 140.229 168.501 140.105 166.676L130.957 32.7541C130.832 30.9294 129.388 30.2144 127.748 31.1621Z" fill="#455A64"/>
<path d="M128.663 38.6692L137.212 163.807C137.33 165.545 136.154 167.699 134.594 168.595L86.6386 196.283C85.0753 197.192 83.71 196.516 83.5912 194.774L74.9848 68.7938C74.8889 67.3853 75.6386 65.7041 76.7681 64.641C76.857 64.5601 76.9415 64.4787 77.0308 64.4017C77.2147 64.256 77.4079 64.1223 77.6028 64.0096L91.0914 56.2212C91.0914 56.2212 91.4852 55.992 91.9706 55.7143C92.4559 55.4327 92.8796 55.6408 92.9166 56.1825C92.9531 56.7202 93.4036 56.9195 93.9233 56.6163L109.643 47.5418C110.158 47.243 110.553 46.5628 110.516 46.0251C110.482 45.5208 110.799 44.9004 111.238 44.5907C111.268 44.5691 111.298 44.552 111.328 44.5344L124.523 36.9193L124.804 36.7547C126.779 35.6164 128.513 36.4771 128.663 38.6692Z" fill="black"/>
<path d="M124.522 36.9206L111.328 44.5356C111.297 44.5528 111.267 44.5704 111.237 44.5915C110.799 44.9013 110.481 45.5217 110.516 46.0259C110.552 46.5636 110.157 47.2438 109.642 47.5426L93.9228 56.6172C93.4031 56.9203 92.953 56.721 92.916 56.1833C92.8791 55.6417 92.4554 55.4336 91.97 55.7152C91.4847 55.9924 91.0905 56.222 91.0905 56.222L77.6018 64.0105C77.4069 64.1231 77.2133 64.2564 77.0298 64.4025C76.9405 64.4795 76.856 64.5605 76.7671 64.6419C75.6377 65.7049 74.8879 67.3857 74.9838 68.7946L83.5907 194.775C83.6061 195.002 83.6439 195.21 83.6994 195.4C83.9119 195.333 84.1301 195.239 84.3536 195.109L132.309 167.421C133.869 166.525 135.045 164.371 134.927 162.633L126.378 37.4952C126.346 37.0301 126.239 36.6288 126.078 36.29C125.674 36.3521 125.246 36.5017 124.804 36.7569L124.522 36.9206Z" fill="white"/>
<path d="M96.0853 51.9538L103.291 47.7936C103.721 47.5454 104.094 47.7073 104.125 48.1553C104.155 48.6032 103.832 49.1677 103.402 49.4159L96.1962 53.5761C95.7663 53.8242 95.3932 53.6623 95.3624 53.2144C95.3316 52.7665 95.6554 52.2019 96.0853 51.9538Z" fill="#263238"/>
<path d="M106.966 45.3294C107.451 45.05 107.873 45.2594 107.91 45.7971C107.946 46.3352 107.584 46.9979 107.099 47.2777C106.615 47.5571 106.193 47.3481 106.156 46.81C106.119 46.2719 106.482 45.6092 106.966 45.3294Z" fill="#263238"/>
<path d="M72.1609 85.6132C72.0989 84.7064 71.3813 83.6403 70.5576 83.2315C70.1598 83.0344 69.8127 83.0287 69.5663 83.177C69.3925 83.2817 68.7074 83.6632 68.5261 83.7723C68.263 83.9302 68.1151 84.2629 68.1468 84.7288L68.8337 94.7987C68.8957 95.7055 69.6133 96.7716 70.437 97.1804C70.8167 97.3687 71.1503 97.3824 71.3945 97.2543C71.5863 97.1536 72.2859 96.7492 72.4667 96.6414C72.7312 96.4843 72.8799 96.1508 72.8478 95.684L72.1609 85.6132Z" fill="#455A64"/>
<path d="M71.1296 86.2077L71.8165 96.2776C71.8785 97.1844 71.2608 97.5883 70.4371 97.1796C69.6134 96.7708 68.8953 95.7047 68.8337 94.7979L68.1469 84.728C68.0848 83.8212 68.7026 83.4173 69.5263 83.826C70.3499 84.2343 71.0676 85.3009 71.1296 86.2077Z" fill="#37474F"/>
<path d="M73.3631 103.238C73.301 102.331 72.5834 101.265 71.7597 100.856C71.362 100.659 71.0148 100.653 70.7684 100.802C70.5946 100.906 69.9095 101.288 69.7282 101.397C69.4651 101.555 69.3173 101.887 69.349 102.354L70.0358 112.423C70.0978 113.33 70.8155 114.396 71.6392 114.805C72.0189 114.993 72.3524 115.007 72.5966 114.879C72.7884 114.778 73.488 114.374 73.6689 114.266C73.9333 114.109 74.082 113.775 74.0499 113.309L73.3631 103.238Z" fill="#455A64"/>
<path d="M72.3318 103.833L73.0186 113.903C73.0807 114.809 72.4629 115.213 71.6392 114.805C70.8155 114.396 70.0975 113.33 70.0359 112.423L69.349 102.353C69.287 101.446 69.9047 101.042 70.7284 101.451C71.5521 101.86 72.2697 102.926 72.3318 103.833Z" fill="#37474F"/>
<path d="M86.2593 38.1735L84.9385 35.6897L86.0015 32.6216V30.7437L82.749 32.6216V34.4995L84.1473 36.9217C84.1711 36.9626 84.205 36.9895 84.2424 37.0062L84.2415 37.0075L86.2593 38.1735Z" fill="#1FD18E"/>
<path opacity="0.15" d="M86.2593 38.1735L84.9385 35.6897L86.0015 32.6216V30.7437L82.749 32.6216V34.4995L84.1473 36.9217C84.1711 36.9626 84.205 36.9895 84.2424 37.0062L84.2415 37.0075L86.2593 38.1735Z" fill="black"/>
<path d="M94.7771 15.3824C94.7771 14.7607 94.3406 14.0043 93.8021 13.6933L93.0079 13.2348C92.4693 12.9237 91.5964 12.9237 91.0574 13.2348L75.6239 22.1611C75.0854 22.4721 74.6484 23.2281 74.6484 23.8502V37.2487C74.6484 37.8708 75.0854 38.6267 75.6239 38.9378L76.4181 39.3963C76.9567 39.7074 77.8301 39.7074 78.3686 39.3963L84.7913 35.6827L86.187 38.1001C86.2763 38.2545 86.506 38.2329 86.5641 38.064L88.039 33.8065L93.8021 30.47C94.3406 30.1594 94.7771 29.403 94.7771 28.7809V15.3824Z" fill="#1FD18E"/>
<path opacity="0.15" d="M74.6494 37.2486C74.6494 37.8708 75.0863 38.6267 75.6244 38.9378L76.4187 39.3963C76.9057 39.6774 77.663 39.7016 78.2024 39.475C77.7435 39.6488 77.3941 39.3897 77.3941 38.8335V25.435C77.3941 25.124 77.5033 24.7799 77.6797 24.4741L74.9354 22.8896C74.759 23.195 74.6499 23.5395 74.6499 23.8506L74.6494 37.2486Z" fill="black"/>
<path opacity="0.45" d="M94.746 15.105C94.632 14.6909 94.2545 14.5589 93.8044 14.8185L78.3687 23.7461C78.1003 23.9006 77.8548 24.1646 77.6819 24.4739L74.9385 22.8908C75.1158 22.5814 75.3569 22.3174 75.6253 22.163L91.0561 13.2354C91.5973 12.9261 92.4707 12.9261 93.008 13.2354L93.8039 13.6948C94.2642 13.9583 94.6505 14.5497 94.746 15.105Z" fill="white"/>
<path d="M87.1056 24.0885L84.4 25.6505V23.5165L79.5908 30.6938L84.4 32.3179V30.1843L87.1056 28.6223C89.7187 27.1135 91.1496 26.6907 91.9249 28.6126C92.445 23.5847 90.3409 22.2207 87.1056 24.0885Z" fill="white"/>
<path d="M165.703 171.661L164.382 169.177L165.445 166.109V164.231L162.192 166.109V167.987L163.591 170.409C163.614 170.45 163.648 170.477 163.686 170.494L163.685 170.495L165.703 171.661Z" fill="#1FD18E"/>
<path opacity="0.15" d="M165.703 171.661L164.382 169.177L165.445 166.109V164.231L162.192 166.109V167.987L163.591 170.409C163.614 170.45 163.648 170.477 163.686 170.494L163.685 170.495L165.703 171.661Z" fill="black"/>
<path d="M174.22 148.87C174.22 148.248 173.784 147.492 173.245 147.181L172.451 146.722C171.913 146.411 171.04 146.411 170.501 146.722L155.067 155.649C154.529 155.96 154.092 156.716 154.092 157.338V170.736C154.092 171.358 154.529 172.114 155.067 172.425L155.861 172.884C156.4 173.195 157.273 173.195 157.812 172.884L164.235 169.17L165.63 171.588C165.72 171.742 165.949 171.72 166.007 171.552L167.482 167.294L173.245 163.958C173.784 163.647 174.22 162.891 174.22 162.268V148.87Z" fill="#1FD18E"/>
<path opacity="0.15" d="M154.093 170.736C154.093 171.358 154.529 172.114 155.068 172.425L155.862 172.884C156.349 173.165 157.106 173.189 157.646 172.963C157.187 173.136 156.837 172.877 156.837 172.321V158.923C156.837 158.612 156.947 158.267 157.123 157.962L154.379 156.377C154.202 156.683 154.093 157.027 154.093 157.338V170.736H154.093Z" fill="black"/>
<path opacity="0.45" d="M174.189 148.593C174.075 148.179 173.697 148.047 173.247 148.306L157.812 157.234C157.543 157.388 157.298 157.652 157.124 157.962L154.381 156.379C154.558 156.069 154.799 155.805 155.068 155.651L170.499 146.723C171.04 146.414 171.913 146.414 172.45 146.723L173.246 147.183C173.707 147.447 174.093 148.038 174.189 148.593Z" fill="white"/>
<path d="M159.575 168.387C160.35 165.57 161.781 164.34 164.394 162.832L167.1 161.27V163.404L171.909 156.226L167.1 154.602V156.736L164.394 158.298C161.159 160.166 159.055 163.959 159.575 168.387Z" fill="white"/>
<path opacity="0.15" d="M102.073 187.173C114.83 190.238 121.476 201.598 136.325 198.529C141.547 197.73 148.499 193.329 143.56 188.641C134.403 182.094 122.394 184.963 112.229 180.224C108.576 178.667 104.858 175.789 101.094 174.549C97.0661 173.408 92.6947 172.873 88.8099 174.827C87.8446 175.234 86.2887 176.348 86.6434 178.679C87.4578 184.034 97.5237 185.788 102.073 187.173Z" fill="black"/>
<path d="M102.329 178.807C102.624 177.228 101.078 176.294 100.331 175.42C99.1768 174.067 98.7892 171.927 98.7355 170.272C98.6691 168.207 98.3703 166.742 99.5416 164.83C100.928 162.566 102.877 159.903 109.492 153.318L100.401 149.015C98.7439 151.945 94.9656 157.987 94.9656 157.987L94.6176 158.518C93.8194 159.587 93.3825 160.414 92.1333 161.351C92.1272 161.355 91.6797 161.611 91.674 161.616C90.8903 162.213 88.8641 162.891 88.9772 164.869C89.0903 166.846 89.8581 167.308 90.7882 168.896C91.3814 169.909 91.8055 170.418 91.9239 172.392C92.0194 173.983 91.9437 174.672 91.9837 176.098C92.0176 177.298 93.1603 179.001 95.4267 179.699C98.7294 180.716 102.039 180.359 102.329 178.807Z" fill="#FFA8A7"/>
<path d="M87.8205 164.967C87.2846 165.711 85.8969 168.214 85.5488 169.397L87.9235 172.562L89.6791 169.216C89.6791 169.216 88.2337 167.219 87.8205 164.967Z" fill="#263238"/>
<path d="M87.9238 172.562L90.999 172.231C90.999 172.231 91.2225 171.14 90.6171 170.278C90.0121 169.416 89.6794 169.216 89.6794 169.216L87.9238 172.562Z" fill="black"/>
<path d="M88.4104 164.212C88.4104 164.212 87.9726 164.57 87.841 164.896C87.7086 165.224 87.9554 167.255 88.6357 168.217C89.3159 169.18 90.4014 170.188 90.7147 171.583C91.028 172.978 90.5338 175.149 91.1542 177.091C91.7742 179.033 93.697 181.21 97.7177 181.592C100.591 181.865 101.648 181.267 102.579 180.616C102.875 179.33 102.828 178.999 101.223 177.981C99.6185 176.964 88.4104 164.212 88.4104 164.212Z" fill="#263238"/>
<path d="M93.5305 158.833C92.3108 160.454 91.8748 161.076 90.7233 161.826C89.3298 162.733 89.0473 163.088 88.4106 164.212C88.1898 165.923 88.5497 166.615 90.1495 168.734C91.2442 170.184 91.6231 171.15 91.675 173.198C91.7379 175.674 90.9288 176.874 93.9516 179.3C96.3056 181.19 101.289 181.138 102.586 179.717C103.609 176.296 100.655 176.648 99.8159 173.094C99.3508 171.125 98.9249 168.948 99.4485 166.946C99.6293 166.254 99.9307 165.634 100.301 165.03C100.634 164.486 101.644 163.258 101.037 162.609L100.625 163.192C99.9083 163.383 98.3062 163.118 97.1143 162.202C94.2371 159.991 94.6177 158.518 94.6177 158.518L94.9658 157.987C94.6696 157.648 94.2226 157.913 93.5305 158.833Z" fill="#37474F"/>
<path d="M111.07 119.816L117.816 110.611C117.816 110.611 131.255 103.143 131.257 102.843C131.257 102.843 133.923 110.538 131.92 120.965C129.832 131.835 124.18 139.754 121.311 143.117C118.441 146.48 103.564 159.707 103.564 159.707C102.073 159.492 97.9107 156.221 97.3857 154.072C97.3857 154.072 100.643 148.237 102.567 145.24C105.081 141.326 105.819 139.454 110.535 136.167C110.159 132.145 111.07 119.816 111.07 119.816Z" fill="#37474F"/>
<path d="M99.3102 153.688L99.0049 153.493L99.1884 153.206C103.711 146.13 108.011 139.556 118.032 137.407L118.107 137.761C108.235 139.879 103.98 146.381 99.4937 153.401L99.3102 153.688Z" fill="#263238"/>
<path d="M107.34 138.717C107.496 138.569 107.658 138.42 107.828 138.269C107.895 138.21 107.964 138.151 108.033 138.091C108.195 137.951 108.364 137.81 108.54 137.666C108.62 137.601 108.7 137.535 108.784 137.469C108.969 137.321 109.165 137.17 109.367 137.018C109.45 136.956 109.528 136.894 109.613 136.831C109.904 136.615 110.208 136.396 110.535 136.168C110.52 136.003 110.507 135.819 110.496 135.628C110.493 135.579 110.49 135.529 110.488 135.479C110.478 135.297 110.47 135.107 110.464 134.906C110.463 134.888 110.463 134.873 110.462 134.855C110.456 134.633 110.452 134.398 110.449 134.156C110.448 134.101 110.447 134.044 110.447 133.989C110.445 133.763 110.444 133.533 110.445 133.293C110.445 133.27 110.445 133.247 110.445 133.223C110.445 132.952 110.448 132.673 110.452 132.389C110.453 132.342 110.454 132.295 110.455 132.248C110.459 131.978 110.464 131.704 110.471 131.424C110.471 131.407 110.471 131.39 110.471 131.372C110.479 131.058 110.488 130.739 110.498 130.416C110.498 130.406 110.499 130.395 110.499 130.385C110.509 130.064 110.52 129.741 110.532 129.416C110.532 129.411 110.532 129.406 110.532 129.402L123.659 118.43C123.718 118.143 129.915 114.119 129.915 114.119C129.464 118.057 125.42 119.873 125.42 119.873L126.799 135.055C126.718 135.191 125.639 137.062 125.558 137.195C125.462 137.352 125.366 137.51 125.271 137.663C125.116 137.909 124.964 138.147 124.811 138.382C124.734 138.501 124.656 138.625 124.58 138.741C124.359 139.074 124.141 139.394 123.927 139.703C123.849 139.816 123.773 139.921 123.695 140.031C123.551 140.234 123.407 140.436 123.267 140.628C123.181 140.745 123.098 140.857 123.014 140.97C122.884 141.144 122.755 141.315 122.63 141.478C122.552 141.58 122.474 141.682 122.397 141.78C122.264 141.951 122.134 142.114 122.008 142.271C121.949 142.344 121.888 142.421 121.83 142.491C121.65 142.713 121.474 142.924 121.31 143.116C119.765 144.928 114.738 149.599 110.427 153.525C110.332 151.615 110.441 149.563 110.629 147.311L107.238 138.811C107.272 138.781 107.306 138.749 107.34 138.717Z" fill="#263238"/>
<path d="M96.1948 156.01C96.1948 156.01 96.054 157.877 98.5123 159.792C100.456 161.306 102.412 161.116 102.412 161.116L105.316 158.271C105.316 158.271 103.769 158.69 101.339 156.594C98.7913 154.396 98.6764 151.658 98.6764 151.658L96.1948 156.01Z" fill="#455A64"/>
<path d="M122.948 188.074C123.728 190.357 126.418 190.862 128.527 190.163C129.717 189.769 130.29 188.42 131.043 187.524C132.155 186.199 133.798 185.454 135.413 184.835C137.028 184.216 138.709 183.661 140.067 182.591C141.217 181.685 142.086 180.429 142.528 179.034C142.669 178.59 142.769 178.117 142.686 177.658C142.487 176.55 141.267 175.871 140.141 175.87C139.015 175.868 137.959 176.367 136.925 176.815C135.53 177.419 134.102 177.947 132.65 178.396C132.194 178.537 131.727 178.672 131.249 178.672C130.497 178.672 129.352 178.083 129.065 177.44C128.606 176.412 128.084 165.014 128.092 164.485L117.223 167.238C117.223 167.238 121.298 179.555 121.947 181.632C122.011 181.834 122.05 182.042 122.086 182.251C122.418 184.184 122.307 186.195 122.948 188.074Z" fill="#FFA8A7"/>
<path d="M107.683 102.843C103.976 110.555 102.6 113.585 104.142 121.354C105.192 126.646 108.556 135.446 112.601 147.311C112.317 154.116 113.34 156.173 114.781 160.907C116.986 168.148 119.654 174.602 119.654 174.602C119.654 174.602 121.563 171.575 128.584 171.984C128.151 165.14 127.749 151.711 127.178 146.751C126.329 139.386 123.926 118.358 123.926 118.358C123.926 118.358 133.134 118.128 131.257 102.843H107.683Z" fill="#37474F"/>
<path d="M122.051 172.856C120.468 168.71 118.772 163.914 117.825 160.254C116.705 155.925 116.353 152.925 116.24 151.124C116.124 149.295 116.1 147.043 116.059 146.248C115.923 143.621 114.788 138.059 112.74 131.963C110.931 126.577 109.897 121.075 109.357 117.819C109.419 117.823 109.481 117.831 109.541 117.831C110.266 117.831 110.94 117.589 111.55 117.11C113.365 115.685 114.601 112.21 115.225 106.782L114.865 106.74C114.26 111.994 113.037 115.481 111.326 116.825C110.716 117.305 110.035 117.515 109.301 117.456C108.547 112.275 109.88 108.561 111.061 105.283C111.363 104.442 111.646 103.644 111.894 102.843H111.513C111.275 103.601 111.007 104.36 110.719 105.16C109.514 108.509 108.147 112.305 108.961 117.652C109.455 120.904 110.542 126.557 112.396 132.079C114.346 137.883 115.563 143.689 115.697 146.266C115.737 147.039 115.763 149.295 115.877 151.098C115.994 152.918 116.284 155.682 117.493 160.254C118.403 163.696 120.17 169.035 121.723 173.014C121.826 172.961 121.941 172.909 122.051 172.856Z" fill="#263238"/>
<path d="M141.882 175.409C140.917 174.398 138.971 175.064 137.718 175.572C135.071 176.646 134.271 177.379 132.31 177.754C129.467 178.299 129.555 176.669 129.555 176.669C129.555 176.669 127.485 175.165 123.812 177.171C121.204 178.595 121.227 180.447 121.227 180.447C121.227 180.447 121.992 182.127 122.095 184.788C122.197 187.449 122.434 188.294 122.772 189.044L134.621 181.294L135.467 181.095C138.029 179.701 141.882 175.409 141.882 175.409Z" fill="#37474F"/>
<path d="M143.334 177.344C143.208 176.587 142.947 176.112 142.589 175.855C142.452 175.757 141.974 175.476 141.882 175.409C140.665 174.532 138.323 176.177 136.338 177.808C134.026 179.708 130.019 179.986 128.095 182.628C126.171 185.27 123.896 186.211 123.103 187.379C122.54 188.207 122.634 189.154 123.196 189.832C123.304 189.962 123.706 190.375 123.786 190.459C124.346 191.051 125.376 191.33 126.617 191.154C129.123 190.797 130.945 190.096 133.14 187.274C135.334 184.451 137.868 185.913 140.354 184.153C142.842 182.394 143.731 179.723 143.334 177.344Z" fill="#263238"/>
<path d="M143.335 177.344C142.778 174.011 139.614 176.149 137.047 178.258C134.735 180.158 130.728 180.436 128.804 183.078C126.88 185.72 124.552 186.627 123.812 187.828C122.466 190.013 124.113 191.51 126.619 191.154C129.124 190.798 130.946 190.097 133.141 187.274C135.335 184.452 137.869 185.914 140.355 184.154C142.842 182.394 143.731 179.723 143.335 177.344Z" fill="black"/>
<path d="M134.389 185.686L128.804 183.078C126.88 185.721 124.553 186.627 123.812 187.829C123.133 188.931 122.984 189.521 122.984 189.521L123.852 191.41C123.866 191.426 124.13 191.71 124.145 191.726L124.153 191.734L124.153 191.734C124.717 192.314 125.738 192.589 126.968 192.413C129.473 192.057 131.295 191.356 133.49 188.533C133.943 187.95 134.351 187.427 134.738 186.946L134.389 185.686Z" fill="#263238"/>
<path d="M124.161 189.087C122.815 191.272 124.463 192.769 126.968 192.413C129.473 192.057 131.296 191.356 133.49 188.533C133.944 187.95 134.352 187.427 134.738 186.945L129.153 184.337C127.229 186.979 124.901 187.886 124.161 189.087Z" fill="black"/>
<path d="M118.157 170.768L119.987 175.612C119.987 175.612 122.293 172.778 128.646 173.209L128.347 167.893C128.347 167.893 122.078 166.592 118.157 170.768Z" fill="#455A64"/>
<path d="M118.613 56.6597C115.122 56.4837 113.564 59.6697 114.002 63.3719C114.345 66.2768 113.874 67.5585 112.208 69.2877C110.543 71.0169 109.248 72.6093 110.799 75.4534C112.35 78.2971 112.016 79.3958 111.184 80.9965C117.344 85.9593 127.076 85.6201 134.162 82.8538C141.179 80.1143 140.486 76.1125 140.486 76.1125C140.486 76.1125 137.985 77.0176 137.139 74.8044C136.072 72.0148 140.64 71.9088 139.678 67.8014C139.106 65.3576 136.888 64.8129 137.209 62.6424C137.364 61.5921 139.171 58.8725 136.93 55.8277C134.827 52.9712 131.386 50.919 125.26 51.6089C122.437 51.9266 119.005 53.8521 118.613 56.6597Z" fill="#37474F"/>
<path d="M140.415 85.4553C143.645 90.0304 144.221 90.9443 144.221 90.9443C146.492 86.5223 148.224 83.4643 148.851 81.5045C149.479 79.5452 153.118 75.8052 153.118 75.8052C155.043 76.8365 155.871 80.456 154.028 83.5039C152.687 85.7206 152.698 91.9079 149.346 99.2827C147.593 103.139 145.12 103.552 141.37 100.042C138.743 97.5817 134.212 92.2651 134.212 92.2651L131.075 76.6909C135.8 77.5221 137.268 80.9985 140.415 85.4553Z" fill="#FFA8A7"/>
<path d="M158.977 77.441C158.596 78.7725 157.848 79.5601 157.408 80.1835C155.696 82.6075 155.176 82.1464 153.622 83.9526L152.797 77.6619C152.241 75.7272 153.188 75.1583 154.772 75.1671L158.977 77.441Z" fill="#F28F8F"/>
<path d="M146.46 71.9298C147.711 73.293 149.83 73.3832 151.193 72.1318C152.556 70.8804 152.646 68.761 151.395 67.3983C150.144 66.0356 148.025 65.945 146.661 67.1963C145.299 68.4481 145.208 70.5672 146.46 71.9298Z" fill="#455A64"/>
<path d="M147.979 71.1102C148.666 70.9575 150.446 70.5607 152.24 70.1611C152.131 70.8929 151.78 71.5933 151.193 72.1328C149.83 73.3841 147.711 73.2935 146.46 71.9308C145.99 71.42 145.71 70.8022 145.614 70.1638C145.972 70.9954 146.609 71.4151 147.979 71.1102Z" fill="#37474F"/>
<path d="M150.976 70.9228L151.783 68.3506C153.077 70.8199 155.516 74.0693 157.657 76.1285L157.334 77.1572C155.725 76.2129 153.173 73.6147 150.976 70.9228Z" fill="#37474F"/>
<path d="M148.87 72.8259L150.442 73.0833L152.941 75.7677C154.059 76.9698 155.727 77.4973 157.333 77.1572C155.486 75.9705 152.997 73.3547 150.975 70.9229L148.87 72.8259Z" fill="#455A64"/>
<path d="M153.983 73.8029C153.975 73.8284 153.967 73.8539 153.959 73.8786C153.921 73.9996 153.789 74.1201 153.665 74.1478L153.063 74.282C152.939 74.3098 152.908 74.4079 152.994 74.5012L153.047 74.5588C153.133 74.6521 153.303 74.7058 153.426 74.6785L154.039 74.5425C154.163 74.5148 154.293 74.3942 154.329 74.2724L154.35 74.2011C154.386 74.0792 154.346 73.905 154.26 73.8112L154.207 73.7527C154.121 73.659 154.02 73.6814 153.983 73.8029Z" fill="#1FD18E"/>
<path d="M154.856 74.6313C154.848 74.6568 154.84 74.6823 154.832 74.7069C154.795 74.8279 154.663 74.9485 154.539 74.9762L153.937 75.1104C153.813 75.1381 153.782 75.2363 153.868 75.3295L153.921 75.3872C154.007 75.4809 154.177 75.5341 154.3 75.5069L154.913 75.3709C155.037 75.3436 155.167 75.2226 155.203 75.1007L155.224 75.029C155.261 74.9076 155.22 74.7329 155.135 74.6392L155.081 74.5807C154.995 74.4878 154.894 74.5103 154.856 74.6313Z" fill="#1FD18E"/>
<path d="M155.731 75.4593C155.723 75.4853 155.714 75.5108 155.707 75.535C155.669 75.656 155.537 75.7765 155.413 75.8043L154.811 75.9385C154.687 75.9662 154.656 76.0643 154.742 76.1576L154.795 76.2152C154.881 76.3085 155.051 76.3622 155.174 76.3349L155.787 76.1989C155.911 76.1717 156.041 76.0507 156.077 75.9288L156.098 75.8571C156.135 75.7352 156.095 75.5609 156.009 75.4677L155.955 75.4091C155.869 75.3159 155.768 75.3383 155.731 75.4593Z" fill="#1FD18E"/>
<path d="M150.78 65.2275V65.2293C150.276 65.3428 149.838 65.7586 149.566 66.4529C149.537 66.5251 149.511 66.6008 149.485 66.6804C149.456 66.7746 149.43 66.8683 149.408 66.9669C149.37 67.1279 149.341 67.2933 149.321 67.4641C149.284 67.7747 149.275 68.0981 149.293 68.4268C149.341 69.309 149.581 70.222 149.972 70.9937C150.17 71.3827 150.406 71.7356 150.678 72.0308C151.254 72.6583 151.879 72.9069 152.427 72.8026L150.527 73.2276L150.527 73.2237C149.839 73.3464 149.088 73.1282 148.521 72.5109C148.262 72.2288 148.034 71.894 147.843 71.5253C147.435 70.7434 147.186 69.8093 147.137 68.9077C147.119 68.579 147.127 68.2547 147.166 67.945C147.185 67.7743 147.213 67.6079 147.252 67.4478C147.274 67.3497 147.3 67.2537 147.33 67.1613C147.354 67.0826 147.382 67.0065 147.413 66.933C147.697 66.2633 148.235 65.8277 148.843 65.664V65.6623L148.896 65.6499C148.918 65.6451 148.94 65.6394 148.964 65.6359L150.78 65.2275Z" fill="#1FD18E"/>
<path opacity="0.1" d="M150.527 73.227L150.527 73.2231C149.839 73.3458 149.088 73.1276 148.521 72.5103C148.263 72.2282 148.034 71.8934 147.843 71.5247L149.973 70.9932C150.171 71.3821 150.407 71.735 150.679 72.0302C151.255 72.6577 151.879 72.9063 152.428 72.802L150.527 73.227Z" fill="black"/>
<path d="M152.574 65.992C153.756 67.2799 154.29 69.6744 153.766 71.3415C153.503 72.1802 153.021 72.6756 152.458 72.7953C152.448 72.7984 152.437 72.8001 152.426 72.8023C151.878 72.9066 151.253 72.658 150.677 72.0306C149.495 70.7431 148.961 68.3482 149.484 66.6802C149.745 65.8486 150.222 65.354 150.779 65.2291C151.339 65.1023 151.981 65.347 152.574 65.992Z" fill="#1FD18E"/>
<path opacity="0.2" d="M152.574 65.992C153.756 67.2799 154.29 69.6744 153.766 71.3415C153.503 72.1802 153.021 72.6756 152.458 72.7953C152.448 72.7984 152.437 72.8001 152.426 72.8023C151.878 72.9066 151.253 72.658 150.677 72.0306C149.495 70.7431 148.961 68.3482 149.484 66.6802C149.745 65.8486 150.222 65.354 150.779 65.2291C151.339 65.1023 151.981 65.347 152.574 65.992Z" fill="black"/>
<path d="M158.458 59.9771C158.458 59.9771 157.382 62.892 158.408 67.5015C158.61 68.4066 158.858 69.2192 159.125 69.9391C160.219 72.884 161.647 74.2933 161.647 74.2933C159.675 73.3645 157.507 72.5179 155.166 72.4955C153.717 72.4814 152.43 72.6222 152.43 72.6222L152.43 72.62C151.919 72.7326 151.339 72.4907 150.807 71.9121C150.457 71.5306 150.167 71.0492 149.947 70.5164C149.806 70.1802 149.694 69.8238 149.613 69.4604C149.404 68.5223 149.401 67.5389 149.654 66.7337C149.89 65.9844 150.313 65.5193 150.823 65.4044L150.822 65.4022C150.822 65.4022 152.048 64.9834 153.354 64.3555C155.464 63.3413 157.067 61.6548 158.458 59.9771Z" fill="#1FD18E"/>
<path opacity="0.6" d="M158.458 59.9771C158.458 59.9771 157.382 62.892 158.408 67.5015C158.61 68.4066 158.858 69.2192 159.125 69.9391C160.219 72.884 161.647 74.2933 161.647 74.2933C159.675 73.3645 157.507 72.5179 155.166 72.4955C153.717 72.4814 152.43 72.6222 152.43 72.6222L152.43 72.62C151.919 72.7326 151.339 72.4907 150.807 71.9121C150.457 71.5306 150.167 71.0492 149.947 70.5164C149.806 70.1802 149.694 69.8238 149.613 69.4604C149.404 68.5223 149.401 67.5389 149.654 66.7337C149.89 65.9844 150.313 65.5193 150.823 65.4044L150.822 65.4022C150.822 65.4022 152.048 64.9834 153.354 64.3555C155.464 63.3413 157.067 61.6548 158.458 59.9771Z" fill="white"/>
<path opacity="0.1" d="M159.126 69.9388C160.22 72.8837 161.648 74.293 161.648 74.293C159.676 73.3642 157.508 72.5176 155.167 72.4952C153.718 72.4811 152.431 72.6219 152.431 72.6219L152.43 72.6197C151.919 72.7324 151.339 72.4904 150.808 71.9118C150.458 71.5303 150.167 71.0489 149.947 70.5161C152.199 69.8719 156.005 69.0042 159.126 69.9388Z" fill="black"/>
<path d="M164.962 59.3598C166.195 60.7027 167.131 62.5516 167.689 64.5404L167.689 64.5412C168.403 67.0893 168.497 69.8626 167.797 72.0912C166.55 76.0587 163.259 76.7913 160.447 73.7284C159.803 73.0275 159.241 72.1893 158.771 71.2653C157.613 68.9888 157.016 66.1939 157.152 63.6599C157.17 63.3031 157.204 62.952 157.253 62.6074C157.273 62.4644 157.296 62.3214 157.322 62.1811L157.323 62.1802C157.359 61.98 157.4 61.7833 157.447 61.5902C157.496 61.3891 157.55 61.1911 157.612 60.9975C158.858 57.03 162.149 56.2961 164.962 59.3598Z" fill="#1FD18E"/>
<path opacity="0.1" d="M167.688 64.541C168.402 67.0891 168.496 69.8624 167.796 72.091C166.549 76.0585 163.258 76.7911 160.446 73.7282C159.802 73.0273 159.24 72.1891 158.77 71.2651L158.77 71.2642C159.314 71.4957 160.478 71.4688 160.403 70.8075C160.827 71.6316 161.328 72.3735 161.893 72.989C162.701 73.8695 163.55 74.3992 164.347 74.5237C165.028 74.6293 165.648 74.4313 166.188 73.9337C166.715 73.4519 167.148 72.6969 167.445 71.7544C168.041 69.8593 167.999 67.4749 167.457 65.2274C167.457 65.2274 167.751 65.216 167.688 64.541Z" fill="black"/>
<path d="M164.79 59.8325C166.032 61.1851 166.96 63.1483 167.458 65.2278C167.999 67.4757 168.042 69.8596 167.446 71.7547C167.149 72.6972 166.715 73.4518 166.189 73.9341C165.648 74.4317 165.028 74.6297 164.348 74.5241C163.55 74.4 162.702 73.8698 161.893 72.9894C161.328 72.3738 160.828 71.632 160.404 70.8079C160.243 70.4968 160.093 70.1738 159.955 69.842C159.715 69.2639 159.507 68.6558 159.341 68.0363C159.307 67.9087 159.274 67.7815 159.242 67.6539C159.19 67.4419 159.141 67.2276 159.099 67.0133C158.95 66.2807 158.857 65.5389 158.823 64.8111C158.822 64.8036 158.823 64.7939 158.821 64.786C158.799 64.3011 158.802 63.8237 158.832 63.3582C158.853 63.0229 158.89 62.6951 158.939 62.3752C158.959 62.241 158.983 62.1086 159.009 61.977C159.04 61.82 159.076 61.6642 159.114 61.5106C159.152 61.3619 159.194 61.2154 159.238 61.072C159.535 60.1255 159.971 59.3731 160.496 58.8896C161.661 57.819 163.267 58.1733 164.79 59.8325Z" fill="#1FD18E"/>
<path opacity="0.4" d="M164.79 59.8325C166.032 61.1851 166.96 63.1483 167.458 65.2278C167.999 67.4757 168.042 69.8596 167.446 71.7547C167.149 72.6972 166.715 73.4518 166.189 73.9341C165.648 74.4317 165.028 74.6297 164.348 74.5241C163.55 74.4 162.702 73.8698 161.893 72.9894C161.328 72.3738 160.828 71.632 160.404 70.8079C160.243 70.4968 160.093 70.1738 159.955 69.842C159.715 69.2639 159.507 68.6558 159.341 68.0363C159.307 67.9087 159.274 67.7815 159.242 67.6539C159.19 67.4419 159.141 67.2276 159.099 67.0133C158.95 66.2807 158.857 65.5389 158.823 64.8111C158.822 64.8036 158.823 64.7939 158.821 64.786C158.799 64.3011 158.802 63.8237 158.832 63.3582C158.853 63.0229 158.89 62.6951 158.939 62.3752C158.959 62.241 158.983 62.1086 159.009 61.977C159.04 61.82 159.076 61.6642 159.114 61.5106C159.152 61.3619 159.194 61.2154 159.238 61.072C159.535 60.1255 159.971 59.3731 160.496 58.8896C161.661 57.819 163.267 58.1733 164.79 59.8325Z" fill="black"/>
<path d="M162.387 64.1875L163.411 68.5893C162.388 68.8563 161.135 69.1718 160.098 70.1684C160.049 70.0606 160.003 69.9519 159.957 69.8411C159.716 69.2629 159.509 68.6548 159.343 68.0353C159.308 67.9077 159.275 67.7801 159.244 67.6529C159.191 67.4409 159.143 67.2266 159.101 67.0123C158.952 66.2797 158.859 65.5379 158.824 64.8101C158.824 64.8026 158.824 64.7929 158.823 64.785C158.819 64.6781 158.814 64.5716 158.812 64.4656C160.2 64.9201 162.387 64.1875 162.387 64.1875Z" fill="#37474F"/>
<path d="M163.68 68.4276C163.323 68.7559 162.844 68.663 162.4 68.1795L162.387 68.165C161.689 67.4046 161.373 65.9856 161.682 65.0014L161.688 64.9824C161.771 64.7198 161.894 64.5081 162.045 64.3695C162.402 64.0413 162.881 64.1341 163.325 64.6177L163.338 64.6326C164.036 65.3925 164.352 66.812 164.043 67.7962L164.037 67.8156C163.954 68.0774 163.831 68.289 163.68 68.4276Z" fill="#1FD18E"/>
<path d="M154.801 72.9121C154.801 72.9121 155.516 72.8769 155.763 72.8831C156.355 72.8985 156.821 72.7955 157.141 73.3112C157.25 73.4872 157.269 73.7736 157.404 73.9263C157.557 74.0997 157.939 74.1366 158.149 74.2378C158.393 74.3557 158.607 74.5313 158.71 74.7887C158.78 74.9621 158.744 75.2406 158.864 75.3633C159.016 75.5182 159.324 75.5715 159.504 75.7074C159.908 76.0141 159.889 76.6464 159.956 77.0996C160.028 77.5884 160.18 78.2797 159.872 78.71C159.636 79.04 159.294 79.2323 158.925 79.3937C158.5 79.5794 158.041 79.7633 157.595 79.8962C157.208 80.0115 156.888 79.7638 156.741 79.4333C156.548 78.9991 155.977 79.0043 155.715 78.6031C155.601 78.4293 155.608 78.2101 155.499 78.0333C155.367 77.8199 155.243 77.6782 155.236 77.4159C155.224 76.9597 155.544 76.55 155.731 76.1562C155.894 75.8126 155.905 75.3629 155.892 74.9845C155.881 74.6937 155.858 74.2409 155.663 73.9967C155.664 73.9976 154.803 72.9156 154.801 72.9121Z" fill="#FFA8A7"/>
<path d="M148.853 81.5049C149.52 79.0088 149.63 77.8921 149.923 76.708C150.256 75.3594 151.379 74.8217 152.714 74.1903C153.72 73.7143 154.111 73.4753 154.758 73.0463C155.287 72.6842 155.309 74.2053 155.094 74.7219C154.836 75.3436 154.055 75.9345 153.517 76.4132C152.291 77.5031 155.42 80.2007 153.621 83.9526C152.476 85.035 148.853 81.5049 148.853 81.5049Z" fill="#FFA8A7"/>
<path d="M105.593 105.784C106.887 103.794 108.481 101.13 109.731 99.1072C110.994 97.0626 111.087 94.1784 110.898 91.7874C110.693 89.1976 110.127 82.184 110.744 79.9021C111.095 78.6037 112.404 77.4452 115.135 77.0184C117.642 76.6263 120.231 76.365 122.929 76.3042C128.78 76.1722 131.074 76.6906 131.074 76.6906C133.151 78.7014 138.502 86.0318 138.343 90.1854C138.14 95.516 134.249 96.4879 134.249 96.4879C134.249 96.4879 132.433 99.5094 132.009 101.298C131.716 102.536 132.293 104.04 132.414 108.311C132.414 108.311 129.451 115.11 117.856 113.398C108.279 111.984 105.593 105.784 105.593 105.784Z" fill="#1FD18E"/>
<path opacity="0.2" d="M127.661 97.3182C126.644 97.8343 125.645 98.093 124.518 98.2206C123.46 98.3407 122.374 98.2954 121.357 97.99C120.494 97.7309 119.72 97.2755 119.023 96.7528C118.262 96.183 117.799 95.4842 117.293 94.7292C117.225 94.6271 117.166 94.7864 117.18 94.8423C117.414 95.7548 118.075 96.6124 118.774 97.2874C119.523 98.0094 120.513 98.5176 121.546 98.8168C122.605 99.1235 123.879 99.068 124.963 98.8296C126.012 98.599 126.884 98.0596 127.687 97.429C127.724 97.4009 127.725 97.2856 127.661 97.3182Z" fill="black"/>
<path d="M134.084 58.2455C134.782 59.1009 135.968 61.326 135.75 67.8705C135.592 72.6054 134.101 73.5245 132.434 74.2083C131.618 74.5431 130.214 74.6681 128.729 74.5114L128.315 76.8835C128.315 76.8835 129.471 81.4802 128.861 85.1471C121.856 82.5872 119.108 77.3041 119.108 77.3041L120.551 69.1192C120.169 69.8131 118.396 70.5506 117.017 68.9705C115.47 67.1978 115.813 64.9287 117.087 64.0896C118.407 63.2206 119.951 63.9919 120.571 65.4914C120.892 66.8814 122.393 66.7705 122.56 64.9388C124.479 64.021 124.636 61.8522 123.949 59.5849C126.619 56.915 132.715 57.5472 134.084 58.2455Z" fill="#FFA8A7"/>
<path d="M130.104 63.1372L130.743 68.5188L133.647 67.2477C132.599 65.6267 131.143 63.5055 130.104 63.1372Z" fill="#F28F8F"/>
<path d="M128.73 74.512C124.713 73.969 122.472 72.9641 121.426 70.0425C121.426 70.0425 121.555 72.217 122.921 73.4595C124.669 75.0501 128.522 75.6978 128.522 75.6978L128.73 74.512Z" fill="#F28F8F"/>
<path d="M130.763 70.0263L128.272 69.1802C128.009 69.8595 128.353 70.5992 129.04 70.8328C129.728 71.0665 130.499 70.7052 130.763 70.0263Z" fill="#B16668"/>
<path d="M129.605 70.8933C129.418 70.9118 129.226 70.8955 129.04 70.8321C128.56 70.6693 128.254 70.2588 128.198 69.7964C128.868 69.821 129.429 70.2725 129.605 70.8933Z" fill="#F28F8F"/>
<path d="M126.702 64.3367C126.687 64.8136 127.066 65.2118 127.546 65.2259C128.027 65.24 128.428 64.8651 128.442 64.3882C128.456 63.9112 128.078 63.513 127.597 63.4989C127.116 63.4848 126.716 63.8597 126.702 64.3367Z" fill="#263238"/>
<path d="M132.567 64.0557C132.625 64.5291 133.059 64.8657 133.536 64.8072C134.014 64.7487 134.353 64.3175 134.295 63.8436C134.237 63.3701 133.803 63.0335 133.326 63.0921C132.849 63.1506 132.509 63.5818 132.567 64.0557Z" fill="#263238"/>
<path d="M134.456 62.2726L132.391 61.8317C132.494 61.2566 133.04 60.8888 133.61 61.0106C134.18 61.1325 134.559 61.6979 134.456 62.2726Z" fill="#263238"/>
<path d="M126.073 62.7293L128.06 61.943C127.861 61.3855 127.253 61.1101 126.704 61.327C126.156 61.5444 125.873 62.1723 126.073 62.7293Z" fill="#263238"/>
<path d="M109.535 78.7397C107.948 80.1182 105.027 84.0527 103.576 86.0885C102.125 88.1244 100.673 90.1621 100.673 90.1621C99.5952 87.7856 97.3072 82.7318 96.8887 81.7215C96.208 80.259 95.163 77.6718 94.9862 77.3418C93.7682 75.0674 91.6369 73.5085 89.4989 72.1652C89.1324 71.9351 88.7632 71.7094 88.3936 71.4845C88.2141 71.3754 88.0293 71.2729 87.867 71.1422C87.713 71.0186 87.5774 70.9191 87.372 71.0621C87.2272 71.1633 87.1506 71.3376 87.1124 71.51C86.9852 72.0825 87.2087 72.6844 87.5532 73.1592C87.8973 73.6339 88.3549 74.0123 88.7751 74.4215C89.0972 74.7352 88.5912 74.8166 88.347 74.8201C87.1467 74.8355 85.5103 73.8596 84.4926 73.2643C83.8247 72.8732 83.2307 72.3597 82.5056 72.0688C82.0594 71.8902 81.5626 71.8044 81.0949 71.9144C80.7777 71.9892 80.5115 72.1665 80.6444 72.5519C80.7271 72.7917 80.9312 72.9647 81.1125 73.142C81.4861 73.5076 81.8156 73.8394 81.8236 74.3942C81.8284 74.7436 81.7646 75.1004 81.8588 75.4366C81.9784 75.8643 82.334 76.1872 82.4998 76.5991C82.6472 76.9665 82.5716 77.3576 82.6745 77.7189C82.785 78.1056 83.2412 78.5069 83.5127 78.7907C84.1604 79.4674 84.9119 80.0408 85.7127 80.5243C86.9293 81.2591 87.2611 81.4294 88.6035 81.8962C89.3379 82.1519 90.393 82.2619 91.0015 83.4094C91.61 84.5565 91.8912 86.3552 92.8979 90.1176C93.7916 93.4581 94.9985 98.3839 97.6319 101.154C100.111 103.044 102.918 100.083 104.528 98.5705C105.613 97.5523 112.115 89.5888 112.115 89.5888C115.305 84.7848 115.49 81.1174 115.136 77.0184C115.136 77.0184 111.612 76.9348 109.535 78.7397Z" fill="#FFA8A7"/>
<path d="M89.4646 76.3262C89.9218 77.7091 91.2506 79.3019 92.0364 79.7762C92.0364 79.7762 90.7314 79.602 90.0766 78.6969C89.3594 77.7051 89.3766 76.8753 89.4646 76.3262Z" fill="#F28F8F"/>
<path d="M100.674 90.1618C101.504 92.1999 101.916 95.1752 101.595 97.3721C102.648 94.0307 102.351 91.2816 101.424 89.1089L100.674 90.1618Z" fill="#F28F8F"/>
<path d="M176.831 53.4058C176.982 53.5008 177.037 53.6904 176.974 53.8484C175.954 56.1729 173.716 58.2128 171.321 59.0906C174.579 60.0947 179.654 58.8138 182.801 56.0625C182.888 55.9912 183.007 55.9516 183.118 55.9833C185.932 56.6081 188.771 56.6239 191.562 56.0308C202.268 53.7459 209.131 43.1745 206.845 32.4609C204.561 21.7473 193.982 14.8842 183.268 17.1696C172.555 19.4545 165.699 30.0339 167.984 40.747C169.107 46.0208 172.254 50.5198 176.831 53.4058Z" fill="white"/>
<path d="M176.19 53.8407C175.052 56.1731 172.617 58.1417 170.165 58.6873C170.015 58.719 169.904 58.8453 169.889 58.9878C169.865 59.1379 169.944 59.2883 170.078 59.3596C173.462 61.0989 179.4 59.8894 183.132 56.7187C185.994 57.3277 188.88 57.3356 191.703 56.7346C202.804 54.3625 209.912 43.4118 207.54 32.3106C205.176 21.2099 194.217 14.1096 183.124 16.4737C172.023 18.8378 164.915 29.7965 167.279 40.8972C168.426 46.2582 171.581 50.8439 176.19 53.8407ZM167.983 40.7467C165.698 30.0332 172.553 19.4543 183.267 17.1693C193.98 14.8844 204.559 21.7475 206.844 32.4607C209.13 43.1742 202.266 53.7452 191.561 56.0306C188.77 56.6237 185.931 56.6079 183.116 55.9831C183.005 55.9514 182.887 55.991 182.8 56.0623C179.653 58.8136 174.577 60.0944 171.32 59.0903C173.715 58.2125 175.953 56.1727 176.973 53.8482C177.036 53.6902 176.981 53.5001 176.83 53.4055C172.253 50.5196 169.106 46.0206 167.983 40.7467Z" fill="#455A64"/>
<path opacity="0.1" d="M201.052 44.382L187.413 36.5073L173.773 44.382L187.413 52.2567L201.052 44.382Z" fill="black"/>
<path d="M187.412 51.2071L175.352 44.2362V33.564L175.098 33.4175V29.8623L187.412 36.9723V51.2071Z" fill="#1FD18E"/>
<path opacity="0.1" d="M187.412 51.2071L175.352 44.2362V33.564L175.098 33.4175V29.8623L187.412 36.9723V51.2071Z" fill="black"/>
<path opacity="0.3" d="M187.412 51.2071L175.352 44.2362V33.564L175.098 33.4175V29.8623L187.412 36.9723V51.2071Z" fill="white"/>
<path opacity="0.15" d="M187.412 40.5279L182.795 37.8619L175.352 33.5645V34.0757L187.412 41.0379V40.5279Z" fill="black"/>
<path d="M187.413 51.2076L199.407 44.2878V33.6019L199.728 33.418V29.8628L187.413 36.9728V51.2076Z" fill="#1FD18E"/>
<path opacity="0.45" d="M187.413 51.2076L199.407 44.2878V33.6019L199.728 33.418V29.8628L187.413 36.9728V51.2076Z" fill="white"/>
<path opacity="0.1" d="M199.408 33.6021L187.412 40.5281V41.0381L199.408 34.1191V33.6021Z" fill="black"/>
<path d="M199.727 29.8624L187.412 22.7524L175.098 29.8624L187.412 36.9724L199.727 29.8624Z" fill="#1FD18E"/>
<path opacity="0.6" d="M199.727 29.8624L187.412 22.7524L175.098 29.8624L187.412 36.9724L199.727 29.8624Z" fill="white"/>
<path d="M192.414 48.3227V34.0857L194.415 32.9307V47.1686L192.414 48.3227Z" fill="#1FD18E"/>
<path opacity="0.15" d="M192.414 48.3227V34.0857L194.415 32.9307V47.1686L192.414 48.3227Z" fill="black"/>
<path d="M182.411 48.3227V34.0857L180.411 32.9307V47.1686L182.411 48.3227Z" fill="#1FD18E"/>
<path opacity="0.4" d="M182.411 48.3227V34.0857L180.411 32.9307V47.1686L182.411 48.3227Z" fill="black"/>
<path d="M194.415 32.9303L182.1 25.8208L180.1 26.9758L192.414 34.0853L194.415 32.9303Z" fill="#1FD18E"/>
<path opacity="0.25" d="M187.576 31.2929L189.577 30.1379L187.576 28.9829L185.576 30.1379L187.576 31.2929Z" fill="black"/>
<path d="M182.411 34.0853L194.726 26.9753L192.725 25.8203L180.411 32.9303L182.411 34.0853Z" fill="#1FD18E"/>
<path d="M187.427 31.1586L188.33 36.4425V44.0132L190.289 41.6961V35.3113L187.847 30.3477L187.427 31.1586Z" fill="#1FD18E"/>
<path opacity="0.1" d="M187.427 31.1586L188.33 36.4425V44.0132L190.289 41.6961V35.3113L187.847 30.3477L187.427 31.1586Z" fill="black"/>
<path d="M187.909 30.7043L195.732 31.1941L197.14 29.416L187.915 29.9524L187.909 30.7043Z" fill="#1FD18E"/>
<path opacity="0.1" d="M187.909 30.7043L195.732 31.1941L197.14 29.416L187.915 29.9524L187.909 30.7043Z" fill="black"/>
<path d="M177.939 26.3403C177.939 26.3403 177.818 28.0536 179.685 29.301C182.683 31.3026 186.221 31.2537 187.428 31.1587L187.412 30.0759C187.412 30.0759 184.612 29.7652 182.806 28.0505C181.181 26.507 180.921 22.9087 180.921 22.9087L177.939 26.3403Z" fill="#1FD18E"/>
<path opacity="0.5" d="M177.939 26.3403C177.939 26.3403 177.818 28.0536 179.685 29.301C182.683 31.3026 186.221 31.2537 187.428 31.1587L187.412 30.0759C187.412 30.0759 184.612 29.7652 182.806 28.0505C181.181 26.507 180.921 22.9087 180.921 22.9087L177.939 26.3403Z" fill="black"/>
<path d="M187.428 30.2101C187.428 30.2101 187.194 27.3408 184.968 25.2429C182.741 23.145 180.921 22.9087 180.921 22.9087C179.465 23.8054 178.438 24.9314 177.939 26.3403C177.939 26.3403 179.825 25.9121 182.881 27.2348C185.6 28.4113 187.428 31.1587 187.428 31.1587V30.2101Z" fill="#1FD18E"/>
<path opacity="0.15" d="M187.428 30.2101C187.428 30.2101 187.194 27.3408 184.968 25.2429C182.741 23.145 180.921 22.9087 180.921 22.9087C179.465 23.8054 178.438 24.9314 177.939 26.3403C177.939 26.3403 179.825 25.9121 182.881 27.2348C185.6 28.4113 187.428 31.1587 187.428 31.1587V30.2101Z" fill="black"/>
<path d="M180.518 26.4783C181.196 26.6196 181.98 26.8457 182.881 27.2356C183.14 27.3473 183.387 27.4767 183.628 27.6135L185.095 25.3739C185.051 25.3308 185.012 25.2864 184.967 25.2437C184.148 24.4719 183.386 23.9554 182.747 23.6064C182.167 24.3342 181.184 25.6098 180.518 26.4783Z" fill="#1FD18E"/>
<path d="M195.73 25.4289C195.73 25.4289 196.108 27.1044 194.449 28.6184C191.786 31.0477 188.634 31.0714 187.427 31.1585L187.279 30.0858C187.279 30.0858 189.648 29.8174 191.175 27.8511C192.55 26.0805 192.268 22.4844 192.268 22.4844L195.73 25.4289Z" fill="#1FD18E"/>
<path opacity="0.5" d="M195.73 25.4289C195.73 25.4289 196.108 27.1044 194.449 28.6184C191.786 31.0477 188.634 31.0714 187.427 31.1585L187.279 30.0858C187.279 30.0858 189.648 29.8174 191.175 27.8511C192.55 26.0805 192.268 22.4844 192.268 22.4844L195.73 25.4289Z" fill="black"/>
<path d="M187.285 30.2208C187.285 30.2208 186.731 27.8088 188.618 25.3998C190.504 22.9908 192.268 22.4839 192.268 22.4839C193.841 23.1518 195.026 24.1106 195.731 25.4288C195.731 25.4288 193.802 25.2889 190.98 27.0559C188.469 28.6276 187.428 31.1585 187.428 31.1585L187.285 30.2208Z" fill="#1FD18E"/>
<path opacity="0.15" d="M187.285 30.2208C187.285 30.2208 186.731 27.8088 188.618 25.3998C190.504 22.9908 192.268 22.4839 192.268 22.4839C193.841 23.1518 195.026 24.1106 195.731 25.4288C195.731 25.4288 193.802 25.2889 190.98 27.0559C188.469 28.6276 187.428 31.1585 187.428 31.1585L187.285 30.2208Z" fill="black"/>
<path d="M189.254 24.6563C190.136 25.1029 191.42 25.766 192.419 26.2835C193.619 25.7286 194.557 25.5258 195.122 25.4624C194.537 24.7659 193.272 23.4362 191.678 22.7393C191.123 23.0217 190.237 23.5893 189.254 24.6563Z" fill="#1FD18E"/>
<path d="M190.291 35.3115L188.331 36.4428V44.0134L190.291 41.6964V35.3115Z" fill="#1FD18E"/>
<path opacity="0.15" d="M190.291 35.3115L188.331 36.4428V44.0134L190.291 41.6964V35.3115Z" fill="black"/>
<path d="M200.641 107.889L168.947 89.5443C168.452 89.2583 167.804 89.1157 167.155 89.1157C166.506 89.1157 165.858 89.2587 165.363 89.5443L164.971 89.781C163.981 90.3526 163.179 91.7425 163.179 92.8852L163.179 126.455C163.179 127.598 163.194 128.52 164.804 129.438L168.314 131.473C167.806 133.078 166.391 134.49 165.09 135.113C164.699 135.3 164.771 135.887 165.196 135.971C167.482 136.419 170.432 135.978 172.671 133.997L196.664 147.904C197.159 148.19 197.808 148.333 198.457 148.333C199.106 148.333 199.755 148.19 200.249 147.904L200.641 147.667C201.63 147.096 202.433 145.706 202.433 144.563V110.993C202.433 109.85 201.631 108.46 200.641 107.889Z" fill="#FAFAFA"/>
<path d="M163.237 92.3765C163.446 91.6157 164.14 91.3733 164.968 91.8498L196.665 110.197C197.159 110.482 197.61 110.967 197.928 111.535L201.902 109.231C201.576 108.663 201.133 108.178 200.64 107.894L168.951 89.546C167.955 88.9775 166.35 88.9775 165.364 89.546L164.968 89.7845C164.123 90.2693 163.413 91.3566 163.237 92.3765Z" fill="#1FD18E"/>
<path opacity="0.45" d="M163.237 92.3765C163.446 91.6157 164.14 91.3733 164.968 91.8498L196.665 110.197C197.159 110.482 197.61 110.967 197.928 111.535L201.902 109.231C201.576 108.663 201.133 108.178 200.64 107.894L168.951 89.546C167.955 88.9775 166.35 88.9775 165.364 89.546L164.968 89.7845C164.123 90.2693 163.413 91.3566 163.237 92.3765Z" fill="white"/>
<path d="M202.433 144.563C202.433 145.706 201.63 147.096 200.641 147.668L200.249 147.904C199.355 148.421 197.962 148.472 196.971 148.055C197.814 148.374 198.457 147.892 198.457 146.87V113.3C198.457 112.729 198.256 112.096 197.932 111.534L201.908 109.228C202.232 109.79 202.432 110.423 202.432 110.994V144.563H202.433Z" fill="#1FD18E"/>
<path opacity="0.25" d="M202.433 144.563C202.433 145.706 201.63 147.096 200.641 147.668L200.249 147.904C199.355 148.421 197.962 148.472 196.971 148.055C197.814 148.374 198.457 147.892 198.457 146.87V113.3C198.457 112.729 198.256 112.096 197.932 111.534L201.908 109.228C202.232 109.79 202.432 110.423 202.432 110.994V144.563H202.433Z" fill="white"/>
<path d="M173.069 134.229L172.673 134C172.567 134.097 172.457 134.185 172.347 134.273C172.118 134.457 171.885 134.62 171.643 134.774C171.533 134.845 171.423 134.911 171.313 134.972C171.194 135.043 171.076 135.104 170.957 135.166C170.952 135.17 170.948 135.17 170.944 135.175C170.829 135.232 170.71 135.289 170.596 135.342C170.499 135.386 170.402 135.43 170.301 135.469C170.209 135.505 170.116 135.54 170.028 135.571C169.615 135.729 169.188 135.848 168.766 135.936C168.66 135.958 168.554 135.98 168.453 135.997C168.348 136.015 168.242 136.033 168.136 136.046C168.053 136.059 167.974 136.068 167.89 136.077C167.868 136.081 167.846 136.081 167.824 136.085C166.904 136.178 166.007 136.129 165.197 135.971C164.77 135.887 164.7 135.298 165.092 135.113C166.39 134.488 167.806 133.08 168.317 131.474L168.088 131.342L168.295 131.307C169.5 130.339 170.886 130.075 172.404 129.899L173.069 134.229Z" fill="#263238"/>
<path d="M190.868 142.923C190.828 143.367 190.789 143.834 190.745 144.318L185.804 141.453L173.959 134.589C173.924 134.62 173.884 134.651 173.849 134.682L173.07 134.228L172.674 134C171.231 135.276 169.488 135.914 167.825 136.085C168.116 135.144 168.437 134.343 168.767 133.665C169.981 130.911 172.054 129.965 172.406 129.899C173.822 129.635 176.898 129.406 181.505 130.194C185.078 130.805 190.006 133.454 190.006 133.454C191.154 134.514 191.286 138.382 190.868 142.923Z" fill="#1FD18E"/>
<path opacity="0.2" d="M190.868 142.923C190.828 143.367 190.789 143.834 190.745 144.318L185.804 141.453L173.959 134.589C173.924 134.62 173.884 134.651 173.849 134.682L173.07 134.228L172.674 134C171.231 135.276 169.488 135.914 167.825 136.085C168.116 135.144 168.437 134.343 168.767 133.665C169.981 130.911 172.054 129.965 172.406 129.899C173.822 129.635 176.898 129.406 181.505 130.194C185.078 130.805 190.006 133.454 190.006 133.454C191.154 134.514 191.286 138.382 190.868 142.923Z" fill="black"/>
<path d="M171.739 115.685C171.14 115.158 170.631 114.566 170.392 113.625C170.136 112.613 170.073 111.811 170.218 110.747C170.251 110.509 170.404 109.966 170.53 109.767C170.761 109.399 171.197 109.305 171.585 109.255C171.833 109.223 172.081 109.195 172.329 109.172C171.922 108.653 171.504 108.114 171.325 107.442C171.192 106.945 171.2 106.394 171.347 105.886C171.387 105.749 171.439 105.609 171.534 105.51C171.754 105.278 172.096 105.327 172.374 105.419C174.61 106.156 176.83 106.03 177.609 106.005C179.012 105.96 179.724 105.797 181.656 105.657C183.589 105.518 186.951 106.559 187.279 110.481C189.819 111.01 189.848 115.497 188.985 117.365C187.395 120.805 185.946 123.07 185.093 125.556C184.967 125.45 176.711 119.832 174.838 118.265C174.136 117.678 173.434 117.091 172.732 116.504C172.394 116.221 172.054 115.962 171.739 115.685Z" fill="#263238"/>
<path d="M187.768 123.052C186.155 124.247 185.236 123.038 185.236 123.038L184.724 131.477C181.262 135.851 172.819 134.933 176.781 130.526L176.832 128.504C176.832 128.504 175.543 128.553 174.492 128.337C174.032 128.243 173.517 128.018 173.162 127.757C172.327 127.147 171.758 126.341 171.467 125.005C171.124 123.412 170.995 121.289 171.135 118.942C171.281 116.49 171.713 113.329 172.568 111.703C174.009 110.441 178.065 110.408 181.403 111.538C181.406 112.457 181.269 113.256 181.884 114.279C182.186 114.781 182.688 115.169 183.115 115.412C183.093 117.196 183.129 117.678 183.385 118.472C183.527 118.928 183.821 119.615 184.682 119.306C185.088 119.159 185.442 118.22 185.891 117.6C186.496 116.766 188.254 116.409 188.977 118.261C189.707 120.147 188.869 122.227 187.768 123.052Z" fill="#FFA8A7"/>
<path d="M176.834 128.502C178.564 128.356 181.671 127.725 182.629 126.613C183.587 125.501 184.44 122.903 184.44 122.903C184.44 122.903 183.913 125.831 183.161 127.092C182.409 128.353 180.89 128.833 179.784 129.165C178.678 129.496 176.804 129.627 176.804 129.627L176.834 128.502Z" fill="#F28F8F"/>
<path d="M178.546 115.889L180.141 116.698C180.361 116.194 180.183 115.605 179.742 115.382C179.301 115.159 178.766 115.386 178.546 115.889Z" fill="#263238"/>
<path d="M174.023 115.381L172.247 115.925C172.152 115.402 172.472 114.855 172.962 114.705C173.453 114.555 173.927 114.858 174.023 115.381Z" fill="#263238"/>
<path d="M178.915 122.414L175.855 123.577C176.146 124.484 177.068 124.958 177.912 124.636C178.757 124.315 179.206 123.32 178.915 122.414Z" fill="#B16668"/>
<path d="M178.78 123.083C177.926 123.064 177.188 123.79 177.118 124.707C177.376 124.751 177.647 124.737 177.912 124.636C178.542 124.397 178.95 123.783 178.997 123.112C178.926 123.099 178.855 123.085 178.78 123.083Z" fill="#F28F8F"/>
<path d="M176.465 116.169L175.559 121.954L172.857 120.63L176.465 116.169Z" fill="#F28F8F"/>
<path d="M179.569 117.963C179.546 118.43 179.176 118.806 178.743 118.804C178.31 118.801 177.977 118.421 178 117.954C178.023 117.487 178.393 117.11 178.826 117.113C179.259 117.115 179.592 117.496 179.569 117.963Z" fill="#263238"/>
<path d="M174.129 117.396C174.108 117.833 173.762 118.186 173.356 118.183C172.951 118.181 172.639 117.825 172.66 117.387C172.681 116.95 173.028 116.597 173.433 116.6C173.839 116.602 174.15 116.959 174.129 117.396Z" fill="#263238"/>
<path d="M195.477 147.059L190.743 144.318L185.802 141.453C185.802 141.383 185.806 141.308 185.811 141.238C186.057 136.442 190.004 133.454 190.004 133.454C191.834 134.413 194.061 136.253 194.892 138.629C195.715 140.983 195.491 141.964 195.477 147.059Z" fill="#263238"/>
<path d="M164.166 92.1731C164.268 92.1731 164.44 92.2026 164.682 92.343L196.382 110.686C196.779 110.915 197.162 111.324 197.435 111.81C197.725 112.312 197.889 112.851 197.889 113.296V146.872C197.889 147.137 197.834 147.582 197.463 147.582C197.4 147.582 197.329 147.571 197.254 147.549L197.217 147.539L197.208 147.537L197.185 147.53C197.101 147.493 197.022 147.456 196.947 147.413L182.979 139.321L177.007 135.856L172.957 133.507L172.603 133.302L172.297 133.573C170.846 134.857 168.922 135.564 166.881 135.564C166.457 135.564 166.039 135.533 165.632 135.471C166.893 134.771 168.309 133.375 168.857 131.642L168.994 131.209L168.601 130.981L165.09 128.945C163.745 128.182 163.745 127.532 163.745 126.456V92.8872C163.745 92.7742 163.756 92.6536 163.777 92.5291L163.785 92.5308C163.882 92.1731 164.088 92.1731 164.166 92.1731ZM164.167 91.606C164.166 91.606 164.166 91.606 164.167 91.606C163.717 91.606 163.374 91.8823 163.237 92.3795C163.258 92.251 163.292 92.123 163.325 91.9945C163.23 92.2919 163.177 92.5955 163.177 92.8864V126.455C163.177 127.597 163.197 128.522 164.805 129.435L168.316 131.471C167.807 133.077 166.392 134.49 165.09 135.113C164.7 135.3 164.772 135.887 165.197 135.97C165.728 136.075 166.295 136.13 166.88 136.13C168.815 136.13 170.953 135.518 172.672 133.997L176.722 136.346L182.694 139.812L196.666 147.906C196.76 147.96 196.861 148.007 196.97 148.054C197.01 148.068 197.051 148.088 197.098 148.095C197.226 148.131 197.348 148.149 197.462 148.149C198.053 148.149 198.456 147.681 198.456 146.872V113.296C198.456 112.729 198.254 112.094 197.929 111.533C197.612 110.965 197.159 110.479 196.666 110.195L164.966 91.8524C164.679 91.6856 164.408 91.606 164.167 91.606Z" fill="#1FD18E"/>
<path d="M56.2823 97.752C56.2823 96.8025 55.6157 95.6479 54.7934 95.1727L54.4678 94.976C54.0564 94.7384 53.5178 94.6196 52.9788 94.6196C52.4398 94.6196 51.9008 94.7384 51.4899 94.976L25.1554 110.219C24.3331 110.693 23.666 111.848 23.666 112.798V140.691C23.666 141.641 24.3331 142.796 25.1554 143.27L25.481 143.467C25.8924 143.705 26.4314 143.823 26.97 143.823C27.509 143.823 28.048 143.704 28.4594 143.467L48.3958 131.912C50.2557 133.558 52.7069 133.924 54.6064 133.552C54.9597 133.483 55.0195 132.994 54.6948 132.839C53.6133 132.321 52.4381 131.148 52.0152 129.814L54.9324 128.123C56.2705 127.36 56.2828 126.595 56.2828 125.645L56.2823 97.752Z" fill="#FAFAFA"/>
<path d="M56.2335 97.3292C56.0597 96.6969 55.4833 96.4954 54.7951 96.8914L28.4576 112.137C28.048 112.373 27.6726 112.776 27.4086 113.248L24.1064 111.334C24.3775 110.861 24.7458 110.458 25.1554 110.222L51.4859 94.977C52.3126 94.5044 53.6463 94.5044 54.4664 94.977L54.7951 95.1754C55.4969 95.5785 56.0874 96.4813 56.2335 97.3292Z" fill="#1FD18E"/>
<path opacity="0.45" d="M56.2335 97.3292C56.0597 96.6969 55.4833 96.4954 54.7951 96.8914L28.4576 112.137C28.048 112.373 27.6726 112.776 27.4086 113.248L24.1064 111.334C24.3775 110.861 24.7458 110.458 25.1554 110.222L51.4859 94.977C52.3126 94.5044 53.6463 94.5044 54.4664 94.977L54.7951 95.1754C55.4969 95.5785 56.0874 96.4813 56.2335 97.3292Z" fill="white"/>
<path d="M23.666 140.691C23.666 141.641 24.3331 142.796 25.1554 143.271L25.481 143.468C26.2242 143.897 27.3814 143.939 28.2051 143.593C27.5041 143.858 26.9704 143.458 26.9704 142.608V114.715C26.9704 114.24 27.1372 113.714 27.4065 113.247L24.1029 111.331C23.8337 111.797 23.6669 112.323 23.6669 112.798V140.691H23.666Z" fill="#1FD18E"/>
<path opacity="0.25" d="M23.666 140.691C23.666 141.641 24.3331 142.796 25.1554 143.271L25.481 143.468C26.2242 143.897 27.3814 143.939 28.2051 143.593C27.5041 143.858 26.9704 143.458 26.9704 142.608V114.715C26.9704 114.24 27.1372 113.714 27.4065 113.247L24.1029 111.331C23.8337 111.797 23.6669 112.323 23.6669 112.798V140.691H23.666Z" fill="white"/>
<path d="M54.6067 133.552C54.1139 133.648 53.5815 133.697 53.0359 133.679C51.7379 133.653 50.3386 133.292 49.111 132.469L48.1562 127.339C50.3254 127.317 51.773 127.546 52.8378 128.192C53.1634 128.39 53.4495 128.602 53.7135 128.835L52.0151 129.816C52.4375 131.149 53.6123 132.324 54.6947 132.839C55.0203 132.993 54.9587 133.481 54.6067 133.552Z" fill="#263238"/>
<path d="M53.035 133.679C51.737 133.653 50.3378 133.292 49.1102 132.469C48.8638 132.302 48.6218 132.117 48.393 131.915L34.5726 139.927L31.541 141.683C31.453 141.252 31.365 140.816 31.2682 140.363C30.5818 137.098 31.4442 132.025 32.8918 131.321C34.7794 130.401 35.2502 130.115 35.7958 129.702C35.7958 129.702 38.4314 127.22 42.8006 127.277C44.5166 127.299 46.2326 127.26 48.1554 127.339C50.153 127.423 51.979 129.557 53.035 133.679Z" fill="#37474F"/>
<path d="M35.9348 111.579C34.0604 114 34.9541 116.273 35.7976 119.125C36.7766 122.371 37.441 123.97 38.174 124.183C37.3244 113.986 41.1405 126.454 48.3688 118.514C49.6756 117.078 49.5625 112.643 47.8087 110.633C45.3297 107.792 39.608 107.013 35.9348 111.579Z" fill="#263238"/>
<path d="M35.6572 122.407C36.7409 123.156 37.6478 122 37.6478 122L38.189 128.761C38.189 128.761 38.1978 129.621 40.0612 130.69C41.2936 131.397 43.8509 131.803 45.3073 133.34C45.9193 132.229 46.4117 130.171 45.0459 128.422L44.9364 126.588C44.9364 126.588 45.6395 126.677 46.4007 126.458C47.3973 126.17 48.7023 125.145 49.0477 123.62C49.6012 121.167 49.3337 117.469 48.3032 112.679C46.794 111.43 41.5215 111.447 39.1266 113.627C39.9503 116.523 38.5484 117.193 38.5854 118.215C38.3997 118.617 38.1414 118.951 37.9857 119.1C37.5188 119.543 37.0907 118.375 36.6736 117.914C36.2525 117.457 34.9149 116.82 34.3077 118.304C33.6939 119.816 34.7209 121.764 35.6572 122.407Z" fill="#B16668"/>
<path d="M42.3594 115.726L41.1111 116.567C40.8796 116.169 40.9716 115.657 41.3161 115.425C41.6611 115.193 42.1279 115.328 42.3594 115.726Z" fill="#263238"/>
<path d="M48.0768 115.779L46.5654 115.316C46.6411 114.882 47.0411 114.633 47.4582 114.761C47.8753 114.889 48.1525 115.345 48.0768 115.779Z" fill="#263238"/>
<path d="M41.8286 117.637C41.8519 118.006 42.1476 118.298 42.4895 118.29C42.8309 118.282 43.0892 117.977 43.0659 117.609C43.0426 117.24 42.7465 116.948 42.405 116.956C42.0636 116.963 41.8053 117.268 41.8286 117.637Z" fill="#263238"/>
<path d="M46.7084 117.172C46.7318 117.541 47.0274 117.833 47.3693 117.825C47.7112 117.817 47.969 117.513 47.9457 117.144C47.9224 116.776 47.6267 116.483 47.2848 116.491C46.9434 116.499 46.6856 116.804 46.7084 117.172Z" fill="#263238"/>
<path d="M44.3135 115.724L44.764 119.823L46.9425 119.018C46.5742 117.881 45.2001 116.181 44.3135 115.724Z" fill="#9A4A4D"/>
<path d="M38.5592 117.843C38.6903 120.624 39.8902 121.155 40.8758 121.447C42.447 121.911 43.1669 120.498 44.9885 120.36C46.0317 120.281 46.3023 120.484 47.2879 121.108C47.4366 121.203 47.8493 121.414 48.0315 121.451C48.4029 121.526 48.9722 121.578 49.1275 121.027C49.3273 120.319 49.3053 118.855 49.1403 117.639L49.0765 116.974C49.0765 116.974 49.623 119.9 49.4166 122.178C49.2873 123.606 48.8165 124.938 48.1151 125.617C47.1533 126.547 45.4311 127.078 42.748 126.556C40.104 126.042 39.0168 125.129 38.6217 124.137C37.3391 120.92 37.6229 119.362 37.2291 118.76C36.8366 118.158 38.5592 117.843 38.5592 117.843Z" fill="#263238"/>
<path d="M45.6555 121.187C46.8994 121.306 47.5383 121.821 47.5928 122.685C47.6474 123.55 47.4454 124.621 46.7317 124.944C46.0181 125.268 46.055 124.426 46.1457 123.972C46.2367 123.517 45.9886 123.62 45.5847 123.629C45.1807 123.638 45.0144 123.579 45.1697 124.035C45.3246 124.492 45.5459 125.136 44.7091 125.057C43.8722 124.977 43.2311 124.117 43.0353 123.022C42.8395 121.927 43.7749 121.007 45.6555 121.187Z" fill="#B16668"/>
<path d="M43.9733 121.893L46.0875 121.89C46.0497 122.473 45.6299 122.943 45.046 122.944C44.4626 122.945 43.9386 122.48 43.9733 121.893Z" fill="#9A4A4D"/>
<path d="M44.0078 122.182C44.1257 122.625 44.5631 122.945 45.0462 122.945C45.2671 122.944 45.4647 122.876 45.6266 122.761C45.2002 122.368 44.626 122.145 44.0078 122.182Z" fill="#F28F8F"/>
<path d="M45.3046 133.339C44.4999 132.837 42.38 131.884 42.2097 132.448C42.09 132.845 41.7464 134.288 41.1493 134.256C40.3546 134.212 38.2035 133.408 36.7752 131.632C35.8609 130.496 35.7949 129.702 35.7949 129.702C35.7949 129.702 36.5016 128.181 36.9372 127.483C37.3697 126.791 37.4867 126.345 37.9769 126.301L38.1076 127.729C38.1076 127.729 38.5867 128.657 39.5684 129.366C41.0014 130.401 43.8575 131.526 45.3046 133.339Z" fill="#263238"/>
<path d="M45.3041 133.338C45.7401 132.877 46.4639 130.98 46.8397 131.054C47.6224 131.208 48.1588 131.808 48.1566 131.371C48.1544 130.935 47.5731 130.008 46.8661 128.744C46.3235 127.775 45.4611 126.977 44.9512 126.89L45.0722 128.849C45.0722 128.849 45.3709 129.451 45.4818 130.529C45.6002 131.684 45.6033 132.534 45.3041 133.338Z" fill="#263238"/>
<path d="M34.6344 139.346L28.2236 143.06C28.162 143.095 28.096 143.126 28.0256 143.157L28.008 143.166H27.9992L27.9684 143.174C27.9068 143.192 27.8496 143.201 27.7968 143.201C27.4844 143.201 27.4404 142.831 27.4404 142.611V136.997C27.4492 136.957 27.458 136.913 27.4668 136.874C27.9508 134.652 30.5776 132.381 32.892 131.321C34.74 133.622 34.8544 136.996 34.6344 139.346Z" fill="#263238"/>
<path d="M55.4625 97.1602C55.5271 97.1602 55.6987 97.1602 55.7801 97.4568L55.7867 97.4554C55.8048 97.5588 55.814 97.6592 55.814 97.7533V125.646C55.814 126.54 55.814 127.08 54.696 127.714L51.7788 129.406L51.4519 129.596L51.5658 129.956C52.0212 131.396 53.1982 132.556 54.2454 133.137C53.9079 133.189 53.5599 133.215 53.2079 133.215C51.5121 133.215 49.9141 132.627 48.708 131.56L48.4533 131.335L48.1593 131.505L44.7933 133.457L39.8315 136.337L28.2251 143.061C28.1635 143.096 28.0975 143.126 28.0276 143.157L28.0091 143.164L28.0016 143.165L27.9708 143.174C27.9079 143.191 27.8494 143.2 27.797 143.2C27.4886 143.2 27.4424 142.831 27.4424 142.611V114.713C27.4424 114.343 27.5788 113.895 27.8203 113.478C28.0465 113.074 28.3646 112.734 28.6951 112.544L55.0352 97.3023C55.235 97.1844 55.378 97.1602 55.4625 97.1602ZM55.4625 96.689C55.2623 96.689 55.0365 96.755 54.7976 96.894L28.4583 112.135C28.0487 112.371 27.6725 112.775 27.4085 113.247C27.1392 113.713 26.9707 114.24 26.9707 114.712V142.61C26.9707 143.282 27.3051 143.671 27.7961 143.671C27.8916 143.671 27.9928 143.656 28.0989 143.626C28.138 143.62 28.1719 143.604 28.2058 143.593C28.2955 143.553 28.3796 143.514 28.4583 143.469L40.0673 136.744L45.0296 133.864L48.3952 131.912C49.823 133.176 51.5997 133.685 53.2075 133.685C53.6941 133.685 54.1649 133.638 54.6062 133.552C54.9595 133.483 55.0189 132.994 54.6947 132.839C53.6127 132.321 52.437 131.147 52.0146 129.813L54.9318 128.121C56.2681 127.363 56.2848 126.594 56.2848 125.645V97.7524C56.2848 97.5109 56.2399 97.2583 56.1616 97.0115C56.1893 97.118 56.2175 97.2249 56.2347 97.3314C56.1211 96.9186 55.8365 96.689 55.4625 96.689Z" fill="#1FD18E"/>
<path d="M54.5993 22.9597C54.5993 21.8082 53.791 20.4081 52.7935 19.8322L52.3989 19.5937C51.9003 19.3059 51.2469 19.1616 50.5931 19.1616C49.9393 19.1616 49.2859 19.3055 48.7873 19.5937L16.8565 38.0763C15.8591 38.6523 15.0508 40.0519 15.0508 41.2039V75.0258C15.0508 76.1773 15.8595 77.5778 16.8565 78.1533L17.2508 78.3918C17.7493 78.6795 18.4031 78.8239 19.0565 78.8239C19.7104 78.8239 20.3638 78.68 20.8623 78.3918L45.0363 64.3809C47.2918 66.3763 50.264 66.8207 52.5669 66.3688C52.9951 66.2847 53.0677 65.6929 52.6743 65.5046C51.3627 64.8772 49.9375 63.4547 49.4253 61.8372L52.9625 59.7873C54.5848 58.8624 54.5997 57.934 54.5997 56.7821L54.5993 22.9597Z" fill="#FAFAFA"/>
<path d="M54.5404 22.4473C54.3296 21.6808 53.6309 21.4361 52.7966 21.9166L20.861 40.4019C20.3642 40.6883 19.9093 41.1767 19.589 41.7496L15.585 39.4282C15.9136 38.8553 16.3598 38.3669 16.857 38.0805L48.7843 19.5952C49.787 19.0223 51.404 19.0223 52.3984 19.5952L52.7971 19.8359C53.6472 20.3243 54.363 21.4194 54.5404 22.4473Z" fill="#1FD18E"/>
<path opacity="0.45" d="M54.5404 22.4473C54.3296 21.6808 53.6309 21.4361 52.7966 21.9166L20.861 40.4019C20.3642 40.6883 19.9093 41.1767 19.589 41.7496L15.585 39.4282C15.9136 38.8553 16.3598 38.3669 16.857 38.0805L48.7843 19.5952C49.787 19.0223 51.404 19.0223 52.3984 19.5952L52.7971 19.8359C53.6472 20.3243 54.363 21.4194 54.5404 22.4473Z" fill="white"/>
<path d="M15.0508 75.026C15.0508 76.178 15.8595 77.578 16.8565 78.154L17.2512 78.3925C18.1528 78.913 19.5555 78.964 20.5543 78.5438C19.7047 78.865 19.0574 78.3797 19.0574 77.3497V43.5278C19.0574 42.9518 19.2598 42.3138 19.5863 41.748L15.5805 39.4243C15.2536 39.9902 15.0517 40.6282 15.0517 41.2041V75.026H15.0508Z" fill="#1FD18E"/>
<path opacity="0.25" d="M15.0508 75.026C15.0508 76.178 15.8595 77.578 16.8565 78.154L17.2512 78.3925C18.1528 78.913 19.5555 78.964 20.5543 78.5438C19.7047 78.865 19.0574 78.3797 19.0574 77.3497V43.5278C19.0574 42.9518 19.2598 42.3138 19.5863 41.748L15.5805 39.4243C15.2536 39.9902 15.0517 40.6282 15.0517 41.2041V75.026H15.0508Z" fill="white"/>
<path d="M52.8048 65.6013L52.0687 66.4496C51.7378 66.4976 51.4017 66.5244 51.0497 66.5244C49.6412 66.5565 48.11 66.2631 46.7069 65.5269L44.1514 58.7888C46.9418 58.7034 48.4304 58.8099 50.3721 60.6935C50.479 60.7947 50.607 60.9228 50.7509 61.0724L49.4278 61.8406C49.94 63.4572 51.3643 64.8762 52.6772 65.5058C52.73 65.5318 52.7727 65.5639 52.8048 65.6013Z" fill="#F0997A"/>
<path d="M51.0484 66.5237C49.64 66.5558 48.1088 66.2624 46.7056 65.5263C46.1239 65.2222 45.5585 64.8434 45.0358 64.3792L33.3252 71.1657L31.6338 72.1474C31.746 71.71 31.8314 71.219 31.8846 70.6641C32.3704 65.5157 30.3055 62.9228 30.0762 62.6451C30.071 62.6398 30.0657 62.6346 30.06 62.6293L30.0547 62.624C30.0547 62.624 31.7513 61.6318 33.9548 60.7782C36.1584 59.9246 37.3908 59.4872 41.5413 58.8734L44.1501 58.7881C44.1501 58.7881 47.0096 60.9168 49.1705 63.3179C49.5009 63.68 50.6216 64.982 51.0484 66.5237Z" fill="#F0F0F0"/>
<path d="M48.091 57.6666C48.6687 53.3309 43.617 53.7322 42.1426 50.9575L45.9785 47.9761C48.3426 46.3608 47.8683 42.8347 47.0781 41.032C45.3141 37.0073 41.0505 35.7304 38.4915 35.7428C33.6387 35.7656 31.415 37.2625 31.1831 39.9954C29.3874 39.9518 26.8737 42.0598 27.1404 47.9057C27.1936 49.0743 27.3265 50.4955 26.7945 51.5075C26.3268 52.3972 25.6197 53.2622 25.321 54.2654C24.8246 55.933 25.4411 58.3319 27.3841 58.5818C27.2213 58.1445 26.9648 57.5646 27.2944 57.1452C27.5236 59.2093 30.8966 60.3726 32.4019 59.8103C31.9914 59.5463 31.668 59.3241 31.506 58.8084C34.0567 60.1139 36.1564 59.4988 38.6186 58.4344C39.0622 58.2426 39.3627 58.1546 40.8274 58.5321C41.7176 58.7614 42.7854 58.8612 44.4108 57.88C45.4351 57.2614 47.0341 56.3387 48.091 57.6666Z" fill="#37474F"/>
<path d="M32.5807 53.0102C31.7205 53.2047 30.8647 52.7572 30.2971 52.1408C29.0374 50.7728 28.8407 49.3573 29.3291 48.4016C29.7304 47.6162 30.808 47.097 31.6171 47.6057C32.4822 48.1495 32.5367 48.6071 32.8901 49.2346C33.2526 49.8787 34.4534 49.7806 34.5841 47.2158C34.7064 44.8236 34.907 42.6289 35.923 41.5284C37.4397 39.885 39.3594 40.5534 40.0634 41.4892C40.6539 40.3624 41.7899 39.9079 42.9348 40.5234C44.0573 41.1267 44.7679 42.4366 45.4296 46.9563C46.1041 51.5635 45.4147 54.8538 44.4823 55.6511C43.7748 56.2561 42.8376 56.4017 41.2369 56.5144L41.3667 59.5649C41.3667 59.5649 43.1126 60.7058 43.3528 64.6623C40.5571 64.056 36.2464 63.1337 33.866 60.9861L33.4533 52.2653C33.4533 52.2653 33.3983 52.825 32.5807 53.0102Z" fill="#FFBDA7"/>
<path d="M38.9062 47.5006C38.813 47.9208 38.4293 48.1663 38.0496 48.0497C37.6694 47.9327 37.4371 47.4975 37.5304 47.0773C37.6236 46.6571 38.0073 46.4111 38.3875 46.5282C38.7672 46.6452 38.9995 47.0804 38.9062 47.5006Z" fill="#263238"/>
<path d="M38.1306 46.5029C37.6884 46.5254 37.4662 47.1744 37.0244 46.928C37.1164 47.2716 37.607 47.4683 37.9093 47.2879C38.102 47.1726 38.1306 46.5029 38.1306 46.5029Z" fill="#263238"/>
<path d="M44.2785 45.2172L42.7227 44.4221C42.8916 43.9575 43.3774 43.7591 43.8068 43.9786C44.2367 44.1977 44.4479 44.7526 44.2785 45.2172Z" fill="#263238"/>
<path d="M42.6407 47.1775C42.8048 47.5853 43.2277 47.7913 43.5845 47.6381C43.9413 47.485 44.0975 47.0305 43.933 46.6231C43.7684 46.2156 43.346 46.0093 42.9892 46.1624C42.6323 46.3159 42.4761 46.7705 42.6407 47.1775Z" fill="#263238"/>
<path d="M43.2383 46.1119C43.6809 46.0907 44.0118 46.7125 44.4078 46.4247C44.3757 46.7745 43.9225 47.0174 43.592 46.8682C43.3808 46.7732 43.2383 46.1119 43.2383 46.1119Z" fill="#263238"/>
<path d="M38.1587 44.7787L36.6908 45.8453C36.3802 45.4022 36.4568 44.8043 36.8624 44.5095C37.2677 44.2155 37.8485 44.3357 38.1587 44.7787Z" fill="#263238"/>
<path d="M38.6126 51.3325L41.0128 51.9965C40.8975 52.7146 40.1992 53.144 39.4446 52.9042C38.7877 52.6948 38.4973 52.0502 38.6126 51.3325Z" fill="#B16668"/>
<path d="M40.1206 52.9373C39.9789 52.243 39.3792 51.7361 38.7152 51.7867C38.6748 51.7898 38.6378 51.8016 38.5986 51.8087C38.6514 52.3217 38.937 52.7428 39.4439 52.9038C39.6815 52.9795 39.9107 52.9826 40.1206 52.9373Z" fill="#F0997A"/>
<path d="M40.2324 45.8286L40.9941 50.3518L43.2169 49.3565L40.2324 45.8286Z" fill="#F0997A"/>
<path d="M41.2349 56.5139C39.7389 56.4418 38.158 56.3058 36.6092 55.6995C36.0614 55.4852 35.2597 54.4877 34.5781 53.3657C34.5781 53.3657 35.1871 55.6146 36.3944 56.3357C38.2306 57.4326 41.2789 57.5497 41.2789 57.5497L41.2349 56.5139Z" fill="#F0997A"/>
<path d="M34.0805 53.1684C34.19 54.0348 33.7861 54.8347 33.1243 55.2206C32.9065 55.3522 32.6685 55.4331 32.4014 55.456C31.3261 55.5563 30.3387 54.7027 30.1948 53.5385C30.1381 53.0796 30.2164 52.6308 30.4122 52.2528C30.4733 52.3179 30.5336 52.3747 30.5935 52.4226C30.7136 52.5274 30.8394 52.6061 30.956 52.6682C30.8355 52.9141 30.7888 53.19 30.8227 53.4791C30.9243 54.2605 31.594 54.8404 32.3156 54.7674C32.6056 54.7348 32.8559 54.6103 33.0517 54.4114C33.3426 54.1224 33.5023 53.6947 33.4447 53.2274C33.343 52.446 32.6733 51.866 31.9597 51.9382C31.7793 51.9562 31.616 51.811 31.5989 51.624C31.5742 51.4375 31.6935 51.2685 31.8664 51.2505C32.9417 51.1515 33.9287 52.0051 34.0805 53.1684Z" fill="#1FD18E"/>
<path opacity="0.2" d="M34.0805 53.1684C34.19 54.0348 33.7861 54.8347 33.1243 55.2206C32.9065 55.3522 32.6685 55.4331 32.4014 55.456C31.3261 55.5563 30.3387 54.7027 30.1948 53.5385C30.1381 53.0796 30.2164 52.6308 30.4122 52.2528C30.4733 52.3179 30.5336 52.3747 30.5935 52.4226C30.7136 52.5274 30.8394 52.6061 30.956 52.6682C30.8355 52.9141 30.7888 53.19 30.8227 53.4791C30.9243 54.2605 31.594 54.8404 32.3156 54.7674C32.6056 54.7348 32.8559 54.6103 33.0517 54.4114C33.3426 54.1224 33.5023 53.6947 33.4447 53.2274C33.343 52.446 32.6733 51.866 31.9597 51.9382C31.7793 51.9562 31.616 51.811 31.5989 51.624C31.5742 51.4375 31.6935 51.2685 31.8664 51.2505C32.9417 51.1515 33.9287 52.0051 34.0805 53.1684Z" fill="black"/>
<path d="M33.3249 71.1653L31.6335 72.1469L25.5677 75.663C25.5518 75.0549 25.5303 74.4464 25.5092 73.8599C25.2051 65.9262 26.4002 64.8861 30.0548 62.624L30.0601 62.6293C30.0654 62.6346 30.0706 62.6399 30.0764 62.6451C32.679 65.0775 33.2338 68.9939 33.3249 71.1653Z" fill="#FFBDA7"/>
<path d="M53.6051 22.242C53.6834 22.242 53.8915 22.242 53.9901 22.6015L53.998 22.5997C54.02 22.7251 54.031 22.847 54.031 22.961V56.7825C54.031 57.8666 54.031 58.5209 52.6754 59.29L49.1382 61.3413L48.7418 61.571L48.8799 62.0079C49.4321 63.7534 50.8591 65.1596 52.1289 65.8654C51.7197 65.9279 51.2977 65.9591 50.8709 65.9591C48.8144 65.9591 46.8766 65.2467 45.4145 63.9527L45.1056 63.6795L44.7492 63.8863L40.6678 66.253L34.6512 69.7449L20.5778 77.8976C20.503 77.9403 20.4229 77.9773 20.338 78.0147L20.3151 78.023L20.3059 78.0243L20.2689 78.0349C20.1928 78.0565 20.122 78.0675 20.0582 78.0675C19.6842 78.0675 19.6283 77.6195 19.6283 77.3525V43.5239C19.6283 43.0756 19.7937 42.5322 20.0863 42.0262C20.3605 41.5369 20.7463 41.1242 21.1467 40.8936L53.0855 22.4123C53.3288 22.2719 53.5021 22.242 53.6051 22.242ZM53.6047 21.6709C53.3618 21.6709 53.0881 21.751 52.7986 21.9195L20.8612 40.3999C20.3644 40.6859 19.9081 41.1761 19.5883 41.7477C19.2613 42.3126 19.0576 42.9524 19.0576 43.5244V77.3525C19.0576 78.1673 19.4633 78.639 20.0586 78.639C20.1743 78.639 20.2971 78.621 20.4256 78.5845C20.4731 78.5779 20.514 78.5572 20.5549 78.5435C20.6636 78.496 20.7657 78.4481 20.8612 78.3939L34.9377 70.2394L40.9547 66.7476L45.0357 64.3808C46.7671 65.9129 48.9213 66.5307 50.8705 66.5307C51.4605 66.5307 52.0317 66.4743 52.5667 66.3692C52.9948 66.2851 53.0674 65.6933 52.6741 65.505C51.362 64.8771 49.9364 63.4537 49.4247 61.8359L52.9618 59.7846C54.5819 58.8654 54.6021 57.9331 54.6021 56.7829V22.961C54.6021 22.6684 54.548 22.3621 54.4525 22.0625C54.4864 22.1919 54.5207 22.3212 54.541 22.4506C54.4037 21.9494 54.0583 21.6709 53.6047 21.6709Z" fill="#1FD18E"/>
</svg>
