<svg width="300" height="300" viewBox="0 0 300 300" fill="none" xmlns="http://www.w3.org/2000/svg">
<path d="M300 229.441H0V229.591H300V229.441Z" fill="#EBEBEB"/>
<path d="M142.206 202.683H26.3467C24.4585 202.683 22.9219 201.147 22.9219 199.259V36.3994C22.9219 34.5112 24.4585 32.9746 26.3467 32.9746H142.206C144.094 32.9746 145.63 34.5112 145.63 36.3994V199.259C145.63 201.147 144.094 202.683 142.206 202.683ZM26.3467 33.1252C24.5407 33.1252 23.0719 34.594 23.0719 36.4V199.259C23.0719 201.065 24.5407 202.534 26.3467 202.534H142.206C144.011 202.534 145.48 201.065 145.48 199.259V36.3994C145.48 34.594 144.011 33.1246 142.206 33.1246L26.3467 33.1252Z" fill="#EBEBEB"/>
<path d="M271.982 202.683H156.123C154.235 202.683 152.699 201.147 152.699 199.259V36.3994C152.699 34.5112 154.236 32.9746 156.123 32.9746H271.982C273.871 32.9746 275.407 34.5112 275.407 36.3994V199.259C275.408 201.147 273.871 202.683 271.982 202.683ZM156.123 33.1252C154.318 33.1252 152.849 34.594 152.849 36.4V199.259C152.849 201.065 154.318 202.534 156.123 202.534H271.982C273.788 202.534 275.257 201.065 275.257 199.259V36.3994C275.257 34.594 273.788 33.1246 271.982 33.1246L156.123 33.1252Z" fill="#EBEBEB"/>
<path d="M51.3988 239.097H31.4746V239.247H51.3988V239.097Z" fill="#EBEBEB"/>
<path d="M120.258 238.504H87.7979V238.654H120.258V238.504Z" fill="#EBEBEB"/>
<path d="M63.4619 233.527H51.9971V233.677H63.4619V233.527Z" fill="#EBEBEB"/>
<path d="M269.941 234.534H261.071V234.684H269.941V234.534Z" fill="#EBEBEB"/>
<path d="M255.728 234.534H234.882V234.684H255.728V234.534Z" fill="#EBEBEB"/>
<path d="M187.667 237.07H160.397V237.22H187.667V237.07Z" fill="#EBEBEB"/>
<path d="M122.659 51.376H87.0312V132.399H122.659V51.376Z" fill="#E6E6E6"/>
<path d="M124.836 51.376H89.207V132.399H124.836V51.376Z" fill="#F5F5F5"/>
<path d="M120.929 128.754L120.929 55.0264L93.1145 55.0264L93.1145 128.754H120.929Z" fill="white"/>
<path d="M120.929 128.754L120.929 55.0264H119.283L119.283 128.754H120.929Z" fill="#E6E6E6"/>
<path d="M123.223 106.859H90.8271V111.757H123.223V106.859Z" fill="#F5F5F5"/>
<path d="M123.223 61.4551H90.8271V66.3529H123.223V61.4551Z" fill="#F5F5F5"/>
<path d="M170.698 51.375H135.07V132.398H170.698V51.375Z" fill="#E6E6E6"/>
<path d="M172.872 51.375H137.244V132.398H172.872V51.375Z" fill="#F5F5F5"/>
<path d="M168.966 128.753V55.0254L141.152 55.0254V128.753H168.966Z" fill="white"/>
<path d="M168.966 128.753V55.0254H167.32V128.753H168.966Z" fill="#E6E6E6"/>
<path d="M171.262 106.858H138.866V111.756H171.262V106.858Z" fill="#F5F5F5"/>
<path d="M171.262 61.4541H138.866V66.3519H171.262V61.4541Z" fill="#F5F5F5"/>
<path d="M74.6143 51.374H38.9863V132.397H74.6143V51.374Z" fill="#E6E6E6"/>
<path d="M76.7882 51.374H41.1602V132.397H76.7882V51.374Z" fill="#F5F5F5"/>
<path d="M72.8857 128.75L72.8857 55.0225L45.0716 55.0225L45.0716 128.75H72.8857Z" fill="white"/>
<path d="M72.8857 128.75L72.8857 55.0225H71.2399L71.2399 128.75H72.8857Z" fill="#E6E6E6"/>
<path d="M75.178 106.857H42.7822V111.755H75.178V106.857Z" fill="#F5F5F5"/>
<path d="M75.178 61.4531H42.7822V66.3509H75.178V61.4531Z" fill="#F5F5F5"/>
<path d="M199.085 171.005H185.474V229.438H199.085V171.005Z" fill="#E6E6E6"/>
<path d="M196.501 229.441H199.086V222.087H193.79L196.501 229.441Z" fill="#F0F0F0"/>
<path d="M130.666 171.005H117.055V229.438H130.666V171.005Z" fill="#E6E6E6"/>
<path d="M199.087 171.005H128.412V225.818H199.087V171.005Z" fill="#F0F0F0"/>
<path d="M197.078 173.148H164.614V215.731H197.078V173.148Z" fill="#E6E6E6"/>
<path d="M162.88 173.147H130.416V215.73H162.88V173.147Z" fill="#E6E6E6"/>
<path d="M155.615 178.638C155.615 179.907 156.644 180.936 157.913 180.936C159.182 180.936 160.212 179.907 160.212 178.638C160.212 177.369 159.183 176.34 157.913 176.34C156.644 176.34 155.615 177.369 155.615 178.638Z" fill="#FAFAFA"/>
<path d="M167.279 178.639C167.279 179.908 168.308 180.937 169.577 180.937C170.846 180.937 171.876 179.908 171.876 178.639C171.876 177.37 170.847 176.341 169.577 176.341C168.308 176.341 167.279 177.37 167.279 178.639Z" fill="#FAFAFA"/>
<path d="M130.998 229.441H128.412V222.087H133.708L130.998 229.441Z" fill="#F0F0F0"/>
<path d="M121.024 148.463H107.412V229.435H121.024V148.463Z" fill="#E6E6E6"/>
<path d="M118.439 229.436H121.025V222.082H115.729L118.439 229.436Z" fill="#F0F0F0"/>
<path d="M52.6048 148.463H38.9932V229.435H52.6048V148.463Z" fill="#E6E6E6"/>
<path d="M121.025 148.463H50.3506V224.923H121.025V148.463Z" fill="#F0F0F0"/>
<path d="M119.017 150.473H52.3525V164.954H119.016L119.017 150.473Z" fill="#E6E6E6"/>
<path d="M119.017 166.609H86.5527V215.726H119.017V166.609Z" fill="#E6E6E6"/>
<path d="M84.8167 166.609H52.3525V215.726H84.8167V166.609Z" fill="#E6E6E6"/>
<path d="M77.5537 190.015C77.5537 191.284 78.5827 192.313 79.8523 192.313C81.1213 192.313 82.1503 191.284 82.1503 190.015C82.1503 188.745 81.1213 187.717 79.8523 187.717C78.5827 187.717 77.5537 188.746 77.5537 190.015Z" fill="#FAFAFA"/>
<path d="M89.2178 190.014C89.2178 191.283 90.2468 192.312 91.5164 192.312C92.7854 192.312 93.8144 191.283 93.8144 190.014C93.8144 188.744 92.7854 187.716 91.5164 187.716C90.2468 187.716 89.2178 188.745 89.2178 190.014Z" fill="#FAFAFA"/>
<path d="M52.9354 229.437H50.3506V222.083H55.6462L52.9354 229.437Z" fill="#F0F0F0"/>
<path d="M83.6943 157.818C83.6943 159.087 84.7233 160.116 85.9923 160.116C87.2619 160.116 88.2909 159.087 88.2909 157.818C88.2909 156.548 87.2619 155.52 85.9923 155.52C84.7233 155.52 83.6943 156.548 83.6943 157.818Z" fill="#FAFAFA"/>
<path d="M189.523 91.2007H191.94L200.227 83.8633H190.33L189.523 91.2007Z" fill="#E6E6E6"/>
<path d="M190.926 91.2007H193.343L201.63 83.8633H199.209L190.926 91.2007Z" fill="#F5F5F5"/>
<path d="M248.186 91.2007H250.602L258.89 83.8633H248.993L248.186 91.2007Z" fill="#E6E6E6"/>
<path d="M249.588 91.2007H252.004L260.292 83.8633H257.87L249.588 91.2007Z" fill="#F5F5F5"/>
<path d="M183.544 83.8584H199.668V80.0874H183.544V83.8584Z" fill="#E6E6E6"/>
<path d="M266.402 80.0859H199.668V83.8569H266.402V80.0859Z" fill="#F5F5F5"/>
<path d="M242.544 57.0244H235.068C235.068 57.0244 236.366 62.1694 236.366 65.197C236.366 68.2246 230.68 80.0926 238.806 80.0926C246.932 80.0926 241.246 68.224 241.246 65.197C241.246 62.1694 242.544 57.0244 242.544 57.0244Z" fill="#E6E6E6"/>
<path d="M253.096 57.0244H245.62C245.62 57.0244 246.918 62.1694 246.918 65.197C246.918 68.2246 241.231 80.0926 249.358 80.0926C257.484 80.0926 251.798 68.224 251.798 65.197C251.798 62.1694 253.096 57.0244 253.096 57.0244Z" fill="#E6E6E6"/>
<path d="M208.44 71.2236C208.44 76.1022 213.802 80.094 220.355 80.094H226.269C232.823 80.094 238.184 76.1022 238.184 71.2236H208.44Z" fill="#F0F0F0"/>
<path d="M189.523 124.8H191.94L200.227 117.463H190.33L189.523 124.8Z" fill="#E6E6E6"/>
<path d="M190.926 124.8H193.343L201.63 117.463H199.209L190.926 124.8Z" fill="#F5F5F5"/>
<path d="M248.186 124.8H250.602L258.89 117.463H248.993L248.186 124.8Z" fill="#E6E6E6"/>
<path d="M249.589 124.8H252.005L260.293 117.463H257.871L249.589 124.8Z" fill="#F5F5F5"/>
<path d="M183.544 117.461H199.668V113.69H183.544V117.461Z" fill="#E6E6E6"/>
<path d="M266.402 113.69H199.668V117.461H266.402V113.69Z" fill="#F5F5F5"/>
<path d="M212.468 105.778C212.468 110.129 218.746 113.689 226.418 113.689H233.344C241.017 113.689 247.295 110.129 247.295 105.778H212.468Z" fill="#E0E0E0"/>
<path d="M202.619 91.4229H214.255C214.255 91.4229 212.234 101.49 212.234 103.551C212.234 105.611 221.085 113.689 208.436 113.689C195.788 113.689 204.638 105.611 204.638 103.551C204.639 101.49 202.619 91.4229 202.619 91.4229Z" fill="#F5F5F5"/>
<path d="M239.735 165.698C243.304 166.167 246.59 168.884 245.473 172.568C243.625 178.662 252.507 178.096 252.731 187.631C253.047 201.092 239.338 192.125 240.283 204.918C240.97 214.226 227.948 223.031 223.967 211.396C219.609 198.656 215.713 208.332 210.161 194.312C206.323 184.617 219.724 180.399 214.704 178.134C211.037 176.479 208.114 172.904 211.54 169.366C216.203 164.549 209.969 162.771 213.12 159.431C216.228 156.136 218.09 160.04 223.559 156.84C228.45 153.978 234.606 158.498 234.516 162.116C234.431 165.492 236.142 165.225 239.735 165.698Z" fill="#E6E6E6"/>
<path d="M246.763 207.4C246.763 207.4 246.324 229.44 229.475 229.44C212.626 229.44 212.187 207.4 212.187 207.4H246.763Z" fill="#F0F0F0"/>
<path d="M149.999 256.534C214.249 256.534 266.333 253.492 266.333 249.74C266.333 245.988 214.249 242.946 149.999 242.946C85.7502 242.946 33.666 245.988 33.666 249.74C33.666 253.492 85.7502 256.534 149.999 256.534Z" fill="#F5F5F5"/>
<path d="M77.1775 130.846L88.7407 134.608C90.2791 135.108 91.1203 136.761 90.6199 138.299L81.1849 167.301C80.6845 168.839 79.0315 169.681 77.4931 169.18L65.9299 165.418C64.3915 164.918 63.5503 163.265 64.0507 161.726L73.4857 132.725C73.9861 131.186 75.6391 130.345 77.1775 130.846Z" fill="#263238"/>
<path opacity="0.3" d="M77.1775 130.846L88.7407 134.608C90.2791 135.108 91.1203 136.761 90.6199 138.299L81.1849 167.301C80.6845 168.839 79.0315 169.681 77.4931 169.18L65.9299 165.418C64.3915 164.918 63.5503 163.265 64.0507 161.726L73.4857 132.725C73.9861 131.186 75.6391 130.345 77.1775 130.846Z" fill="black"/>
<path d="M121.889 145.747L110.625 142.083C111.058 142.221 111.057 142.22 111.057 142.217C111.838 140.608 111.549 139.624 112.487 138.1C113.69 136.246 115.656 134.065 117.255 130.536C118.451 127.899 118.3 118.166 118.3 118.166C118.3 118.166 116.334 117.503 115.973 117.412C113.697 116.838 112.445 119.028 111.533 122.225C110.476 125.931 103.485 130.369 98.9933 132.66C94.5119 134.944 89.2949 138.337 89.2661 138.357L89.2655 138.358L81.0557 164.391C81.0563 164.392 81.0563 164.394 81.0569 164.395L84.5945 167.791C88.1369 171.193 92.9747 172.916 92.9747 172.916L111.129 178.822L121.889 145.747Z" fill="#263238"/>
<path d="M129.083 150.41C129.46 149.25 128.826 148.003 127.666 147.626L113.227 142.929L113.225 142.922C114.006 141.313 114.151 140.47 115.089 138.947C116.292 137.093 118.258 134.911 119.857 131.382C121.456 127.853 122.34 120.343 119.307 118.608C116.272 116.872 115.192 119.366 114.136 123.072C113.079 126.777 106.088 131.216 101.596 133.506C97.1144 135.791 91.8974 139.183 91.8686 139.204C91.868 139.205 91.8686 139.204 91.868 139.206L83.6582 165.238C83.6588 165.24 83.6588 165.241 83.6594 165.243L87.197 168.638C90.7394 172.041 95.5772 173.763 95.5772 173.763L115.605 180.279C116.766 180.656 118.012 180.022 118.39 178.861L118.882 177.346C119.197 176.377 118.809 175.318 117.942 174.783L117.273 174.129C116.886 173.85 117.107 173.239 117.582 173.272L119.305 173.391C120.337 173.493 121.735 173.004 122.056 172.017L123.01 169.083C123.322 168.126 122.947 167.08 122.1 166.538L120.436 165.396C120.055 165.134 120.235 164.538 120.697 164.532L123.407 164.496C124.353 164.484 125.186 163.87 125.479 162.97L126.513 159.79C126.815 158.862 126.472 157.846 125.671 157.291L123.583 155.844C123.201 155.579 123.391 154.978 123.856 154.981L125.896 154.996C126.886 155.037 127.782 154.414 128.089 153.472L129.083 150.41Z" fill="#1FD18E"/>
<path opacity="0.4" d="M129.083 150.41C129.46 149.25 128.826 148.003 127.666 147.626L113.227 142.929L113.225 142.922C114.006 141.313 114.151 140.47 115.089 138.947C116.292 137.093 118.258 134.911 119.857 131.382C121.456 127.853 122.34 120.343 119.307 118.608C116.272 116.872 115.192 119.366 114.136 123.072C113.079 126.777 106.088 131.216 101.596 133.506C97.1144 135.791 91.8974 139.183 91.8686 139.204C91.868 139.205 91.8686 139.204 91.868 139.206L83.6582 165.238C83.6588 165.24 83.6588 165.241 83.6594 165.243L87.197 168.638C90.7394 172.041 95.5772 173.763 95.5772 173.763L115.605 180.279C116.766 180.656 118.012 180.022 118.39 178.861L118.882 177.346C119.197 176.377 118.809 175.318 117.942 174.783L117.273 174.129C116.886 173.85 117.107 173.239 117.582 173.272L119.305 173.391C120.337 173.493 121.735 173.004 122.056 172.017L123.01 169.083C123.322 168.126 122.947 167.08 122.1 166.538L120.436 165.396C120.055 165.134 120.235 164.538 120.697 164.532L123.407 164.496C124.353 164.484 125.186 163.87 125.479 162.97L126.513 159.79C126.815 158.862 126.472 157.846 125.671 157.291L123.583 155.844C123.201 155.579 123.391 154.978 123.856 154.981L125.896 154.996C126.886 155.037 127.782 154.414 128.089 153.472L129.083 150.41Z" fill="black"/>
<path d="M79.3474 131.553L90.9106 135.315C92.449 135.815 93.2902 137.468 92.7898 139.006L83.3548 168.008C82.8544 169.546 81.2014 170.388 79.663 169.887L68.0998 166.125C66.5614 165.625 65.7202 163.972 66.2206 162.433L75.6556 133.432C76.156 131.894 77.809 131.052 79.3474 131.553Z" fill="#263238"/>
<path d="M100.709 176.437L100.525 177.046L103.987 178.088L104.17 177.479L100.709 176.437Z" fill="#1FD18E"/>
<path opacity="0.4" d="M100.709 176.437L100.525 177.046L103.987 178.088L104.17 177.479L100.709 176.437Z" fill="black"/>
<path d="M107.449 178.478L107.266 179.087L115.537 181.577L115.721 180.969L107.449 178.478Z" fill="#1FD18E"/>
<path opacity="0.4" d="M107.449 178.478L107.266 179.087L115.537 181.577L115.721 180.969L107.449 178.478Z" fill="black"/>
<path d="M143.568 74.0278C140.626 74.9302 138.689 86.6314 144.773 90.406C150.856 94.1812 164.201 88.5268 164.201 88.5268C164.201 88.5268 162.182 86.1232 162.855 79.7494C163.514 73.5022 163.783 65.3272 153.402 67.1206C146.627 68.2912 143.102 72.0034 143.568 74.0278Z" fill="#263238"/>
<path d="M169.394 102.809C169.529 104.274 169.705 105.875 169.927 107.405C170.158 108.948 170.375 110.495 170.682 112.02C171.286 115.067 172.025 118.082 173.069 120.92L173.472 121.976C173.543 122.173 173.595 122.267 173.653 122.411C173.71 122.544 173.792 122.689 173.86 122.829C174.167 123.399 174.555 124.007 174.985 124.602C175.853 125.793 176.85 126.981 177.897 128.138C178.937 129.303 180.026 130.452 181.148 131.574C182.261 132.701 183.41 133.829 184.54 134.924L182.936 136.994C180.149 135.198 177.558 133.218 175.043 131.018C173.8 129.904 172.583 128.737 171.445 127.403C170.875 126.734 170.313 126.033 169.802 125.213C169.676 124.998 169.548 124.799 169.427 124.571C169.314 124.35 169.171 124.09 169.097 123.911L168.568 122.734C167.884 121.161 167.306 119.56 166.818 117.948C166.303 116.339 165.917 114.708 165.552 113.078C165.196 111.445 164.886 109.808 164.651 108.16C164.422 106.497 164.216 104.892 164.116 103.141L169.394 102.809Z" fill="#FFB573"/>
<path d="M167.72 96.8383C169.851 97.3807 171.342 106.152 171.342 106.152L163.191 111.695C163.191 111.695 159.837 101.297 161.477 98.9545C163.185 96.5137 164.61 96.0463 167.72 96.8383Z" fill="#263238"/>
<path opacity="0.2" d="M167.522 98.7959L169.16 107.636L165.858 109.875L167.522 98.7959Z" fill="black"/>
<path d="M162.737 112.595L171.899 106.028L171.713 105.181L162.124 111.635L162.737 112.595Z" fill="#1FD18E"/>
<path d="M156.186 244.464H161.357L161.702 232.488H156.531L156.186 244.464Z" fill="#FFB573"/>
<path d="M120.422 229.224L125.21 231.179L131.275 220.72L126.488 218.766L120.422 229.224Z" fill="#FFB573"/>
<path d="M126.111 230.462L121.116 227.495C120.934 227.387 120.712 227.425 120.581 227.588L117.664 231.201C117.361 231.576 117.483 232.173 117.907 232.415C119.666 233.42 120.566 233.816 122.763 235.122C124.114 235.925 127.291 238.676 129.157 239.785C130.982 240.869 132.219 239.108 131.541 238.479C128.502 235.659 127.28 232.86 126.692 231.177C126.585 230.874 126.376 230.62 126.111 230.462Z" fill="#263238"/>
<path d="M161.534 243.863H155.725C155.513 243.863 155.342 244.01 155.312 244.217L154.65 248.813C154.582 249.29 154.991 249.741 155.479 249.733C157.505 249.698 158.481 249.579 161.036 249.579C162.608 249.579 165.859 249.743 168.029 249.743C170.152 249.743 170.316 247.596 169.412 247.402C165.359 246.53 163.764 245.328 162.399 244.182C162.153 243.974 161.844 243.863 161.534 243.863Z" fill="#263238"/>
<g opacity="0.2">
<path d="M161.698 232.492L161.521 238.665H156.348L156.525 232.492H161.698Z" fill="black"/>
<path d="M126.484 218.769L131.274 220.724L128.145 226.114L123.355 224.158L126.484 218.769Z" fill="black"/>
</g>
<path d="M167.717 96.8362C167.717 96.8362 170.181 97.7038 165.246 128.048C156.911 128.048 148.298 128.048 144.243 128.048C144.595 119.5 144.605 114.229 140.52 96.6862C140.52 96.6862 144.92 95.7286 149.439 95.5114C152.973 95.341 155.869 95.2282 158.976 95.512C163.072 95.8852 167.717 96.8362 167.717 96.8362Z" fill="#263238"/>
<path d="M150.379 84.7715C150.98 87.8399 151.58 93.4625 149.434 95.5103C149.434 95.5103 152.27 100.952 157.865 103.902C162.12 100.502 158.971 95.5103 158.971 95.5103C155.549 94.6931 155.637 92.1545 156.233 89.7701L150.379 84.7715Z" fill="#FFB573"/>
<path opacity="0.2" d="M152.772 86.8125L156.237 89.7693C156.093 90.3339 155.982 90.9057 155.943 91.4619C154.635 91.2729 152.58 90.1593 152.299 88.7379C152.166 88.0647 152.66 87.1305 152.772 86.8125Z" fill="black"/>
<path d="M145.24 79.8421C146.659 84.7747 147.154 86.8927 150.25 88.8979C154.907 91.9141 160.655 89.0929 160.739 83.8357C160.814 79.1041 158.482 71.8327 153.144 70.9309C147.886 70.0423 143.821 74.9101 145.24 79.8421Z" fill="#FFB573"/>
<path d="M148.012 76.4723C149.249 78.2357 147.883 83.1047 145.855 83.5259C144.229 83.8637 143.349 81.1823 143.063 80.1053C142.991 79.8305 142.978 79.5461 143.02 79.2647L143.553 75.7679C143.628 75.2753 143.877 74.8253 144.254 74.4995L148.067 71.2103C148.358 70.9589 148.712 70.7933 149.092 70.7303L154.516 69.8345C154.909 69.7697 155.313 69.8183 155.68 69.9755C157.08 70.5755 157.397 72.4259 156.265 73.4459C154.55 74.9909 151.777 76.6931 148.012 76.4723Z" fill="#263238"/>
<path d="M165.242 128.048C165.242 128.048 169.321 167.884 168.982 183.655C168.629 200.058 162.618 237.47 162.618 237.47H155.626C155.626 237.47 156.733 201.017 156.114 184.907C155.44 167.344 149.861 128.048 149.861 128.048H165.242Z" fill="#1FD18E"/>
<path opacity="0.4" d="M165.242 128.048C165.242 128.048 169.321 167.884 168.982 183.655C168.629 200.058 162.618 237.47 162.618 237.47H155.626C155.626 237.47 156.733 201.017 156.114 184.907C155.44 167.344 149.861 128.048 149.861 128.048H165.242Z" fill="white"/>
<path d="M155.022 237.719H163.227L163.829 235.102L154.641 234.781L155.022 237.719Z" fill="#263238"/>
<path opacity="0.2" d="M156.185 137.957C161.344 148.335 157.221 167.266 155.397 174.309C154.461 163.731 152.884 150.801 151.654 141.305C152.436 135.933 153.806 133.173 156.185 137.957Z" fill="black"/>
<path d="M159.7 128.046C159.7 128.046 154.942 169.461 151.349 182.757C147.083 198.542 129.755 225.476 129.755 225.476L123.226 222.811C123.226 222.811 134.416 192.144 137.677 183.828C144.638 166.079 138.68 139.628 144.242 128.046H159.7Z" fill="#1FD18E"/>
<path opacity="0.4" d="M159.7 128.046C159.7 128.046 154.942 169.461 151.349 182.757C147.083 198.542 129.755 225.476 129.755 225.476L123.226 222.811C123.226 222.811 134.416 192.144 137.677 183.828C144.638 166.079 138.68 139.628 144.242 128.046H159.7Z" fill="white"/>
<path d="M122.335 222.85L130.435 226.156L132.337 223.962L122.985 219.643L122.335 222.85Z" fill="#263238"/>
<path d="M153.504 79.3999C153.594 79.8073 153.884 80.0894 154.149 80.03C154.416 79.9706 154.558 79.5925 154.467 79.1857C154.377 78.7783 154.088 78.4964 153.822 78.5558C153.555 78.6146 153.413 78.9925 153.504 79.3999Z" fill="#263238"/>
<path d="M158.11 78.3765C158.201 78.7839 158.49 79.0659 158.756 79.0065C159.022 78.9471 159.165 78.5691 159.074 78.1623C158.983 77.7549 158.694 77.4729 158.428 77.5323C158.162 77.5911 158.02 77.9691 158.11 78.3765Z" fill="#263238"/>
<path d="M158.315 77.5812L159.231 77.082C159.231 77.082 158.899 77.9568 158.315 77.5812Z" fill="#263238"/>
<path d="M156.853 79.4258C156.853 79.4258 157.933 81.0254 158.882 81.7016C158.456 82.3226 157.491 82.2968 157.491 82.2968L156.853 79.4258Z" fill="#ED893E"/>
<path d="M155.625 84.3827C155.819 84.3701 156.023 84.3419 156.235 84.2945C156.301 84.2801 156.343 84.2147 156.329 84.1487C156.314 84.0821 156.248 84.0377 156.183 84.0557C154.394 84.4499 153.284 83.3897 153.273 83.3789C153.224 83.3315 153.147 83.3321 153.099 83.3807C153.052 83.4293 153.053 83.5067 153.101 83.5541C153.144 83.5961 154.073 84.4847 155.625 84.3827Z" fill="#263238"/>
<path d="M144.906 84.7613C145.496 85.6469 146.439 86.1779 147.299 86.3363C148.593 86.5745 149.121 85.3889 148.662 84.2303C148.249 83.1875 147.079 81.8063 145.828 82.0931C144.597 82.3757 144.232 83.7485 144.906 84.7613Z" fill="#FFB573"/>
<path d="M151.591 77.6013C151.69 77.6331 151.801 77.6007 151.865 77.5125C152.531 76.5957 153.991 76.6059 154.005 76.6059C154.14 76.6077 154.252 76.4997 154.253 76.3647C154.256 76.2297 154.149 76.1181 154.012 76.1163C153.942 76.1151 152.283 76.1049 151.469 77.2245C151.389 77.3337 151.414 77.4873 151.523 77.5665C151.544 77.5821 151.567 77.5935 151.591 77.6013Z" fill="#263238"/>
<path d="M159.072 75.0034C159.155 74.998 159.234 74.95 159.274 74.8702C159.336 74.7496 159.288 74.602 159.167 74.5408C157.96 73.9264 156.972 74.4796 156.931 74.5036C156.814 74.5714 156.774 74.7214 156.841 74.8384C156.909 74.9554 157.057 74.995 157.176 74.929C157.215 74.9068 157.986 74.4898 158.945 74.9782C158.986 74.998 159.03 75.0064 159.072 75.0034Z" fill="#263238"/>
<path d="M128.093 232.424C128.113 232.422 128.134 232.418 128.154 232.414C128.384 232.367 128.554 232.214 128.661 231.958C128.742 231.765 128.688 231.623 128.628 231.538C128.25 230.997 126.381 231.066 126.17 231.075C126.117 231.077 126.078 231.108 126.061 231.155C126.043 231.2 126.055 231.252 126.09 231.286C126.569 231.749 127.453 232.498 128.093 232.424ZM126.477 231.312C127.225 231.307 128.227 231.393 128.427 231.678C128.452 231.714 128.475 231.768 128.435 231.864C128.361 232.042 128.252 232.144 128.104 232.174C127.755 232.251 127.159 231.926 126.477 231.312Z" fill="#1FD18E"/>
<path d="M126.364 231.308C127.002 231.234 128.137 230.795 128.316 230.29C128.353 230.183 128.38 229.975 128.136 229.786C127.98 229.667 127.803 229.626 127.606 229.662C126.869 229.803 126.102 231.079 126.07 231.133C126.048 231.171 126.047 231.217 126.068 231.256C126.089 231.293 126.129 231.317 126.172 231.319C126.229 231.319 126.293 231.316 126.364 231.308ZM127.689 229.897C127.8 229.884 127.897 229.911 127.986 229.979C128.111 230.076 128.104 230.152 128.085 230.209C127.965 230.55 127.032 230.971 126.409 231.058C126.687 230.646 127.213 229.986 127.653 229.902C127.665 229.9 127.677 229.898 127.689 229.897Z" fill="#1FD18E"/>
<path d="M163.472 244.772C163.986 244.772 164.46 244.692 164.726 244.453C164.895 244.301 164.969 244.101 164.948 243.857C164.934 243.711 164.862 243.598 164.74 243.531C164.105 243.182 162.045 244.237 161.812 244.358C161.766 244.382 161.74 244.433 161.747 244.484C161.754 244.536 161.793 244.577 161.844 244.587C162.284 244.674 162.902 244.772 163.472 244.772ZM164.393 243.701C164.488 243.701 164.566 243.715 164.622 243.746C164.672 243.773 164.697 243.814 164.703 243.879C164.718 244.044 164.672 244.172 164.562 244.271C164.249 244.553 163.398 244.602 162.251 244.412C162.961 244.071 163.904 243.701 164.393 243.701Z" fill="#1FD18E"/>
<path d="M161.869 244.586C161.886 244.586 161.903 244.582 161.919 244.575C162.536 244.297 163.755 243.181 163.659 242.595C163.637 242.456 163.538 242.284 163.199 242.249C162.95 242.223 162.72 242.295 162.52 242.461C161.871 243.002 161.751 244.395 161.747 244.454C161.743 244.497 161.763 244.539 161.798 244.564C161.819 244.578 161.844 244.586 161.869 244.586ZM163.101 242.489C163.125 242.489 163.149 242.491 163.174 242.493C163.398 242.516 163.413 242.605 163.417 242.635C163.475 242.986 162.647 243.863 162.019 244.244C162.08 243.839 162.251 243.004 162.678 242.649C162.806 242.542 162.945 242.489 163.101 242.489Z" fill="#1FD18E"/>
<path d="M153.711 78.5998L154.626 78.1006C154.626 78.1006 154.295 78.976 153.711 78.5998Z" fill="#263238"/>
<path d="M143.924 126.817L143.387 128.697C143.314 128.843 143.486 128.991 143.729 128.991H165.345C165.535 128.991 165.692 128.898 165.704 128.78L165.893 126.9C165.906 126.77 165.742 126.659 165.535 126.659H144.266C144.11 126.659 143.972 126.723 143.924 126.817Z" fill="#1FD18E"/>
<path opacity="0.2" d="M143.924 126.817L143.387 128.697C143.314 128.843 143.486 128.991 143.729 128.991H165.345C165.535 128.991 165.692 128.898 165.704 128.78L165.893 126.9C165.906 126.77 165.742 126.659 165.535 126.659H144.266C144.11 126.659 143.972 126.723 143.924 126.817Z" fill="black"/>
<path d="M146.851 129.193H146.281C146.168 129.193 146.082 129.135 146.089 129.063L146.356 126.62C146.364 126.549 146.463 126.49 146.577 126.49H147.146C147.259 126.49 147.346 126.548 147.338 126.62L147.071 129.063C147.063 129.135 146.964 129.193 146.851 129.193Z" fill="#1FD18E"/>
<path opacity="0.4" d="M146.851 129.193H146.281C146.168 129.193 146.082 129.135 146.089 129.063L146.356 126.62C146.364 126.549 146.463 126.49 146.577 126.49H147.146C147.259 126.49 147.346 126.548 147.338 126.62L147.071 129.063C147.063 129.135 146.964 129.193 146.851 129.193Z" fill="white"/>
<path d="M163.742 129.191H163.173C163.06 129.191 162.973 129.133 162.981 129.061L163.248 126.618C163.256 126.547 163.355 126.488 163.468 126.488H164.038C164.151 126.488 164.237 126.546 164.23 126.618L163.963 129.061C163.955 129.133 163.856 129.191 163.742 129.191Z" fill="#1FD18E"/>
<path opacity="0.4" d="M163.742 129.191H163.173C163.06 129.191 162.973 129.133 162.981 129.061L163.248 126.618C163.256 126.547 163.355 126.488 163.468 126.488H164.038C164.151 126.488 164.237 126.546 164.23 126.618L163.963 129.061C163.955 129.133 163.856 129.191 163.742 129.191Z" fill="white"/>
<path d="M155.335 129.192H154.766C154.652 129.192 154.566 129.134 154.574 129.062L154.841 126.619C154.849 126.548 154.948 126.489 155.061 126.489H155.63C155.744 126.489 155.83 126.547 155.822 126.619L155.555 129.062C155.548 129.134 155.449 129.192 155.335 129.192Z" fill="#1FD18E"/>
<path opacity="0.4" d="M155.335 129.192H154.766C154.652 129.192 154.566 129.134 154.574 129.062L154.841 126.619C154.849 126.548 154.948 126.489 155.061 126.489H155.63C155.744 126.489 155.83 126.547 155.822 126.619L155.555 129.062C155.548 129.134 155.449 129.192 155.335 129.192Z" fill="white"/>
<path d="M157.746 114.552L167.084 107.885C168.326 106.998 170.052 107.286 170.94 108.528L187.661 131.947C188.548 133.19 188.26 134.916 187.018 135.803L177.68 142.47C176.437 143.357 174.711 143.069 173.824 141.827L157.103 118.407C156.216 117.166 156.504 115.439 157.746 114.552Z" fill="#263238"/>
<path d="M194.125 88.9724L185.029 95.4668C185.377 95.216 185.376 95.2154 185.373 95.2148C184.59 93.7202 183.681 93.3878 183.051 91.8224C182.318 89.87 181.765 87.1544 179.983 83.9618C178.651 81.5762 171.181 76.2344 171.181 76.2344C171.181 76.2344 169.576 77.3546 169.304 77.5778C167.592 78.983 168.553 81.161 170.468 83.6456C172.688 86.525 172.138 94.319 171.357 99.0128C170.579 103.695 170.229 109.557 170.228 109.59L170.229 109.591L185.383 130.416C185.385 130.416 185.386 130.417 185.388 130.417L189.948 129.636C194.516 128.856 198.535 126.15 198.535 126.15L213.195 115.683L194.125 88.9724Z" fill="#263238"/>
<path d="M201.695 86.1263C201.026 85.1891 199.724 84.9719 198.788 85.6409L187.128 93.9659L187.121 93.9641C186.338 92.4689 185.779 91.8869 185.149 90.3215C184.417 88.3691 183.863 85.6535 182.081 82.4609C180.299 79.2683 175.096 74.3879 172.077 75.7175C169.059 77.0471 170.346 79.2653 172.566 82.1447C174.786 85.0241 174.236 92.8181 173.455 97.5119C172.677 102.194 172.327 108.055 172.326 108.089L172.327 108.09L187.481 128.915C187.482 128.915 187.484 128.916 187.485 128.917L192.045 128.135C196.613 127.355 200.633 124.649 200.633 124.649L216.806 113.101C217.742 112.432 217.96 111.13 217.291 110.194L216.418 108.97C215.859 108.188 214.838 107.889 213.946 108.247L213.073 108.388C212.645 108.525 212.306 108.015 212.597 107.672L213.653 106.432C214.309 105.706 214.721 104.371 214.152 103.574L212.46 101.204C211.909 100.432 210.905 100.13 210.018 100.469L208.218 101.092C207.806 101.234 207.455 100.763 207.709 100.409L209.201 98.3321C209.722 97.6073 209.723 96.6311 209.205 95.9045L207.371 93.3365C206.836 92.5871 205.873 92.2775 205.002 92.5751L202.734 93.3485C202.318 93.4901 201.969 93.0095 202.232 92.6579L203.387 91.1177C203.973 90.3893 204.003 89.3603 203.459 88.5995L201.695 86.1263Z" fill="#1FD18E"/>
<path d="M159.5 113.301L168.838 106.634C170.08 105.747 171.807 106.035 172.693 107.277L189.415 130.697C190.302 131.939 190.014 133.666 188.772 134.552L179.434 141.22C178.191 142.106 176.465 141.818 175.578 140.576L158.857 117.157C157.969 115.914 158.257 114.188 159.5 113.301Z" fill="#1FD18E"/>
<path opacity="0.6" d="M159.5 113.301L168.838 106.634C170.08 105.747 171.807 106.035 172.693 107.277L189.415 130.697C190.302 131.939 190.014 133.666 188.772 134.552L179.434 141.22C178.191 142.106 176.465 141.818 175.578 140.576L158.857 117.157C157.969 115.914 158.257 114.188 159.5 113.301Z" fill="black"/>
<path d="M208.25 120.217L205.52 122.26L205.879 122.74L208.61 120.697L208.25 120.217Z" fill="#1FD18E"/>
<path d="M217.381 113.4L210.854 118.281L211.213 118.762L217.74 113.88L217.381 113.4Z" fill="#1FD18E"/>
<path d="M182.971 136.967L179.116 139.507L179.783 141.911L184.122 138.94L182.971 136.967Z" fill="#FFB573"/>
<path d="M152.656 119.863L155.72 115.191L157.224 120.231C157.224 120.231 154.894 122.597 152.831 121.991L152.656 119.863Z" fill="#FFB573"/>
<path d="M143.319 103.51C143.004 106.628 142.628 109.739 142.223 112.848C141.836 115.958 141.406 119.063 140.951 122.166L140.867 122.748L140.839 122.945C140.83 122.979 140.827 122.998 140.826 123.005C140.816 123.037 140.819 123.001 140.788 122.943C140.761 122.872 140.704 122.759 140.614 122.67C140.533 122.574 140.441 122.522 140.389 122.506C140.356 122.489 140.338 122.506 140.387 122.523C140.463 122.565 140.689 122.607 140.947 122.618C141.475 122.645 142.149 122.57 142.831 122.459C143.518 122.345 144.229 122.182 144.943 121.993C146.378 121.631 147.832 121.17 149.275 120.66C150.721 120.166 152.182 119.615 153.6 119.07L154.808 121.394C152.072 123.122 149.264 124.592 146.183 125.819C145.406 126.112 144.611 126.386 143.769 126.617C142.924 126.849 142.045 127.039 141.005 127.093C140.482 127.112 139.918 127.107 139.235 126.949C138.902 126.875 138.521 126.74 138.139 126.544C137.748 126.331 137.347 126.032 137.011 125.639C136.679 125.24 136.435 124.778 136.291 124.334C136.154 123.899 136.091 123.473 136.082 123.113C136.072 122.924 136.075 122.748 136.087 122.586L136.115 122.199L136.163 121.613C136.42 118.49 136.702 115.37 137.026 112.254C137.332 109.136 137.668 106.022 138.065 102.915L143.319 103.51Z" fill="#FFB573"/>
<path d="M140.52 96.6871C138.416 97.3267 135.889 104.573 135.889 104.573L144.052 110.41C144.052 110.41 147.029 104.361 146.145 101.641C145.224 98.8081 142.921 95.9569 140.52 96.6871Z" fill="#263238"/>
<path d="M144.121 111.126L135.318 104.756L135.504 103.909L144.885 110.269L144.121 111.126Z" fill="#1FD18E"/>
<path d="M159.84 113.8L160.87 118.087L157.225 120.232L155.722 115.193L159.84 113.8Z" fill="#FFB573"/>
</svg>
