<svg width="169" height="168" viewBox="0 0 169 168" fill="none" xmlns="http://www.w3.org/2000/svg">
<path d="M29.5962 83.8089C-0.724092 101.314 -0.723418 129.696 29.5979 147.202C59.9192 164.707 109.079 164.707 139.399 147.202C169.719 129.696 169.719 101.314 139.397 83.8089C109.076 66.3033 59.9165 66.3033 29.5962 83.8089Z" fill="#F5F5F5"/>
<path d="M94.3553 149.743C93.2374 149.743 92.2126 149.534 91.3924 149.139L33.6821 121.272C33.1885 121.036 32.784 120.727 32.5189 120.379C32.0817 119.805 32.0404 119.023 32.4154 118.407C32.6489 118.023 33.0393 117.667 33.545 117.378L75.2241 93.3145C76.0198 92.8508 77.0261 92.6035 78.1272 92.6035C79.3925 92.6035 80.626 92.9513 81.5113 93.5574L129.414 126.478C130.284 127.07 130.762 127.889 130.718 128.719C130.69 129.518 130.167 130.27 129.247 130.802L97.9061 148.898C96.9764 149.435 95.6821 149.743 94.3553 149.743Z" fill="#E0E0E0"/>
<path d="M81.26 36.56L79.8791 37.3603L77.6114 28.1133C76.9636 25.4982 74.4463 22.1435 72.106 20.7992L70.8413 20.0661C70.1999 19.6934 69.0693 19.6934 68.4279 20.0661L64.5746 22.2769C64.208 22.4906 63.7437 22.3623 63.5296 21.9957C63.322 21.6352 63.444 21.1648 63.8109 20.9571L67.6638 18.7402C68.7699 18.1048 70.499 18.1048 71.5987 18.7402L72.8694 19.4734C75.5581 21.0253 78.3503 24.7344 79.0959 27.7467L81.26 36.56Z" fill="#263238"/>
<path d="M35.9092 41.1223L33.4258 36.8209L64.366 18.9487L64.3657 18.948C64.6876 18.6923 65.1744 18.6987 65.7134 19.0102C66.6837 19.5706 67.4697 20.9321 67.4697 22.0516C67.47 22.6739 67.2321 23.099 66.8497 23.2498L35.9092 41.1223Z" fill="#1FD18E"/>
<path opacity="0.1" d="M34.4457 38.5943L66.7202 19.9654C66.483 19.6351 66.2028 19.3458 65.8987 19.1328L33.8799 37.6142L34.4457 38.5943Z" fill="white"/>
<path d="M33.4271 36.8251C34.0803 36.4481 35.1656 37.1053 35.8514 38.2931C36.5371 39.4808 36.5637 40.7496 35.9108 41.1266C35.2576 41.5036 34.1724 40.8463 33.4866 39.6586C32.8005 38.4708 32.7739 37.2021 33.4271 36.8251Z" fill="#1FD18E"/>
<path opacity="0.3" d="M33.4271 36.8251C34.0803 36.4481 35.1656 37.1053 35.8514 38.2931C36.5371 39.4808 36.5637 40.7496 35.9108 41.1266C35.2576 41.5036 34.1724 40.8463 33.4866 39.6586C32.8005 38.4708 32.7739 37.2021 33.4271 36.8251Z" fill="black"/>
<path d="M41.6521 59.7107L40.2712 60.5054L38.0035 51.2583C37.3557 48.6429 34.8323 45.2947 32.4981 43.9503L31.2271 43.2111C30.5671 42.8325 30.1885 42.2579 30.1885 41.6346C30.1885 41.0113 30.5671 40.4371 31.2271 40.0581L33.9799 38.488C34.1815 38.3717 34.5175 38.5733 34.7255 38.9402C34.9392 39.3068 34.9452 39.6979 34.7436 39.8142H34.7376L31.9911 41.3846C31.7714 41.5069 31.7223 41.6168 31.7163 41.6349C31.7223 41.6595 31.7714 41.7633 31.9911 41.8916L33.2622 42.6248C35.9505 44.1768 38.737 47.8856 39.4822 50.8917L41.6521 59.7107Z" fill="#263238"/>
<path d="M83.227 131.938C83.2462 131.95 83.2657 131.958 83.2889 131.965C81.1932 134.686 77.7738 135.466 77.0057 135.107C76.3881 134.821 76.0215 134.084 76.4922 133.644C76.7083 133.444 77.0826 133.235 77.4341 132.942C78.4605 132.089 78.8002 130.603 78.8967 129.445L83.227 131.938Z" fill="#E0E0E0"/>
<g opacity="0.2">
<path d="M83.227 131.938C83.2462 131.95 83.2657 131.958 83.2889 131.965C81.1932 134.686 77.7738 135.466 77.0057 135.107C76.3881 134.821 76.0215 134.084 76.4922 133.644C76.7083 133.444 77.0826 133.235 77.4341 132.942C78.4605 132.089 78.8002 130.603 78.8967 129.445L83.227 131.938Z" fill="black"/>
</g>
<path d="M81.0727 136.14C81.0868 133.949 79.5651 131.275 77.6744 130.167C76.6819 129.586 75.7891 129.557 75.1588 129.973L72.833 131.281L77.708 139.687L80.0133 138.38L80.0103 138.374C80.6568 138.029 81.0653 137.259 81.0727 136.14Z" fill="#37474F"/>
<path d="M75.2567 131.542C77.1478 132.649 78.6688 135.324 78.6547 137.515C78.6409 139.706 77.097 140.585 75.206 139.477C73.3153 138.369 71.7939 135.695 71.8077 133.504C71.8218 131.312 73.3661 130.434 75.2567 131.542Z" fill="#455A64"/>
<path d="M74.0704 134.831C74.0757 133.974 74.5992 133.584 75.2393 133.959C75.8794 134.334 76.3938 135.332 76.3881 136.189C76.3824 137.045 75.8592 137.436 75.2195 137.061C74.5791 136.686 74.0646 135.687 74.0704 134.831Z" fill="#263238"/>
<path d="M77.2788 128.512C77.2788 128.512 77.5043 132.557 75.6513 134.102C75.3021 134.393 74.9252 134.602 74.7081 134.805C74.2377 135.243 74.6073 135.98 75.2249 136.268C76.123 136.686 80.7262 135.502 82.5201 131.529L77.2788 128.512Z" fill="#F5F5F5"/>
<path d="M75.315 135.068C75.5096 135.166 75.6772 135.422 75.6897 135.639C75.7018 135.857 75.5543 135.954 75.3597 135.856C75.1652 135.758 74.9975 135.502 74.9851 135.284C74.973 135.066 75.1205 134.969 75.315 135.068Z" fill="#263238"/>
<path d="M59.7075 120.517C59.7266 120.528 59.7643 120.548 59.7643 120.548C57.6683 123.269 54.2539 124.044 53.4861 123.685C52.8686 123.4 52.502 122.663 52.9727 122.223C53.1888 122.022 53.5634 121.814 53.9145 121.52C54.941 120.667 55.2807 119.181 55.3771 118.023L59.7075 120.517Z" fill="#E0E0E0"/>
<g opacity="0.2">
<path d="M59.7075 120.517C59.7266 120.528 59.7643 120.548 59.7643 120.548C57.6683 123.269 54.2539 124.044 53.4861 123.685C52.8686 123.4 52.502 122.663 52.9727 122.223C53.1888 122.022 53.5634 121.814 53.9145 121.52C54.941 120.667 55.2807 119.181 55.3771 118.023L59.7075 120.517Z" fill="black"/>
</g>
<path d="M57.5538 124.721C57.568 122.529 56.0462 119.855 54.1555 118.747C53.1633 118.166 52.2702 118.137 51.6402 118.553L49.3145 119.861L54.1895 128.267L56.4951 126.96L56.4921 126.954C57.1379 126.609 57.5465 125.839 57.5538 124.721Z" fill="#37474F"/>
<path d="M51.7369 120.122C53.6276 121.23 55.149 123.904 55.1349 126.095C55.1211 128.286 53.5772 129.165 51.6862 128.057C49.7955 126.949 48.2741 124.275 48.2882 122.083C48.302 119.892 49.8462 119.014 51.7369 120.122Z" fill="#455A64"/>
<path d="M50.5508 123.409C50.5562 122.553 51.0794 122.162 51.7198 122.537C52.3599 122.912 52.8739 123.911 52.8686 124.767C52.8632 125.623 52.3397 126.014 51.6999 125.639C51.0595 125.264 50.5451 124.266 50.5508 123.409Z" fill="#263238"/>
<path d="M53.7543 117.092C53.7543 117.092 53.9797 121.137 52.1267 122.682C51.7776 122.973 51.4009 123.182 51.1835 123.385C50.7135 123.824 51.0827 124.56 51.7003 124.848C52.5984 125.266 57.2016 124.082 58.9955 120.109L53.7543 117.092Z" fill="#F5F5F5"/>
<path d="M51.7896 123.65C51.9842 123.748 52.1518 124.004 52.1643 124.222C52.1767 124.439 52.0289 124.536 51.8343 124.438C51.6398 124.34 51.4721 124.084 51.4597 123.866C51.4476 123.648 51.5951 123.551 51.7896 123.65Z" fill="#263238"/>
<path d="M116.862 112.637C114.762 115.35 111.351 116.13 110.583 115.771C109.965 115.485 109.599 114.748 110.069 114.308C110.285 114.108 110.66 113.899 111.011 113.606C112.038 112.753 112.377 111.267 112.474 110.109L116.545 112.452L116.804 112.602L116.862 112.637Z" fill="#E0E0E0"/>
<g opacity="0.2">
<path d="M116.862 112.637C114.762 115.35 111.351 116.13 110.583 115.771C109.965 115.485 109.599 114.748 110.069 114.308C110.285 114.108 110.66 113.899 111.011 113.606C112.038 112.753 112.377 111.267 112.474 110.109L116.545 112.452L116.804 112.602L116.862 112.637Z" fill="black"/>
</g>
<path d="M114.648 116.805C114.662 114.613 113.14 111.939 111.25 110.831C110.257 110.25 109.364 110.221 108.734 110.637L106.408 111.945L111.283 120.351L113.589 119.044L113.585 119.038C114.232 118.693 114.641 117.923 114.648 116.805Z" fill="#37474F"/>
<path d="M108.833 112.204C110.724 113.311 112.245 115.986 112.231 118.177C112.217 120.368 110.673 121.247 108.782 120.139C106.892 119.031 105.37 116.357 105.384 114.165C105.398 111.974 106.942 111.096 108.833 112.204Z" fill="#455A64"/>
<path d="M107.647 115.491C107.652 114.635 108.175 114.244 108.815 114.619C109.456 114.994 109.97 115.993 109.965 116.849C109.959 117.706 109.436 118.096 108.796 117.721C108.156 117.346 107.641 116.348 107.647 115.491Z" fill="#263238"/>
<path d="M110.855 109.18C110.855 109.18 111.08 113.225 109.227 114.77C108.878 115.061 108.502 115.27 108.284 115.473C107.814 115.911 108.183 116.648 108.801 116.936C109.699 117.354 114.303 116.169 116.096 112.197L110.855 109.18Z" fill="#F5F5F5"/>
<path d="M108.893 115.736C109.087 115.834 109.255 116.09 109.267 116.307C109.279 116.525 109.131 116.622 108.937 116.524C108.742 116.425 108.575 116.169 108.562 115.952C108.55 115.734 108.698 115.637 108.893 115.736Z" fill="#263238"/>
<path d="M96.605 99.2083C96.6241 99.2197 96.6617 99.2399 96.6617 99.2399C94.5661 101.961 91.1517 102.736 90.3836 102.377C89.766 102.091 89.3994 101.354 89.8702 100.914C90.0866 100.714 90.4609 100.505 90.812 100.212C91.8385 99.3588 92.1782 97.8727 92.2746 96.7148L96.605 99.2083Z" fill="#E0E0E0"/>
<g opacity="0.2">
<path d="M96.605 99.2083C96.6241 99.2197 96.6617 99.2399 96.6617 99.2399C94.5661 101.961 91.1517 102.736 90.3836 102.377C89.766 102.091 89.3994 101.354 89.8702 100.914C90.0866 100.714 90.4609 100.505 90.812 100.212C91.8385 99.3588 92.1782 97.8727 92.2746 96.7148L96.605 99.2083Z" fill="black"/>
</g>
<path d="M94.4497 103.414C94.4638 101.223 92.9424 98.5484 91.0514 97.4406C90.0588 96.859 89.1661 96.8307 88.5358 97.2464L86.21 98.5548L91.085 106.96L93.3903 105.653L93.3873 105.647C94.0337 105.303 94.4426 104.532 94.4497 103.414Z" fill="#37474F"/>
<path d="M88.6337 98.8151C90.5244 99.9229 92.0458 102.597 92.0317 104.789C92.0179 106.98 90.4736 107.858 88.583 106.75C86.6923 105.643 85.1709 102.968 85.1847 100.777C85.1988 98.5856 86.743 97.7073 88.6337 98.8151Z" fill="#455A64"/>
<path d="M87.4473 102.102C87.4527 101.246 87.9762 100.855 88.6163 101.23C89.2563 101.605 89.7708 102.604 89.765 103.46C89.7597 104.317 89.2362 104.707 88.5964 104.332C87.956 103.957 87.4416 102.959 87.4473 102.102Z" fill="#263238"/>
<path d="M90.6542 95.7891C90.6542 95.7891 90.8796 99.8342 89.0262 101.379C88.6771 101.67 88.3005 101.879 88.0831 102.082C87.6127 102.521 87.9823 103.257 88.5999 103.545C89.498 103.963 94.1012 102.779 95.8951 98.8063L90.6542 95.7891Z" fill="#F5F5F5"/>
<path d="M88.692 102.345C88.8866 102.443 89.0542 102.699 89.0666 102.917C89.0791 103.135 88.9312 103.231 88.7367 103.133C88.5422 103.035 88.3745 102.779 88.3621 102.561C88.3496 102.344 88.4971 102.247 88.692 102.345Z" fill="#263238"/>
<path d="M95.0525 137.059C93.561 137.059 92.0863 136.778 90.9012 136.206L49.7647 116.342C45.5654 114.314 42.7329 110.166 42.373 105.516L38.2607 52.3998L40.1198 52.2559L44.2321 105.372C44.5413 109.362 46.9719 112.922 50.5758 114.663L91.7123 134.527C93.7461 135.509 97.1182 135.384 99.0754 134.255L121.917 121.066C122.704 120.612 123.151 120.025 123.175 119.415C123.198 118.804 122.799 118.185 122.05 117.67L87.391 93.8507C84.1006 91.5894 82.0368 88.0094 81.7284 84.0291L77.5371 29.8938L79.3962 29.75L83.5871 83.8853C83.8516 87.3011 85.623 90.3735 88.4467 92.3139L123.106 116.134C124.383 117.011 125.087 118.233 125.037 119.488C124.988 120.742 124.19 121.906 122.849 122.681L100.007 135.87C98.6436 136.657 96.836 137.059 95.0525 137.059Z" fill="#455A64"/>
<path d="M125.479 99.5807L82.9714 70.3679C82.4492 70.0104 81.6536 69.793 80.8455 69.793C80.1557 69.793 79.5153 69.9422 79.0462 70.2157L42.055 91.5722C41.7784 91.7307 41.6511 91.8735 41.6074 91.9451C41.6571 92.0103 41.7939 92.144 42.0798 92.2808L93.2923 117.009C93.802 117.255 94.4949 117.391 95.2472 117.391C96.1453 117.391 97.034 117.189 97.6213 116.851L125.432 100.793C125.749 100.61 125.958 100.38 125.964 100.206C125.973 100.031 125.781 99.786 125.479 99.5807ZM111.619 106.561L106.497 109.519C105.754 109.948 104.542 109.96 103.79 109.55L90.8341 102.446C90.7626 102.405 90.6974 102.365 90.6382 102.318C90.691 102.275 90.7532 102.234 90.8183 102.197L96.6113 98.8502C97.3539 98.4215 98.5537 98.4306 99.2902 98.8721L111.631 106.262C111.709 106.309 111.777 106.355 111.836 106.409C111.774 106.464 111.699 106.514 111.619 106.561ZM101.851 112.201L96.7202 115.163C95.9773 115.591 94.7529 115.632 93.9821 115.253L80.28 108.499C80.2148 108.469 80.1557 108.431 80.0999 108.394C80.1403 108.363 80.187 108.335 80.2337 108.307L86.0048 104.975C86.7474 104.546 87.9627 104.528 88.721 104.931L101.829 111.964C101.901 112.002 101.963 112.042 102.022 112.086C101.969 112.127 101.913 112.164 101.851 112.201ZM47.2542 92.0509L54.318 87.9736C55.0609 87.5415 56.2758 87.523 57.0342 87.9299L68.1598 93.9C68.2314 93.9372 68.2936 93.9776 68.3527 94.0212C68.2999 94.0616 68.2438 94.0989 68.1817 94.1362L61.6834 97.8903C60.9405 98.319 59.7131 98.3597 58.9423 97.9803L47.304 92.2404C47.2388 92.2095 47.1766 92.1722 47.1205 92.1349C47.1612 92.1067 47.2079 92.0788 47.2542 92.0509ZM59.4584 85.0054L66.5971 80.8847C67.3397 80.4559 68.5395 80.465 69.276 80.9065L79.7428 87.1716C79.8204 87.2183 79.8889 87.2646 79.9481 87.3207C79.8859 87.3765 79.8113 87.4262 79.7303 87.4729L73.1793 91.2519C72.4364 91.6807 71.2215 91.6965 70.4695 91.2828L59.4742 85.2537C59.4027 85.2134 59.3375 85.173 59.2787 85.1263C59.3311 85.0833 59.3933 85.043 59.4584 85.0054ZM94.7344 96.4546L88.8578 99.8482C88.1149 100.277 86.9029 100.293 86.151 99.8791L75.1557 93.8502C75.0841 93.8099 75.0189 93.7692 74.9598 93.7229C75.0126 93.6795 75.0717 93.6389 75.1369 93.6016L81.6039 89.8693C82.3468 89.4406 83.5463 89.4496 84.2828 89.8878L94.7465 96.1528C94.8241 96.1995 94.8927 96.2459 94.9515 96.302C94.8897 96.3581 94.8151 96.4079 94.7344 96.4546ZM105.475 90.2544L99.5732 93.6634C98.8303 94.0922 97.6338 94.0767 96.9006 93.6291L86.5706 87.3019C86.493 87.2552 86.4214 87.2025 86.3623 87.1497C86.4275 87.0906 86.5051 87.0378 86.5921 86.9881L93.1058 83.2279C93.8487 82.7992 95.0294 82.8395 95.7411 83.3149L105.53 89.8848C105.611 89.9375 105.68 89.9966 105.742 90.0588C105.668 90.1304 105.577 90.1956 105.475 90.2544ZM91.3378 80.7667L84.7371 84.58C83.9942 85.0087 82.7977 84.9933 82.0642 84.5457L71.7342 78.2215C71.6536 78.1718 71.585 78.1221 71.5229 78.0693C71.5911 78.0102 71.669 77.9544 71.756 77.9047L78.9723 73.7403C79.7152 73.3116 80.8959 73.3519 81.6076 73.8303L91.3939 80.4002C91.4745 80.4529 91.5431 80.509 91.6052 80.5712C91.5303 80.6424 91.4403 80.7076 91.3378 80.7667ZM63.7441 100.18L70.1647 96.473C70.9073 96.0443 72.1226 96.0255 72.8776 96.4294L84.0063 102.399C84.0778 102.437 84.14 102.477 84.1991 102.524C84.1464 102.564 84.0903 102.601 84.0281 102.636L78.1669 106.02C77.424 106.449 76.1966 106.489 75.4258 106.11L63.7905 100.37C63.7253 100.339 63.6662 100.305 63.6104 100.265C63.6507 100.237 63.6974 100.209 63.7441 100.18ZM101.195 96.2338C101.261 96.1747 101.338 96.1219 101.425 96.0722L107.24 92.7159C107.986 92.2872 109.163 92.3245 109.878 92.8029L121.433 100.56C121.514 100.613 121.582 100.672 121.644 100.734C121.57 100.805 121.48 100.871 121.377 100.93L116.262 103.882C115.519 104.311 114.326 104.295 113.592 103.848L101.407 96.3863C101.326 96.3363 101.258 96.2866 101.195 96.2338Z" fill="#1FD18E"/>
<g opacity="0.7">
<path d="M125.479 99.5807L82.9714 70.3679C82.4492 70.0104 81.6536 69.793 80.8455 69.793C80.1557 69.793 79.5153 69.9422 79.0462 70.2157L42.055 91.5722C41.7784 91.7307 41.6511 91.8735 41.6074 91.9451C41.6571 92.0103 41.7939 92.144 42.0798 92.2808L93.2923 117.009C93.802 117.255 94.4949 117.391 95.2472 117.391C96.1453 117.391 97.034 117.189 97.6213 116.851L125.432 100.793C125.749 100.61 125.958 100.38 125.964 100.206C125.973 100.031 125.781 99.786 125.479 99.5807ZM111.619 106.561L106.497 109.519C105.754 109.948 104.542 109.96 103.79 109.55L90.8341 102.446C90.7626 102.405 90.6974 102.365 90.6382 102.318C90.691 102.275 90.7532 102.234 90.8183 102.197L96.6113 98.8502C97.3539 98.4215 98.5537 98.4306 99.2902 98.8721L111.631 106.262C111.709 106.309 111.777 106.355 111.836 106.409C111.774 106.464 111.699 106.514 111.619 106.561ZM101.851 112.201L96.7202 115.163C95.9773 115.591 94.7529 115.632 93.9821 115.253L80.28 108.499C80.2148 108.469 80.1557 108.431 80.0999 108.394C80.1403 108.363 80.187 108.335 80.2337 108.307L86.0048 104.975C86.7474 104.546 87.9627 104.528 88.721 104.931L101.829 111.964C101.901 112.002 101.963 112.042 102.022 112.086C101.969 112.127 101.913 112.164 101.851 112.201ZM47.2542 92.0509L54.318 87.9736C55.0609 87.5415 56.2758 87.523 57.0342 87.9299L68.1598 93.9C68.2314 93.9372 68.2936 93.9776 68.3527 94.0212C68.2999 94.0616 68.2438 94.0989 68.1817 94.1362L61.6834 97.8903C60.9405 98.319 59.7131 98.3597 58.9423 97.9803L47.304 92.2404C47.2388 92.2095 47.1766 92.1722 47.1205 92.1349C47.1612 92.1067 47.2079 92.0788 47.2542 92.0509ZM59.4584 85.0054L66.5971 80.8847C67.3397 80.4559 68.5395 80.465 69.276 80.9065L79.7428 87.1716C79.8204 87.2183 79.8889 87.2646 79.9481 87.3207C79.8859 87.3765 79.8113 87.4262 79.7303 87.4729L73.1793 91.2519C72.4364 91.6807 71.2215 91.6965 70.4695 91.2828L59.4742 85.2537C59.4027 85.2134 59.3375 85.173 59.2787 85.1263C59.3311 85.0833 59.3933 85.043 59.4584 85.0054ZM94.7344 96.4546L88.8578 99.8482C88.1149 100.277 86.9029 100.293 86.151 99.8791L75.1557 93.8502C75.0841 93.8099 75.0189 93.7692 74.9598 93.7229C75.0126 93.6795 75.0717 93.6389 75.1369 93.6016L81.6039 89.8693C82.3468 89.4406 83.5463 89.4496 84.2828 89.8878L94.7465 96.1528C94.8241 96.1995 94.8927 96.2459 94.9515 96.302C94.8897 96.3581 94.8151 96.4079 94.7344 96.4546ZM105.475 90.2544L99.5732 93.6634C98.8303 94.0922 97.6338 94.0767 96.9006 93.6291L86.5706 87.3019C86.493 87.2552 86.4214 87.2025 86.3623 87.1497C86.4275 87.0906 86.5051 87.0378 86.5921 86.9881L93.1058 83.2279C93.8487 82.7992 95.0294 82.8395 95.7411 83.3149L105.53 89.8848C105.611 89.9375 105.68 89.9966 105.742 90.0588C105.668 90.1304 105.577 90.1956 105.475 90.2544ZM91.3378 80.7667L84.7371 84.58C83.9942 85.0087 82.7977 84.9933 82.0642 84.5457L71.7342 78.2215C71.6536 78.1718 71.585 78.1221 71.5229 78.0693C71.5911 78.0102 71.669 77.9544 71.756 77.9047L78.9723 73.7403C79.7152 73.3116 80.8959 73.3519 81.6076 73.8303L91.3939 80.4002C91.4745 80.4529 91.5431 80.509 91.6052 80.5712C91.5303 80.6424 91.4403 80.7076 91.3378 80.7667ZM63.7441 100.18L70.1647 96.473C70.9073 96.0443 72.1226 96.0255 72.8776 96.4294L84.0063 102.399C84.0778 102.437 84.14 102.477 84.1991 102.524C84.1464 102.564 84.0903 102.601 84.0281 102.636L78.1669 106.02C77.424 106.449 76.1966 106.489 75.4258 106.11L63.7905 100.37C63.7253 100.339 63.6662 100.305 63.6104 100.265C63.6507 100.237 63.6974 100.209 63.7441 100.18ZM101.195 96.2338C101.261 96.1747 101.338 96.1219 101.425 96.0722L107.24 92.7159C107.986 92.2872 109.163 92.3245 109.878 92.8029L121.433 100.56C121.514 100.613 121.582 100.672 121.644 100.734C121.57 100.805 121.48 100.871 121.377 100.93L116.262 103.882C115.519 104.311 114.326 104.295 113.592 103.848L101.407 96.3863C101.326 96.3363 101.258 96.2866 101.195 96.2338Z" fill="white"/>
</g>
<path d="M84.007 101.124L72.8784 95.1544C72.1231 94.7502 70.9081 94.7691 70.1655 95.1978L63.7449 98.9052C63.0642 99.2967 63.0269 99.8779 63.6112 100.263C63.6515 100.235 63.6982 100.207 63.7449 100.179L70.1655 96.4719C70.9081 96.0432 72.1234 96.0243 72.8784 96.4282L84.007 102.398C84.0786 102.436 84.1408 102.476 84.1999 102.523C84.7684 102.094 84.6999 101.494 84.007 101.124ZM121.433 99.2849L109.879 91.528C109.164 91.0525 107.986 91.0122 107.24 91.441L101.426 94.7973C100.764 95.1796 100.683 95.7854 101.196 96.233C101.261 96.1739 101.339 96.1211 101.426 96.0714L107.24 92.7151C107.986 92.2863 109.164 92.3236 109.879 92.8021L121.433 100.559C121.514 100.612 121.583 100.671 121.645 100.733C122.114 100.301 122.046 99.6982 121.433 99.2849ZM68.1606 92.625L57.035 86.655C56.2766 86.2478 55.0616 86.2696 54.3187 86.6983L47.255 90.7757C46.5776 91.1671 46.5373 91.7484 47.1213 92.1338C47.1616 92.1059 47.2083 92.0777 47.255 92.0498L54.3187 87.9724C55.0616 87.5403 56.2766 87.5219 57.035 87.9288L68.1606 93.8988C68.2322 93.9361 68.2943 93.9764 68.3535 94.0201C68.919 93.5944 68.8534 92.9946 68.1606 92.625ZM101.83 110.69L88.7215 103.66C87.9631 103.253 86.7481 103.272 86.0052 103.701L80.2341 107.032C79.5534 107.427 79.513 108.008 80.1004 108.393C80.1407 108.362 80.1874 108.334 80.2341 108.306L86.0052 104.975C86.7478 104.546 87.9631 104.527 88.7215 104.931L101.83 111.964C101.901 112.001 101.964 112.041 102.022 112.085C102.588 111.66 102.523 111.06 101.83 110.69ZM111.632 104.987L99.2907 97.5972C98.5542 97.159 97.3546 97.1466 96.6118 97.5787L90.8188 100.923C90.1474 101.311 90.0883 101.908 90.6387 102.318C90.6914 102.274 90.7536 102.234 90.8188 102.197L96.6118 98.8498C97.3543 98.421 98.5542 98.4301 99.2907 98.8716L111.632 106.262C111.709 106.309 111.778 106.355 111.837 106.408C112.356 105.979 112.287 105.376 111.632 104.987ZM79.7432 85.8966L69.2765 79.6316C68.5399 79.1904 67.3404 79.181 66.5975 79.6097L59.4589 83.7304C58.7875 84.1189 58.7284 84.7126 59.2788 85.1258C59.3315 85.0822 59.3937 85.0418 59.4589 85.0046L66.5975 80.8838C67.3401 80.4551 68.5399 80.4642 69.2765 80.9057L79.7432 87.1707C79.8208 87.2174 79.8894 87.2638 79.9485 87.3199C80.4673 86.8912 80.3987 86.2881 79.7432 85.8966ZM91.394 79.1249L81.6077 72.5551C80.896 72.0766 79.715 72.036 78.9724 72.465L71.7561 76.6324C71.0912 77.0148 71.0102 77.6206 71.523 78.0682C71.5912 78.009 71.6691 77.9533 71.7561 77.9035L78.9724 73.7391C79.7153 73.3104 80.896 73.3507 81.6077 73.8292L91.394 80.399C91.4746 80.4518 91.5432 80.5079 91.6054 80.57C92.0778 80.1379 92.0092 79.5351 91.394 79.1249ZM94.7473 94.8779L84.2836 88.6159C83.5471 88.1747 82.3475 88.1653 81.6046 88.594L75.1376 92.3263C74.4663 92.7147 74.4105 93.3115 74.9606 93.7217C75.0133 93.6784 75.0725 93.6377 75.1376 93.6004L81.6046 89.8682C82.3475 89.4394 83.5471 89.4485 84.2836 89.8866L94.7473 96.1517C94.8249 96.1984 94.8934 96.2448 94.9522 96.3009C95.4714 95.8755 95.4032 95.2727 94.7473 94.8779ZM105.531 88.6129L95.7418 82.043C95.0302 81.5646 93.8492 81.5239 93.1066 81.953L86.5929 85.7135C85.928 86.0959 85.847 86.7051 86.3631 87.1492C86.4283 87.0901 86.5059 87.0373 86.5929 86.9876L93.1066 83.2275C93.8495 82.7987 95.0302 82.839 95.7418 83.3145L105.531 89.8843C105.612 89.937 105.68 89.9962 105.743 90.0583C106.212 89.6259 106.143 89.0231 105.531 88.6129Z" fill="#1FD18E"/>
<path opacity="0.3" d="M68.3515 94.0201C68.917 93.5944 68.8518 92.9946 68.1586 92.6247L57.033 86.6546C56.2747 86.2474 55.0597 86.2692 54.3168 86.698L47.2531 90.7753C46.5757 91.1668 46.5354 91.7481 47.1193 92.1335C47.1597 92.1056 47.2064 92.0773 47.2531 92.0495L54.3168 87.9721C55.0597 87.54 56.2747 87.5215 57.033 87.9284L68.1586 93.8985C68.2305 93.9364 68.2927 93.9768 68.3515 94.0201ZM59.2772 85.1258C59.3299 85.0822 59.3921 85.0418 59.4572 85.0045L66.5959 80.8838C67.3385 80.4551 68.5383 80.4642 69.2748 80.9057L79.7416 87.1707C79.8192 87.2174 79.8877 87.2638 79.9469 87.3199C80.4656 86.8912 80.3974 86.2881 79.7416 85.8966L69.2748 79.6316C68.5383 79.1904 67.3388 79.181 66.5959 79.6097L59.4572 83.7304C58.7859 84.1189 58.7268 84.7126 59.2772 85.1258ZM86.3607 87.1489C86.4259 87.0898 86.5039 87.037 86.5909 86.9873L93.1046 83.2268C93.8475 82.798 95.0282 82.8384 95.7402 83.3138L105.53 89.8836C105.61 89.9364 105.679 89.9955 105.741 90.0577C106.21 89.6256 106.142 89.0228 105.53 88.6125L95.7402 82.0427C95.0285 81.5642 93.8475 81.5236 93.1046 81.9527L86.5909 85.7132C85.926 86.0955 85.845 86.7047 86.3607 87.1489ZM84.2819 88.6159C83.5454 88.1747 82.3459 88.1653 81.603 88.594L75.136 92.3263C74.4647 92.7147 74.4089 93.3115 74.9589 93.7217C75.0117 93.6784 75.0708 93.6377 75.136 93.6004L81.603 89.8682C82.3459 89.4394 83.5454 89.4485 84.2819 89.8866L94.7456 96.1517C94.8232 96.1984 94.8918 96.2448 94.9506 96.3009C95.4697 95.8752 95.4012 95.2724 94.7456 94.8776L84.2819 88.6159ZM71.7545 77.9035L78.9708 73.7391C79.7137 73.3104 80.8944 73.3507 81.606 73.8292L91.3924 80.399C91.473 80.4518 91.5415 80.5079 91.6037 80.57C92.0761 80.1379 92.0076 79.5351 91.3924 79.1249L81.606 72.5551C80.8944 72.0766 79.7133 72.036 78.9708 72.465L71.7545 76.6324C71.0896 77.0148 71.0086 77.6206 71.5213 78.0682C71.5899 78.0094 71.6675 77.9533 71.7545 77.9035ZM111.63 104.987L99.289 97.5972C98.5525 97.159 97.353 97.1466 96.6101 97.5783L90.8174 100.922C90.1461 101.311 90.087 101.907 90.637 102.318C90.6898 102.274 90.7519 102.234 90.8174 102.196L96.6101 98.8494C97.353 98.4207 98.5525 98.4298 99.289 98.8713L111.63 106.262C111.708 106.308 111.776 106.355 111.835 106.408C112.354 105.979 112.285 105.376 111.63 104.987ZM84.1979 102.523C84.7664 102.094 84.6982 101.494 84.0051 101.124L72.8764 95.1544C72.1211 94.7502 70.9061 94.769 70.1635 95.1978L63.7429 98.9052C63.0622 99.2966 63.0249 99.8779 63.6092 100.263C63.6495 100.235 63.6962 100.207 63.7429 100.179L70.1635 96.4719C70.9061 96.0432 72.1214 96.0243 72.8764 96.4282L84.0051 102.398C84.077 102.436 84.1388 102.477 84.1979 102.523ZM121.432 99.2849L109.877 91.528C109.162 91.0525 107.984 91.0122 107.238 91.441L101.424 94.7973C100.762 95.1796 100.681 95.7854 101.194 96.233C101.259 96.1739 101.337 96.1211 101.424 96.0714L107.238 92.7151C107.984 92.2863 109.162 92.3236 109.877 92.8021L121.432 100.559C121.513 100.612 121.581 100.671 121.643 100.733C122.112 100.301 122.044 99.6982 121.432 99.2849ZM101.828 110.69L88.7198 103.66C87.9615 103.253 86.7461 103.272 86.0036 103.701L80.2324 107.032C79.5517 107.427 79.5114 108.008 80.0987 108.393C80.139 108.362 80.1857 108.334 80.2324 108.306L86.0036 104.975C86.7461 104.546 87.9615 104.527 88.7198 104.931L101.828 111.964C101.9 112.001 101.962 112.042 102.021 112.085C102.587 111.66 102.521 111.06 101.828 110.69Z" fill="white"/>
<path d="M81.1814 69.1542L81.1565 68.5575L79.4876 29.4249C79.3136 29.4031 79.1365 29.3906 78.9594 29.3906C78.3378 29.3906 77.7535 29.5274 77.3184 29.779L39.0063 51.8999C38.6179 52.1207 38.5245 52.3162 38.5215 52.3505L41.4491 90.4855L41.6043 91.9431C41.648 91.8715 41.7753 91.7287 42.0518 91.5701L79.0431 70.2136C79.5125 69.9401 80.1525 69.7909 80.8424 69.7909C80.9667 69.7909 81.088 69.7973 81.2089 69.8064L81.1814 69.1542ZM75.6528 55.4179L68.3217 59.6538C68.1973 59.7254 68.076 59.7751 67.9611 59.803C67.9393 59.7129 67.9238 59.6105 67.9174 59.5016L67.5384 52.5619C67.4951 51.704 68.0576 50.6631 68.8001 50.234L76.2213 45.9484C76.3426 45.8798 76.4576 45.8301 76.5694 45.8022C76.5943 45.8923 76.6067 45.9917 76.6128 46.1006L76.9296 53.0897C76.9676 53.9479 76.3954 54.9891 75.6528 55.4179ZM76.0476 33.4804L76.3615 40.4696C76.3988 41.3274 75.8269 42.3716 75.0843 42.8004L67.6413 47.0985C67.5169 47.1701 67.3956 47.2198 67.2807 47.2477C67.2589 47.1576 67.2434 47.0548 67.237 46.9463L66.858 40.0069C66.8147 39.1521 67.3768 38.1081 68.1197 37.6791L75.6559 33.3282C75.7738 33.26 75.8921 33.2099 76.004 33.182C76.0288 33.2721 76.0413 33.3716 76.0476 33.4804ZM56.1611 57.531L63.5824 53.2453C63.7067 53.1737 63.831 53.124 63.9459 53.0961C63.9708 53.1861 63.9862 53.289 63.9926 53.3975L64.381 60.3248C64.4308 61.1826 63.8683 62.2235 63.1224 62.6526L55.7852 66.8885C55.6578 66.9631 55.5305 67.0129 55.4122 67.0408C55.3873 66.9507 55.3689 66.8482 55.3625 66.7394L54.9179 59.8588C54.8622 59.001 55.4182 57.96 56.1611 57.531ZM63.284 40.858L63.6754 47.7849C63.7221 48.6427 63.1597 49.687 62.4168 50.1158L54.9767 54.4105C54.8494 54.4851 54.7251 54.5348 54.6038 54.5597C54.5789 54.4697 54.5601 54.3702 54.5541 54.2613L54.1065 47.3777C54.0507 46.5229 54.6068 45.479 55.3527 45.0499L62.8734 40.7084C62.9977 40.6369 63.1221 40.5871 63.237 40.5593C63.2622 40.65 63.278 40.7494 63.284 40.858ZM43.5252 64.8282L50.9434 60.5425C51.0707 60.4679 51.1981 60.4182 51.3194 60.3903C51.3442 60.4834 51.3627 60.5828 51.3691 60.6951L51.8291 67.5632C51.8852 68.421 51.3288 69.462 50.5859 69.891L43.2423 74.133C43.1119 74.2076 42.9842 74.2604 42.8599 74.2853C42.832 74.1922 42.8162 74.0924 42.8072 73.9839L42.2944 67.153C42.2292 66.2982 42.7823 65.2569 43.5252 64.8282ZM50.5331 48.2295L50.9931 55.1007C51.0523 55.9555 50.4958 56.9964 49.753 57.4285L42.3132 61.7202C42.1829 61.7948 42.0522 61.8475 41.9309 61.8724C41.903 61.7824 41.8875 61.6799 41.8781 61.571L41.3654 54.7432C41.3002 53.8884 41.8533 52.8475 42.5962 52.4154L50.1078 48.0799C50.2381 48.0054 50.3625 47.9526 50.4838 47.9244C50.5083 48.0185 50.5268 48.1179 50.5331 48.2295ZM43.7332 86.3927L43.2235 79.5652C43.1583 78.7073 43.7113 77.6664 44.4542 77.2373L51.779 73.0078C51.9064 72.9332 52.0307 72.8835 52.152 72.8586C52.1769 72.9486 52.1957 73.0481 52.2017 73.157L52.6617 80.0282C52.7208 80.886 52.1644 81.9269 51.4219 82.356L44.1713 86.5422C44.0376 86.6168 43.9103 86.6695 43.7859 86.6944C43.758 86.601 43.7426 86.5015 43.7332 86.3927ZM56.1736 79.2201L55.726 72.3365C55.6702 71.4817 56.2297 70.4377 56.9722 70.0086L64.291 65.7851C64.4153 65.7136 64.5366 65.6638 64.6515 65.639C64.6764 65.729 64.6918 65.8285 64.6982 65.9343L65.0897 72.8646C65.1364 73.7194 64.5739 74.7634 63.831 75.1925L56.5963 79.3693C56.4689 79.4439 56.3446 79.4936 56.2233 79.5215C56.1984 79.4281 56.1796 79.3286 56.1736 79.2201ZM68.5982 72.0566L68.2192 65.1138C68.1755 64.259 68.7383 63.2151 69.4809 62.786L76.7902 58.5655C76.9085 58.4973 77.0264 58.4472 77.1383 58.4193C77.1632 58.5094 77.1756 58.6088 77.1816 58.7177L77.4985 65.7072C77.5358 66.565 76.9639 67.6093 76.2213 68.038L69.0021 72.2054C68.8777 72.277 68.7564 72.3267 68.6415 72.3516C68.617 72.2619 68.6046 72.1624 68.5982 72.0566Z" fill="#1FD18E"/>
<path opacity="0.3" d="M81.1814 69.1542L81.1565 68.5575L79.4876 29.4249C79.3136 29.4031 79.1365 29.3906 78.9594 29.3906C78.3378 29.3906 77.7535 29.5274 77.3184 29.779L39.0063 51.8999C38.6179 52.1207 38.5245 52.3162 38.5215 52.3505L41.4491 90.4855L41.6043 91.9431C41.648 91.8715 41.7753 91.7287 42.0518 91.5701L79.0431 70.2136C79.5125 69.9401 80.1525 69.7909 80.8424 69.7909C80.9667 69.7909 81.088 69.7973 81.2089 69.8064L81.1814 69.1542ZM75.6528 55.4179L68.3217 59.6538C68.1973 59.7254 68.076 59.7751 67.9611 59.803C67.9393 59.7129 67.9238 59.6105 67.9174 59.5016L67.5384 52.5619C67.4951 51.704 68.0576 50.6631 68.8001 50.234L76.2213 45.9484C76.3426 45.8798 76.4576 45.8301 76.5694 45.8022C76.5943 45.8923 76.6067 45.9917 76.6128 46.1006L76.9296 53.0897C76.9676 53.9479 76.3954 54.9891 75.6528 55.4179ZM76.0476 33.4804L76.3615 40.4696C76.3988 41.3274 75.8269 42.3716 75.0843 42.8004L67.6413 47.0985C67.5169 47.1701 67.3956 47.2198 67.2807 47.2477C67.2589 47.1576 67.2434 47.0548 67.237 46.9463L66.858 40.0069C66.8147 39.1521 67.3768 38.1081 68.1197 37.6791L75.6559 33.3282C75.7738 33.26 75.8921 33.2099 76.004 33.182C76.0288 33.2721 76.0413 33.3716 76.0476 33.4804ZM56.1611 57.531L63.5824 53.2453C63.7067 53.1737 63.831 53.124 63.9459 53.0961C63.9708 53.1861 63.9862 53.289 63.9926 53.3975L64.381 60.3248C64.4308 61.1826 63.8683 62.2235 63.1224 62.6526L55.7852 66.8885C55.6578 66.9631 55.5305 67.0129 55.4122 67.0408C55.3873 66.9507 55.3689 66.8482 55.3625 66.7394L54.9179 59.8588C54.8622 59.001 55.4182 57.96 56.1611 57.531ZM63.284 40.858L63.6754 47.7849C63.7221 48.6427 63.1597 49.687 62.4168 50.1158L54.9767 54.4105C54.8494 54.4851 54.7251 54.5348 54.6038 54.5597C54.5789 54.4697 54.5601 54.3702 54.5541 54.2613L54.1065 47.3777C54.0507 46.5229 54.6068 45.479 55.3527 45.0499L62.8734 40.7084C62.9977 40.6369 63.1221 40.5871 63.237 40.5593C63.2622 40.65 63.278 40.7494 63.284 40.858ZM43.5252 64.8282L50.9434 60.5425C51.0707 60.4679 51.1981 60.4182 51.3194 60.3903C51.3442 60.4834 51.3627 60.5828 51.3691 60.6951L51.8291 67.5632C51.8852 68.421 51.3288 69.462 50.5859 69.891L43.2423 74.133C43.1119 74.2076 42.9842 74.2604 42.8599 74.2853C42.832 74.1922 42.8162 74.0924 42.8072 73.9839L42.2944 67.153C42.2292 66.2982 42.7823 65.2569 43.5252 64.8282ZM50.5331 48.2295L50.9931 55.1007C51.0523 55.9555 50.4958 56.9964 49.753 57.4285L42.3132 61.7202C42.1829 61.7948 42.0522 61.8475 41.9309 61.8724C41.903 61.7824 41.8875 61.6799 41.8781 61.571L41.3654 54.7432C41.3002 53.8884 41.8533 52.8475 42.5962 52.4154L50.1078 48.0799C50.2381 48.0054 50.3625 47.9526 50.4838 47.9244C50.5083 48.0185 50.5268 48.1179 50.5331 48.2295ZM43.7332 86.3927L43.2235 79.5652C43.1583 78.7073 43.7113 77.6664 44.4542 77.2373L51.779 73.0078C51.9064 72.9332 52.0307 72.8835 52.152 72.8586C52.1769 72.9486 52.1957 73.0481 52.2017 73.157L52.6617 80.0282C52.7208 80.886 52.1644 81.9269 51.4219 82.356L44.1713 86.5422C44.0376 86.6168 43.9103 86.6695 43.7859 86.6944C43.758 86.601 43.7426 86.5015 43.7332 86.3927ZM56.1736 79.2201L55.726 72.3365C55.6702 71.4817 56.2297 70.4377 56.9722 70.0086L64.291 65.7851C64.4153 65.7136 64.5366 65.6638 64.6515 65.639C64.6764 65.729 64.6918 65.8285 64.6982 65.9343L65.0897 72.8646C65.1364 73.7194 64.5739 74.7634 63.831 75.1925L56.5963 79.3693C56.4689 79.4439 56.3446 79.4936 56.2233 79.5215C56.1984 79.4281 56.1796 79.3286 56.1736 79.2201ZM68.5982 72.0566L68.2192 65.1138C68.1755 64.259 68.7383 63.2151 69.4809 62.786L76.7902 58.5655C76.9085 58.4973 77.0264 58.4472 77.1383 58.4193C77.1632 58.5094 77.1756 58.6088 77.1816 58.7177L77.4985 65.7072C77.5358 66.565 76.9639 67.6093 76.2213 68.038L69.0021 72.2054C68.8777 72.277 68.7564 72.3267 68.6415 72.3516C68.617 72.2619 68.6046 72.1624 68.5982 72.0566Z" fill="white"/>
<path d="M65.7215 66.5582C65.6812 65.8435 65.2273 65.486 64.6494 65.6382C64.6742 65.7283 64.6897 65.8277 64.6961 65.9336L65.0875 72.8639C65.1342 73.7187 64.5717 74.7626 63.8288 75.1917L56.5941 79.3685C56.4668 79.4431 56.3424 79.4928 56.2211 79.5207C56.3952 80.1484 56.9701 80.3661 57.6196 79.9931L64.8543 75.8163C65.5969 75.3842 66.1597 74.3433 66.1099 73.4855L65.7215 66.5582ZM77.6364 46.7217C77.6055 46.0007 77.1546 45.6432 76.5673 45.8018C76.5921 45.8918 76.6046 45.9913 76.6106 46.1001L76.9275 53.0893C76.9648 53.9471 76.3929 54.988 75.6503 55.4171L68.3191 59.653C68.1948 59.7246 68.0735 59.7743 67.9586 59.8022C68.1233 60.4332 68.6951 60.6476 69.3446 60.2746L76.6758 56.042C77.4184 55.6133 77.9902 54.572 77.9499 53.7142L77.6364 46.7217ZM65.0129 54.0187C64.9756 53.307 64.525 52.9495 63.9438 53.0957C63.9686 53.1857 63.9841 53.2885 63.9905 53.3971L64.3789 60.3244C64.4286 61.1822 63.8661 62.2231 63.1202 62.6522L55.783 66.8881C55.6556 66.9627 55.5283 67.0124 55.41 67.0403C55.5841 67.6713 56.159 67.8857 56.8085 67.5128L64.1457 63.2768C64.8883 62.8481 65.4511 61.8038 65.4044 60.949L65.0129 54.0187ZM77.0679 34.1043C77.0367 33.3862 76.5861 33.0227 76.0018 33.1813C76.0266 33.2713 76.0391 33.3708 76.0455 33.4796L76.3593 40.4688C76.3966 41.3266 75.8247 42.3709 75.0821 42.7996L67.6391 47.0977C67.5148 47.1693 67.3935 47.219 67.2786 47.2469C67.4432 47.8779 68.0151 48.0953 68.6646 47.7223L76.1076 43.4242C76.8502 42.9955 77.4221 41.9512 77.3817 41.0934L77.0679 34.1043ZM64.3043 41.4822C64.267 40.7675 63.8131 40.41 63.2351 40.5592C63.26 40.6492 63.2755 40.7487 63.2818 40.8575L63.6733 47.7845C63.72 48.6423 63.1575 49.6866 62.4146 50.1153L54.9746 54.4101C54.8472 54.4847 54.7229 54.5344 54.6016 54.5593C54.7723 55.1903 55.3475 55.4107 55.997 55.0347L63.4371 50.7366C64.183 50.3079 64.7455 49.2666 64.6957 48.4088L64.3043 41.4822ZM51.5564 48.8503C51.5067 48.1447 51.0561 47.7842 50.4813 47.9243C50.5061 48.0177 50.5246 48.1171 50.531 48.2287L50.991 55.0999C51.0501 55.9547 50.4937 56.9956 49.7508 57.4277L42.3111 61.7194C42.1807 61.794 42.05 61.8468 41.9287 61.8716C42.1058 62.5027 42.6871 62.717 43.3365 62.3441L50.7732 58.0493C51.5158 57.6206 52.0722 56.5793 52.0164 55.7215L51.5564 48.8503ZM78.2053 59.3422C78.171 58.6245 77.7204 58.2607 77.1361 58.4192C77.161 58.5093 77.1734 58.6088 77.1795 58.7176L77.4963 65.7071C77.5336 66.5649 76.9617 67.6092 76.2192 68.0379L68.9999 72.2053C68.8756 72.2769 68.7543 72.3266 68.6394 72.3515C68.801 72.9855 69.3728 73.2063 70.0254 72.83L77.2446 68.6625C77.9875 68.2338 78.5591 67.1895 78.5188 66.3317L78.2053 59.3422ZM53.2254 73.7808C53.1787 73.0722 52.7251 72.7147 52.1502 72.8578C52.175 72.9479 52.1938 73.0473 52.1999 73.1562L52.6599 80.0274C52.719 80.8852 52.1626 81.9261 51.42 82.3552L44.1695 86.5414C44.0358 86.616 43.9084 86.6688 43.7841 86.6937C43.9642 87.3213 44.5455 87.539 45.195 87.1661L52.4421 82.9798C53.1881 82.5511 53.7411 81.5098 53.6853 80.652L53.2254 73.7808ZM52.3894 61.3156C52.3427 60.61 51.8921 60.2494 51.3172 60.3896C51.3421 60.4826 51.3606 60.5821 51.3669 60.6943L51.8269 67.5625C51.883 68.4203 51.3266 69.4612 50.5837 69.8903L43.2401 74.1323C43.1098 74.2069 42.9821 74.2596 42.8578 74.2845C43.0348 74.9122 43.6161 75.1269 44.2656 74.7539L51.6092 70.5149C52.3521 70.0862 52.9082 69.0449 52.8494 68.1871L52.3894 61.3156Z" fill="#1FD18E"/>
<path d="M129.397 67.2052L81.0931 30.0305C80.6892 29.7197 80.111 29.5054 79.4863 29.4277L81.1801 69.1382L81.208 69.8096C81.8481 69.8687 82.4478 70.0239 82.967 70.369L126.012 99.9514L129.869 67.9323V67.9105C129.869 67.6961 129.698 67.432 129.397 67.2052ZM110.642 74.0579C110.639 74.0983 110.635 74.1386 110.629 74.1762C110.579 74.1483 110.53 74.1171 110.48 74.0798L100.212 66.6928C99.516 66.1925 98.969 65.0891 98.9908 64.2316L99.1524 58.0939C99.1524 58.0721 99.1524 58.0502 99.1554 58.0317C99.1833 58.0506 99.2082 58.069 99.2361 58.0879L109.896 65.9785C110.585 66.4912 111.095 67.5977 111.036 68.4555L110.642 74.0579ZM125.518 84.8788C125.45 84.8445 125.382 84.8012 125.31 84.7515L115.126 77.4233C114.43 76.9196 113.917 75.8196 113.985 74.9651L114.408 69.4396C114.411 69.4053 114.415 69.3714 114.421 69.3402C114.47 69.368 114.52 69.4023 114.57 69.4396L125.049 77.1965C125.739 77.7093 126.221 78.8127 126.121 79.6671L125.54 84.739C125.534 84.7888 125.528 84.8355 125.518 84.8788ZM115.381 58.69L126.23 66.9878C126.911 67.51 127.383 68.6225 127.287 69.4772L126.709 74.5398C126.706 74.5801 126.699 74.6204 126.69 74.6577C126.625 74.6234 126.56 74.5831 126.494 74.5334L115.937 66.6646C115.25 66.1519 114.747 65.0424 114.812 64.1876L115.235 58.6745C115.238 58.6466 115.238 58.6218 115.241 58.5969C115.288 58.6218 115.334 58.6557 115.381 58.69ZM99.522 46.5604L110.669 55.0881C111.353 55.6102 111.857 56.7257 111.794 57.5835L111.403 63.1776C111.4 63.2085 111.397 63.2397 111.394 63.2707C111.347 63.2428 111.304 63.2115 111.257 63.1776L100.498 55.1596C99.811 54.6469 99.2703 53.5344 99.2952 52.6766L99.4535 46.5483C99.4535 46.5358 99.4535 46.5234 99.4568 46.514C99.4787 46.5295 99.5005 46.5449 99.522 46.5604ZM95.6311 63.308C95.6311 63.3358 95.6311 63.3607 95.6281 63.3856C95.6002 63.3701 95.5753 63.3513 95.5505 63.3328L85.1644 55.8588C84.4682 55.3555 83.8809 54.2551 83.853 53.3976L83.6232 46.5295L94.525 54.6002C95.2148 55.1099 95.7618 56.2194 95.7464 57.0772L95.6311 63.308ZM94.7518 42.9151C95.4356 43.4342 95.9732 44.5528 95.9577 45.4106L95.8458 51.6383V51.685C95.824 51.6726 95.7991 51.6538 95.7776 51.6383L84.7357 43.409C84.0458 42.8963 83.4646 41.7838 83.4367 40.926L83.2099 34.0827L94.7518 42.9151ZM95.3203 75.0337L85.5962 68.2962C84.8906 67.8083 84.2942 66.7174 84.2659 65.8599L84.0391 58.9947V58.9668C84.0422 58.9668 84.0422 58.9699 84.0452 58.9699L94.2975 66.2947C94.9968 66.795 95.5498 67.895 95.5344 68.7528L95.4195 74.987C95.4195 75.0243 95.4164 75.0585 95.4134 75.0928C95.3825 75.074 95.3516 75.0552 95.3203 75.0337ZM109.703 84.9971L99.9262 78.2253C99.2206 77.7375 98.6676 76.6435 98.6894 75.7856L98.851 69.6446C98.851 69.6137 98.854 69.5854 98.8571 69.5545C98.8883 69.5764 98.9162 69.5949 98.9471 69.6167L109.119 76.8827C109.815 77.383 110.334 78.48 110.275 79.3378L109.88 84.9534C109.877 85.0031 109.871 85.0498 109.865 85.0932C109.812 85.0683 109.756 85.0344 109.703 84.9971ZM124.123 94.9884L114.315 88.1918C113.609 87.7039 113.09 86.6129 113.156 85.7585L113.575 80.2175C113.578 80.1738 113.585 80.1305 113.591 80.0901C113.643 80.1214 113.696 80.1553 113.749 80.1926L123.865 87.4213C124.564 87.9186 125.052 89.0156 124.952 89.8671L124.371 94.9514C124.365 95.0106 124.356 95.0633 124.343 95.1161C124.272 95.0815 124.198 95.0411 124.123 94.9884Z" fill="#1FD18E"/>
<path opacity="0.5" d="M129.397 67.2052L81.0931 30.0305C80.6892 29.7197 80.111 29.5054 79.4863 29.4277L81.1801 69.1382L81.208 69.8096C81.8481 69.8687 82.4478 70.0239 82.967 70.369L126.012 99.9514L129.869 67.9323V67.9105C129.869 67.6961 129.698 67.432 129.397 67.2052ZM110.642 74.0579C110.639 74.0983 110.635 74.1386 110.629 74.1762C110.579 74.1483 110.53 74.1171 110.48 74.0798L100.212 66.6928C99.516 66.1925 98.969 65.0891 98.9908 64.2316L99.1524 58.0939C99.1524 58.0721 99.1524 58.0502 99.1554 58.0317C99.1833 58.0506 99.2082 58.069 99.2361 58.0879L109.896 65.9785C110.585 66.4912 111.095 67.5977 111.036 68.4555L110.642 74.0579ZM125.518 84.8788C125.45 84.8445 125.382 84.8012 125.31 84.7515L115.126 77.4233C114.43 76.9196 113.917 75.8196 113.985 74.9651L114.408 69.4396C114.411 69.4053 114.415 69.3714 114.421 69.3402C114.47 69.368 114.52 69.4023 114.57 69.4396L125.049 77.1965C125.739 77.7093 126.221 78.8127 126.121 79.6671L125.54 84.739C125.534 84.7888 125.528 84.8355 125.518 84.8788ZM115.381 58.69L126.23 66.9878C126.911 67.51 127.383 68.6225 127.287 69.4772L126.709 74.5398C126.706 74.5801 126.699 74.6204 126.69 74.6577C126.625 74.6234 126.56 74.5831 126.494 74.5334L115.937 66.6646C115.25 66.1519 114.747 65.0424 114.812 64.1876L115.235 58.6745C115.238 58.6466 115.238 58.6218 115.241 58.5969C115.288 58.6218 115.334 58.6557 115.381 58.69ZM99.522 46.5604L110.669 55.0881C111.353 55.6102 111.857 56.7257 111.794 57.5835L111.403 63.1776C111.4 63.2085 111.397 63.2397 111.394 63.2707C111.347 63.2428 111.304 63.2115 111.257 63.1776L100.498 55.1596C99.811 54.6469 99.2703 53.5344 99.2952 52.6766L99.4535 46.5483C99.4535 46.5358 99.4535 46.5234 99.4568 46.514C99.4787 46.5295 99.5005 46.5449 99.522 46.5604ZM95.6311 63.308C95.6311 63.3358 95.6311 63.3607 95.6281 63.3856C95.6002 63.3701 95.5753 63.3513 95.5505 63.3328L85.1644 55.8588C84.4682 55.3555 83.8809 54.2551 83.853 53.3976L83.6232 46.5295L94.525 54.6002C95.2148 55.1099 95.7618 56.2194 95.7464 57.0772L95.6311 63.308ZM94.7518 42.9151C95.4356 43.4342 95.9732 44.5528 95.9577 45.4106L95.8458 51.6383V51.685C95.824 51.6726 95.7991 51.6538 95.7776 51.6383L84.7357 43.409C84.0458 42.8963 83.4646 41.7838 83.4367 40.926L83.2099 34.0827L94.7518 42.9151ZM95.3203 75.0337L85.5962 68.2962C84.8906 67.8083 84.2942 66.7174 84.2659 65.8599L84.0391 58.9947V58.9668C84.0422 58.9668 84.0422 58.9699 84.0452 58.9699L94.2975 66.2947C94.9968 66.795 95.5498 67.895 95.5344 68.7528L95.4195 74.987C95.4195 75.0243 95.4164 75.0585 95.4134 75.0928C95.3825 75.074 95.3516 75.0552 95.3203 75.0337ZM109.703 84.9971L99.9262 78.2253C99.2206 77.7375 98.6676 76.6435 98.6894 75.7856L98.851 69.6446C98.851 69.6137 98.854 69.5854 98.8571 69.5545C98.8883 69.5764 98.9162 69.5949 98.9471 69.6167L109.119 76.8827C109.815 77.383 110.334 78.48 110.275 79.3378L109.88 84.9534C109.877 85.0031 109.871 85.0498 109.865 85.0932C109.812 85.0683 109.756 85.0344 109.703 84.9971ZM124.123 94.9884L114.315 88.1918C113.609 87.7039 113.09 86.6129 113.156 85.7585L113.575 80.2175C113.578 80.1738 113.585 80.1305 113.591 80.0901C113.643 80.1214 113.696 80.1553 113.749 80.1926L123.865 87.4213C124.564 87.9186 125.052 89.0156 124.952 89.8671L124.371 94.9514C124.365 95.0106 124.356 95.0633 124.343 95.1161C124.272 95.0815 124.198 95.0411 124.123 94.9884Z" fill="white"/>
<path d="M84.7397 43.4057C84.0499 42.893 83.4686 41.7805 83.4407 40.9227L83.2139 34.0793L83.189 34.0605C82.5053 33.5414 81.9771 33.8119 82.005 34.6697L82.2348 41.5469C82.2627 42.4048 82.844 43.5142 83.5307 44.027L94.5757 52.2593C95.2501 52.7626 95.8126 52.5016 95.8498 51.6814C95.828 51.6689 95.8031 51.6501 95.7816 51.6347L84.7397 43.4057ZM85.1687 55.8552C84.4725 55.3518 83.8852 54.2514 83.8573 53.394L83.6275 46.5258L83.6181 46.5194C82.9283 46.0067 82.3937 46.2896 82.4216 47.1471L82.6484 54.0152C82.6797 54.873 83.267 55.9761 83.9628 56.4764L94.3489 63.9504C95.0233 64.4383 95.5857 64.1802 95.6325 63.3816C95.6046 63.3661 95.5797 63.3473 95.5548 63.3288L85.1687 55.8552ZM99.9306 78.2217C99.225 77.7338 98.6719 76.6398 98.6937 75.782L98.8554 69.6409C98.8554 69.61 98.8584 69.5818 98.8614 69.5509C98.2055 69.1406 97.671 69.442 97.6495 70.2655L97.4878 76.4066C97.466 77.2644 98.0194 78.3551 98.7247 78.843L108.499 85.6147C109.164 86.0777 109.754 85.8385 109.869 85.0895C109.816 85.0647 109.76 85.0304 109.707 84.9931L99.9306 78.2217ZM85.6008 68.2922C84.8952 67.8043 84.2988 66.7134 84.2706 65.8559L84.0438 58.9907V58.9628C83.3476 58.4686 82.807 58.7609 82.8349 59.6154L83.0647 66.4771C83.0926 67.335 83.6863 68.4256 84.3916 68.9135L94.1188 75.651C94.7931 76.1203 95.3586 75.8653 95.4177 75.0885C95.3868 75.0697 95.3556 75.0512 95.3247 75.0294L85.6008 68.2922ZM126.498 74.5297L115.941 66.6609C115.255 66.1482 114.751 65.0387 114.816 64.1839L115.239 58.6709C115.242 58.643 115.242 58.6181 115.245 58.5932C114.624 58.2078 114.095 58.4968 114.033 59.2925L113.607 64.8055C113.542 65.6633 114.049 66.7728 114.736 67.2856L125.289 75.1513C125.945 75.6392 126.554 75.4154 126.694 74.654C126.629 74.6198 126.564 74.5795 126.498 74.5297ZM100.216 66.6888C99.5203 66.1885 98.9733 65.0851 98.9951 64.2276L99.1568 58.0899C99.1568 58.0681 99.1568 58.0462 99.1598 58.0277C98.5073 57.5957 97.9727 57.888 97.9509 58.7115L97.7892 64.8522C97.7674 65.7101 98.3144 66.8101 99.0106 67.3104L109.278 74.6974C109.94 75.1728 110.528 74.9366 110.634 74.1722C110.584 74.1443 110.534 74.1131 110.484 74.0758L100.216 66.6888ZM115.131 77.42C114.434 76.9163 113.922 75.8163 113.99 74.9618L114.413 69.4363C114.416 69.402 114.419 69.3681 114.425 69.3368C113.798 68.9669 113.266 69.2653 113.207 70.0609L112.781 75.5834C112.716 76.4412 113.229 77.5413 113.925 78.0416L124.109 85.3728C124.765 85.8452 125.374 85.6184 125.523 84.8755C125.455 84.8412 125.386 84.7979 125.315 84.7482L115.131 77.42ZM114.319 88.1881C113.613 87.7003 113.095 86.6093 113.16 85.7548L113.58 80.2138C113.583 80.1702 113.589 80.1268 113.595 80.0865C112.964 79.7384 112.433 80.0462 112.374 80.8354L111.951 86.3764C111.886 87.2342 112.405 88.3219 113.11 88.8128L122.921 95.6063C123.58 96.0633 124.189 95.8395 124.348 95.1121C124.276 95.0778 124.202 95.0375 124.127 94.9847L114.319 88.1881ZM100.502 55.156C99.8156 54.6432 99.275 53.5307 99.2999 52.6729L99.4581 46.5446C99.4581 46.5322 99.4581 46.5197 99.4615 46.5103C98.8087 46.0567 98.2744 46.3363 98.2526 47.1662L98.091 53.2949C98.0691 54.1527 98.6101 55.2652 99.2969 55.7779L110.056 63.7959C110.718 64.2901 111.302 64.0506 111.399 63.2677C111.352 63.2398 111.309 63.2085 111.262 63.1746L100.502 55.156Z" fill="#1FD18E"/>
<path opacity="0.2" d="M84.7397 43.4057C84.0499 42.893 83.4686 41.7805 83.4407 40.9227L83.2139 34.0793L83.189 34.0605C82.5053 33.5414 81.9771 33.8119 82.005 34.6697L82.2348 41.5469C82.2627 42.4048 82.844 43.5142 83.5307 44.027L94.5757 52.2593C95.2501 52.7626 95.8126 52.5016 95.8498 51.6814C95.828 51.6689 95.8031 51.6501 95.7816 51.6347L84.7397 43.4057ZM85.1687 55.8552C84.4725 55.3518 83.8852 54.2514 83.8573 53.394L83.6275 46.5258L83.6181 46.5194C82.9283 46.0067 82.3937 46.2896 82.4216 47.1471L82.6484 54.0152C82.6797 54.873 83.267 55.9761 83.9628 56.4764L94.3489 63.9504C95.0233 64.4383 95.5857 64.1802 95.6325 63.3816C95.6046 63.3661 95.5797 63.3473 95.5548 63.3288L85.1687 55.8552ZM99.9306 78.2217C99.225 77.7338 98.6719 76.6398 98.6937 75.782L98.8554 69.6409C98.8554 69.61 98.8584 69.5818 98.8614 69.5509C98.2055 69.1406 97.671 69.442 97.6495 70.2655L97.4878 76.4066C97.466 77.2644 98.0194 78.3551 98.7247 78.843L108.499 85.6147C109.164 86.0777 109.754 85.8385 109.869 85.0895C109.816 85.0647 109.76 85.0304 109.707 84.9931L99.9306 78.2217ZM85.6008 68.2922C84.8952 67.8043 84.2988 66.7134 84.2706 65.8559L84.0438 58.9907V58.9628C83.3476 58.4686 82.807 58.7609 82.8349 59.6154L83.0647 66.4771C83.0926 67.335 83.6863 68.4256 84.3916 68.9135L94.1188 75.651C94.7931 76.1203 95.3586 75.8653 95.4177 75.0885C95.3868 75.0697 95.3556 75.0512 95.3247 75.0294L85.6008 68.2922ZM126.498 74.5297L115.941 66.6609C115.255 66.1482 114.751 65.0387 114.816 64.1839L115.239 58.6709C115.242 58.643 115.242 58.6181 115.245 58.5932C114.624 58.2078 114.095 58.4968 114.033 59.2925L113.607 64.8055C113.542 65.6633 114.049 66.7728 114.736 67.2856L125.289 75.1513C125.945 75.6392 126.554 75.4154 126.694 74.654C126.629 74.6198 126.564 74.5795 126.498 74.5297ZM100.216 66.6888C99.5203 66.1885 98.9733 65.0851 98.9951 64.2276L99.1568 58.0899C99.1568 58.0681 99.1568 58.0462 99.1598 58.0277C98.5073 57.5957 97.9727 57.888 97.9509 58.7115L97.7892 64.8522C97.7674 65.7101 98.3144 66.8101 99.0106 67.3104L109.278 74.6974C109.94 75.1728 110.528 74.9366 110.634 74.1722C110.584 74.1443 110.534 74.1131 110.484 74.0758L100.216 66.6888ZM115.131 77.42C114.434 76.9163 113.922 75.8163 113.99 74.9618L114.413 69.4363C114.416 69.402 114.419 69.3681 114.425 69.3368C113.798 68.9669 113.266 69.2653 113.207 70.0609L112.781 75.5834C112.716 76.4412 113.229 77.5413 113.925 78.0416L124.109 85.3728C124.765 85.8452 125.374 85.6184 125.523 84.8755C125.455 84.8412 125.386 84.7979 125.315 84.7482L115.131 77.42ZM114.319 88.1881C113.613 87.7003 113.095 86.6093 113.16 85.7548L113.58 80.2138C113.583 80.1702 113.589 80.1268 113.595 80.0865C112.964 79.7384 112.433 80.0462 112.374 80.8354L111.951 86.3764C111.886 87.2342 112.405 88.3219 113.11 88.8128L122.921 95.6063C123.58 96.0633 124.189 95.8395 124.348 95.1121C124.276 95.0778 124.202 95.0375 124.127 94.9847L114.319 88.1881ZM100.502 55.156C99.8156 54.6432 99.275 53.5307 99.2999 52.6729L99.4581 46.5446C99.4581 46.5322 99.4581 46.5197 99.4615 46.5103C98.8087 46.0567 98.2744 46.3363 98.2526 47.1662L98.091 53.2949C98.0691 54.1527 98.6101 55.2652 99.2969 55.7779L110.056 63.7959C110.718 64.2901 111.302 64.0506 111.399 63.2677C111.352 63.2398 111.309 63.2085 111.262 63.1746L100.502 55.156Z" fill="white"/>
<path d="M130.155 66.2184L81.8515 29.0437C80.4903 27.9964 78.1844 27.8442 76.6959 28.702L38.3838 50.8229C37.646 51.249 37.277 51.8017 37.2764 52.352H38.5206C38.5236 52.3178 38.617 52.1222 39.0054 51.9015L77.3175 29.7806C77.7526 29.5289 78.3369 29.3922 78.9582 29.3922C79.7757 29.3922 80.5743 29.6314 81.0931 30.0292L129.397 67.2036C129.708 67.4398 129.882 67.7133 129.869 67.9307H131.112C131.123 67.3323 130.806 66.7181 130.155 66.2184Z" fill="#1FD18E"/>
<path opacity="0.7" d="M130.155 66.2184L81.8515 29.0437C80.4903 27.9964 78.1844 27.8442 76.6959 28.702L38.3838 50.8229C37.646 51.249 37.277 51.8017 37.2764 52.352H38.5206C38.5236 52.3178 38.617 52.1222 39.0054 51.9015L77.3175 29.7806C77.7526 29.5289 78.3369 29.3922 78.9582 29.3922C79.7757 29.3922 80.5743 29.6314 81.0931 30.0292L129.397 67.2036C129.708 67.4398 129.882 67.7133 129.869 67.9307H131.112C131.123 67.3323 130.806 66.7181 130.155 66.2184Z" fill="white"/>
<path d="M96.3193 85.9898L38.4158 53.8776C37.7384 53.5017 37.3684 53.0198 37.2969 52.5195L40.3548 92.019C40.3548 92.0315 40.3548 92.0469 40.3578 92.0593C40.4106 92.5566 40.8054 93.0381 41.5419 93.3926L92.7544 118.121C93.5594 118.509 94.6097 118.671 95.6446 118.615L99.1347 86.5993C98.1216 86.6239 97.0961 86.4219 96.3193 85.9898ZM80.4047 78.8357L95.5206 87.1705C96.2726 87.5868 96.8105 88.6157 96.7265 89.4671L96.1113 95.5863C96.0989 95.7076 96.074 95.8195 96.0398 95.919C95.9497 95.8941 95.8533 95.8538 95.7599 95.8041L81.2158 88.0596C80.4574 87.6557 79.8701 86.6363 79.9044 85.7785L80.1624 79.0377C80.1654 78.9322 80.1812 78.8327 80.2027 78.7423C80.2679 78.7675 80.3361 78.7984 80.4047 78.8357ZM76.1687 97.1682L62.299 90.1136C61.5346 89.7252 60.8975 88.7151 60.8817 87.8573L60.7231 80.4237C60.7201 80.3182 60.7295 80.2184 60.745 80.1283C60.7917 80.1502 60.838 80.172 60.8878 80.1969L75.32 87.8325C76.0783 88.2333 76.6717 89.2558 76.6438 90.1136L76.4264 96.9196C76.4234 97.0409 76.4046 97.1528 76.3767 97.2553C76.3085 97.2337 76.2403 97.2025 76.1687 97.1682ZM95.6419 100.214L95.0234 106.327C95.0109 106.457 94.983 106.576 94.9427 106.681C94.8496 106.656 94.7532 106.619 94.6568 106.569L80.787 99.5179C80.0226 99.1295 79.4289 98.1164 79.4632 97.2616L79.7209 90.5242C79.7243 90.4092 79.7397 90.3034 79.7676 90.2073C79.8362 90.2291 79.9044 90.2601 79.9759 90.2974L94.4239 97.9424C95.185 98.3432 95.729 99.3593 95.6419 100.214ZM60.6052 67.9154L75.7027 76.2442C76.4547 76.6574 77.042 77.6893 77.0141 78.5471L76.7967 85.3531C76.7937 85.465 76.7782 85.5708 76.7564 85.6669C76.6882 85.6451 76.6196 85.6142 76.5511 85.5769L62.0224 77.8418C61.2641 77.441 60.6364 76.4185 60.618 75.5607L60.4564 68.1207C60.453 68.0243 60.4594 67.9342 60.4718 67.8502C60.5152 67.8687 60.5585 67.8905 60.6052 67.9154ZM57.6807 87.7676L43.8109 80.713C43.0465 80.3245 42.3752 79.3145 42.313 78.4597L41.7227 70.3238C41.7166 70.2304 41.7166 70.1437 41.7227 70.0628C41.7475 70.0722 41.7754 70.0846 41.8036 70.1001L56.2392 77.7387C56.9976 78.1395 57.6316 79.159 57.6531 80.0168L57.849 87.5156C57.852 87.6305 57.8426 87.7364 57.8241 87.8325C57.7771 87.814 57.7304 87.7921 57.6807 87.7676ZM40.84 57.0166L55.9096 65.3265C56.6616 65.7398 57.2896 66.7716 57.3111 67.6295L57.513 75.1377C57.516 75.2402 57.51 75.3366 57.4945 75.4236C57.4508 75.4082 57.4075 75.3863 57.3608 75.3615L42.8446 67.6325C42.0862 67.2286 41.4213 66.2092 41.3591 65.3514L40.7688 57.2151C40.7627 57.1311 40.7627 57.0535 40.7657 56.9789C40.7903 56.9883 40.8151 57.0038 40.84 57.0166ZM57.9511 98.399L44.6375 91.9192C43.8667 91.5432 43.1893 90.5457 43.1271 89.6909L42.6735 83.4319C42.6672 83.3264 42.6672 83.2299 42.6799 83.1399C42.7078 83.1493 42.7391 83.1647 42.77 83.1802L56.5467 90.1384C57.3144 90.5238 57.9545 91.5338 57.9763 92.3916L58.1316 98.1255C58.1346 98.2468 58.1255 98.3587 58.1003 98.4612C58.0506 98.4457 58.0009 98.4239 57.9511 98.399ZM75.8394 107.104L62.5352 100.63C61.7644 100.254 61.1243 99.2538 61.1055 98.396L60.9842 92.7213C60.9812 92.6063 60.9903 92.4975 61.0091 92.4011C61.0588 92.4229 61.1115 92.4444 61.1616 92.4696L74.9349 99.4248C75.7027 99.8102 76.3024 100.82 76.2746 101.678L76.1099 106.831C76.1069 106.961 76.0881 107.082 76.0538 107.188C75.9822 107.169 75.9107 107.138 75.8394 107.104ZM93.712 115.802L80.4201 109.332C79.6493 108.959 79.0496 107.959 79.0839 107.101L79.2797 102.007C79.2858 101.883 79.3016 101.768 79.3325 101.666C79.4041 101.684 79.4756 101.715 79.5502 101.753L93.3235 108.708C94.0879 109.096 94.6413 110.1 94.5543 110.955L94.0883 115.535C94.0758 115.672 94.0446 115.796 94.0012 115.908C93.9045 115.886 93.808 115.849 93.712 115.802Z" fill="#1FD18E"/>
<path opacity="0.5" d="M96.3193 85.9898L38.4158 53.8776C37.7384 53.5017 37.3684 53.0198 37.2969 52.5195L40.3548 92.019C40.3548 92.0315 40.3548 92.0469 40.3578 92.0593C40.4106 92.5566 40.8054 93.0381 41.5419 93.3926L92.7544 118.121C93.5594 118.509 94.6097 118.671 95.6446 118.615L99.1347 86.5993C98.1216 86.6239 97.0961 86.4219 96.3193 85.9898ZM80.4047 78.8357L95.5206 87.1705C96.2726 87.5868 96.8105 88.6157 96.7265 89.4671L96.1113 95.5863C96.0989 95.7076 96.074 95.8195 96.0398 95.919C95.9497 95.8941 95.8533 95.8538 95.7599 95.8041L81.2158 88.0596C80.4574 87.6557 79.8701 86.6363 79.9044 85.7785L80.1624 79.0377C80.1654 78.9322 80.1812 78.8327 80.2027 78.7423C80.2679 78.7675 80.3361 78.7984 80.4047 78.8357ZM76.1687 97.1682L62.299 90.1136C61.5346 89.7252 60.8975 88.7151 60.8817 87.8573L60.7231 80.4237C60.7201 80.3182 60.7295 80.2184 60.745 80.1283C60.7917 80.1502 60.838 80.172 60.8878 80.1969L75.32 87.8325C76.0783 88.2333 76.6717 89.2558 76.6438 90.1136L76.4264 96.9196C76.4234 97.0409 76.4046 97.1528 76.3767 97.2553C76.3085 97.2337 76.2403 97.2025 76.1687 97.1682ZM95.6419 100.214L95.0234 106.327C95.0109 106.457 94.983 106.576 94.9427 106.681C94.8496 106.656 94.7532 106.619 94.6568 106.569L80.787 99.5179C80.0226 99.1295 79.4289 98.1164 79.4632 97.2616L79.7209 90.5242C79.7243 90.4092 79.7397 90.3034 79.7676 90.2073C79.8362 90.2291 79.9044 90.2601 79.9759 90.2974L94.4239 97.9424C95.185 98.3432 95.729 99.3593 95.6419 100.214ZM60.6052 67.9154L75.7027 76.2442C76.4547 76.6574 77.042 77.6893 77.0141 78.5471L76.7967 85.3531C76.7937 85.465 76.7782 85.5708 76.7564 85.6669C76.6882 85.6451 76.6196 85.6142 76.5511 85.5769L62.0224 77.8418C61.2641 77.441 60.6364 76.4185 60.618 75.5607L60.4564 68.1207C60.453 68.0243 60.4594 67.9342 60.4718 67.8502C60.5152 67.8687 60.5585 67.8905 60.6052 67.9154ZM57.6807 87.7676L43.8109 80.713C43.0465 80.3245 42.3752 79.3145 42.313 78.4597L41.7227 70.3238C41.7166 70.2304 41.7166 70.1437 41.7227 70.0628C41.7475 70.0722 41.7754 70.0846 41.8036 70.1001L56.2392 77.7387C56.9976 78.1395 57.6316 79.159 57.6531 80.0168L57.849 87.5156C57.852 87.6305 57.8426 87.7364 57.8241 87.8325C57.7771 87.814 57.7304 87.7921 57.6807 87.7676ZM40.84 57.0166L55.9096 65.3265C56.6616 65.7398 57.2896 66.7716 57.3111 67.6295L57.513 75.1377C57.516 75.2402 57.51 75.3366 57.4945 75.4236C57.4508 75.4082 57.4075 75.3863 57.3608 75.3615L42.8446 67.6325C42.0862 67.2286 41.4213 66.2092 41.3591 65.3514L40.7688 57.2151C40.7627 57.1311 40.7627 57.0535 40.7657 56.9789C40.7903 56.9883 40.8151 57.0038 40.84 57.0166ZM57.9511 98.399L44.6375 91.9192C43.8667 91.5432 43.1893 90.5457 43.1271 89.6909L42.6735 83.4319C42.6672 83.3264 42.6672 83.2299 42.6799 83.1399C42.7078 83.1493 42.7391 83.1647 42.77 83.1802L56.5467 90.1384C57.3144 90.5238 57.9545 91.5338 57.9763 92.3916L58.1316 98.1255C58.1346 98.2468 58.1255 98.3587 58.1003 98.4612C58.0506 98.4457 58.0009 98.4239 57.9511 98.399ZM75.8394 107.104L62.5352 100.63C61.7644 100.254 61.1243 99.2538 61.1055 98.396L60.9842 92.7213C60.9812 92.6063 60.9903 92.4975 61.0091 92.4011C61.0588 92.4229 61.1115 92.4444 61.1616 92.4696L74.9349 99.4248C75.7027 99.8102 76.3024 100.82 76.2746 101.678L76.1099 106.831C76.1069 106.961 76.0881 107.082 76.0538 107.188C75.9822 107.169 75.9107 107.138 75.8394 107.104ZM93.712 115.802L80.4201 109.332C79.6493 108.959 79.0496 107.959 79.0839 107.101L79.2797 102.007C79.2858 101.883 79.3016 101.768 79.3325 101.666C79.4041 101.684 79.4756 101.715 79.5502 101.753L93.3235 108.708C94.0879 109.096 94.6413 110.1 94.5543 110.955L94.0883 115.535C94.0758 115.672 94.0446 115.796 94.0012 115.908C93.9045 115.886 93.808 115.849 93.712 115.802Z" fill="white"/>
<path d="M93.7124 115.807L80.4205 109.336C79.6498 108.963 79.05 107.963 79.0843 107.105L79.2802 102.012C79.2862 101.887 79.302 101.772 79.3329 101.67C78.6649 101.449 78.1334 101.835 78.1021 102.608L77.9063 107.705C77.8753 108.563 78.4721 109.561 79.2459 109.937L92.5347 116.407C93.1842 116.721 93.7809 116.497 94.0017 115.913C93.9049 115.891 93.8085 115.853 93.7124 115.807ZM95.7603 95.8084L81.2162 88.0639C80.4578 87.6601 79.8705 86.6406 79.9048 85.7828L80.1628 79.042C80.1659 78.9365 80.1816 78.837 80.2032 78.7467C79.5443 78.495 79.0161 78.8616 78.9848 79.6418L78.7268 86.3826C78.6925 87.2374 79.2798 88.2598 80.0382 88.6637L94.5823 96.4082C95.2318 96.7532 95.8285 96.5325 96.0398 95.9233C95.9498 95.8984 95.8537 95.8581 95.7603 95.8084ZM94.6569 106.574L80.7871 99.5222C80.0227 99.1338 79.429 98.1208 79.4633 97.266L79.721 90.5285C79.7244 90.4136 79.7398 90.3077 79.7677 90.2117C79.1028 89.9724 78.5742 90.3514 78.5433 91.1283L78.2853 97.8627C78.251 98.7205 78.8447 99.7305 79.6091 100.122L93.4822 107.173C94.1317 107.503 94.7254 107.282 94.9428 106.685C94.8497 106.661 94.7533 106.623 94.6569 106.574ZM76.1691 97.1726L62.2994 90.1179C61.535 89.7295 60.8979 88.7195 60.8821 87.8617L60.7236 80.428C60.7205 80.3225 60.7299 80.2227 60.7454 80.1327C60.0556 79.8498 59.5304 80.2257 59.5459 81.0278L59.7045 88.4614C59.7233 89.3192 60.357 90.3293 61.1217 90.7177L74.9915 97.7723C75.647 98.105 76.2128 97.8748 76.3775 97.2596C76.3089 97.2381 76.2407 97.2068 76.1691 97.1726ZM76.5512 85.5809L62.0225 77.8458C61.2642 77.445 60.6365 76.4226 60.618 75.5647L60.4564 68.1247C60.4531 68.0283 60.4595 67.9382 60.4719 67.8542C59.7851 67.5528 59.2599 67.9194 59.2788 68.7245L59.4404 76.1611C59.4588 77.0189 60.0899 78.0414 60.8452 78.4453L75.3769 86.1803C76.0327 86.5314 76.5982 86.2983 76.7568 85.6706C76.6883 85.6491 76.6197 85.6182 76.5512 85.5809ZM57.6811 87.772L43.8113 80.7173C43.0469 80.3289 42.3756 79.3189 42.3134 78.4641L41.7231 70.3282C41.717 70.2348 41.717 70.1481 41.7231 70.0671C41.0051 69.7314 40.4863 70.1044 40.5454 70.9279L41.1358 79.0638C41.1979 79.9186 41.8692 80.9283 42.6336 81.3171L56.5034 88.3684C57.1653 88.707 57.7059 88.4648 57.8242 87.8368C57.7775 87.8183 57.7308 87.7965 57.6811 87.772ZM75.8399 107.108L62.5356 100.635C61.7648 100.259 61.1247 99.2581 61.1059 98.4003L60.9846 92.7256C60.9816 92.6107 60.9907 92.5018 61.0095 92.4054C60.3163 92.1383 59.7881 92.5237 59.8069 93.3254L59.9282 99.0001C59.9471 99.8579 60.5871 100.858 61.3579 101.234L74.6622 107.708C75.3147 108.028 75.8805 107.795 76.0546 107.192C75.9827 107.173 75.9111 107.142 75.8399 107.108ZM57.3612 75.3658L42.845 67.6368C42.0866 67.233 41.4217 66.2135 41.3595 65.3557L40.7692 57.2195C40.7631 57.1355 40.7631 57.0579 40.7662 56.9833C40.0515 56.6291 39.5324 56.9897 39.5915 57.8192L40.1819 65.9551C40.244 66.8129 40.909 67.8324 41.6673 68.2362L56.1835 75.9653C56.8518 76.3194 57.3924 76.0771 57.4949 75.4277C57.4512 75.4122 57.4076 75.3907 57.3612 75.3658ZM57.9516 98.4033L44.6379 91.9236C43.8671 91.5476 43.1897 90.55 43.1276 89.6952L42.674 83.4362C42.6676 83.3307 42.6676 83.2343 42.6804 83.1442C41.9623 82.8304 41.4371 83.2124 41.4963 84.033L41.9532 90.295C42.0154 91.1498 42.6898 92.1474 43.4605 92.5233L56.7742 99.0031C57.4391 99.3263 57.9801 99.0841 58.1011 98.4655C58.051 98.45 58.0013 98.4282 57.9516 98.4033Z" fill="#1FD18E"/>
<path opacity="0.2" d="M93.7124 115.807L80.4205 109.336C79.6498 108.963 79.05 107.963 79.0843 107.105L79.2802 102.012C79.2862 101.887 79.302 101.772 79.3329 101.67C78.6649 101.449 78.1334 101.835 78.1021 102.608L77.9063 107.705C77.8753 108.563 78.4721 109.561 79.2459 109.937L92.5347 116.407C93.1842 116.721 93.7809 116.497 94.0017 115.913C93.9049 115.891 93.8085 115.853 93.7124 115.807ZM95.7603 95.8084L81.2162 88.0639C80.4578 87.6601 79.8705 86.6406 79.9048 85.7828L80.1628 79.042C80.1659 78.9365 80.1816 78.837 80.2032 78.7467C79.5443 78.495 79.0161 78.8616 78.9848 79.6418L78.7268 86.3826C78.6925 87.2374 79.2798 88.2598 80.0382 88.6637L94.5823 96.4082C95.2318 96.7532 95.8285 96.5325 96.0398 95.9233C95.9498 95.8984 95.8537 95.8581 95.7603 95.8084ZM94.6569 106.574L80.7871 99.5222C80.0227 99.1338 79.429 98.1208 79.4633 97.266L79.721 90.5285C79.7244 90.4136 79.7398 90.3077 79.7677 90.2117C79.1028 89.9724 78.5742 90.3514 78.5433 91.1283L78.2853 97.8627C78.251 98.7205 78.8447 99.7305 79.6091 100.122L93.4822 107.173C94.1317 107.503 94.7254 107.282 94.9428 106.685C94.8497 106.661 94.7533 106.623 94.6569 106.574ZM76.1691 97.1726L62.2994 90.1179C61.535 89.7295 60.8979 88.7195 60.8821 87.8617L60.7236 80.428C60.7205 80.3225 60.7299 80.2227 60.7454 80.1327C60.0556 79.8498 59.5304 80.2257 59.5459 81.0278L59.7045 88.4614C59.7233 89.3192 60.357 90.3293 61.1217 90.7177L74.9915 97.7723C75.647 98.105 76.2128 97.8748 76.3775 97.2596C76.3089 97.2381 76.2407 97.2068 76.1691 97.1726ZM76.5512 85.5809L62.0225 77.8458C61.2642 77.445 60.6365 76.4226 60.618 75.5647L60.4564 68.1247C60.4531 68.0283 60.4595 67.9382 60.4719 67.8542C59.7851 67.5528 59.2599 67.9194 59.2788 68.7245L59.4404 76.1611C59.4588 77.0189 60.0899 78.0414 60.8452 78.4453L75.3769 86.1803C76.0327 86.5314 76.5982 86.2983 76.7568 85.6706C76.6883 85.6491 76.6197 85.6182 76.5512 85.5809ZM57.6811 87.772L43.8113 80.7173C43.0469 80.3289 42.3756 79.3189 42.3134 78.4641L41.7231 70.3282C41.717 70.2348 41.717 70.1481 41.7231 70.0671C41.0051 69.7314 40.4863 70.1044 40.5454 70.9279L41.1358 79.0638C41.1979 79.9186 41.8692 80.9283 42.6336 81.3171L56.5034 88.3684C57.1653 88.707 57.7059 88.4648 57.8242 87.8368C57.7775 87.8183 57.7308 87.7965 57.6811 87.772ZM75.8399 107.108L62.5356 100.635C61.7648 100.259 61.1247 99.2581 61.1059 98.4003L60.9846 92.7256C60.9816 92.6107 60.9907 92.5018 61.0095 92.4054C60.3163 92.1383 59.7881 92.5237 59.8069 93.3254L59.9282 99.0001C59.9471 99.8579 60.5871 100.858 61.3579 101.234L74.6622 107.708C75.3147 108.028 75.8805 107.795 76.0546 107.192C75.9827 107.173 75.9111 107.142 75.8399 107.108ZM57.3612 75.3658L42.845 67.6368C42.0866 67.233 41.4217 66.2135 41.3595 65.3557L40.7692 57.2195C40.7631 57.1355 40.7631 57.0579 40.7662 56.9833C40.0515 56.6291 39.5324 56.9897 39.5915 57.8192L40.1819 65.9551C40.244 66.8129 40.909 67.8324 41.6673 68.2362L56.1835 75.9653C56.8518 76.3194 57.3924 76.0771 57.4949 75.4277C57.4512 75.4122 57.4076 75.3907 57.3612 75.3658ZM57.9516 98.4033L44.6379 91.9236C43.8671 91.5476 43.1897 90.55 43.1276 89.6952L42.674 83.4362C42.6676 83.3307 42.6676 83.2343 42.6804 83.1442C41.9623 82.8304 41.4371 83.2124 41.4963 84.033L41.9532 90.295C42.0154 91.1498 42.6898 92.1474 43.4605 92.5233L56.7742 99.0031C57.4391 99.3263 57.9801 99.0841 58.1011 98.4655C58.051 98.45 58.0013 98.4282 57.9516 98.4033Z" fill="white"/>
<path d="M129.937 69.6612L101.731 85.9458C101.014 86.3591 100.081 86.5798 99.1365 86.6017L95.6465 118.617C96.5974 118.568 97.5358 118.335 98.2475 117.921L126.059 101.863C126.745 101.466 127.125 100.937 127.199 100.387L127.208 100.306L131.087 68.2285C130.978 68.7725 130.593 69.2822 129.937 69.6612ZM126.456 83.4224L125.72 89.5383C125.617 90.3897 124.934 91.428 124.191 91.8567L114.072 97.6991C113.963 97.7612 113.861 97.8049 113.764 97.8358C113.755 97.7394 113.755 97.6339 113.767 97.522L114.414 91.5177C114.504 90.6632 115.181 89.622 115.924 89.1932L126.173 83.2514C126.276 83.1923 126.372 83.1489 126.465 83.1177C126.472 83.2111 126.469 83.3105 126.456 83.4224ZM111.608 92.0089L110.946 98.0566C110.853 98.911 110.175 99.9493 109.433 100.378L99.1647 106.304C99.0592 106.364 98.9598 106.41 98.8634 106.441C98.8539 106.345 98.8539 106.242 98.8664 106.13L99.5283 100.08C99.6247 99.2252 100.302 98.1869 101.045 97.7582L111.307 91.8318C111.413 91.7697 111.515 91.726 111.611 91.6981C111.62 91.7946 111.62 91.8974 111.608 92.0089ZM127.746 72.6913L127.013 78.8041C126.91 79.6555 126.224 80.6938 125.481 81.1255L115.209 87.0549C115.107 87.1141 115.007 87.1574 114.914 87.1887C114.908 87.0956 114.911 86.9928 114.923 86.8809L115.66 80.768C115.762 79.9133 116.446 78.8753 117.189 78.4466L127.463 72.5169C127.565 72.4577 127.662 72.4144 127.755 72.3832C127.762 72.4769 127.759 72.5794 127.746 72.6913ZM112.882 81.2687L112.133 87.397C112.028 88.2484 111.341 89.2866 110.598 89.7154L100.336 95.6418C100.231 95.7039 100.128 95.7472 100.032 95.7755C100.022 95.679 100.022 95.5766 100.035 95.4647L100.7 89.414C100.793 88.5626 101.473 87.5213 102.216 87.0926L112.602 81.0977C112.702 81.0385 112.801 80.9952 112.891 80.9669C112.897 81.0604 112.894 81.1602 112.882 81.2687ZM97.8621 115.271L98.3594 110.743C98.4524 109.891 99.1301 108.85 99.8727 108.421L110.162 102.482C110.271 102.417 110.377 102.37 110.476 102.343C110.489 102.439 110.489 102.542 110.476 102.656L110.026 107.141C109.939 107.992 109.267 109.034 108.525 109.462L98.1635 115.445C98.0576 115.507 97.9551 115.55 97.859 115.582C97.8496 115.485 97.8496 115.382 97.8621 115.271ZM112.72 106.684L113.205 102.174C113.295 101.319 113.973 100.282 114.715 99.8528L124.881 93.9822C124.983 93.9231 125.083 93.8798 125.176 93.8485C125.183 93.9416 125.179 94.0444 125.167 94.1563L124.614 98.737C124.511 99.5884 123.827 100.627 123.085 101.055L113.025 106.857C112.916 106.92 112.813 106.966 112.717 106.997C112.708 106.901 112.708 106.799 112.72 106.684Z" fill="#1FD18E"/>
<path opacity="0.3" d="M129.937 69.6612L101.731 85.9458C101.014 86.3591 100.081 86.5798 99.1365 86.6017L95.6465 118.617C96.5974 118.568 97.5358 118.335 98.2475 117.921L126.059 101.863C126.745 101.466 127.125 100.937 127.199 100.387L127.208 100.306L131.087 68.2285C130.978 68.7725 130.593 69.2822 129.937 69.6612ZM126.456 83.4224L125.72 89.5383C125.617 90.3897 124.934 91.428 124.191 91.8567L114.072 97.6991C113.963 97.7612 113.861 97.8049 113.764 97.8358C113.755 97.7394 113.755 97.6339 113.767 97.522L114.414 91.5177C114.504 90.6632 115.181 89.622 115.924 89.1932L126.173 83.2514C126.276 83.1923 126.372 83.1489 126.465 83.1177C126.472 83.2111 126.469 83.3105 126.456 83.4224ZM111.608 92.0089L110.946 98.0566C110.853 98.911 110.175 99.9493 109.433 100.378L99.1647 106.304C99.0592 106.364 98.9598 106.41 98.8634 106.441C98.8539 106.345 98.8539 106.242 98.8664 106.13L99.5283 100.08C99.6247 99.2252 100.302 98.1869 101.045 97.7582L111.307 91.8318C111.413 91.7697 111.515 91.726 111.611 91.6981C111.62 91.7946 111.62 91.8974 111.608 92.0089ZM127.746 72.6913L127.013 78.8041C126.91 79.6555 126.224 80.6938 125.481 81.1255L115.209 87.0549C115.107 87.1141 115.007 87.1574 114.914 87.1887C114.908 87.0956 114.911 86.9928 114.923 86.8809L115.66 80.768C115.762 79.9133 116.446 78.8753 117.189 78.4466L127.463 72.5169C127.565 72.4577 127.662 72.4144 127.755 72.3832C127.762 72.4769 127.759 72.5794 127.746 72.6913ZM112.882 81.2687L112.133 87.397C112.028 88.2484 111.341 89.2866 110.598 89.7154L100.336 95.6418C100.231 95.7039 100.128 95.7472 100.032 95.7755C100.022 95.679 100.022 95.5766 100.035 95.4647L100.7 89.414C100.793 88.5626 101.473 87.5213 102.216 87.0926L112.602 81.0977C112.702 81.0385 112.801 80.9952 112.891 80.9669C112.897 81.0604 112.894 81.1602 112.882 81.2687ZM97.8621 115.271L98.3594 110.743C98.4524 109.891 99.1301 108.85 99.8727 108.421L110.162 102.482C110.271 102.417 110.377 102.37 110.476 102.343C110.489 102.439 110.489 102.542 110.476 102.656L110.026 107.141C109.939 107.992 109.267 109.034 108.525 109.462L98.1635 115.445C98.0576 115.507 97.9551 115.55 97.859 115.582C97.8496 115.485 97.8496 115.382 97.8621 115.271ZM112.72 106.684L113.205 102.174C113.295 101.319 113.973 100.282 114.715 99.8528L124.881 93.9822C124.983 93.9231 125.083 93.8798 125.176 93.8485C125.183 93.9416 125.179 94.0444 125.167 94.1563L124.614 98.737C124.511 99.5884 123.827 100.627 123.085 101.055L113.025 106.857C112.916 106.92 112.813 106.966 112.717 106.997C112.708 106.901 112.708 106.799 112.72 106.684Z" fill="white"/>
<path d="M112.894 80.9672C112.9 81.0602 112.897 81.16 112.885 81.2685L112.136 87.3968C112.03 88.2483 111.344 89.2865 110.601 89.7153L100.339 95.6416C100.233 95.7038 100.131 95.7471 100.035 95.7753C100.087 96.3969 100.569 96.6053 101.216 96.2323L111.477 90.309C112.22 89.8802 112.907 88.842 113.013 87.9906L113.761 81.8623C113.851 81.1257 113.475 80.7713 112.894 80.9672ZM127.759 72.3837C127.765 72.4771 127.762 72.5796 127.749 72.6915L127.016 78.8043C126.913 79.6557 126.226 80.694 125.484 81.1257L115.212 87.0551C115.11 87.1143 115.01 87.1576 114.917 87.1889C114.964 87.8105 115.439 88.0188 116.089 87.6458L126.359 81.7164C127.102 81.2877 127.786 80.2495 127.889 79.398L128.625 73.2822C128.712 72.5483 128.34 72.1908 127.759 72.3837ZM111.614 91.6983C111.623 91.7947 111.623 91.8972 111.611 92.0091L110.949 98.0568C110.856 98.9112 110.178 99.9495 109.435 100.378L99.1677 106.305C99.0622 106.364 98.9627 106.41 98.8663 106.441C98.919 107.06 99.4009 107.271 100.044 106.898L110.309 100.972C111.052 100.543 111.732 99.5019 111.825 98.6505L112.487 92.5998C112.568 91.869 112.192 91.5118 111.614 91.6983ZM126.469 83.1179C126.475 83.211 126.472 83.3104 126.459 83.4223L125.723 89.5382C125.62 90.3896 124.937 91.4278 124.194 91.8566L114.075 97.6989C113.966 97.7611 113.864 97.8048 113.767 97.8357C113.82 98.4543 114.305 98.6653 114.948 98.2927L125.067 92.4503C125.81 92.0216 126.497 90.9833 126.599 90.1289L127.336 84.016C127.423 83.2825 127.05 82.925 126.469 83.1179ZM110.479 102.342C110.492 102.439 110.492 102.541 110.479 102.656L110.029 107.141C109.942 107.992 109.271 109.033 108.528 109.462L98.1667 115.444C98.0609 115.507 97.9584 115.55 97.8623 115.581C97.9151 116.2 98.3969 116.411 99.0433 116.038L109.405 110.056C110.147 109.627 110.818 108.586 110.905 107.731L111.356 103.25C111.43 102.523 111.054 102.162 110.479 102.342ZM125.179 93.8487C125.186 93.9418 125.182 94.0446 125.17 94.1565L124.617 98.7372C124.514 99.5886 123.83 100.627 123.088 101.056L113.028 106.858C112.919 106.92 112.816 106.966 112.72 106.997C112.776 107.613 113.257 107.824 113.901 107.451L123.961 101.649C124.704 101.22 125.39 100.182 125.493 99.3306L126.043 94.7499C126.13 94.0134 125.76 93.6592 125.179 93.8487Z" fill="#1FD18E"/>
<path d="M129.878 67.9266C129.862 68.144 129.654 68.3896 129.315 68.5855L101.109 84.8701C100.569 85.1809 99.7885 85.361 98.9714 85.361C98.1912 85.361 97.4456 85.1964 96.9235 84.9074L39.0203 52.7922C38.6318 52.5778 38.5324 52.385 38.5294 52.3477H37.2852C37.2845 52.9054 37.6621 53.4605 38.4175 53.8798L96.321 85.992C97.8223 86.825 100.246 86.8061 101.732 85.9453L129.937 69.6607C130.712 69.2135 131.111 68.5791 131.122 67.9266H129.878Z" fill="#1FD18E"/>
<path opacity="0.7" d="M129.878 67.9266C129.862 68.144 129.654 68.3896 129.315 68.5855L101.109 84.8701C100.569 85.1809 99.7885 85.361 98.9714 85.361C98.1912 85.361 97.4456 85.1964 96.9235 84.9074L39.0203 52.7922C38.6318 52.5778 38.5324 52.385 38.5294 52.3477H37.2852C37.2845 52.9054 37.6621 53.4605 38.4175 53.8798L96.321 85.992C97.8223 86.825 100.246 86.8061 101.732 85.9453L129.937 69.6607C130.712 69.2135 131.111 68.5791 131.122 67.9266H129.878Z" fill="white"/>
<path d="M29.4851 69.3667L26.7891 69.0687C26.529 69.0404 26.3237 68.8301 26.3002 68.5697L25.9901 65.1307C25.982 65.0363 25.9031 64.9647 25.8086 64.9647C25.7142 64.9647 25.6353 65.0363 25.6272 65.1307L25.3171 68.5704C25.2929 68.8301 25.0883 69.0404 24.8282 69.0687L22.1328 69.3667C22.0404 69.3774 21.9708 69.4551 21.9708 69.5481C21.9708 69.6412 22.0404 69.7191 22.1328 69.7296L24.8282 70.0276C25.0883 70.0558 25.2939 70.2662 25.3171 70.5266L25.6272 73.9655C25.6353 74.0599 25.7142 74.1315 25.8086 74.1315C25.9031 74.1315 25.982 74.0599 25.9901 73.9655L26.3002 70.5259C26.3237 70.2662 26.529 70.0558 26.7891 70.0276L29.4851 69.7296C29.5775 69.7188 29.6471 69.6412 29.6471 69.5481C29.6471 69.4547 29.5775 69.3771 29.4851 69.3667ZM26.7488 69.6644C26.3173 69.7121 25.976 70.0602 25.937 70.493L25.8083 71.9176L25.6799 70.4936C25.641 70.0602 25.2993 69.7121 24.8682 69.6644L23.8128 69.5478L24.8682 69.4312C25.2996 69.3838 25.6413 69.0354 25.6799 68.6026V68.6019L25.8083 67.178L25.937 68.6019C25.976 69.0354 26.3173 69.3838 26.7488 69.4312L27.8045 69.5478L26.7488 69.6644ZM119.89 32.3862L116.028 31.9591C115.616 31.9138 115.29 31.5815 115.254 31.1692L114.81 26.2411C114.801 26.1494 114.725 26.0788 114.633 26.0788C114.54 26.0788 114.464 26.149 114.455 26.2411L114.011 31.1692C113.974 31.5815 113.648 31.9138 113.236 31.9591L109.374 32.3862C109.284 32.3963 109.216 32.4726 109.216 32.5633C109.216 32.654 109.284 32.7303 109.374 32.74L113.236 33.1667C113.648 33.2124 113.974 33.5447 114.011 33.9567L114.455 38.8851C114.464 38.9768 114.54 39.0471 114.633 39.0471C114.725 39.0471 114.801 38.9768 114.81 38.8851L115.254 33.9567C115.291 33.5447 115.616 33.2124 116.028 33.1667L119.89 32.74C119.98 32.7299 120.049 32.6537 120.049 32.5633C120.049 32.4726 119.98 32.3959 119.89 32.3862ZM115.989 32.8129C115.409 32.8774 114.951 33.3448 114.899 33.9247L114.633 36.8862L114.366 33.9247C114.313 33.3448 113.855 32.8771 113.276 32.8129L111.014 32.5633L113.276 32.3133C113.855 32.2494 114.313 31.7817 114.366 31.2011L114.633 28.24L114.899 31.2011C114.951 31.7817 115.409 32.2491 115.989 32.3133L118.25 32.5633L115.989 32.8129ZM12.3838 42.6312L14.1024 42.8214C14.268 42.8392 14.3994 42.9732 14.4142 43.1395L14.6121 45.3323C14.6172 45.3924 14.6676 45.4381 14.7277 45.4381C14.7878 45.4381 14.8382 45.3924 14.8433 45.3323L15.0412 43.1392C15.0563 42.9736 15.1873 42.8395 15.353 42.8214L17.072 42.6312C17.1308 42.6245 17.1751 42.5747 17.1751 42.5153C17.1751 42.4558 17.1308 42.4064 17.072 42.3997L15.353 42.2095C15.1873 42.1917 15.0563 42.0576 15.0412 41.8913L14.8433 39.6986C14.8382 39.6384 14.7878 39.5927 14.7277 39.5927C14.6676 39.5927 14.6172 39.6384 14.6121 39.6986L14.4142 41.8916C14.3988 42.0573 14.268 42.1914 14.1024 42.2095L12.3838 42.3997C12.325 42.4064 12.2803 42.4561 12.2803 42.5153C12.2803 42.5747 12.3246 42.6241 12.3838 42.6312ZM14.1279 42.441C14.4028 42.4108 14.6208 42.1887 14.6457 41.9128L14.7277 41.0046L14.8097 41.9125C14.8345 42.189 15.0523 42.4111 15.3275 42.4413L16.0005 42.5156L15.3275 42.5898C15.0523 42.6201 14.8345 42.8422 14.8097 43.118L14.7277 44.0262L14.6457 43.1184C14.6208 42.8422 14.4031 42.6201 14.1279 42.5895L13.4549 42.5153L14.1279 42.441ZM43.8317 17.5118L45.5503 17.702C45.716 17.7198 45.8473 17.8542 45.8621 18.0202L46.06 20.2129C46.0651 20.2731 46.1155 20.3188 46.1756 20.3188C46.2358 20.3188 46.2862 20.2731 46.2912 20.2129L46.4891 18.0199C46.5042 17.8542 46.6353 17.7201 46.8009 17.702L48.5199 17.5118C48.5787 17.5051 48.623 17.4554 48.623 17.3959C48.623 17.3364 48.5787 17.287 48.5199 17.2803L46.8009 17.0901C46.6353 17.0723 46.5042 16.9383 46.4891 16.7719L46.2912 14.5792C46.2862 14.5191 46.2358 14.4734 46.1756 14.4734C46.1155 14.4734 46.0651 14.5191 46.06 14.5792L45.8621 16.7723C45.8467 16.9379 45.716 17.072 45.5503 17.0901L43.8317 17.2803C43.7729 17.287 43.7282 17.3368 43.7282 17.3959C43.7282 17.455 43.7725 17.5051 43.8317 17.5118ZM45.5759 17.3216C45.8507 17.2914 46.0688 17.0693 46.0936 16.7935L46.1756 15.8852L46.2576 16.7931C46.2825 17.0693 46.5002 17.2917 46.775 17.322L47.448 17.3962L46.775 17.4705C46.4999 17.5007 46.2821 17.7228 46.2576 17.999L46.1756 18.9072L46.0936 17.9994C46.0688 17.7232 45.851 17.5011 45.5759 17.4705L44.9028 17.3962L45.5759 17.3216ZM19.0211 48.1493L20.7397 48.3395C20.9054 48.3573 21.0368 48.4913 21.0516 48.6577L21.2495 50.8504C21.2545 50.9105 21.3049 50.9562 21.365 50.9562C21.4252 50.9562 21.4756 50.9105 21.481 50.8504L21.6789 48.6573C21.694 48.4917 21.825 48.3576 21.9907 48.3395L23.7096 48.1493C23.7684 48.1426 23.8128 48.0928 23.8128 48.0337C23.8128 47.9746 23.7684 47.9249 23.7096 47.9181L21.9907 47.728C21.825 47.7102 21.694 47.5761 21.6789 47.4098L21.481 45.217C21.4759 45.1569 21.4255 45.1112 21.365 45.1112C21.3049 45.1112 21.2545 45.1569 21.2495 45.217L21.0516 47.4101C21.0361 47.5758 20.9054 47.7098 20.7397 47.728L19.0211 47.9181C18.9623 47.9249 18.9176 47.9746 18.9176 48.0337C18.9176 48.0928 18.962 48.1426 19.0211 48.1493ZM20.7653 47.9595C21.0401 47.9292 21.2582 47.7071 21.2831 47.4313L21.365 46.5231L21.447 47.4309C21.4719 47.7075 21.6896 47.9296 21.9648 47.9598L22.6378 48.0341L21.9648 48.1083C21.6896 48.1385 21.4719 48.3606 21.447 48.6365L21.365 49.5447L21.2831 48.6368C21.2582 48.3606 21.0405 48.1385 20.7653 48.108L20.0923 48.0337L20.7653 47.9595ZM135.49 48.487L137.322 48.6896C137.498 48.7087 137.638 48.8515 137.654 49.0286L137.865 51.3652C137.87 51.4293 137.924 51.4781 137.988 51.4781C138.052 51.4781 138.106 51.4293 138.111 51.3652L138.322 49.0283C138.338 48.8515 138.477 48.7087 138.654 48.6896L140.486 48.487C140.549 48.4799 140.596 48.4268 140.596 48.3637C140.596 48.3005 140.549 48.2477 140.486 48.2404L138.654 48.0378C138.477 48.0186 138.338 47.8758 138.322 47.6987L138.111 45.3622C138.106 45.298 138.052 45.2493 137.988 45.2493C137.924 45.2493 137.87 45.298 137.865 45.3622L137.654 47.6991C137.637 47.8758 137.498 48.0186 137.322 48.0378L135.49 48.2404C135.428 48.2474 135.38 48.3005 135.38 48.3637C135.38 48.4268 135.428 48.4796 135.49 48.487ZM137.349 48.2844C137.642 48.2521 137.874 48.0156 137.901 47.7216V47.7209L137.988 46.7536L138.076 47.7209C138.102 48.0156 138.334 48.2521 138.627 48.2844L139.345 48.3637L138.627 48.443C138.334 48.4752 138.102 48.7121 138.076 49.0061L137.988 49.9741L137.901 49.0064C137.874 48.7121 137.642 48.4752 137.349 48.443L136.632 48.3637L137.349 48.2844ZM95.0401 21.5069L96.6327 21.6833C96.7859 21.7001 96.9076 21.824 96.921 21.9776L97.1041 24.0097C97.1092 24.0655 97.1555 24.1078 97.2116 24.1078C97.2674 24.1078 97.3141 24.0652 97.3192 24.0097L97.5023 21.9776C97.5161 21.824 97.6377 21.7001 97.7909 21.6833L99.3832 21.5069C99.438 21.5008 99.4793 21.4544 99.4793 21.3997C99.4793 21.3449 99.438 21.2985 99.3832 21.2925L97.7909 21.1164C97.6374 21.0996 97.5157 20.9756 97.5023 20.8221L97.3192 18.7903C97.3141 18.7349 97.2674 18.6922 97.2116 18.6922C97.1559 18.6922 97.1095 18.7349 97.1041 18.7903L96.921 20.8221C96.9072 20.9756 96.7859 21.0996 96.6327 21.1164L95.0401 21.2925C94.9853 21.2985 94.944 21.3446 94.944 21.3997C94.944 21.4544 94.9853 21.5008 95.0401 21.5069ZM96.6559 21.3308C96.9106 21.3026 97.1125 21.0969 97.1354 20.8412L97.2113 19.9996L97.2872 20.8412C97.3104 21.0966 97.512 21.3026 97.7671 21.3308L98.391 21.3997L97.7671 21.4689C97.512 21.4971 97.3104 21.7027 97.2872 21.9584L97.2113 22.7998L97.1354 21.9584C97.1122 21.7031 96.9106 21.4971 96.6559 21.4689L96.032 21.3997L96.6559 21.3308ZM126.142 20.5409L128.011 20.7478C128.191 20.7677 128.334 20.9131 128.35 21.0936L128.565 23.4788C128.571 23.5444 128.625 23.5941 128.691 23.5941C128.756 23.5941 128.811 23.544 128.817 23.4788L129.032 21.0936C129.048 20.9131 129.191 20.7677 129.371 20.7478L131.24 20.5409C131.304 20.5338 131.353 20.4794 131.353 20.4152C131.353 20.351 131.304 20.2966 131.24 20.2895L129.371 20.0829C129.191 20.0631 129.048 19.9176 129.032 19.7371L128.817 17.3519C128.811 17.2867 128.756 17.2366 128.691 17.2366C128.625 17.2366 128.571 17.2867 128.565 17.3519L128.35 19.7371C128.334 19.9176 128.191 20.0631 128.011 20.0829L126.142 20.2895C126.077 20.2966 126.029 20.351 126.029 20.4152C126.029 20.4794 126.077 20.5338 126.142 20.5409ZM128.039 20.3339C128.338 20.301 128.575 20.059 128.602 19.7593L128.691 18.7715L128.78 19.7593C128.807 20.059 129.044 20.301 129.344 20.3339L130.076 20.4149L129.344 20.4962C129.044 20.5291 128.807 20.771 128.78 21.0707L128.691 22.0586L128.602 21.0707C128.575 20.7707 128.338 20.5291 128.039 20.4962L127.306 20.4149L128.039 20.3339ZM156.988 79.0636L155.534 78.9027C155.394 78.8876 155.283 78.7743 155.27 78.6336L155.103 76.7795C155.099 76.7284 155.056 76.6898 155.005 76.6898C154.954 76.6898 154.912 76.7284 154.908 76.7795L154.741 78.6339C154.728 78.774 154.617 78.8876 154.477 78.9024L153.024 79.0633C152.974 79.069 152.936 79.111 152.936 79.1611C152.936 79.2111 152.974 79.2532 153.024 79.2589L154.477 79.4195C154.617 79.4346 154.728 79.5482 154.741 79.6886L154.908 81.5427C154.912 81.5937 154.955 81.6324 155.005 81.6324C155.056 81.6324 155.099 81.5937 155.103 81.5427L155.27 79.6883C155.283 79.5482 155.394 79.4346 155.534 79.4195L156.988 79.2589C157.037 79.2532 157.075 79.2111 157.075 79.1611C157.075 79.111 157.037 79.0694 156.988 79.0636ZM155.512 79.2243C155.28 79.2498 155.095 79.4376 155.075 79.6708L155.005 80.4379L154.936 79.6711C154.916 79.4376 154.731 79.2498 154.498 79.2243L153.929 79.1614L154.498 79.0986C154.731 79.073 154.916 78.8852 154.936 78.6517C154.936 78.6514 154.936 78.6514 154.936 78.6514L155.005 77.8846L155.075 78.6514C155.095 78.8849 155.279 79.0727 155.512 79.0986L156.082 79.1614L155.512 79.2243ZM17.072 78.2277L15.353 78.0375C15.1873 78.0197 15.0563 77.8856 15.0412 77.7193L14.8436 75.5266C14.8386 75.4664 14.7882 75.4207 14.728 75.4207C14.6676 75.4207 14.6175 75.4664 14.6121 75.5266L14.4142 77.7196C14.3988 77.8853 14.268 78.0194 14.1024 78.0375L12.3838 78.2277C12.325 78.2344 12.2806 78.2841 12.2806 78.3433C12.2806 78.4027 12.325 78.4521 12.3838 78.4588L14.1024 78.649C14.268 78.6668 14.3994 78.8009 14.4142 78.9672L14.6121 81.1599C14.6172 81.2201 14.6676 81.2658 14.728 81.2658C14.7882 81.2658 14.8386 81.2201 14.8436 81.1599L15.0412 78.9669C15.0563 78.8012 15.1873 78.6672 15.353 78.649L17.072 78.4588C17.1308 78.4521 17.1751 78.4024 17.1751 78.3433C17.1755 78.2838 17.1308 78.2344 17.072 78.2277ZM15.3275 78.4178C15.0523 78.4481 14.8345 78.6702 14.8097 78.946L14.7277 79.8543L14.6457 78.9464C14.6208 78.6702 14.4031 78.4481 14.1279 78.4175L13.4549 78.3433L14.1279 78.269C14.4031 78.2388 14.6208 78.0167 14.6457 77.7408V77.7405L14.7277 76.8326L14.8097 77.7405C14.8345 78.0167 15.0523 78.2388 15.3275 78.2693L16.0005 78.3436L15.3275 78.4178ZM148.901 68.1554L146.21 67.8584C145.95 67.8295 145.744 67.6202 145.722 67.3604L145.412 63.9262C145.403 63.8321 145.324 63.7605 145.23 63.7605C145.136 63.7605 145.058 63.8321 145.049 63.9262L144.739 67.3604C144.716 67.6202 144.511 67.8295 144.251 67.8584L141.56 68.1554C141.468 68.1655 141.398 68.2438 141.398 68.3365C141.398 68.4292 141.468 68.5075 141.56 68.5176L144.251 68.8153C144.511 68.8442 144.716 69.0535 144.739 69.3133L145.049 72.7472C145.058 72.8413 145.136 72.9128 145.23 72.9128C145.324 72.9128 145.403 72.8413 145.412 72.7472L145.722 69.3133C145.745 69.0535 145.95 68.8442 146.21 68.8153L148.901 68.5176C148.993 68.5075 149.062 68.4292 149.062 68.3365C149.062 68.2438 148.993 68.1658 148.901 68.1554ZM146.17 68.4531C145.738 68.5008 145.397 68.8489 145.358 69.2803L145.23 70.703L145.102 69.2803C145.063 68.8489 144.722 68.5012 144.292 68.4531L143.238 68.3365L144.292 68.2203C144.722 68.1729 145.063 67.8248 145.102 67.393L145.23 65.9704L145.358 67.393C145.397 67.8248 145.738 68.1729 146.17 68.2203L147.223 68.3365L146.17 68.4531ZM22.9849 15.3577L21.2659 15.1675C21.1003 15.1494 20.9692 15.0153 20.9541 14.8494L20.7565 12.6566C20.7515 12.5965 20.7008 12.5508 20.6406 12.5508C20.5805 12.5508 20.5301 12.5965 20.525 12.6566L20.3271 14.8497C20.3117 15.0153 20.181 15.1494 20.0153 15.1675L18.2967 15.3577C18.2379 15.3644 18.1932 15.4142 18.1932 15.4733C18.1932 15.5328 18.2376 15.5822 18.2967 15.5889L20.0153 15.7791C20.181 15.7969 20.312 15.9309 20.3271 16.0973L20.525 18.29C20.5301 18.3501 20.5805 18.3958 20.6406 18.3958C20.7008 18.3958 20.7512 18.3501 20.7565 18.29L20.9541 16.0969C20.9692 15.9313 21.1003 15.7972 21.2659 15.7791L22.9849 15.5889C23.0437 15.5822 23.088 15.5324 23.088 15.4733C23.088 15.4142 23.0437 15.3648 22.9849 15.3577ZM21.24 15.5479C20.9649 15.5781 20.7471 15.8002 20.7223 16.0761L20.6403 16.9846L20.5583 16.0768C20.5338 15.8006 20.3157 15.5785 20.0405 15.5479L19.3675 15.4736L20.0405 15.3994C20.3157 15.3691 20.5334 15.1471 20.5583 14.8712L20.6403 13.963L20.7223 14.8709C20.7471 15.1474 20.9649 15.3691 21.24 15.3997L21.9131 15.474L21.24 15.5479ZM156.596 38.7967L152.848 38.3825C152.449 38.3384 152.132 38.0159 152.096 37.616L151.665 32.8338C151.657 32.7444 151.582 32.6768 151.493 32.6768C151.404 32.6768 151.329 32.7447 151.321 32.8338L150.89 37.616C150.854 38.0159 150.538 38.3384 150.139 38.3825L146.391 38.7967C146.304 38.8062 146.237 38.8804 146.237 38.9684C146.237 39.0561 146.304 39.1304 146.391 39.1401L150.139 39.5548C150.538 39.5988 150.854 39.921 150.89 40.3212L151.321 45.1035C151.329 45.1928 151.404 45.2607 151.493 45.2607C151.582 45.2607 151.657 45.1928 151.665 45.1035L152.096 40.3212C152.132 39.921 152.449 39.5988 152.848 39.5548L156.596 39.1401C156.683 39.1304 156.749 39.0561 156.749 38.9684C156.749 38.8807 156.683 38.8062 156.596 38.7967ZM152.81 39.2117C152.248 39.2735 151.803 39.7275 151.752 40.2903L151.493 43.1644L151.234 40.2903C151.183 39.7271 150.739 39.2735 150.177 39.2117L147.981 38.9688L150.177 38.7262C150.738 38.6644 151.183 38.2104 151.234 37.6473L151.493 34.7731L151.752 37.6473C151.804 38.2104 152.248 38.664 152.81 38.7262L155.006 38.9688L152.81 39.2117ZM33.6959 23.8155L30.7189 23.4862C30.432 23.4553 30.2049 23.2228 30.179 22.9352L29.8366 19.1381C29.8275 19.0339 29.7405 18.9546 29.636 18.9546C29.5319 18.9546 29.4445 19.0339 29.4358 19.1381L29.0934 22.9359C29.0668 23.2228 28.8404 23.455 28.5534 23.4859L25.5771 23.8152C25.4753 23.8269 25.3984 23.9126 25.3984 24.0154C25.3984 24.1183 25.4753 24.2039 25.5771 24.216L28.5534 24.5453C28.8404 24.5762 29.0675 24.8087 29.0934 25.0963L29.4358 28.8935C29.4445 28.9976 29.5319 29.0769 29.636 29.0769C29.7402 29.0769 29.8275 28.998 29.8366 28.8935L30.179 25.0957C30.2049 24.8087 30.432 24.5766 30.7189 24.5456L33.6959 24.2164C33.798 24.2046 33.875 24.1186 33.875 24.0158C33.875 23.913 33.798 23.8273 33.6959 23.8155ZM30.6746 24.1445C30.1985 24.1969 29.8211 24.5816 29.7781 25.0594L29.636 26.6325L29.4939 25.0601C29.4512 24.5816 29.0739 24.1969 28.5978 24.1445L27.4322 24.0158L28.5978 23.8871C29.0739 23.8347 29.4512 23.4503 29.4939 22.9722V22.9715L29.636 21.3993L29.7781 22.9715C29.8211 23.4499 30.1981 23.8347 30.6746 23.8871L31.8402 24.0158L30.6746 24.1445Z" fill="#F0F0F0"/>
</svg>
