<svg width="243" height="222" viewBox="0 0 243 222" fill="none" xmlns="http://www.w3.org/2000/svg">
<path d="M46.0285 120.652C7.45064 142.926 7.45152 179.037 46.0307 201.31C84.6098 223.584 147.158 223.584 185.736 201.31C224.314 179.037 224.313 142.925 185.734 120.652C147.154 98.3795 84.6063 98.3795 46.0285 120.652Z" fill="#F5F5F5"/>
<path d="M85.2439 129.784L32.1513 160.524C30.3553 161.564 30.3557 163.249 32.1531 164.288L93.0144 199.459C94.8112 200.497 97.7239 200.496 99.5198 199.456L152.611 168.706C154.407 167.665 154.406 165.981 152.609 164.942L91.7494 129.781C89.9525 128.743 87.0399 128.744 85.2439 129.784Z" fill="#E0E0E0"/>
<path d="M199.681 183.203L162.763 161.834L129.432 181.116L166.35 202.481L199.681 183.203Z" fill="#E0E0E0"/>
<path d="M113.892 106.723L103.977 100.974C102.394 100.048 100.384 100.326 99.1107 101.646L86.6925 114.526C84.2527 117.056 84.8326 121.204 87.8722 122.968L143.402 155.205C145.173 156.093 146.204 157.439 146.295 158.991C146.381 160.528 145.483 162.037 143.836 163.121L113.799 180.435C112.314 181.409 110.324 181.963 108.309 182.072C106.304 182.192 104.289 181.862 102.709 181.075L48.8047 150.029C45.9595 148.391 45.2384 144.61 47.2769 142.047L59.4549 126.717C60.683 125.171 62.8604 124.762 64.5662 125.756L74.1104 131.261" stroke="#263238" stroke-width="1.776" stroke-miterlimit="10" stroke-linecap="round"/>
<path d="M96.0775 178.356C92.8478 182.549 87.5873 183.739 86.4041 183.185C85.4526 182.745 84.8874 181.609 85.6129 180.931C85.9459 180.622 86.5231 180.301 87.0643 179.849C88.6463 178.535 89.1697 176.245 89.3185 174.46L96.0775 178.356Z" fill="#1FD18E"/>
<path opacity="0.2" d="M96.0775 178.356C92.8478 182.549 87.5873 183.739 86.4041 183.185C85.4526 182.745 84.8874 181.609 85.6129 180.931C85.9459 180.622 86.5231 180.301 87.0643 179.849C88.6463 178.535 89.1697 176.245 89.3185 174.46L96.0775 178.356Z" fill="black"/>
<path d="M92.6667 184.78C92.6885 181.404 90.3437 177.282 87.4297 175.575C85.9006 174.679 84.5242 174.635 83.5532 175.276L79.9688 177.292L87.4812 190.245L91.0341 188.231L91.0292 188.222C92.026 187.691 92.6556 186.504 92.6667 184.78Z" fill="#37474F"/>
<path d="M83.7098 177.687C86.6238 179.395 88.9681 183.516 88.9463 186.893C88.925 190.269 86.5456 191.623 83.6317 189.916C80.7177 188.209 78.3734 184.088 78.3947 180.711C78.4164 177.334 80.7963 175.981 83.7098 177.687Z" fill="#455A64"/>
<path d="M83.6903 180.719C85.1599 181.58 86.3423 183.658 86.3312 185.361C86.3205 187.064 85.1204 187.747 83.6508 186.886C82.1811 186.025 80.9987 183.946 81.0098 182.243C81.0209 180.54 82.2211 179.858 83.6903 180.719Z" fill="#263238"/>
<path d="M86.8216 173.026C86.8216 173.026 87.1688 179.26 84.313 181.641C83.7749 182.09 83.1941 182.412 82.8593 182.724C82.1347 183.4 82.7039 184.535 83.6559 184.978C85.0398 185.622 92.1336 183.798 94.898 177.675L86.8216 173.026Z" fill="#1FD18E"/>
<path d="M83.795 183.13C84.0952 183.281 84.3531 183.675 84.3722 184.011C84.3908 184.346 84.1635 184.495 83.8634 184.344C83.5637 184.193 83.3053 183.798 83.2862 183.463C83.268 183.128 83.4953 182.979 83.795 183.13Z" fill="#FAFAFA"/>
<path d="M62.6979 159.132C59.4682 163.325 54.2006 164.527 53.0173 163.974C52.0659 163.534 51.5006 162.398 52.2261 161.72C52.5591 161.41 53.1363 161.089 53.6776 160.637C55.2595 159.323 55.7844 157.021 55.9331 155.237L62.6979 159.132Z" fill="#1FD18E"/>
<path opacity="0.2" d="M62.6979 159.132C59.4682 163.325 54.2006 164.527 53.0173 163.974C52.0659 163.534 51.5006 162.398 52.2261 161.72C52.5591 161.41 53.1363 161.089 53.6776 160.637C55.2595 159.323 55.7844 157.021 55.9331 155.237L62.6979 159.132Z" fill="black"/>
<path d="M59.2819 165.568C59.3037 162.191 56.9589 158.07 54.045 156.363C52.5158 155.467 51.1394 155.424 50.1684 156.064L46.584 158.08L54.0965 171.034L57.6494 169.02L57.6445 169.011C58.6412 168.479 59.2708 167.292 59.2819 165.568Z" fill="#37474F"/>
<path d="M50.3246 158.476C53.2381 160.183 55.5829 164.304 55.5611 167.681C55.5398 171.058 53.1604 172.412 50.2465 170.705C47.3329 168.998 44.9882 164.876 45.0099 161.499C45.0312 158.122 47.4111 156.769 50.3246 158.476Z" fill="#455A64"/>
<path d="M50.3055 161.506C51.7751 162.367 52.9575 164.445 52.9464 166.149C52.9358 167.852 51.7356 168.534 50.266 167.673C48.7964 166.812 47.614 164.734 47.6251 163.031C47.6362 161.328 48.8359 160.645 50.3055 161.506Z" fill="#263238"/>
<path d="M53.4164 153.788C53.4164 153.788 53.784 160.048 50.9282 162.429C50.3901 162.878 49.8098 163.2 49.4746 163.513C48.75 164.189 49.3192 165.324 50.2711 165.767C51.6551 166.411 58.7488 164.572 61.5132 158.45L53.4164 153.788Z" fill="#1FD18E"/>
<path d="M50.4118 163.918C50.712 164.069 50.9699 164.464 50.989 164.799C51.0081 165.134 50.7804 165.283 50.4807 165.132C50.181 164.981 49.9226 164.586 49.9035 164.251C49.8844 163.916 50.1121 163.767 50.4118 163.918Z" fill="#FAFAFA"/>
<path d="M139.148 153.842C135.912 158.023 130.65 159.229 129.467 158.676C128.515 158.236 127.95 157.1 128.675 156.422C129.008 156.113 129.586 155.792 130.126 155.34C131.708 154.025 132.237 151.697 132.386 149.913L139.148 153.842Z" fill="#1FD18E"/>
<path opacity="0.2" d="M139.148 153.842C135.912 158.023 130.65 159.229 129.467 158.676C128.515 158.236 127.95 157.1 128.675 156.422C129.008 156.113 129.586 155.792 130.126 155.34C131.708 154.025 132.237 151.697 132.386 149.913L139.148 153.842Z" fill="black"/>
<path d="M135.727 160.273C135.749 156.896 133.404 152.774 130.49 151.067C128.961 150.171 127.585 150.127 126.614 150.768L123.029 152.784L130.542 165.738L134.094 163.724L134.089 163.715C135.087 163.183 135.717 161.996 135.727 160.273Z" fill="#37474F"/>
<path d="M126.77 153.18C129.684 154.887 132.028 159.009 132.006 162.386C131.985 165.763 129.606 167.116 126.692 165.409C123.778 163.702 121.433 159.581 121.455 156.203C121.477 152.827 123.856 151.473 126.77 153.18Z" fill="#455A64"/>
<path d="M126.751 156.211C128.22 157.072 129.403 159.15 129.392 160.853C129.381 162.556 128.181 163.239 126.711 162.378C125.242 161.517 124.059 159.439 124.07 157.735C124.081 156.032 125.281 155.35 126.751 156.211Z" fill="#263238"/>
<path d="M129.889 148.463C129.889 148.463 130.229 154.753 127.374 157.134C126.835 157.583 126.255 157.905 125.92 158.218C125.195 158.893 125.765 160.029 126.716 160.471C128.1 161.115 135.205 159.278 137.97 153.156L129.889 148.463Z" fill="#1FD18E"/>
<path d="M126.857 158.622C127.157 158.774 127.415 159.168 127.434 159.503C127.453 159.839 127.226 159.988 126.926 159.836C126.626 159.685 126.367 159.291 126.349 158.955C126.33 158.621 126.557 158.471 126.857 158.622Z" fill="#FAFAFA"/>
<path d="M106.029 134.614C102.8 138.807 97.5346 139.994 96.3513 139.44C95.3998 139 94.8346 137.864 95.5601 137.186C95.8931 136.877 96.4703 136.556 97.0116 136.104C98.5935 134.789 99.117 132.499 99.2657 130.715L106.029 134.614Z" fill="#1FD18E"/>
<path opacity="0.2" d="M106.029 134.614C102.8 138.807 97.5346 139.994 96.3513 139.44C95.3998 139 94.8346 137.864 95.5601 137.186C95.8931 136.877 96.4703 136.556 97.0116 136.104C98.5935 134.789 99.117 132.499 99.2657 130.715L106.029 134.614Z" fill="black"/>
<path d="M102.616 141.035C102.638 137.659 100.293 133.537 97.3789 131.83C95.8494 130.934 94.4734 130.89 93.5024 131.531L89.918 133.547L97.4304 146.501L100.983 144.487L100.978 144.478C101.975 143.946 102.605 142.758 102.616 141.035Z" fill="#37474F"/>
<path d="M93.659 133.942C96.5725 135.65 98.9173 139.771 98.8956 143.148C98.8742 146.525 96.4948 147.878 93.5809 146.172C90.6673 144.464 88.3226 140.343 88.3439 136.966C88.3661 133.589 90.7455 132.235 93.659 133.942Z" fill="#455A64"/>
<path d="M93.6395 136.973C95.1091 137.834 96.2915 139.913 96.2804 141.615C96.2697 143.319 95.0696 144.001 93.6 143.14C92.1303 142.279 90.948 140.201 90.9591 138.498C90.9697 136.795 92.1699 136.112 93.6395 136.973Z" fill="#263238"/>
<path d="M96.7515 129.226C96.7515 129.226 97.12 135.511 94.2642 137.892C93.726 138.34 93.1457 138.663 92.8105 138.975C92.0859 139.651 92.6551 140.787 93.6071 141.23C94.991 141.873 102.085 140.049 104.849 133.927L96.7515 129.226Z" fill="#1FD18E"/>
<path d="M93.7458 139.385C94.0455 139.536 94.3039 139.931 94.323 140.266C94.3421 140.601 94.1143 140.75 93.8146 140.599C93.5149 140.447 93.2561 140.053 93.2374 139.718C93.2184 139.383 93.4457 139.233 93.7458 139.385Z" fill="#FAFAFA"/>
<path d="M89.5369 90.2607L87.8257 91.2486L84.3936 29.3471C83.5607 25.9838 80.323 21.6698 77.3136 19.9409L75.6868 18.9979C74.8618 18.5188 73.4082 18.5188 72.5828 18.9979L67.6277 21.8408C67.1562 22.1156 66.559 21.9509 66.2842 21.4794C66.0169 21.0158 66.1741 20.4107 66.6456 20.1438L71.6007 17.2929C73.0232 16.4759 75.2468 16.4759 76.6614 17.2929L78.2957 18.236C81.7532 20.2322 85.3442 25.0016 86.3028 28.8755L89.5369 90.2607Z" fill="#455A64"/>
<path d="M30.7621 46.0769L27.5684 40.5451L67.3583 17.561L67.3579 17.5601C67.7721 17.2316 68.3982 17.2395 69.0908 17.64C70.3384 18.3606 71.3494 20.1113 71.3494 21.5517C71.3499 22.3522 71.044 22.8983 70.5524 23.0924H70.552L30.7621 46.0769Z" fill="#1FD18E"/>
<path opacity="0.25" d="M30.7621 46.0769L27.5684 40.5451L67.3583 17.561L67.3579 17.5601C67.7721 17.2316 68.3982 17.2395 69.0908 17.64C70.3384 18.3606 71.3494 20.1113 71.3494 21.5517C71.3499 22.3522 71.044 22.8983 70.5524 23.0924H70.552L30.7621 46.0769Z" fill="black"/>
<path d="M27.567 40.545C28.4071 40.0601 29.8026 40.9055 30.6844 42.4328C31.5661 43.9602 31.6003 45.5919 30.7607 46.0767C29.9207 46.5616 28.5252 45.7162 27.643 44.1889C26.7616 42.6615 26.7274 41.0298 27.567 40.545Z" fill="#1FD18E"/>
<path d="M46.8391 114.912L45.2442 115.833L33.4547 59.1108C32.6217 55.7475 29.3765 51.4416 26.3747 49.7127L24.7398 48.7616C23.8914 48.2745 23.4043 47.5357 23.4043 46.7343C23.4043 45.9329 23.8914 45.1941 24.7398 44.707L28.2799 42.6877C28.5392 42.5385 28.9712 42.7974 29.2385 43.2693C29.5133 43.7409 29.5213 44.2435 29.262 44.3931H29.2544L25.7224 46.4124C25.4396 46.5696 25.3765 46.7108 25.369 46.7343C25.377 46.7658 25.44 46.899 25.7224 47.0646L27.3568 48.0077C30.8142 50.0035 34.3977 54.7734 35.3559 58.6393L46.8391 114.912Z" fill="#455A64"/>
<path d="M45.2441 115.833L89.5371 90.2607L154.272 127.636L109.98 153.208L45.2441 115.833Z" fill="#E0E0E0"/>
<g opacity="0.2">
<path d="M45.2441 115.833L89.5371 90.2607L154.272 127.636L109.98 153.208L45.2441 115.833Z" fill="black"/>
</g>
<path d="M89.5384 90.4827C89.4212 90.4827 89.3235 90.3912 89.3168 90.2731L85.8949 28.867C85.8878 28.7445 85.9815 28.6397 86.1045 28.6331C86.2248 28.6228 86.3318 28.7201 86.338 28.8422L89.7599 90.2483C89.767 90.3708 89.6734 90.4756 89.5504 90.4823C89.5468 90.4827 89.5424 90.4827 89.5384 90.4827Z" fill="#E0E0E0"/>
<path d="M97.6309 95.1547C97.5096 95.1547 97.4106 95.057 97.4089 94.9353L96.666 36.084C96.6643 35.9615 96.7628 35.8607 96.8854 35.8594C96.8863 35.8594 96.8872 35.8594 96.888 35.8594C97.0093 35.8594 97.1083 35.9571 97.11 36.0787L97.8529 94.93C97.8546 95.0526 97.7561 95.1534 97.6335 95.1547C97.6326 95.1547 97.6317 95.1547 97.6309 95.1547Z" fill="#E0E0E0"/>
<path d="M105.722 99.8263C105.72 99.8263 105.718 99.8263 105.716 99.8263C105.594 99.8232 105.497 99.7211 105.5 99.5986L106.969 43.1528C106.973 43.0307 107.076 42.9331 107.197 42.9366C107.32 42.9397 107.416 43.0418 107.413 43.1644L105.944 99.6101C105.941 99.7309 105.842 99.8263 105.722 99.8263Z" fill="#E0E0E0"/>
<path d="M113.814 104.499C113.81 104.499 113.807 104.499 113.803 104.499C113.681 104.493 113.586 104.389 113.592 104.266L116.272 49.5626C116.278 49.4405 116.386 49.342 116.504 49.3517C116.626 49.358 116.72 49.4619 116.715 49.5844L114.035 104.288C114.029 104.407 113.932 104.499 113.814 104.499Z" fill="#E0E0E0"/>
<path d="M121.906 109.171C121.9 109.171 121.895 109.171 121.889 109.17C121.767 109.161 121.675 109.054 121.684 108.932L125.638 56.0025C125.647 55.8799 125.75 55.7894 125.876 55.7974C125.998 55.8067 126.09 55.9128 126.081 56.0354L122.127 108.965C122.118 109.082 122.021 109.171 121.906 109.171Z" fill="#E0E0E0"/>
<path d="M129.998 113.843C129.99 113.843 129.982 113.842 129.974 113.841C129.852 113.828 129.763 113.719 129.777 113.597L135.182 62.5002C135.195 62.3781 135.306 62.2871 135.427 62.3031C135.548 62.316 135.637 62.4252 135.624 62.5473L130.218 113.644C130.206 113.758 130.11 113.843 129.998 113.843Z" fill="#E0E0E0"/>
<path d="M138.089 118.514C138.078 118.514 138.067 118.514 138.056 118.512C137.935 118.494 137.851 118.381 137.87 118.26L145.21 69.3534C145.228 69.2318 145.34 69.1492 145.462 69.167C145.583 69.1852 145.667 69.2984 145.649 69.4196L138.308 118.326C138.292 118.435 138.197 118.514 138.089 118.514Z" fill="#E0E0E0"/>
<path d="M146.18 123.186C146.166 123.186 146.153 123.185 146.138 123.182C146.018 123.16 145.939 123.044 145.961 122.924L154.728 75.8894C154.75 75.7686 154.868 75.6913 154.986 75.7118C155.107 75.7344 155.186 75.8503 155.164 75.9706L146.397 123.005C146.378 123.112 146.284 123.186 146.18 123.186Z" fill="#E0E0E0"/>
<path d="M154.273 127.858C154.257 127.858 154.24 127.856 154.224 127.852C154.104 127.825 154.029 127.707 154.056 127.587L164.277 82.3436C164.304 82.2246 164.421 82.1482 164.543 82.1762C164.663 82.2033 164.738 82.3223 164.71 82.4417L154.489 127.685C154.466 127.788 154.374 127.858 154.273 127.858Z" fill="#E0E0E0"/>
<path d="M45.2445 116.055C45.1415 116.055 45.0491 115.983 45.0274 115.878L33.4674 59.1047C33.443 58.9848 33.5207 58.8671 33.641 58.8431C33.7591 58.8178 33.8781 58.896 33.9029 59.0163L45.4629 115.789C45.4873 115.91 45.4096 116.026 45.2893 116.051C45.2747 116.054 45.2596 116.055 45.2445 116.055Z" fill="#E0E0E0"/>
<path d="M56.3175 109.663C56.2097 109.663 56.1151 109.584 56.0987 109.474L47.3248 51.0916C47.3066 50.9703 47.3896 50.8571 47.5112 50.8389C47.6298 50.8229 47.7457 50.9042 47.7634 51.0254L56.5373 109.407C56.5555 109.529 56.4725 109.641 56.3508 109.66C56.3397 109.662 56.3286 109.663 56.3175 109.663Z" fill="#E0E0E0"/>
<path d="M67.3911 103.269C67.2796 103.269 67.1837 103.185 67.1709 103.072L60.4642 43.4927C60.4509 43.371 60.5384 43.2609 60.66 43.2471C60.7715 43.2356 60.8914 43.3208 60.9056 43.4429L67.6122 103.022C67.6255 103.144 67.538 103.254 67.4164 103.268C67.4079 103.269 67.3995 103.269 67.3911 103.269Z" fill="#E0E0E0"/>
<path d="M78.4644 96.8757C78.3503 96.8757 78.2531 96.7882 78.2438 96.6723L73.1258 36.2644C73.1156 36.1423 73.2061 36.0348 73.3282 36.0246C73.4401 36.0091 73.5578 36.1045 73.568 36.2271L78.6856 96.635C78.6958 96.7571 78.6052 96.8646 78.4831 96.8748C78.4773 96.8757 78.4707 96.8757 78.4644 96.8757Z" fill="#E0E0E0"/>
<path d="M89.5384 90.4827C89.4212 90.4827 89.3235 90.3912 89.3168 90.2731L85.8949 28.867C85.8878 28.7445 85.9815 28.6397 86.1045 28.6331C86.2248 28.6228 86.3318 28.7201 86.338 28.8422L89.7599 90.2483C89.767 90.3708 89.6734 90.4756 89.5504 90.4823C89.5468 90.4827 89.5424 90.4827 89.5384 90.4827Z" fill="#E0E0E0"/>
<path d="M154.275 127.858C154.237 127.858 154.199 127.849 154.164 127.829L89.5392 90.5176L45.3567 116.026C45.2502 116.087 45.1139 116.051 45.0535 115.945C44.9918 115.838 45.0282 115.703 45.1347 115.641L89.4282 90.0687C89.4966 90.0292 89.5818 90.0292 89.6502 90.0687L154.386 127.444C154.492 127.505 154.528 127.641 154.467 127.747C154.426 127.818 154.351 127.858 154.275 127.858Z" fill="#E0E0E0"/>
<path d="M156.829 116.548C156.788 116.548 156.747 116.537 156.711 116.514L88.5401 73.8844L42.4253 101.261C42.3188 101.324 42.1829 101.288 42.1212 101.183C42.0582 101.077 42.0932 100.941 42.1989 100.878L88.43 73.4333C88.501 73.3911 88.5902 73.392 88.6608 73.436L156.946 116.137C157.05 116.202 157.082 116.339 157.017 116.443C156.975 116.511 156.902 116.548 156.829 116.548Z" fill="#E0E0E0"/>
<path d="M159.384 105.237C159.343 105.237 159.302 105.226 159.265 105.202L87.8202 60.1627L39.5734 87.2347C39.4655 87.2946 39.3305 87.2569 39.2706 87.1499C39.2106 87.0429 39.2488 86.9079 39.3554 86.8475L87.7176 59.7111C87.7887 59.6711 87.8761 59.6734 87.945 59.7169L159.502 104.827C159.605 104.893 159.637 105.03 159.571 105.133C159.529 105.2 159.457 105.237 159.384 105.237Z" fill="#E0E0E0"/>
<path d="M161.94 93.9258C161.898 93.9258 161.856 93.9142 161.819 93.8894L87.0332 44.874L36.6681 72.8846C36.5615 72.9437 36.4256 72.9059 36.3661 72.7985C36.3062 72.691 36.3448 72.5561 36.4518 72.4966L86.9342 44.4211C87.0066 44.3812 87.0949 44.3838 87.1642 44.4296L162.062 93.5186C162.164 93.5857 162.193 93.7233 162.126 93.8259C162.083 93.8903 162.012 93.9258 161.94 93.9258Z" fill="#E0E0E0"/>
<path d="M164.495 82.6152C164.451 82.6152 164.408 82.6027 164.37 82.5766L86.1071 29.1167L33.7963 59.2532C33.6893 59.3145 33.5543 59.2777 33.4926 59.1715C33.4314 59.0654 33.4678 58.9296 33.5743 58.8683L86.0058 28.6625C86.0804 28.6195 86.1719 28.6239 86.2421 28.6714L164.62 82.2094C164.721 82.2786 164.747 82.4167 164.678 82.518C164.636 82.581 164.566 82.6152 164.495 82.6152Z" fill="#E0E0E0"/>
<g opacity="0.2">
<path d="M89.5384 90.4827C89.4212 90.4827 89.3235 90.3912 89.3168 90.2731L85.8949 28.867C85.8878 28.7445 85.9815 28.6397 86.1045 28.6331C86.2248 28.6228 86.3318 28.7201 86.338 28.8422L89.7599 90.2483C89.767 90.3708 89.6734 90.4756 89.5504 90.4823C89.5468 90.4827 89.5424 90.4827 89.5384 90.4827Z" fill="black"/>
<path d="M97.6309 95.1547C97.5096 95.1547 97.4106 95.057 97.4089 94.9353L96.666 36.084C96.6643 35.9615 96.7628 35.8607 96.8854 35.8594C96.8863 35.8594 96.8872 35.8594 96.888 35.8594C97.0093 35.8594 97.1083 35.9571 97.11 36.0787L97.8529 94.93C97.8546 95.0526 97.7561 95.1534 97.6335 95.1547C97.6326 95.1547 97.6317 95.1547 97.6309 95.1547Z" fill="black"/>
<path d="M105.722 99.8263C105.72 99.8263 105.718 99.8263 105.716 99.8263C105.594 99.8232 105.497 99.7211 105.5 99.5986L106.969 43.1528C106.973 43.0307 107.076 42.9331 107.197 42.9366C107.32 42.9397 107.416 43.0418 107.413 43.1644L105.944 99.6101C105.941 99.7309 105.842 99.8263 105.722 99.8263Z" fill="black"/>
<path d="M113.814 104.499C113.81 104.499 113.807 104.499 113.803 104.499C113.681 104.493 113.586 104.389 113.592 104.266L116.272 49.5626C116.278 49.4405 116.386 49.342 116.504 49.3517C116.626 49.358 116.72 49.4619 116.715 49.5844L114.035 104.288C114.029 104.407 113.932 104.499 113.814 104.499Z" fill="black"/>
<path d="M121.906 109.171C121.9 109.171 121.895 109.171 121.889 109.17C121.767 109.161 121.675 109.054 121.684 108.932L125.638 56.0025C125.647 55.8799 125.75 55.7894 125.876 55.7974C125.998 55.8067 126.09 55.9128 126.081 56.0354L122.127 108.965C122.118 109.082 122.021 109.171 121.906 109.171Z" fill="black"/>
<path d="M129.998 113.843C129.99 113.843 129.982 113.842 129.974 113.841C129.852 113.828 129.763 113.719 129.777 113.597L135.182 62.5002C135.195 62.3781 135.306 62.2871 135.427 62.3031C135.548 62.316 135.637 62.4252 135.624 62.5473L130.218 113.644C130.206 113.758 130.11 113.843 129.998 113.843Z" fill="black"/>
<path d="M138.089 118.514C138.078 118.514 138.067 118.514 138.056 118.512C137.935 118.494 137.851 118.381 137.87 118.26L145.21 69.3534C145.228 69.2318 145.34 69.1492 145.462 69.167C145.583 69.1852 145.667 69.2984 145.649 69.4196L138.308 118.326C138.292 118.435 138.197 118.514 138.089 118.514Z" fill="black"/>
<path d="M146.18 123.186C146.166 123.186 146.153 123.185 146.138 123.182C146.018 123.16 145.939 123.044 145.961 122.924L154.728 75.8894C154.75 75.7686 154.868 75.6913 154.986 75.7118C155.107 75.7344 155.186 75.8503 155.164 75.9706L146.397 123.005C146.378 123.112 146.284 123.186 146.18 123.186Z" fill="black"/>
<path d="M154.273 127.858C154.257 127.858 154.24 127.856 154.224 127.852C154.104 127.825 154.029 127.707 154.056 127.587L164.277 82.3436C164.304 82.2246 164.421 82.1482 164.543 82.1762C164.663 82.2033 164.738 82.3223 164.71 82.4417L154.489 127.685C154.466 127.788 154.374 127.858 154.273 127.858Z" fill="black"/>
<path d="M45.2445 116.055C45.1415 116.055 45.0491 115.983 45.0274 115.878L33.4674 59.1047C33.443 58.9848 33.5207 58.8671 33.641 58.8431C33.7591 58.8178 33.8781 58.896 33.9029 59.0163L45.4629 115.789C45.4873 115.91 45.4096 116.026 45.2893 116.051C45.2747 116.054 45.2596 116.055 45.2445 116.055Z" fill="black"/>
<path d="M56.3175 109.663C56.2097 109.663 56.1151 109.584 56.0987 109.474L47.3248 51.0916C47.3066 50.9703 47.3896 50.8571 47.5112 50.8389C47.6298 50.8229 47.7457 50.9042 47.7634 51.0254L56.5373 109.407C56.5555 109.529 56.4725 109.641 56.3508 109.66C56.3397 109.662 56.3286 109.663 56.3175 109.663Z" fill="black"/>
<path d="M67.3911 103.269C67.2796 103.269 67.1837 103.185 67.1709 103.072L60.4642 43.4927C60.4509 43.371 60.5384 43.2609 60.66 43.2471C60.7715 43.2356 60.8914 43.3208 60.9056 43.4429L67.6122 103.022C67.6255 103.144 67.538 103.254 67.4164 103.268C67.4079 103.269 67.3995 103.269 67.3911 103.269Z" fill="black"/>
<path d="M78.4644 96.8757C78.3503 96.8757 78.2531 96.7882 78.2438 96.6723L73.1258 36.2644C73.1156 36.1423 73.2061 36.0348 73.3282 36.0246C73.4401 36.0091 73.5578 36.1045 73.568 36.2271L78.6856 96.635C78.6958 96.7571 78.6052 96.8646 78.4831 96.8748C78.4773 96.8757 78.4707 96.8757 78.4644 96.8757Z" fill="black"/>
<path d="M89.5384 90.4827C89.4212 90.4827 89.3235 90.3912 89.3168 90.2731L85.8949 28.867C85.8878 28.7445 85.9815 28.6397 86.1045 28.6331C86.2248 28.6228 86.3318 28.7201 86.338 28.8422L89.7599 90.2483C89.767 90.3708 89.6734 90.4756 89.5504 90.4823C89.5468 90.4827 89.5424 90.4827 89.5384 90.4827Z" fill="black"/>
<path d="M154.275 127.858C154.237 127.858 154.199 127.848 154.164 127.828L89.5392 90.5172L45.3567 116.025C45.2502 116.087 45.1139 116.051 45.0535 115.944C44.9918 115.838 45.0282 115.702 45.1347 115.641L89.5392 90.0044L89.6502 90.0683L154.386 127.444C154.492 127.505 154.528 127.64 154.467 127.747C154.426 127.818 154.351 127.858 154.275 127.858Z" fill="black"/>
<path d="M156.829 116.547C156.788 116.547 156.747 116.536 156.711 116.513L88.5401 73.8837L42.4253 101.26C42.3188 101.323 42.1829 101.287 42.1212 101.182C42.0582 101.076 42.0932 100.941 42.1989 100.878L88.5463 73.3638L88.6608 73.4357L156.946 116.137C157.05 116.202 157.082 116.339 157.017 116.442C156.975 116.51 156.902 116.547 156.829 116.547Z" fill="black"/>
<path d="M159.384 105.236C159.343 105.236 159.302 105.225 159.265 105.202L87.8202 60.1619L39.5734 87.2339C39.4655 87.2938 39.3305 87.2561 39.2706 87.1491C39.2106 87.0421 39.2488 86.9071 39.3554 86.8467L87.8331 59.6455L87.945 59.7161L159.502 104.826C159.605 104.892 159.637 105.029 159.571 105.132C159.529 105.199 159.457 105.236 159.384 105.236Z" fill="black"/>
<path d="M161.94 93.9254C161.898 93.9254 161.856 93.9139 161.819 93.889L87.0332 44.8736L36.6681 72.8842C36.5615 72.9433 36.4256 72.9056 36.3661 72.7981C36.3062 72.6907 36.3448 72.5557 36.4518 72.4962L87.0518 44.3555L87.1642 44.4292L162.062 93.5183C162.164 93.5853 162.193 93.7229 162.126 93.8255C162.083 93.8899 162.012 93.9254 161.94 93.9254Z" fill="black"/>
<path d="M164.495 82.6147C164.451 82.6147 164.408 82.6022 164.37 82.576L86.1071 29.1162L33.7963 59.2527C33.6893 59.314 33.5543 59.2771 33.4926 59.171C33.4314 59.0649 33.4678 58.929 33.5743 58.8678L86.1266 28.5923L86.2421 28.6709L164.62 82.2088C164.721 82.2781 164.747 82.4162 164.678 82.5174C164.636 82.5805 164.566 82.6147 164.495 82.6147Z" fill="black"/>
</g>
<path opacity="0.15" d="M48.2598 115.274L82.43 95.4956L113.279 113.342L79.1093 133.116L48.2598 115.274Z" fill="black"/>
<path opacity="0.15" d="M86.9375 129.877L122.083 109.513L152.932 127.358L117.787 147.72L86.9375 129.877Z" fill="black"/>
<path d="M76.4081 45.7446L76.3828 84.14L107.176 101.875L107.202 63.4798L76.4081 45.7446Z" fill="#1FD18E"/>
<path opacity="0.1" d="M76.4081 45.7446L76.3828 84.14L107.176 101.875L107.202 63.4798L76.4081 45.7446Z" fill="black"/>
<path d="M121.781 55.0623L90.9878 37.3276L76.4082 45.745L107.202 63.4801L121.781 55.0623Z" fill="#1FD18E"/>
<path opacity="0.3" d="M121.781 55.0623L90.9878 37.3276L76.4082 45.745L107.202 63.4801L121.781 55.0623Z" fill="white"/>
<path d="M114.237 55.4959C114.284 55.578 114.308 55.6668 114.309 55.7605C114.308 56.0029 114.138 56.2405 113.841 56.4118L111.974 57.4894C111.973 57.4899 111.972 57.4908 111.971 57.4917L111.833 57.5716L111.794 57.4668L110.09 56.4993L112.176 55.2952C112.706 54.9888 113.488 54.96 113.954 55.2295C114.082 55.3018 114.178 55.3933 114.237 55.4959ZM111.976 57.1751L113.705 56.177C113.916 56.0553 114.037 55.903 114.037 55.7601C114.037 55.6184 113.918 55.5207 113.819 55.463C113.441 55.2455 112.751 55.2752 112.311 55.5292L112.158 55.6175L112.471 56.1592L111.801 56.6885L111.976 57.1751ZM112.119 56.0917L111.924 55.7529L110.635 56.4971L111.652 57.0743L111.479 56.5974L112.119 56.0917Z" fill="#455A64"/>
<path d="M115.573 54.3735C115.61 54.4383 115.588 54.5213 115.523 54.5586L113.955 55.4639C113.89 55.5012 113.807 55.479 113.77 55.4142C113.733 55.3494 113.755 55.2664 113.82 55.2291L115.388 54.3238C115.452 54.2865 115.535 54.3087 115.573 54.3735Z" fill="#455A64"/>
<path d="M116.36 54.8278C116.383 54.8682 116.386 54.9201 116.36 54.9632C116.323 55.028 116.241 55.0502 116.176 55.0129L114.602 54.1036C114.536 54.0681 114.513 53.9842 114.552 53.9189C114.59 53.8541 114.672 53.8319 114.737 53.8692L116.311 54.778C116.332 54.79 116.349 54.8073 116.36 54.8278Z" fill="#455A64"/>
<path d="M110.859 51.5301C110.886 51.5758 110.899 51.6255 110.9 51.6775C110.9 51.7965 110.827 51.907 110.699 51.9812L110.377 52.1668C110.312 52.2041 110.229 52.1819 110.192 52.1171C110.155 52.0522 110.177 51.9696 110.242 51.9319L110.563 51.7463C110.612 51.7183 110.629 51.6904 110.629 51.6784C110.628 51.6664 110.611 51.6398 110.565 51.6136C110.444 51.5456 110.145 51.5652 109.908 51.7015L107.822 52.9056C107.758 52.9429 107.675 52.9207 107.637 52.8559C107.6 52.791 107.622 52.708 107.687 52.6707L109.772 51.4666C110.077 51.2903 110.475 51.2517 110.696 51.3774C110.77 51.4182 110.825 51.4706 110.859 51.5301Z" fill="#455A64"/>
<path d="M109.747 53.819L109.543 53.9367C108.587 54.489 107.032 54.4894 106.076 53.9371C105.587 53.6543 105.317 53.2707 105.318 52.8577C105.318 52.4439 105.587 52.0608 106.076 51.7788L106.144 51.7397L109.747 53.819ZM105.692 53.2214C105.794 53.399 105.971 53.5628 106.212 53.7022C107.023 54.1706 108.306 54.2075 109.192 53.8115L106.145 52.0528C105.786 52.2783 105.589 52.562 105.589 52.8573C105.589 52.9821 105.624 53.1046 105.692 53.2214Z" fill="#455A64"/>
<path d="M106.026 48.7027C106.063 48.7675 106.041 48.8506 105.976 48.8879L101.983 51.1936C101.918 51.2309 101.835 51.2087 101.797 51.1438C101.76 51.079 101.782 50.996 101.847 50.9587L105.841 48.6525C105.905 48.6157 105.988 48.6379 106.026 48.7027Z" fill="#455A64"/>
<path d="M103.022 50.8936C103.032 50.9096 103.038 50.9264 103.04 50.946C103.049 51.0206 102.995 51.0872 102.92 51.096L101.715 51.2355L101.984 50.4589C102.008 50.3879 102.085 50.351 102.156 50.375C102.227 50.4007 102.265 50.4771 102.24 50.5473L102.112 50.9158L102.89 50.8265C102.945 50.8199 102.997 50.8483 103.022 50.8936Z" fill="#455A64"/>
<path d="M104.776 47.9746C104.814 48.0394 104.792 48.1225 104.727 48.1598L100.733 50.4659C100.668 50.5032 100.585 50.481 100.547 50.4166C100.51 50.3518 100.532 50.2688 100.597 50.2315L104.591 47.9253C104.656 47.8872 104.739 47.9098 104.776 47.9746Z" fill="#455A64"/>
<path d="M101.777 50.1657C101.786 50.1817 101.791 50.1986 101.794 50.2181C101.803 50.2931 101.749 50.3597 101.675 50.3682L100.469 50.5076L100.738 49.731C100.762 49.66 100.839 49.6227 100.91 49.6471C100.981 49.6729 101.018 49.7492 100.994 49.8194L100.866 50.1884L101.644 50.0987C101.699 50.0925 101.751 50.1204 101.777 50.1657Z" fill="#455A64"/>
<path d="M121.783 55.062L121.757 93.4574L107.178 101.875L107.203 63.4798L121.783 55.062Z" fill="#1FD18E"/>
<path d="M109.855 87.1095L109.855 80.3696L107.178 81.9152V88.6547L109.855 87.1095Z" fill="#37474F"/>
<path d="M107.177 81.9149L76.3828 64.1802V70.9201L107.176 88.6548L107.177 81.9149Z" fill="#263238"/>
<path d="M113.287 93.8726L113.289 85.7416C113.289 85.54 113.432 85.2923 113.607 85.191L117.845 82.7437C118.194 82.5421 118.48 82.7073 118.48 83.11L118.478 91.2419C118.478 91.4434 118.335 91.6912 118.161 91.792L113.922 94.2389C113.573 94.4404 113.287 94.2753 113.287 93.8726Z" fill="#FAFAFA"/>
<path d="M114.033 93.6432V93.3666L117.775 91.2065V91.4832L114.033 93.6432Z" fill="#455A64"/>
<path d="M114.033 92.5176L114.037 92.038L117.778 89.8784L117.774 90.3571L114.033 92.5176Z" fill="#455A64"/>
<path d="M114.031 91.3913L114.032 91.1147L117.773 88.9546V89.2312L114.031 91.3913Z" fill="#455A64"/>
<path d="M114.025 90.5459L114.032 89.9882L117.774 87.8286L117.767 88.3858L114.025 90.5459Z" fill="#455A64"/>
<path d="M114.031 89.1398V88.8632L117.773 86.7036V86.9802L114.031 89.1398Z" fill="#455A64"/>
<path d="M114.023 88.3331L114.031 87.7372L117.772 85.5771L117.765 86.173L114.023 88.3331Z" fill="#455A64"/>
<path d="M114.033 86.8874V86.6103L117.775 84.4507V84.7273L114.033 86.8874Z" fill="#455A64"/>
<path d="M114.029 86.2473V86.1088L117.771 83.9487V84.0873L114.029 86.2473Z" fill="#455A64"/>
<path d="M114.051 87.3904V87.2519L117.792 85.0923L117.792 85.2304L114.051 87.3904Z" fill="#455A64"/>
<path d="M114.037 89.6668V89.5282L117.778 87.3682V87.5063L114.037 89.6668Z" fill="#455A64"/>
<path d="M114.041 90.9075V90.7694L117.782 88.6094V88.7475L114.041 90.9075Z" fill="#455A64"/>
<path d="M114.055 91.7903V91.6518L117.796 89.4922L117.796 89.6303L114.055 91.7903Z" fill="#455A64"/>
<path d="M114.029 93.0154V92.8769L117.771 90.7168L117.77 90.8553L114.029 93.0154Z" fill="#455A64"/>
<path d="M114.034 85.7614L114.033 85.4843L117.775 83.3247L117.775 83.6013L114.034 85.7614Z" fill="#455A64"/>
<path d="M108.723 93.6697L82.5469 78.5288L52.8242 95.7316L79.0007 110.872L108.723 93.6697Z" fill="#1FD18E"/>
<path opacity="0.3" d="M108.723 93.6697L82.5469 78.5288L52.8242 95.7316L79.0007 110.872L108.723 93.6697Z" fill="white"/>
<g opacity="0.2">
<path d="M52.8242 95.7313L77.1026 109.774L104.149 94.1204L79.8714 80.0771L52.8242 95.7313Z" fill="black"/>
</g>
<path d="M79 130.533L108.723 113.329V93.6694L79 110.872V130.533Z" fill="#1FD18E"/>
<path d="M82.284 124.011C82.1925 124.011 82.1064 123.989 82.0282 123.944C81.8258 123.826 81.709 123.569 81.709 123.237V121.154C81.709 121.153 81.709 121.151 81.709 121.15V120.996L81.8151 121.015L83.4486 120.056V122.384C83.4486 122.975 83.0952 123.644 82.644 123.904C82.5215 123.975 82.3985 124.011 82.284 124.011ZM81.9705 121.308V123.236C81.9705 123.472 82.0398 123.648 82.1592 123.716C82.2777 123.785 82.4167 123.732 82.5131 123.677C82.878 123.466 83.1866 122.874 83.1866 122.384V122.213H82.5819L82.4625 121.397L81.9705 121.308ZM82.8083 121.951H83.1866V120.513L82.2125 121.085L82.6947 121.171L82.8083 121.951Z" fill="#455A64"/>
<path d="M82.5763 125.671C82.5039 125.671 82.4453 125.613 82.4453 125.54V123.791C82.4453 123.718 82.5039 123.66 82.5763 123.66C82.6487 123.66 82.7068 123.718 82.7068 123.791V125.54C82.7068 125.613 82.6487 125.671 82.5763 125.671Z" fill="#455A64"/>
<path d="M81.8165 126.111C81.7717 126.111 81.7273 126.087 81.7033 126.045C81.6669 125.982 81.6882 125.902 81.7513 125.866L83.2724 124.989C83.3337 124.951 83.4154 124.973 83.4513 125.037C83.4877 125.099 83.4664 125.179 83.4038 125.215L81.8822 126.093C81.8618 126.105 81.8392 126.111 81.8165 126.111Z" fill="#455A64"/>
<path d="M87.2357 123.097C87.1846 123.097 87.1358 123.084 87.0923 123.06C86.9928 123.003 86.9355 122.888 86.9355 122.745V122.387C86.9355 122.314 86.9942 122.256 87.0665 122.256C87.1389 122.256 87.1975 122.314 87.1975 122.387V122.745C87.1975 122.799 87.2126 122.827 87.2228 122.833C87.233 122.839 87.2637 122.836 87.3081 122.811C87.4231 122.742 87.5514 122.482 87.5514 122.218V119.891C87.5514 119.819 87.61 119.76 87.6824 119.76C87.7547 119.76 87.8133 119.819 87.8133 119.891V122.218C87.8133 122.559 87.6535 122.911 87.4417 123.036C87.372 123.076 87.3014 123.097 87.2357 123.097Z" fill="#455A64"/>
<path d="M85.8535 121.062V120.834C85.8535 119.768 86.6048 118.466 87.5283 117.933C88.0011 117.66 88.4527 117.62 88.7981 117.82C89.1449 118.02 89.3349 118.43 89.3349 118.975V119.051L85.8535 121.062ZM88.3133 117.957C88.1153 117.957 87.8933 118.025 87.6597 118.16C86.8752 118.613 86.2251 119.668 86.1284 120.601L89.0721 118.901C89.057 118.492 88.9145 118.19 88.6676 118.047C88.5628 117.986 88.4434 117.957 88.3133 117.957Z" fill="#455A64"/>
<path d="M91.9376 120.416C91.8652 120.416 91.8066 120.357 91.8066 120.285V115.828C91.8066 115.756 91.8652 115.697 91.9376 115.697C92.01 115.697 92.0686 115.756 92.0686 115.828V120.285C92.0686 120.357 92.01 120.416 91.9376 120.416Z" fill="#455A64"/>
<path d="M91.5568 116.844C91.5391 116.844 91.5222 116.84 91.5049 116.833C91.4379 116.804 91.4081 116.727 91.4365 116.661L91.9023 115.584L92.4222 116.184C92.4702 116.239 92.4639 116.321 92.4093 116.369C92.3534 116.416 92.2717 116.41 92.2242 116.355L91.9773 116.07L91.6763 116.765C91.6559 116.814 91.6075 116.844 91.5568 116.844Z" fill="#455A64"/>
<path d="M93.1505 119.725C93.0781 119.725 93.0195 119.666 93.0195 119.594V115.137C93.0195 115.064 93.0781 115.006 93.1505 115.006C93.2224 115.006 93.2815 115.064 93.2815 115.137V119.594C93.2819 119.666 93.2229 119.725 93.1505 119.725Z" fill="#455A64"/>
<path d="M92.7658 116.154C92.748 116.154 92.7311 116.151 92.7138 116.143C92.6472 116.114 92.617 116.037 92.6454 115.971L93.1116 114.894L93.6316 115.494C93.6795 115.549 93.6733 115.632 93.6187 115.679C93.5627 115.726 93.4806 115.72 93.4335 115.665L93.1867 115.38L92.8861 116.075C92.8648 116.124 92.8164 116.154 92.7658 116.154Z" fill="#455A64"/>
<path d="M79.0007 130.533L52.8242 115.392V95.7319L79.0007 110.873V130.533Z" fill="#1FD18E"/>
<path opacity="0.1" d="M79.0007 130.533L52.8242 115.392V95.7319L79.0007 110.873V130.533Z" fill="black"/>
<g opacity="0.2">
<path d="M52.8242 102.302L77.1026 116.345V109.775L52.8242 95.7319V102.302Z" fill="black"/>
</g>
<path d="M64.6328 105.536L66.5576 106.647V103.66L64.6328 102.548V105.536Z" fill="#37474F"/>
<path d="M66.5576 103.66L96.2802 86.457L94.3551 85.3452L64.6328 102.548L66.5576 103.66Z" fill="#455A64"/>
<path d="M56.5726 108.102L63.3769 112.032C63.5456 112.13 63.6837 112.369 63.6837 112.564L63.6841 117.294C63.6841 117.684 63.4084 117.843 63.071 117.648L56.2658 113.717C56.0971 113.62 55.959 113.381 55.959 113.186V108.455C55.959 108.066 56.2352 107.907 56.5726 108.102Z" fill="#FAFAFA"/>
<path d="M56.4004 108.839L56.6322 108.973L56.6317 113.147L56.4004 113.014V108.839Z" fill="#455A64"/>
<path d="M57.3457 109.383L57.7444 109.617V113.792L57.3457 113.558V109.383Z" fill="#455A64"/>
<path d="M58.2871 109.927L58.5189 110.06L58.5184 114.235L58.2871 114.102V109.927Z" fill="#455A64"/>
<path d="M58.9961 110.329L59.4592 110.604V114.779L58.9961 114.504V110.329Z" fill="#455A64"/>
<path d="M60.1699 111.014L60.4012 111.147V115.323L60.1699 115.189V111.014Z" fill="#455A64"/>
<path d="M60.8516 111.397L61.3471 111.691L61.3466 115.867L60.8516 115.572V111.397Z" fill="#455A64"/>
<path d="M62.0566 112.102L62.288 112.236V116.411L62.0566 116.277V112.102Z" fill="#455A64"/>
<path d="M62.5957 112.408L62.7116 112.475L62.7111 116.65L62.5957 116.583V112.408Z" fill="#455A64"/>
<path d="M61.625 111.875L61.7409 111.942V116.116L61.625 116.049V111.875Z" fill="#455A64"/>
<path d="M59.7285 110.763L59.844 110.83V115.004L59.7285 114.938V110.763Z" fill="#455A64"/>
<path d="M58.6855 110.166L58.801 110.233V114.408L58.6855 114.341V110.166Z" fill="#455A64"/>
<path d="M57.9434 109.753L58.0592 109.82L58.0588 113.995L57.9434 113.928V109.753Z" fill="#455A64"/>
<path d="M56.9277 109.138L57.0436 109.205V113.38L56.9277 113.313V109.138Z" fill="#455A64"/>
<path d="M63.0004 112.646L63.2318 112.78V116.955L63 116.821L63.0004 112.646Z" fill="#455A64"/>
<path d="M100.784 74.4845L74.6075 59.3433L44.8848 76.546L71.0612 91.6873L100.784 74.4845Z" fill="#1FD18E"/>
<path opacity="0.7" d="M100.784 74.4845L74.6075 59.3433L44.8848 76.546L71.0612 91.6873L100.784 74.4845Z" fill="white"/>
<path d="M71.061 111.347L100.783 94.1447V74.4844L71.0605 91.6872L71.061 111.347Z" fill="#1FD18E"/>
<path opacity="0.6" d="M71.061 111.347L100.783 94.1447V74.4844L71.0605 91.6872L71.061 111.347Z" fill="white"/>
<path d="M74.343 104.825C74.2515 104.825 74.1654 104.803 74.0868 104.758C73.8843 104.641 73.7676 104.383 73.7676 104.051V101.968C73.7676 101.967 73.7676 101.965 73.7676 101.964V101.81L73.8737 101.829L75.5072 100.87V103.197C75.5072 103.789 75.1537 104.457 74.7026 104.718C74.5805 104.789 74.4571 104.825 74.343 104.825ZM74.0295 102.122V104.051C74.0295 104.286 74.0984 104.462 74.2178 104.531C74.3368 104.599 74.4758 104.547 74.5721 104.492C74.9371 104.28 75.2457 103.688 75.2457 103.198V103.027H74.6409L74.5215 102.21L74.0295 102.122ZM74.8674 102.765H75.2457V101.327L74.2711 101.899L74.7537 101.985L74.8674 102.765Z" fill="#455A64"/>
<path d="M74.6349 106.485C74.5625 106.485 74.5039 106.427 74.5039 106.354V104.605C74.5039 104.532 74.5625 104.474 74.6349 104.474C74.7073 104.474 74.7659 104.532 74.7659 104.605V106.354C74.7659 106.427 74.7073 106.485 74.6349 106.485Z" fill="#455A64"/>
<path d="M73.8773 106.924C73.832 106.924 73.7877 106.901 73.7637 106.859C73.7277 106.796 73.7486 106.716 73.8112 106.68L75.3328 105.802C75.3945 105.765 75.4753 105.786 75.5117 105.85C75.5477 105.913 75.5268 105.993 75.4637 106.028L73.9422 106.907C73.9226 106.919 73.9 106.924 73.8773 106.924Z" fill="#455A64"/>
<path d="M79.2962 103.911C79.2452 103.911 79.1968 103.899 79.1528 103.875C79.0529 103.817 78.9961 103.703 78.9961 103.559V103.201C78.9961 103.128 79.0547 103.07 79.1271 103.07C79.1994 103.07 79.2581 103.128 79.2581 103.201V103.559C79.2581 103.613 79.2731 103.641 79.2829 103.647C79.2931 103.653 79.3238 103.651 79.3682 103.625C79.4836 103.557 79.6119 103.297 79.6119 103.033V100.706C79.6119 100.633 79.6705 100.575 79.7429 100.575C79.8153 100.575 79.8739 100.633 79.8739 100.706V103.033C79.8739 103.374 79.7145 103.725 79.5018 103.85C79.433 103.891 79.3624 103.911 79.2962 103.911Z" fill="#455A64"/>
<path d="M77.916 101.878V101.651C77.916 100.584 78.6673 99.2815 79.5908 98.7483C80.0636 98.4761 80.5152 98.4357 80.8602 98.6355C81.2069 98.8358 81.3974 99.246 81.3974 99.7908V99.8667L77.916 101.878ZM80.3753 98.7727C80.1773 98.7727 79.9549 98.8406 79.7218 98.9756C78.9372 99.4285 78.2872 100.483 78.1904 101.417L81.1341 99.7167C81.119 99.3068 80.9765 99.0054 80.7296 98.8628C80.6249 98.802 80.5054 98.7727 80.3753 98.7727Z" fill="#455A64"/>
<path d="M83.9982 101.23C83.9258 101.23 83.8672 101.171 83.8672 101.099V96.6422C83.8672 96.5698 83.9258 96.5112 83.9982 96.5112C84.0705 96.5112 84.1291 96.5698 84.1291 96.6422V101.099C84.1291 101.171 84.0705 101.23 83.9982 101.23Z" fill="#455A64"/>
<path d="M83.6173 97.6586C83.5996 97.6586 83.5827 97.655 83.5654 97.6479C83.4988 97.6191 83.4686 97.5423 83.497 97.4757L83.9632 96.3994L84.4831 96.9997C84.5306 97.0543 84.5249 97.1369 84.4703 97.1844C84.4143 97.2315 84.3322 97.2257 84.2851 97.1711L84.0382 96.886L83.7372 97.5805C83.7163 97.6289 83.6679 97.6586 83.6173 97.6586Z" fill="#455A64"/>
<path d="M85.2091 100.539C85.1367 100.539 85.0781 100.48 85.0781 100.408V95.9508C85.0781 95.8784 85.1367 95.8198 85.2091 95.8198C85.2815 95.8198 85.3401 95.8784 85.3401 95.9508V100.408C85.3401 100.48 85.2815 100.539 85.2091 100.539Z" fill="#455A64"/>
<path d="M84.8244 96.9676C84.8062 96.9676 84.7893 96.9641 84.7724 96.957C84.7058 96.9281 84.6756 96.8509 84.704 96.7847L85.1698 95.708L85.6897 96.3083C85.7377 96.3629 85.7314 96.4455 85.6768 96.4926C85.6209 96.5392 85.5392 96.5343 85.4921 96.4797L85.2453 96.1946L84.9447 96.889C84.9229 96.9379 84.8745 96.9676 84.8244 96.9676Z" fill="#455A64"/>
<path d="M71.0612 111.348L44.8848 96.2062V76.5459L71.0612 91.6872V111.348Z" fill="#1FD18E"/>
<path opacity="0.4" d="M71.0612 111.348L44.8848 96.2062V76.5459L71.0612 91.6872V111.348Z" fill="white"/>
<path d="M54.8262 85.2797L59.5033 87.9899V85.0027L54.8262 82.2925V85.2797Z" fill="#37474F"/>
<path d="M59.5033 85.0028L89.226 67.8L84.5484 65.0894L54.8262 82.2921L59.5033 85.0028Z" fill="#455A64"/>
<path d="M48.6288 88.9162L55.4331 92.847C55.6023 92.9446 55.7403 93.184 55.7403 93.3784L55.7408 98.1088C55.7408 98.4982 55.4646 98.6576 55.1276 98.4627L48.3224 94.5319C48.1537 94.4347 48.0156 94.1954 48.0156 94.0005V89.2701C48.0156 88.8807 48.2918 88.7213 48.6288 88.9162Z" fill="#FAFAFA"/>
<path d="M48.4609 89.6528L48.6923 89.7865V93.9614L48.4609 93.8278V89.6528Z" fill="#455A64"/>
<path d="M49.4023 90.1968L49.8015 90.4316V94.6066L49.4023 94.3721V90.1968Z" fill="#455A64"/>
<path d="M50.3438 90.7407L50.5751 90.8748V95.0497L50.3438 94.9161V90.7407Z" fill="#455A64"/>
<path d="M51.0571 91.1426L51.5206 91.4179L51.5202 95.5928L51.0566 95.318L51.0571 91.1426Z" fill="#455A64"/>
<path d="M52.2305 91.8281L52.4622 91.9622L52.4618 96.1371L52.2305 96.0035V91.8281Z" fill="#455A64"/>
<path d="M52.9082 92.2109L53.4033 92.5053V96.6802L52.9082 96.3859V92.2109Z" fill="#455A64"/>
<path d="M54.1157 92.9155L54.347 93.0496L54.3466 97.2245L54.1152 97.0909L54.1157 92.9155Z" fill="#455A64"/>
<path d="M54.6523 93.2222L54.7682 93.2888V97.4637L54.6523 97.3971V93.2222Z" fill="#455A64"/>
<path d="M53.6855 92.6885L53.8014 92.7555L53.801 96.9305L53.6855 96.8634V92.6885Z" fill="#455A64"/>
<path d="M51.7871 91.5767L51.9026 91.6437V95.8186L51.7871 95.752V91.5767Z" fill="#455A64"/>
<path d="M50.7461 90.9795L50.8624 91.0461V95.2215L50.7461 95.1544V90.9795Z" fill="#455A64"/>
<path d="M50 90.5679L50.1159 90.6345L50.1154 94.8098L50 94.7428V90.5679Z" fill="#455A64"/>
<path d="M48.9883 89.9526L49.1037 90.0197V94.1946L48.9883 94.128V89.9526Z" fill="#455A64"/>
<path d="M55.0586 93.4595L55.2904 93.5931L55.2899 97.7685L55.0586 97.6344V93.4595Z" fill="#455A64"/>
<path d="M151.01 92.6729L122.749 76.3257L90.6582 94.8991L118.92 111.246L151.01 92.6729Z" fill="#1FD18E"/>
<g opacity="0.4">
<path d="M151.01 92.6729L122.749 76.3257L90.6582 94.8991L118.92 111.246L151.01 92.6729Z" fill="white"/>
</g>
<path d="M118.92 146.104L151.01 127.53V92.6729L118.92 111.246V146.104Z" fill="#1FD18E"/>
<g opacity="0.2">
<path d="M118.92 146.104L151.01 127.53V92.6729L118.92 111.246V146.104Z" fill="white"/>
</g>
<path d="M121.696 140.182C121.62 140.182 121.547 140.164 121.482 140.126C121.313 140.027 121.215 139.812 121.215 139.534V137.79C121.215 137.789 121.215 137.788 121.215 137.787V137.657L121.304 137.673L122.672 136.87V138.819C122.672 139.315 122.376 139.874 121.998 140.093C121.895 140.152 121.792 140.182 121.696 140.182ZM121.434 137.919V139.534C121.434 139.731 121.492 139.878 121.592 139.936C121.691 139.993 121.808 139.949 121.888 139.903C122.193 139.726 122.452 139.23 122.452 138.819V138.676H121.946L121.846 137.993L121.434 137.919ZM122.136 138.457H122.452V137.253L121.637 137.732L122.04 137.804L122.136 138.457Z" fill="#455A64"/>
<path d="M121.942 141.573C121.881 141.573 121.832 141.524 121.832 141.464V139.998C121.832 139.938 121.881 139.889 121.942 139.889C122.002 139.889 122.051 139.938 122.051 139.998V141.464C122.051 141.524 122.003 141.573 121.942 141.573Z" fill="#455A64"/>
<path d="M121.305 141.941C121.267 141.941 121.23 141.921 121.21 141.886C121.18 141.833 121.198 141.767 121.25 141.736L122.524 141.001C122.576 140.969 122.643 140.987 122.674 141.041C122.704 141.093 122.687 141.16 122.634 141.191L121.36 141.926C121.343 141.936 121.324 141.941 121.305 141.941Z" fill="#455A64"/>
<path d="M125.845 139.417C125.802 139.417 125.762 139.407 125.725 139.386C125.642 139.338 125.594 139.242 125.594 139.122V138.822C125.594 138.761 125.643 138.712 125.703 138.712C125.764 138.712 125.813 138.761 125.813 138.822V139.122C125.813 139.167 125.826 139.191 125.834 139.196C125.843 139.2 125.869 139.199 125.906 139.177C126.002 139.12 126.11 138.902 126.11 138.681V136.732C126.11 136.672 126.159 136.623 126.219 136.623C126.28 136.623 126.329 136.672 126.329 136.732V138.681C126.329 138.966 126.195 139.261 126.018 139.366C125.959 139.4 125.9 139.417 125.845 139.417Z" fill="#455A64"/>
<path d="M124.691 137.713V137.523C124.691 136.63 125.321 135.54 126.094 135.093C126.49 134.865 126.868 134.832 127.157 134.999C127.447 135.167 127.607 135.51 127.607 135.966V136.03L124.691 137.713ZM126.751 135.113C126.585 135.113 126.399 135.17 126.204 135.283C125.547 135.662 125.002 136.545 124.921 137.327L127.386 135.903C127.374 135.56 127.254 135.308 127.047 135.188C126.96 135.138 126.86 135.113 126.751 135.113Z" fill="#455A64"/>
<path d="M129.782 137.171C129.721 137.171 129.672 137.122 129.672 137.062V133.329C129.672 133.269 129.721 133.22 129.782 133.22C129.842 133.22 129.891 133.269 129.891 133.329V137.062C129.891 137.122 129.842 137.171 129.782 137.171Z" fill="#455A64"/>
<path d="M129.459 134.181C129.444 134.181 129.43 134.178 129.416 134.172C129.36 134.148 129.334 134.083 129.359 134.027L129.749 133.126L130.184 133.629C130.224 133.674 130.219 133.744 130.173 133.783C130.127 133.823 130.058 133.818 130.018 133.772L129.812 133.533L129.56 134.115C129.542 134.156 129.501 134.181 129.459 134.181Z" fill="#455A64"/>
<path d="M130.795 136.593C130.735 136.593 130.686 136.543 130.686 136.483V132.751C130.686 132.69 130.735 132.641 130.795 132.641C130.856 132.641 130.905 132.69 130.905 132.751V136.483C130.905 136.543 130.856 136.593 130.795 136.593Z" fill="#455A64"/>
<path d="M130.473 133.602C130.458 133.602 130.443 133.599 130.429 133.593C130.373 133.569 130.348 133.504 130.372 133.449L130.763 132.547L131.198 133.05C131.238 133.096 131.232 133.165 131.187 133.204C131.14 133.244 131.072 133.24 131.032 133.193L130.825 132.955L130.574 133.536C130.556 133.577 130.515 133.602 130.473 133.602Z" fill="#455A64"/>
<path d="M118.92 146.104L90.6582 129.756V94.8989L118.92 111.246L118.92 146.104Z" fill="#1FD18E"/>
<path opacity="0.15" d="M118.92 146.104L90.6582 129.756V94.8989L118.92 111.246L118.92 146.104Z" fill="black"/>
<path d="M137.574 104.636L132.393 107.635V103.448L137.574 100.449V104.636Z" fill="#37474F"/>
<path d="M132.394 103.447L104.141 87.0954L109.322 84.0962L137.575 100.448L132.394 103.447Z" fill="#455A64"/>
<path d="M92.6983 125.06L97.5863 127.883C97.7075 127.954 97.8069 128.125 97.8069 128.266L97.8074 131.664C97.8074 131.943 97.6093 132.058 97.3669 131.918L92.478 129.095C92.3568 129.025 92.2578 128.853 92.2578 128.713V125.315C92.2578 125.034 92.4563 124.92 92.6983 125.06Z" fill="#FAFAFA"/>
<path d="M92.5781 125.588L92.7446 125.684V128.684L92.5781 128.588V125.588Z" fill="#455A64"/>
<path d="M93.2539 125.979L93.5403 126.148V129.147L93.2539 128.978V125.979Z" fill="#455A64"/>
<path d="M93.9316 126.37L94.0981 126.466L94.0977 129.465L93.9316 129.369V126.37Z" fill="#455A64"/>
<path d="M94.4414 126.66L94.774 126.857V129.856L94.4414 129.659V126.66Z" fill="#455A64"/>
<path d="M95.2852 127.151L95.4517 127.247V130.246L95.2852 130.15V127.151Z" fill="#455A64"/>
<path d="M95.7734 127.426L96.1291 127.638V130.637L95.7734 130.425V127.426Z" fill="#455A64"/>
<path d="M96.6387 127.933L96.8052 128.029V131.028L96.6387 130.932V127.933Z" fill="#455A64"/>
<path d="M97.0254 128.152L97.1089 128.2L97.1084 131.2L97.0254 131.152V128.152Z" fill="#455A64"/>
<path d="M96.3301 127.77L96.4131 127.817V130.817L96.3301 130.769V127.77Z" fill="#455A64"/>
<path d="M94.9668 126.971L95.0503 127.019L95.0498 130.018L94.9668 129.97V126.971Z" fill="#455A64"/>
<path d="M94.2207 126.542L94.3037 126.59V129.59L94.2207 129.542V126.542Z" fill="#455A64"/>
<path d="M93.6836 126.245L93.7666 126.294V129.292L93.6836 129.245V126.245Z" fill="#455A64"/>
<path d="M92.957 125.804L93.0401 125.852V128.851L92.957 128.803V125.804Z" fill="#455A64"/>
<path d="M97.3145 128.324L97.481 128.42L97.4805 131.419L97.3145 131.323V128.324Z" fill="#455A64"/>
<path d="M120.198 108.187C120.161 108.187 120.123 108.178 120.089 108.159L33.5717 59.2533C33.4651 59.193 33.4274 59.0575 33.4878 58.951C33.5482 58.844 33.6836 58.8071 33.7906 58.8671L120.197 107.709L164.38 82.2002C164.486 82.1389 164.622 82.1748 164.683 82.2814C164.745 82.3875 164.708 82.5234 164.602 82.5847L120.309 108.157C120.275 108.177 120.236 108.187 120.198 108.187Z" fill="#E0E0E0"/>
<path d="M109.977 153.431C109.939 153.431 109.9 153.42 109.866 153.401L45.13 116.025C45.075 115.994 45.0363 115.94 45.0235 115.878L33.4635 59.1047C33.4391 58.9848 33.5168 58.8671 33.6371 58.8431C33.7552 58.8178 33.8742 58.896 33.899 59.0163L45.439 115.691L109.978 152.952L154.075 127.493L164.275 82.3436C164.301 82.2246 164.419 82.1483 164.54 82.1762C164.66 82.2033 164.735 82.3223 164.708 82.4417L154.487 127.685C154.473 127.745 154.435 127.797 154.382 127.828L110.089 153.4C110.054 153.42 110.015 153.431 109.977 153.431Z" fill="#E0E0E0"/>
<path d="M109.98 153.431C109.964 153.431 109.947 153.429 109.931 153.425C109.811 153.398 109.736 153.279 109.763 153.159L119.985 107.916C120.011 107.796 120.128 107.72 120.25 107.749C120.37 107.776 120.445 107.894 120.418 108.014L110.196 153.257C110.173 153.361 110.081 153.431 109.98 153.431Z" fill="#E0E0E0"/>
<path d="M121.052 147.037C121.036 147.037 121.02 147.036 121.003 147.032C120.883 147.005 120.808 146.886 120.836 146.766L131.057 101.523C131.084 101.403 131.201 101.328 131.322 101.355C131.442 101.382 131.517 101.501 131.49 101.621L121.268 146.864C121.245 146.968 121.153 147.037 121.052 147.037Z" fill="#E0E0E0"/>
<path d="M132.126 140.644C132.11 140.644 132.094 140.642 132.077 140.638C131.957 140.611 131.883 140.493 131.91 140.373L142.131 95.1297C142.158 95.0103 142.277 94.9353 142.397 94.9619C142.517 94.989 142.592 95.108 142.564 95.2274L132.343 140.471C132.32 140.574 132.228 140.644 132.126 140.644Z" fill="#E0E0E0"/>
<path d="M143.198 134.251C143.182 134.251 143.166 134.249 143.15 134.245C143.03 134.219 142.955 134.1 142.982 133.98L153.203 88.7362C153.23 88.6172 153.347 88.5422 153.469 88.5688C153.589 88.5959 153.663 88.7149 153.636 88.8344L143.415 134.078C143.392 134.181 143.3 134.251 143.198 134.251Z" fill="#E0E0E0"/>
<path d="M53.3326 120.727C53.2216 120.727 53.1257 120.644 53.1123 120.532L46.7711 66.611C46.7565 66.4893 46.8435 66.3788 46.9656 66.3646C47.0913 66.349 47.1978 66.4374 47.2125 66.559L53.5537 120.48C53.5683 120.602 53.4813 120.712 53.3592 120.726C53.3499 120.727 53.3415 120.727 53.3326 120.727Z" fill="#E0E0E0"/>
<path d="M61.4254 125.399C61.3099 125.399 61.2123 125.309 61.2043 125.192L57.5728 72.7057C57.5644 72.5836 57.6567 72.477 57.7793 72.4686C57.8978 72.4619 58.0075 72.5525 58.0159 72.6746L61.6474 125.162C61.6554 125.284 61.5635 125.39 61.4409 125.398C61.4356 125.399 61.4303 125.399 61.4254 125.399Z" fill="#E0E0E0"/>
<path d="M69.5167 130.071C69.395 130.071 69.2956 129.973 69.2947 129.851L68.8906 79.091C68.8897 78.9684 68.9883 78.8685 69.1109 78.8672C69.2143 78.8712 69.3337 78.9649 69.3346 79.0874L69.7387 129.848C69.7396 129.97 69.641 130.071 69.5184 130.071H69.5167Z" fill="#E0E0E0"/>
<path d="M77.6108 134.743C77.6082 134.743 77.605 134.743 77.6024 134.743C77.4798 134.738 77.3844 134.636 77.3888 134.513L79.2292 84.9238C79.2345 84.8017 79.3469 84.704 79.4596 84.7102C79.5822 84.7147 79.6776 84.8177 79.6732 84.9402L77.8328 134.53C77.8279 134.649 77.7294 134.743 77.6108 134.743Z" fill="#E0E0E0"/>
<path d="M85.7027 139.415C85.6965 139.415 85.6908 139.414 85.685 139.414C85.5629 139.405 85.4714 139.298 85.4812 139.176L89.3147 90.6143C89.324 90.4922 89.4377 90.4035 89.5531 90.4106C89.6752 90.4203 89.7667 90.5273 89.7569 90.6494L85.9234 139.21C85.9145 139.326 85.8173 139.415 85.7027 139.415Z" fill="#E0E0E0"/>
<path d="M93.7927 144.087C93.7834 144.087 93.774 144.087 93.7647 144.086C93.6435 144.07 93.5569 143.959 93.572 143.837L99.5345 96.3822C99.55 96.2605 99.6646 96.1757 99.7827 96.1895C99.9039 96.2045 99.9905 96.316 99.9754 96.4377L94.0125 143.893C93.9983 144.005 93.9028 144.087 93.7927 144.087Z" fill="#E0E0E0"/>
<path d="M101.887 148.758C101.873 148.758 101.86 148.757 101.847 148.755C101.725 148.732 101.646 148.617 101.668 148.497L110.061 102.17C110.083 102.049 110.2 101.97 110.319 101.991C110.44 102.013 110.52 102.129 110.498 102.249L102.105 148.576C102.085 148.683 101.991 148.758 101.887 148.758Z" fill="#E0E0E0"/>
<path d="M120.198 108.187C120.161 108.187 120.123 108.178 120.089 108.159L33.5717 59.2533C33.4651 59.193 33.4274 59.0575 33.4878 58.951C33.5482 58.844 33.6836 58.8071 33.7906 58.8671L120.197 107.709L164.38 82.2002C164.486 82.1389 164.622 82.1748 164.683 82.2814C164.745 82.3875 164.708 82.5234 164.602 82.5847L120.309 108.157C120.275 108.177 120.236 108.187 120.198 108.187Z" fill="#E0E0E0"/>
<path d="M117.644 119.498C117.606 119.498 117.567 119.488 117.533 119.469L36.4455 72.8827C36.3393 72.8214 36.3025 72.686 36.3633 72.5794C36.4246 72.4724 36.5605 72.4365 36.6666 72.4973L117.643 119.019L161.825 93.5109C161.931 93.4492 162.067 93.4856 162.129 93.5922C162.19 93.6983 162.154 93.8342 162.047 93.8954L117.755 119.468C117.721 119.488 117.682 119.498 117.644 119.498Z" fill="#E0E0E0"/>
<path d="M115.089 130.809C115.051 130.809 115.013 130.799 114.978 130.779L39.3518 87.2328C39.2452 87.1716 39.2088 87.0362 39.2697 86.9296C39.3309 86.823 39.4668 86.7871 39.5729 86.8479L115.089 130.33L159.27 104.822C159.376 104.761 159.512 104.797 159.574 104.903C159.635 105.009 159.599 105.145 159.492 105.206L115.2 130.779C115.166 130.799 115.127 130.809 115.089 130.809Z" fill="#E0E0E0"/>
<path d="M112.533 142.12C112.495 142.12 112.456 142.11 112.422 142.09L42.1986 101.261C42.0924 101.199 42.0565 101.063 42.1178 100.957C42.1795 100.851 42.3158 100.816 42.4215 100.877L112.534 141.641L156.715 116.133C156.821 116.071 156.957 116.107 157.019 116.214C157.08 116.32 157.044 116.456 156.937 116.517L112.644 142.09C112.61 142.11 112.572 142.12 112.533 142.12Z" fill="#E0E0E0"/>
<path d="M109.978 153.431C109.939 153.431 109.901 153.42 109.867 153.401L45.1305 116.025C45.0244 115.964 44.988 115.829 45.0493 115.722C45.1101 115.616 45.2464 115.58 45.3525 115.641L109.978 152.952L154.16 127.444C154.266 127.382 154.402 127.418 154.463 127.525C154.525 127.631 154.488 127.767 154.382 127.828L110.089 153.401C110.054 153.42 110.016 153.431 109.978 153.431Z" fill="#E0E0E0"/>
<path d="M134.49 160.262L162.332 144.158L193.945 162.455L166.103 178.559L134.49 160.262Z" fill="#1FD18E"/>
<path opacity="0.7" d="M134.49 160.262L162.332 144.158L193.945 162.455L166.103 178.559L134.49 160.262Z" fill="white"/>
<g opacity="0.2">
<path d="M193.946 162.454L168.123 177.391L139.355 160.741L165.178 145.804L193.946 162.454Z" fill="black"/>
</g>
<path d="M166.104 199.47L134.49 181.172V160.261L166.104 178.558V199.47Z" fill="#1FD18E"/>
<path opacity="0.6" d="M166.104 199.47L134.49 181.172V160.261L166.104 178.558V199.47Z" fill="white"/>
<path d="M162.231 192.419C161.751 192.142 161.375 191.432 161.375 190.802V188.327L163.112 189.347L163.226 189.327V189.49C163.226 189.492 163.226 189.493 163.226 189.494V191.71C163.226 192.062 163.101 192.337 162.885 192.462C162.802 192.51 162.711 192.534 162.614 192.534C162.492 192.533 162.361 192.495 162.231 192.419ZM162.423 189.752L162.297 190.621H161.654V190.802C161.654 191.324 161.982 191.954 162.37 192.179C162.472 192.237 162.62 192.292 162.747 192.22C162.873 192.147 162.947 191.96 162.947 191.71V189.659L162.423 189.752ZM162.176 189.513L162.689 189.421L161.653 188.812V190.342H162.056L162.176 189.513Z" fill="#455A64"/>
<path d="M162.301 194.299C162.378 194.299 162.441 194.237 162.441 194.16V192.299C162.441 192.222 162.378 192.16 162.301 192.16C162.224 192.16 162.162 192.222 162.162 192.299V194.16C162.162 194.237 162.224 194.299 162.301 194.299Z" fill="#455A64"/>
<path d="M163.109 194.766C163.157 194.766 163.204 194.742 163.23 194.697C163.268 194.63 163.246 194.545 163.178 194.506L161.561 193.572C161.495 193.532 161.409 193.555 161.371 193.624C161.332 193.69 161.354 193.775 161.421 193.813L163.04 194.747C163.061 194.761 163.085 194.766 163.109 194.766Z" fill="#455A64"/>
<path d="M157.347 191.561C157.402 191.561 157.453 191.548 157.5 191.522C157.605 191.461 157.667 191.339 157.667 191.187V190.805C157.667 190.728 157.604 190.666 157.527 190.666C157.45 190.666 157.388 190.728 157.388 190.805V191.187C157.388 191.244 157.372 191.274 157.361 191.28C157.35 191.286 157.317 191.284 157.27 191.257C157.148 191.184 157.011 190.908 157.011 190.627V188.152C157.011 188.075 156.949 188.012 156.872 188.012C156.795 188.012 156.732 188.075 156.732 188.152V190.627C156.732 190.99 156.902 191.364 157.128 191.496C157.202 191.539 157.276 191.561 157.347 191.561Z" fill="#455A64"/>
<path d="M155.113 187.258V187.177C155.113 186.598 155.316 186.162 155.684 185.949C156.051 185.736 156.532 185.779 157.035 186.069C158.017 186.636 158.816 188.021 158.816 189.155V189.397L155.113 187.258ZM155.824 186.19C155.561 186.342 155.409 186.662 155.393 187.098L158.524 188.907C158.422 187.914 157.73 186.792 156.895 186.311C156.647 186.167 156.411 186.095 156.2 186.095C156.062 186.095 155.935 186.126 155.824 186.19Z" fill="#455A64"/>
<path d="M152.34 188.708C152.417 188.708 152.48 188.646 152.48 188.569V183.829C152.48 183.752 152.417 183.689 152.34 183.689C152.263 183.689 152.201 183.752 152.201 183.829V188.569C152.201 188.646 152.263 188.708 152.34 188.708Z" fill="#455A64"/>
<path d="M152.748 184.91C152.767 184.91 152.785 184.906 152.803 184.899C152.874 184.868 152.906 184.786 152.876 184.715L152.38 183.57L151.827 184.209C151.776 184.267 151.783 184.355 151.841 184.405C151.901 184.455 151.988 184.449 152.038 184.391L152.3 184.088L152.62 184.826C152.643 184.879 152.695 184.91 152.748 184.91Z" fill="#455A64"/>
<path d="M151.053 187.975C151.13 187.975 151.193 187.912 151.193 187.836V183.094C151.193 183.017 151.13 182.955 151.053 182.955C150.977 182.955 150.914 183.017 150.914 183.094V187.836C150.915 187.912 150.977 187.975 151.053 187.975Z" fill="#455A64"/>
<path d="M151.459 184.176C151.478 184.176 151.496 184.172 151.514 184.164C151.585 184.134 151.617 184.052 151.586 183.981L151.091 182.836L150.538 183.474C150.487 183.533 150.494 183.62 150.552 183.671C150.611 183.721 150.699 183.715 150.749 183.656L151.011 183.353L151.332 184.092C151.354 184.144 151.405 184.176 151.459 184.176Z" fill="#455A64"/>
<path d="M166.104 199.469L193.945 183.365V162.454L166.104 178.558V199.469Z" fill="#1FD18E"/>
<path opacity="0.4" d="M166.104 199.469L193.945 183.365V162.454L166.104 178.558V199.469Z" fill="white"/>
<g opacity="0.2">
<path d="M193.944 169.443L168.121 184.379V177.391L193.944 162.455V169.443Z" fill="black"/>
</g>
<path d="M181.385 172.882L179.338 174.064V170.887L181.385 169.705V172.882Z" fill="#37474F"/>
<path d="M179.338 170.887L147.725 152.59L149.772 151.407L181.385 169.704L179.338 170.887Z" fill="#455A64"/>
<path d="M189.96 175.612L182.723 179.792C182.544 179.896 182.397 180.151 182.397 180.358L182.396 185.389C182.396 185.803 182.69 185.973 183.049 185.765L190.287 181.585C190.467 181.482 190.613 181.227 190.613 181.02V175.989C190.613 175.574 190.319 175.405 189.96 175.612Z" fill="#FAFAFA"/>
<path d="M190.143 176.395L189.896 176.537V180.977L190.143 180.835V176.395Z" fill="#455A64"/>
<path d="M189.141 176.973L188.717 177.222V181.663L189.141 181.414V176.973Z" fill="#455A64"/>
<path d="M188.137 177.552L187.891 177.694L187.891 182.135L188.137 181.992V177.552Z" fill="#455A64"/>
<path d="M187.383 177.98L186.891 178.272V182.713L187.383 182.421V177.98Z" fill="#455A64"/>
<path d="M186.133 178.708L185.887 178.851V183.291L186.133 183.149V178.708Z" fill="#455A64"/>
<path d="M185.412 179.116L184.885 179.429L184.885 183.87L185.412 183.557V179.116Z" fill="#455A64"/>
<path d="M184.131 179.865L183.885 180.008V184.449L184.131 184.306V179.865Z" fill="#455A64"/>
<path d="M183.559 180.191L183.436 180.262V184.703L183.559 184.632V180.191Z" fill="#455A64"/>
<path d="M184.588 179.624L184.465 179.695V184.136L184.588 184.064V179.624Z" fill="#455A64"/>
<path d="M186.606 178.441L186.482 178.512L186.483 182.952L186.606 182.882V178.441Z" fill="#455A64"/>
<path d="M187.709 177.806L187.586 177.877V182.318L187.709 182.247V177.806Z" fill="#455A64"/>
<path d="M188.508 177.368L188.385 177.439V181.88L188.508 181.809V177.368Z" fill="#455A64"/>
<path d="M189.584 176.714L189.461 176.785L189.461 181.226L189.584 181.155V176.714Z" fill="#455A64"/>
<path d="M183.127 180.444L182.881 180.586L182.881 185.027L183.127 184.885L183.127 180.444Z" fill="#455A64"/>
<path d="M141.049 139.766L168.891 123.662L200.504 141.959L172.663 158.064L141.049 139.766Z" fill="#1FD18E"/>
<path opacity="0.3" d="M141.049 139.766L168.891 123.662L200.504 141.959L172.663 158.064L141.049 139.766Z" fill="white"/>
<path d="M172.663 178.974L141.049 160.677V139.766L172.663 158.063V178.974Z" fill="#1FD18E"/>
<path d="M168.791 171.924C168.312 171.647 167.936 170.937 167.936 170.307V167.832L169.673 168.851L169.786 168.831V168.995C169.786 168.997 169.786 168.998 169.786 168.999V171.215C169.786 171.567 169.662 171.842 169.447 171.967C169.363 172.014 169.272 172.038 169.174 172.038C169.053 172.038 168.922 172 168.791 171.924ZM168.984 169.257L168.857 170.126H168.214V170.307C168.214 170.829 168.543 171.459 168.931 171.684C169.033 171.742 169.181 171.798 169.307 171.725C169.434 171.651 169.507 171.465 169.507 171.215V169.164L168.984 169.257ZM168.737 169.018L169.251 168.926L168.214 168.318V169.847H168.617L168.737 169.018Z" fill="#455A64"/>
<path d="M168.86 173.805C168.937 173.805 169 173.742 169 173.665V171.804C169 171.728 168.937 171.665 168.86 171.665C168.783 171.665 168.721 171.728 168.721 171.804V173.665C168.721 173.742 168.783 173.805 168.86 173.805Z" fill="#455A64"/>
<path d="M169.668 174.271C169.716 174.271 169.763 174.246 169.788 174.202C169.827 174.135 169.804 174.05 169.737 174.012L168.119 173.078C168.054 173.038 167.968 173.061 167.929 173.128C167.89 173.195 167.913 173.28 167.98 173.318L169.598 174.253C169.62 174.266 169.643 174.271 169.668 174.271Z" fill="#455A64"/>
<path d="M163.904 171.065C163.959 171.065 164.01 171.052 164.056 171.026C164.162 170.965 164.223 170.843 164.223 170.691V170.309C164.223 170.232 164.161 170.17 164.084 170.17C164.007 170.17 163.944 170.232 163.944 170.309V170.691C163.944 170.748 163.928 170.778 163.918 170.784C163.907 170.79 163.874 170.788 163.827 170.76C163.704 170.688 163.568 170.411 163.568 170.131V167.656C163.568 167.579 163.505 167.516 163.428 167.516C163.352 167.516 163.289 167.579 163.289 167.656V170.131C163.289 170.494 163.459 170.867 163.685 171C163.759 171.044 163.833 171.065 163.904 171.065Z" fill="#455A64"/>
<path d="M161.67 166.763V166.682C161.67 166.103 161.872 165.666 162.241 165.453C162.608 165.241 163.088 165.283 163.591 165.573C164.574 166.14 165.372 167.525 165.372 168.66V168.902L161.67 166.763ZM162.38 165.694C162.117 165.846 161.966 166.167 161.95 166.603L165.081 168.411C164.978 167.418 164.286 166.296 163.453 165.815C163.204 165.671 162.968 165.599 162.757 165.599C162.618 165.598 162.491 165.63 162.38 165.694Z" fill="#455A64"/>
<path d="M158.903 168.213C158.98 168.213 159.042 168.151 159.042 168.074V163.333C159.042 163.256 158.98 163.194 158.903 163.194C158.826 163.194 158.764 163.256 158.764 163.333V168.074C158.764 168.151 158.826 168.213 158.903 168.213Z" fill="#455A64"/>
<path d="M159.31 164.415C159.329 164.415 159.347 164.411 159.366 164.403C159.437 164.373 159.468 164.29 159.438 164.22L158.942 163.075L158.39 163.714C158.339 163.771 158.345 163.859 158.403 163.91C158.463 163.96 158.55 163.954 158.6 163.896L158.863 163.592L159.183 164.331C159.205 164.383 159.257 164.415 159.31 164.415Z" fill="#455A64"/>
<path d="M157.61 167.479C157.687 167.479 157.749 167.417 157.749 167.34V162.599C157.749 162.523 157.686 162.46 157.61 162.46C157.533 162.46 157.471 162.522 157.471 162.599V167.34C157.471 167.417 157.533 167.479 157.61 167.479Z" fill="#455A64"/>
<path d="M158.018 163.681C158.037 163.681 158.055 163.677 158.073 163.669C158.144 163.639 158.176 163.557 158.145 163.486L157.65 162.341L157.097 162.979C157.046 163.037 157.053 163.125 157.111 163.176C157.17 163.225 157.257 163.22 157.307 163.161L157.57 162.858L157.89 163.597C157.913 163.649 157.964 163.681 158.018 163.681Z" fill="#455A64"/>
<path d="M172.662 178.974L200.504 162.87V141.958L172.662 158.063V178.974Z" fill="#1FD18E"/>
<path opacity="0.1" d="M172.662 178.974L200.504 162.87V141.958L172.662 158.063V178.974Z" fill="black"/>
<path d="M187.945 152.387L185.898 153.569V150.392L187.945 149.21V152.387Z" fill="#37474F"/>
<path d="M185.897 150.392L154.283 132.095L156.33 130.913L187.944 149.21L185.897 150.392Z" fill="#455A64"/>
<path d="M196.52 155.116L189.282 159.297C189.102 159.4 188.956 159.655 188.956 159.863L188.955 164.894C188.955 165.308 189.249 165.478 189.607 165.27L196.845 161.09C197.025 160.986 197.172 160.732 197.172 160.525L197.172 155.493C197.172 155.079 196.878 154.909 196.52 155.116Z" fill="#FAFAFA"/>
<path d="M196.701 155.9L196.455 156.042V160.482L196.701 160.34V155.9Z" fill="#455A64"/>
<path d="M195.7 156.478L195.275 156.728L195.276 161.168L195.7 160.918V156.478Z" fill="#455A64"/>
<path d="M194.697 157.057L194.451 157.199V161.639L194.697 161.497V157.057Z" fill="#455A64"/>
<path d="M193.94 157.485L193.447 157.777V162.218L193.94 161.926V157.485Z" fill="#455A64"/>
<path d="M192.692 158.214L192.445 158.356L192.446 162.797L192.692 162.655V158.214Z" fill="#455A64"/>
<path d="M191.968 158.621L191.441 158.935V163.375L191.968 163.062V158.621Z" fill="#455A64"/>
<path d="M190.687 159.371L190.441 159.513L190.442 163.954L190.688 163.812L190.687 159.371Z" fill="#455A64"/>
<path d="M190.116 159.696L189.992 159.767V164.208L190.116 164.137V159.696Z" fill="#455A64"/>
<path d="M191.145 159.128L191.021 159.199L191.022 163.64L191.145 163.569V159.128Z" fill="#455A64"/>
<path d="M193.164 157.946L193.041 158.017V162.458L193.164 162.387V157.946Z" fill="#455A64"/>
<path d="M194.268 157.312L194.145 157.383V161.823L194.268 161.752V157.312Z" fill="#455A64"/>
<path d="M195.061 156.873L194.938 156.944L194.938 161.385L195.061 161.313V156.873Z" fill="#455A64"/>
<path d="M196.139 156.218L196.016 156.29V160.73L196.139 160.659V156.218Z" fill="#455A64"/>
<path d="M189.684 159.949L189.438 160.091V164.532L189.684 164.39V159.949Z" fill="#455A64"/>
<path d="M32.9906 113.954L29.8768 113.61C29.5767 113.577 29.3391 113.335 29.3121 113.034L28.9537 109.062C28.9444 108.953 28.8534 108.87 28.7442 108.87C28.635 108.87 28.5439 108.953 28.5346 109.062L28.1763 113.034C28.1483 113.335 27.9117 113.577 27.6115 113.61L24.4987 113.954C24.3921 113.966 24.3117 114.056 24.3117 114.164C24.3117 114.271 24.3921 114.361 24.4987 114.373L27.6115 114.718C27.9117 114.75 28.1492 114.993 28.1763 115.294L28.5346 119.266C28.5439 119.375 28.635 119.457 28.7442 119.457C28.8534 119.457 28.9444 119.375 28.9537 119.266L29.3121 115.293C29.3391 114.993 29.5767 114.75 29.8768 114.718L32.9906 114.373C33.0972 114.361 33.178 114.271 33.178 114.164C33.1775 114.056 33.0972 113.966 32.9906 113.954ZM29.8302 114.298C29.332 114.353 28.9373 114.755 28.8925 115.255L28.7437 116.9L28.5954 115.256C28.5506 114.755 28.1559 114.353 27.6577 114.298L26.4385 114.164L27.6577 114.029C28.1559 113.974 28.5506 113.572 28.5954 113.072V113.071L28.7437 111.427L28.8925 113.071C28.9373 113.572 29.332 113.974 29.8302 114.029L31.0494 114.164L29.8302 114.298ZM140.477 33.4923L135.655 32.9595C135.142 32.9031 134.735 32.488 134.689 31.9734L134.135 25.8218C134.124 25.7072 134.029 25.6193 133.914 25.6193C133.799 25.6193 133.703 25.7072 133.692 25.8218L133.138 31.9734C133.092 32.488 132.685 32.9027 132.172 32.9595L127.351 33.4923C127.238 33.5047 127.153 33.6002 127.153 33.7134C127.153 33.8266 127.238 33.9216 127.351 33.9341L132.172 34.4664C132.685 34.5237 133.092 34.9384 133.138 35.4526L133.692 41.6046C133.703 41.7192 133.799 41.8071 133.914 41.8071C134.029 41.8071 134.125 41.7192 134.135 41.6046L134.689 35.4526C134.735 34.9384 135.142 34.5237 135.655 34.4664L140.477 33.9341C140.59 33.9216 140.675 33.8262 140.675 33.7134C140.675 33.5997 140.59 33.5047 140.477 33.4923ZM135.607 34.0247C134.884 34.105 134.312 34.6884 134.247 35.4126L133.914 39.1093L133.581 35.4126C133.515 34.6884 132.943 34.105 132.22 34.0247L129.397 33.713L132.22 33.4008C132.943 33.3209 133.515 32.7375 133.581 32.0129L133.914 28.3161L134.247 32.0129C134.312 32.7375 134.884 33.3209 135.607 33.4008L138.43 33.713L135.607 34.0247ZM14.4607 105.232L16.5329 105.462C16.7327 105.483 16.8907 105.645 16.9089 105.845L17.1473 108.489C17.1536 108.562 17.2144 108.617 17.2868 108.617C17.3596 108.617 17.4204 108.562 17.4262 108.489L17.6646 105.845C17.6828 105.645 17.8404 105.483 18.0407 105.462L20.1137 105.232C20.1847 105.225 20.238 105.165 20.238 105.093C20.238 105.022 20.1847 104.962 20.1137 104.954L18.0407 104.725C17.8409 104.703 17.6828 104.541 17.6646 104.341L17.4262 101.697C17.42 101.624 17.3591 101.569 17.2868 101.569C17.2144 101.569 17.1536 101.624 17.1473 101.697L16.9089 104.341C16.8903 104.541 16.7331 104.703 16.5329 104.725L14.4607 104.954C14.3897 104.962 14.3359 105.022 14.3359 105.093C14.3359 105.165 14.3897 105.224 14.4607 105.232ZM16.5639 105.003C16.8956 104.967 17.1584 104.699 17.1882 104.366L17.2868 103.271L17.3858 104.366C17.4155 104.699 17.6784 104.967 18.01 105.003L18.8217 105.093L18.01 105.183C17.6784 105.219 17.4155 105.487 17.3858 105.82L17.2868 106.915L17.1882 105.82C17.1584 105.487 16.8956 105.219 16.5639 105.183L15.7523 105.093L16.5639 105.003ZM20.4054 77.8071L22.4776 78.0362C22.6774 78.0579 22.8354 78.2195 22.8536 78.4198L23.0921 81.0638C23.0983 81.1366 23.1591 81.1917 23.2315 81.1917C23.3043 81.1917 23.3647 81.1366 23.3709 81.0638L23.6093 78.4193C23.6275 78.2195 23.7851 78.0579 23.9854 78.0362L26.0584 77.8071C26.1295 77.7991 26.1827 77.7391 26.1827 77.6676C26.1827 77.5961 26.1295 77.5362 26.0584 77.5282L23.9854 77.2991C23.7856 77.2774 23.6275 77.1157 23.6093 76.9155L23.3709 74.2715C23.3647 74.1991 23.3038 74.1436 23.2315 74.1436C23.1591 74.1436 23.0983 74.1987 23.0921 74.2715L22.8536 76.9159C22.835 77.1157 22.6774 77.2774 22.4776 77.2991L20.4054 77.5282C20.3344 77.5362 20.2807 77.5961 20.2807 77.6676C20.2811 77.7391 20.3348 77.7991 20.4054 77.8071ZM22.5091 77.5779C22.8408 77.5415 23.1036 77.2738 23.1334 76.9408V76.9404L23.2324 75.8455L23.3314 76.9404C23.3611 77.2738 23.624 77.5415 23.9556 77.5779L24.7673 77.6676L23.9556 77.7573C23.624 77.7937 23.3611 78.0619 23.3314 78.3945L23.2324 79.4898L23.1334 78.3949C23.1036 78.0619 22.8408 77.7937 22.5091 77.7573L21.6975 77.6676L22.5091 77.5779ZM29.0075 19.5205L31.2785 19.7718C31.4974 19.7953 31.671 19.9725 31.6906 20.1923L31.9521 23.0898C31.9587 23.1693 32.0253 23.2297 32.1048 23.2297C32.1843 23.2297 32.2509 23.1693 32.2576 23.0898L32.5191 20.1918C32.539 19.9729 32.7122 19.7958 32.9311 19.7718L35.2026 19.5205C35.2803 19.5116 35.3389 19.4459 35.3389 19.3678C35.3389 19.2896 35.2803 19.2239 35.2026 19.215L32.9311 18.9637C32.7122 18.9402 32.539 18.763 32.5191 18.5433L32.2576 15.6457C32.2509 15.5662 32.1843 15.5059 32.1048 15.5059C32.0253 15.5059 31.9587 15.5662 31.9521 15.6457L31.6906 18.5437C31.6701 18.7626 31.4974 18.9398 31.2785 18.9637L29.0075 19.215C28.9298 19.2239 28.8707 19.2896 28.8707 19.3678C28.8707 19.4459 28.9298 19.5112 29.0075 19.5205ZM31.3123 19.2692C31.6755 19.2292 31.9636 18.9358 31.9965 18.5712L32.1048 17.3711L32.2132 18.5708C32.246 18.9358 32.5337 19.2292 32.8969 19.2696L33.7862 19.3678L32.8969 19.4659C32.5333 19.5059 32.2456 19.7993 32.2132 20.1643L32.1048 21.3644L31.9965 20.1648C31.9636 19.7998 31.6759 19.5063 31.3123 19.4659L30.4229 19.3678L31.3123 19.2692ZM116.681 22.7022L118.668 22.922C118.86 22.9429 119.011 23.0978 119.028 23.2896L119.257 25.8262C119.263 25.8955 119.322 25.9487 119.391 25.9487C119.461 25.9487 119.519 25.8955 119.525 25.8262L119.754 23.2896C119.771 23.0978 119.923 22.9433 120.114 22.922L122.102 22.7022C122.17 22.6947 122.222 22.6369 122.222 22.5686C122.222 22.5002 122.17 22.4425 122.102 22.4349L120.114 22.2151C119.923 22.1943 119.771 22.0393 119.754 21.8475L119.525 19.3109C119.519 19.2417 119.461 19.1884 119.391 19.1884C119.322 19.1884 119.263 19.2417 119.257 19.3109L119.028 21.8475C119.011 22.0393 118.86 22.1943 118.668 22.2151L116.681 22.4349C116.612 22.4425 116.561 22.5002 116.561 22.5686C116.561 22.6369 116.612 22.6947 116.681 22.7022ZM118.698 22.4824C119.016 22.4474 119.267 22.1903 119.296 21.8715L119.391 20.821L119.485 21.8715C119.514 22.1903 119.766 22.4474 120.084 22.4824L120.863 22.5686L120.084 22.6547C119.766 22.6898 119.514 22.9469 119.485 23.2656L119.391 24.3162L119.296 23.2656C119.267 22.9469 119.016 22.6898 118.698 22.6547L117.919 22.5686L118.698 22.4824ZM154.126 24.9249L156.228 25.1575C156.43 25.1797 156.59 25.3436 156.608 25.546L156.85 28.2273C156.857 28.3006 156.918 28.357 156.992 28.357C157.066 28.357 157.127 28.3006 157.133 28.2273L157.375 25.546C157.393 25.3436 157.553 25.1797 157.756 25.1575L159.857 24.9249C159.929 24.9169 159.983 24.8561 159.983 24.7832C159.983 24.7109 159.929 24.65 159.857 24.642L157.756 24.4098C157.553 24.3876 157.393 24.2238 157.375 24.0213L157.133 21.34C157.127 21.2668 157.066 21.2104 156.992 21.2104C156.918 21.2104 156.857 21.2668 156.85 21.34L156.608 24.0213C156.59 24.2242 156.43 24.3876 156.228 24.4098L154.126 24.642C154.054 24.65 154 24.7109 154 24.7832C153.999 24.8561 154.054 24.9169 154.126 24.9249ZM156.259 24.6927C156.595 24.6554 156.861 24.3841 156.892 24.0466L156.992 22.9362L157.092 24.0466C157.122 24.3836 157.388 24.6554 157.725 24.6927L158.548 24.7837L157.725 24.8747C157.388 24.912 157.122 25.1833 157.092 25.5207L156.992 26.6312L156.892 25.5207C156.861 25.1837 156.595 24.912 156.259 24.8747L155.436 24.7837L156.259 24.6927ZM191.991 70.5303L190.188 70.331C190.014 70.3123 189.877 70.1716 189.861 69.9975L189.654 67.6985C189.648 67.6355 189.596 67.5875 189.533 67.5875C189.47 67.5875 189.417 67.6355 189.411 67.6985L189.204 69.998C189.188 70.1716 189.051 70.3123 188.877 70.331L187.075 70.5303C187.013 70.5374 186.967 70.5894 186.967 70.6516C186.967 70.7137 187.013 70.7657 187.075 70.7728L188.877 70.9721C189.051 70.9908 189.189 71.1315 189.204 71.306L189.411 73.605C189.417 73.6681 189.47 73.716 189.533 73.716C189.596 73.716 189.648 73.6681 189.654 73.605L189.861 71.3056C189.877 71.132 190.014 70.9912 190.188 70.9726L191.991 70.7732C192.052 70.7661 192.099 70.7142 192.099 70.652C192.099 70.5898 192.052 70.5374 191.991 70.5303ZM190.161 70.7297C189.873 70.7612 189.644 70.9943 189.619 71.2834L189.533 72.2344L189.447 71.2838C189.421 70.9939 189.192 70.7612 188.903 70.7292L188.198 70.6511L188.903 70.573C189.192 70.541 189.421 70.3083 189.447 70.0189C189.447 70.0184 189.447 70.0184 189.447 70.0184L189.533 69.0678L189.619 70.0184C189.644 70.3083 189.873 70.541 190.161 70.573L190.867 70.6511L190.161 70.7297ZM208.448 91.6559L206.645 91.4565C206.472 91.4379 206.334 91.2971 206.318 91.1231L206.111 88.824C206.106 88.761 206.053 88.713 205.99 88.713C205.927 88.713 205.874 88.761 205.869 88.824L205.662 91.1235C205.646 91.2971 205.508 91.4379 205.335 91.4565L203.532 91.6559C203.471 91.663 203.424 91.7149 203.424 91.7771C203.424 91.8392 203.471 91.8912 203.532 91.8983L205.335 92.0976C205.508 92.1163 205.646 92.257 205.662 92.4311L205.869 94.7301C205.874 94.7932 205.927 94.8411 205.99 94.8411C206.053 94.8411 206.106 94.7932 206.111 94.7301L206.318 92.4306C206.334 92.257 206.472 92.1163 206.645 92.0976L208.448 91.8983C208.51 91.8912 208.556 91.8392 208.556 91.7771C208.556 91.7149 208.51 91.663 208.448 91.6559ZM206.619 91.8552C206.33 91.8867 206.102 92.1198 206.076 92.4089L205.99 93.3599L205.904 92.4093C205.878 92.1198 205.649 91.8867 205.361 91.8548L204.655 91.7766L205.361 91.6985C205.649 91.6665 205.878 91.4339 205.904 91.1444C205.904 91.1439 205.904 91.1439 205.904 91.1439L205.99 90.1933L206.076 91.1439C206.102 91.4334 206.33 91.6665 206.619 91.6985L207.324 91.7766L206.619 91.8552ZM184.804 48.8694L181.995 48.5594C181.724 48.5293 181.509 48.3108 181.486 48.04L181.162 44.456C181.153 44.3579 181.071 44.2833 180.973 44.2833C180.875 44.2833 180.792 44.3579 180.783 44.456L180.46 48.04C180.436 48.3112 180.221 48.5297 179.951 48.5594L177.142 48.8694C177.046 48.88 176.973 48.9617 176.973 49.058C176.973 49.1548 177.046 49.2365 177.142 49.2472L179.951 49.558C180.221 49.5882 180.435 49.8066 180.46 50.0775L180.783 53.6614C180.792 53.7596 180.874 53.8342 180.973 53.8342C181.071 53.8342 181.153 53.7596 181.162 53.6614L181.486 50.0775C181.509 49.8062 181.724 49.5882 181.995 49.558L184.804 49.2472C184.9 49.2365 184.973 49.1548 184.973 49.058C184.973 48.9613 184.9 48.88 184.804 48.8694ZM181.953 49.1797C181.503 49.2294 181.148 49.5926 181.107 50.0428L180.974 51.5276L180.84 50.0428C180.799 49.5926 180.443 49.2299 179.994 49.1797L178.895 49.058L179.994 48.9368C180.443 48.8871 180.799 48.5239 180.84 48.0737L180.974 46.589L181.107 48.0737C181.148 48.5244 181.504 48.8876 181.953 48.9368L183.053 49.058L181.953 49.1797ZM174.149 60.5341L171.878 60.2828C171.659 60.2588 171.486 60.0817 171.466 59.8624L171.205 56.9648C171.198 56.8853 171.131 56.8249 171.051 56.8249C170.972 56.8249 170.905 56.8853 170.899 56.9648L170.637 59.8628C170.617 60.0817 170.444 60.2588 170.225 60.2828L167.954 60.5341C167.876 60.543 167.817 60.6087 167.817 60.6869C167.817 60.7654 167.876 60.8307 167.954 60.8396L170.225 61.0909C170.444 61.1144 170.618 61.2916 170.637 61.5114L170.899 64.4089C170.905 64.4884 170.972 64.5488 171.051 64.5488C171.131 64.5488 171.198 64.4884 171.205 64.4089L171.466 61.5109C171.486 61.292 171.659 61.1149 171.878 61.0909L174.149 60.8396C174.227 60.8307 174.286 60.765 174.286 60.6869C174.286 60.6087 174.227 60.543 174.149 60.5341ZM171.844 60.7854C171.48 60.8254 171.192 61.1189 171.16 61.4834L171.051 62.6835L170.943 61.4838C170.911 61.1189 170.623 60.8254 170.259 60.785L169.37 60.6869L170.259 60.5887C170.623 60.5488 170.911 60.2553 170.943 59.8908L171.051 58.6906L171.16 59.8903C171.193 60.2557 171.48 60.5488 171.844 60.5892L172.733 60.6873L171.844 60.7854ZM193.767 102.166L191.045 101.865C190.782 101.837 190.575 101.625 190.551 101.361L190.238 97.8896C190.23 97.7942 190.15 97.7218 190.055 97.7218C189.96 97.7218 189.88 97.7942 189.872 97.8896L189.559 101.362C189.534 101.625 189.327 101.837 189.065 101.865L186.344 102.166C186.251 102.177 186.18 102.255 186.18 102.35C186.18 102.444 186.251 102.522 186.344 102.533L189.065 102.834C189.327 102.862 189.535 103.075 189.559 103.337L189.872 106.81C189.88 106.905 189.96 106.977 190.055 106.977C190.15 106.977 190.23 106.905 190.238 106.81L190.551 103.337C190.575 103.075 190.782 102.862 191.045 102.834L193.767 102.533C193.86 102.522 193.93 102.444 193.93 102.35C193.93 102.255 193.86 102.177 193.767 102.166ZM191.004 102.467C190.568 102.515 190.223 102.867 190.184 103.304L190.054 104.742L189.924 103.304C189.885 102.867 189.54 102.515 189.105 102.467L188.039 102.35L189.105 102.232C189.54 102.184 189.885 101.832 189.924 101.395V101.395L190.054 99.9569L190.184 101.395C190.223 101.832 190.568 102.184 191.004 102.232L192.069 102.35L191.004 102.467ZM205.729 25.3751L202.157 24.9799C201.812 24.9426 201.54 24.6638 201.509 24.3188L201.097 19.762C201.087 19.6368 200.982 19.5418 200.857 19.5418C200.732 19.5418 200.627 19.6368 200.616 19.762L200.205 24.3197C200.173 24.6638 199.901 24.9426 199.557 24.9799L195.985 25.3751C195.863 25.3893 195.771 25.4923 195.771 25.6157C195.771 25.7392 195.863 25.8422 195.985 25.8564L199.557 26.2515C199.902 26.2888 200.174 26.5677 200.205 26.9127L200.616 31.4694C200.627 31.5946 200.732 31.6897 200.857 31.6897C200.982 31.6897 201.087 31.5946 201.097 31.4694L201.509 26.9118C201.54 26.5677 201.812 26.2888 202.157 26.2515L205.729 25.8564C205.852 25.8422 205.944 25.7392 205.944 25.6157C205.944 25.4919 205.852 25.3889 205.729 25.3751ZM202.103 25.7698C201.532 25.8329 201.079 26.2942 201.027 26.8678L200.857 28.7557L200.686 26.8687C200.635 26.2946 200.182 25.8329 199.61 25.7698L198.211 25.6153L199.61 25.4608C200.182 25.3977 200.635 24.9364 200.686 24.3628V24.3619L200.857 22.4749L201.027 24.3619C201.079 24.9364 201.531 25.3977 202.103 25.4608L203.502 25.6153L202.103 25.7698Z" fill="#F0F0F0"/>
<path d="M242.021 33.1241C241.621 25.7745 237.837 18.9536 231.728 13.1753C224.263 6.11425 213.306 2.38315 203.288 4.67288C193.271 6.96261 184.897 14.7784 181.115 24.3331C177.387 33.7564 178.673 46.4749 185.748 54.818C185.748 54.818 179.939 66.3285 182.411 67.7329C183.447 68.7527 191.334 63.5909 193.932 61.0329L193.86 60.9619C202.407 66.4381 214.197 69.3699 226.635 62.432C235.925 57.2497 242.75 46.5172 242.021 33.1241Z" fill="#E0E0E0"/>
<path d="M218.846 15.0519C218.846 15.0519 215.499 39.7222 212.992 41.1998C210.485 42.6767 205.172 41.3033 204.858 40.5418C204.545 39.7803 203.391 13.0726 204.354 13.0054C217.886 12.0619 218.846 15.0519 218.846 15.0519Z" fill="#1FD18E"/>
<path d="M202.592 48.5073C201.174 51.9083 202.782 55.8146 206.183 57.2326C209.584 58.6506 213.491 57.0422 214.908 53.6412C216.326 50.2403 214.718 46.3332 211.317 44.916C207.916 43.4988 204.01 45.1063 202.592 48.5073Z" fill="#1FD18E"/>
</svg>
