<svg width="169" height="168" viewBox="0 0 169 168" fill="none" xmlns="http://www.w3.org/2000/svg">
<path d="M34.6304 91.3054C5.43638 108.161 5.43705 135.489 34.6321 152.344C63.8271 169.199 111.161 169.199 140.355 152.344C169.549 135.488 169.548 108.16 140.353 91.3054C111.158 74.4503 63.8245 74.4503 34.6304 91.3054Z" fill="#F5F5F5"/>
<path d="M64.3086 98.2139L24.1304 121.477C22.7713 122.264 22.7716 123.539 24.1317 124.325L70.1889 150.941C71.5487 151.727 73.7529 151.726 75.112 150.939L115.289 127.668C116.648 126.881 116.648 125.606 115.288 124.82L69.2317 98.2116C67.8719 97.426 65.6677 97.427 64.3086 98.2139Z" fill="#E0E0E0"/>
<path d="M150.91 138.64L122.972 122.469L97.748 137.06L125.686 153.229L150.91 138.64Z" fill="#E0E0E0"/>
<path d="M85.9858 80.7643L78.4826 76.4134C77.2848 75.7128 75.7633 75.9228 74.8 76.9218L65.4025 86.6688C63.5561 88.5837 63.9949 91.7226 66.2952 93.0578L108.317 117.453C109.658 118.125 110.438 119.144 110.507 120.318C110.572 121.481 109.893 122.623 108.646 123.443L85.9156 136.546C84.792 137.283 83.2854 137.702 81.7609 137.785C80.2436 137.876 78.7188 137.626 77.523 137.03L36.7306 113.536C34.5775 112.297 34.0318 109.435 35.5744 107.495L44.7902 95.895C45.7196 94.7251 47.3673 94.4153 48.6582 95.1676L55.8809 99.3333" stroke="#263238" stroke-width="1.344" stroke-miterlimit="10" stroke-linecap="round"/>
<path d="M72.5051 134.973C70.061 138.147 66.0801 139.047 65.1846 138.628C64.4646 138.295 64.0369 137.435 64.5859 136.922C64.8379 136.688 65.2747 136.445 65.6843 136.103C66.8814 135.109 67.2776 133.376 67.3902 132.025L72.5051 134.973Z" fill="#1FD18E"/>
<path opacity="0.2" d="M72.5051 134.973C70.061 138.147 66.0801 139.047 65.1846 138.628C64.4646 138.295 64.0369 137.435 64.5859 136.922C64.8379 136.688 65.2747 136.445 65.6843 136.103C66.8814 135.109 67.2776 133.376 67.3902 132.025L72.5051 134.973Z" fill="black"/>
<path d="M69.9247 139.836C69.9412 137.28 68.1667 134.161 65.9616 132.869C64.8044 132.191 63.7628 132.158 63.028 132.643L60.3154 134.169L66.0005 143.971L68.6892 142.447L68.6855 142.44C69.4398 142.038 69.9163 141.14 69.9247 139.836Z" fill="#37474F"/>
<path d="M63.1459 134.467C65.3511 135.759 67.1251 138.877 67.1087 141.433C67.0926 143.988 65.2919 145.013 63.0868 143.721C60.8816 142.429 59.1075 139.31 59.1236 136.755C59.1401 134.2 60.9411 133.175 63.1459 134.467Z" fill="#455A64"/>
<path d="M63.1315 136.762C64.2437 137.414 65.1384 138.987 65.13 140.276C65.122 141.564 64.2138 142.081 63.1016 141.429C61.9895 140.778 61.0947 139.205 61.1031 137.916C61.1115 136.627 62.0197 136.111 63.1315 136.762Z" fill="#263238"/>
<path d="M65.5011 130.941C65.5011 130.941 65.7639 135.659 63.6027 137.46C63.1955 137.8 62.756 138.044 62.5027 138.28C61.9543 138.792 62.3851 139.651 63.1055 139.986C64.1528 140.473 69.5211 139.093 71.613 134.46L65.5011 130.941Z" fill="#1FD18E"/>
<path d="M63.211 138.588C63.4382 138.702 63.6334 139 63.6478 139.255C63.6619 139.508 63.4899 139.621 63.2628 139.507C63.036 139.392 62.8404 139.094 62.826 138.84C62.8122 138.586 62.9842 138.473 63.211 138.588Z" fill="#FAFAFA"/>
<path d="M47.2448 120.424C44.8008 123.597 40.8145 124.507 39.919 124.088C39.199 123.755 38.7712 122.896 39.3203 122.383C39.5723 122.148 40.0091 121.905 40.4187 121.563C41.6158 120.569 42.013 118.827 42.1255 117.477L47.2448 120.424Z" fill="#1FD18E"/>
<path opacity="0.2" d="M47.2448 120.424C44.8008 123.597 40.8145 124.507 39.919 124.088C39.199 123.755 38.7712 122.896 39.3203 122.383C39.5723 122.148 40.0091 121.905 40.4187 121.563C41.6158 120.569 42.013 118.827 42.1255 117.477L47.2448 120.424Z" fill="black"/>
<path d="M44.6596 125.296C44.676 122.741 42.9016 119.622 40.6964 118.33C39.5393 117.652 38.4977 117.619 37.7628 118.104L35.0503 119.629L40.7354 129.432L43.4241 127.908L43.4204 127.901C44.1747 127.499 44.6512 126.6 44.6596 125.296Z" fill="#37474F"/>
<path d="M37.8809 119.928C40.0858 121.22 41.8602 124.339 41.8437 126.894C41.8276 129.449 40.027 130.474 37.8218 129.182C35.617 127.89 33.8425 124.772 33.859 122.216C33.8751 119.66 35.6761 118.636 37.8809 119.928Z" fill="#455A64"/>
<path d="M37.8659 122.221C38.9781 122.873 39.8728 124.446 39.8644 125.734C39.8564 127.023 38.9482 127.54 37.836 126.888C36.7238 126.237 35.8291 124.664 35.8375 123.375C35.8459 122.086 36.7537 121.57 37.8659 122.221Z" fill="#263238"/>
<path d="M40.2215 116.381C40.2215 116.381 40.4997 121.119 38.3386 122.92C37.9314 123.26 37.4922 123.504 37.2385 123.741C36.6902 124.252 37.1209 125.111 37.8413 125.446C38.8886 125.933 44.2569 124.542 46.3488 119.909L40.2215 116.381Z" fill="#1FD18E"/>
<path d="M37.9466 124.047C38.1737 124.161 38.369 124.46 38.3834 124.713C38.3978 124.967 38.2255 125.08 37.9987 124.965C37.7719 124.851 37.5763 124.552 37.5619 124.299C37.5474 124.045 37.7198 123.932 37.9466 124.047Z" fill="#FAFAFA"/>
<path d="M105.099 116.421C102.65 119.585 98.668 120.498 97.7725 120.079C97.0525 119.746 96.6248 118.886 97.1738 118.373C97.4258 118.139 97.8626 117.896 98.2718 117.554C99.469 116.56 99.8692 114.797 99.9817 113.447L105.099 116.421Z" fill="#1FD18E"/>
<path opacity="0.2" d="M105.099 116.421C102.65 119.585 98.668 120.498 97.7725 120.079C97.0525 119.746 96.6248 118.886 97.1738 118.373C97.4258 118.139 97.8626 117.896 98.2718 117.554C99.469 116.56 99.8692 114.797 99.9817 113.447L105.099 116.421Z" fill="black"/>
<path d="M102.51 121.287C102.527 118.731 100.752 115.612 98.547 114.32C97.3898 113.642 96.3482 113.609 95.6134 114.094L92.9009 115.62L98.586 125.423L101.274 123.898L101.271 123.892C102.025 123.489 102.502 122.591 102.51 121.287Z" fill="#37474F"/>
<path d="M95.7315 115.918C97.9367 117.21 99.7108 120.329 99.6943 122.884C99.6782 125.44 97.8775 126.464 95.6724 125.172C93.4672 123.88 91.6931 120.762 91.7096 118.206C91.7261 115.651 93.5267 114.626 95.7315 115.918Z" fill="#455A64"/>
<path d="M95.7175 118.213C96.8296 118.865 97.7244 120.438 97.716 121.727C97.7079 123.016 96.7997 123.532 95.6876 122.881C94.5754 122.229 93.6806 120.656 93.689 119.367C93.6971 118.078 94.6053 117.562 95.7175 118.213Z" fill="#263238"/>
<path d="M98.0931 112.352C98.0931 112.352 98.3508 117.112 96.1897 118.913C95.7824 119.253 95.3433 119.497 95.0896 119.733C94.5413 120.245 94.972 121.104 95.6921 121.439C96.7394 121.926 102.116 120.536 104.208 115.903L98.0931 112.352Z" fill="#1FD18E"/>
<path d="M95.7982 120.041C96.025 120.155 96.2205 120.454 96.235 120.707C96.2494 120.961 96.077 121.074 95.8502 120.959C95.6231 120.845 95.4276 120.546 95.4134 120.293C95.399 120.039 95.571 119.926 95.7982 120.041Z" fill="#FAFAFA"/>
<path d="M80.0353 101.87C77.5912 105.044 73.6069 105.941 72.7115 105.523C71.9915 105.19 71.5637 104.33 72.1127 103.817C72.3647 103.583 72.8015 103.34 73.2111 102.998C74.4083 102.003 74.8044 100.27 74.917 98.9199L80.0353 101.87Z" fill="#1FD18E"/>
<path opacity="0.2" d="M80.0353 101.87C77.5912 105.044 73.6069 105.941 72.7115 105.523C71.9915 105.19 71.5637 104.33 72.1127 103.817C72.3647 103.583 72.8015 103.34 73.2111 102.998C74.4083 102.003 74.8044 100.27 74.917 98.9199L80.0353 101.87Z" fill="black"/>
<path d="M77.452 106.73C77.4685 104.174 75.6941 101.055 73.4889 99.7638C72.3314 99.0857 71.2901 99.0524 70.5553 99.5373L67.8428 101.063L73.5279 110.866L76.2166 109.342L76.2129 109.335C76.9672 108.932 77.444 108.034 77.452 106.73Z" fill="#37474F"/>
<path d="M70.6732 101.362C72.8781 102.653 74.6525 105.772 74.636 108.328C74.6199 110.883 72.8193 111.908 70.6141 110.616C68.4093 109.324 66.6349 106.205 66.651 103.65C66.6678 101.094 68.4684 100.07 70.6732 101.362Z" fill="#455A64"/>
<path d="M70.6589 103.655C71.771 104.306 72.6658 105.88 72.6574 107.168C72.6493 108.457 71.7411 108.973 70.629 108.322C69.5168 107.67 68.622 106.098 68.6304 104.809C68.6385 103.52 69.5467 103.003 70.6589 103.655Z" fill="#263238"/>
<path d="M73.0143 97.793C73.0143 97.793 73.2932 102.549 71.132 104.351C70.7248 104.69 70.2857 104.934 70.032 105.171C69.4836 105.682 69.9144 106.541 70.6348 106.877C71.6821 107.364 77.0504 105.983 79.1423 101.351L73.0143 97.793Z" fill="#1FD18E"/>
<path d="M70.7391 105.48C70.9659 105.595 71.1614 105.893 71.1759 106.147C71.1903 106.401 71.018 106.514 70.7912 106.399C70.5644 106.284 70.3685 105.986 70.3544 105.732C70.3399 105.479 70.5119 105.366 70.7391 105.48Z" fill="#FAFAFA"/>
<path d="M67.5563 68.3056L66.2613 69.0532L63.6641 22.2088C63.0337 19.6636 60.5836 16.399 58.3062 15.0906L57.0751 14.377C56.4508 14.0144 55.3507 14.0144 54.7261 14.377L50.9764 16.5284C50.6195 16.7364 50.1676 16.6117 49.9596 16.2549C49.7574 15.9041 49.8763 15.4461 50.2331 15.2442L53.9829 13.0867C55.0594 12.4685 56.7421 12.4685 57.8126 13.0867L59.0494 13.8004C61.6659 15.311 64.3834 18.9204 65.1089 21.852L67.5563 68.3056Z" fill="#455A64"/>
<path d="M23.0775 34.869L20.6606 30.6828L50.772 13.2894L50.7716 13.2887C51.0851 13.0401 51.5589 13.0461 52.083 13.3492C53.0272 13.8945 53.7923 15.2194 53.7923 16.3094C53.7926 16.9152 53.5611 17.3285 53.1891 17.4753H53.1888L23.0775 34.869Z" fill="#1FD18E"/>
<path opacity="0.25" d="M23.0775 34.869L20.6606 30.6828L50.772 13.2894L50.7716 13.2887C51.0851 13.0401 51.5589 13.0461 52.083 13.3492C53.0272 13.8945 53.7923 15.2194 53.7923 16.3094C53.7926 16.9152 53.5611 17.3285 53.1891 17.4753H53.1888L23.0775 34.869Z" fill="black"/>
<path d="M20.6603 30.6836C21.2961 30.3167 22.3521 30.9564 23.0194 32.1122C23.6867 33.2681 23.7126 34.5029 23.0772 34.8698C22.4415 35.2367 21.3854 34.597 20.7178 33.4411C20.0508 32.2853 20.025 31.0505 20.6603 30.6836Z" fill="#1FD18E"/>
<path d="M35.2442 86.9618L34.0373 87.6587L25.1155 44.7337C24.4851 42.1885 22.0293 38.9299 19.7576 37.6216L18.5205 36.9018C17.8784 36.5332 17.5098 35.9741 17.5098 35.3677C17.5098 34.7612 17.8784 34.2021 18.5205 33.8335L21.1994 32.3054C21.3956 32.1925 21.7225 32.3884 21.9248 32.7455C22.1328 33.1024 22.1388 33.4827 21.9426 33.5959H21.9369L19.264 35.1241C19.05 35.243 19.0023 35.3499 18.9966 35.3677C19.0026 35.3915 19.0503 35.4923 19.264 35.6176L20.5008 36.3313C23.1173 37.8416 25.8291 41.4513 26.5542 44.3768L35.2442 86.9618Z" fill="#455A64"/>
<path d="M34.0371 87.6566L67.5561 68.3047L116.545 96.5888L83.0262 115.941L34.0371 87.6566Z" fill="#E0E0E0"/>
<g opacity="0.2">
<path d="M34.0371 87.6566L67.5561 68.3047L116.545 96.5888L83.0262 115.941L34.0371 87.6566Z" fill="black"/>
</g>
<path d="M67.5558 68.4756C67.4671 68.4756 67.3932 68.4064 67.3882 68.317L64.7986 21.8476C64.7933 21.7548 64.8641 21.6755 64.9572 21.6705C65.0483 21.6628 65.1293 21.7363 65.134 21.8287L67.7235 68.2982C67.7289 68.3909 67.658 68.4702 67.5649 68.4753C67.5622 68.4756 67.5589 68.4756 67.5558 68.4756Z" fill="#E0E0E0"/>
<path d="M73.6799 72.0108C73.5881 72.0108 73.5132 71.9369 73.5119 71.8448L72.9497 27.3087C72.9484 27.216 73.023 27.1397 73.1157 27.1387C73.1164 27.1387 73.1171 27.1387 73.1177 27.1387C73.2095 27.1387 73.2844 27.2126 73.2857 27.3047L73.8479 71.8408C73.8492 71.9335 73.7746 72.0098 73.6819 72.0108C73.6812 72.0108 73.6805 72.0108 73.6799 72.0108Z" fill="#E0E0E0"/>
<path d="M79.8033 75.5459C79.802 75.5459 79.8003 75.5459 79.7989 75.5459C79.7062 75.5435 79.633 75.4663 79.6353 75.3735L80.7471 32.6578C80.7498 32.5654 80.8281 32.4915 80.9195 32.4942C81.0122 32.4966 81.0855 32.5738 81.0831 32.6666L79.9713 75.3823C79.9693 75.4737 79.8944 75.5459 79.8033 75.5459Z" fill="#E0E0E0"/>
<path d="M85.9266 79.0814C85.924 79.0814 85.9213 79.0814 85.9186 79.081C85.8262 79.0763 85.7546 78.9977 85.759 78.905L87.7867 37.5078C87.7914 37.4154 87.8734 37.3408 87.9625 37.3482C88.0549 37.3529 88.1264 37.4315 88.1221 37.5242L86.0943 78.9214C86.0899 79.0115 86.016 79.0814 85.9266 79.0814Z" fill="#E0E0E0"/>
<path d="M92.0513 82.6175C92.0469 82.6175 92.0429 82.6175 92.0385 82.6172C91.9461 82.6101 91.8765 82.5295 91.8833 82.4371L94.875 42.3822C94.8821 42.2894 94.9603 42.2209 95.0551 42.2269C95.1475 42.234 95.2171 42.3143 95.2103 42.407L92.2186 82.4619C92.2115 82.5503 92.1379 82.6175 92.0513 82.6175Z" fill="#E0E0E0"/>
<path d="M98.1747 86.1547C98.169 86.1547 98.1626 86.1543 98.1565 86.1536C98.0645 86.1439 97.9973 86.0612 98.0073 85.9688L102.098 47.301C102.108 47.2086 102.192 47.1397 102.283 47.1518C102.375 47.1615 102.442 47.2442 102.432 47.3366L98.3413 86.0045C98.3323 86.0905 98.2593 86.1547 98.1747 86.1547Z" fill="#E0E0E0"/>
<path d="M104.298 89.6877C104.29 89.6877 104.281 89.687 104.273 89.6856C104.181 89.6719 104.118 89.5865 104.132 89.4948L109.687 52.4847C109.7 52.3927 109.785 52.3302 109.877 52.3436C109.969 52.3574 110.032 52.4431 110.018 52.5348L104.464 89.5452C104.451 89.6279 104.38 89.6877 104.298 89.6877Z" fill="#E0E0E0"/>
<path d="M110.422 93.2242C110.411 93.2242 110.401 93.2232 110.391 93.2212C110.299 93.2044 110.239 93.1167 110.256 93.0253L116.891 57.4318C116.908 57.3404 116.997 57.2819 117.086 57.2974C117.178 57.3145 117.238 57.4022 117.221 57.4933L110.587 93.0868C110.572 93.1677 110.501 93.2242 110.422 93.2242Z" fill="#E0E0E0"/>
<path d="M116.545 96.76C116.533 96.76 116.521 96.7586 116.508 96.7556C116.418 96.7351 116.361 96.6454 116.382 96.5547L124.116 62.3166C124.136 62.2265 124.225 62.1688 124.317 62.1899C124.408 62.2104 124.465 62.3005 124.444 62.3909L116.709 96.6289C116.692 96.7072 116.622 96.76 116.545 96.76Z" fill="#E0E0E0"/>
<path d="M34.0364 87.8285C33.9584 87.8285 33.8886 87.7737 33.8721 87.6941L25.124 44.7308C25.1055 44.6401 25.1643 44.551 25.2554 44.5329C25.3448 44.5137 25.4348 44.5729 25.4536 44.6639L34.2017 87.6273C34.2202 87.7183 34.1614 87.8067 34.0703 87.8255C34.0592 87.8275 34.0478 87.8285 34.0364 87.8285Z" fill="#E0E0E0"/>
<path d="M42.4171 82.9895C42.3355 82.9895 42.2639 82.9297 42.2515 82.8463L35.6118 38.6654C35.598 38.5736 35.6608 38.4879 35.7529 38.4742C35.8426 38.4621 35.9303 38.5236 35.9437 38.6153L42.5834 82.7963C42.5972 82.888 42.5344 82.9733 42.4423 82.9871C42.4339 82.9888 42.4255 82.9895 42.4171 82.9895Z" fill="#E0E0E0"/>
<path d="M50.7962 78.1515C50.7118 78.1515 50.6393 78.088 50.6295 78.0023L45.5542 32.9151C45.5442 32.8231 45.6104 32.7397 45.7024 32.7293C45.7868 32.7206 45.8775 32.7851 45.8882 32.8775L50.9635 77.9647C50.9736 78.0567 50.9074 78.14 50.8153 78.1505C50.8089 78.1511 50.8026 78.1515 50.7962 78.1515Z" fill="#E0E0E0"/>
<path d="M59.1764 73.3124C59.09 73.3124 59.0165 73.2463 59.0094 73.1586L55.1363 27.4444C55.1286 27.352 55.1972 27.2707 55.2896 27.263C55.3742 27.2512 55.4633 27.3235 55.471 27.4162L59.3437 73.1303C59.3515 73.2227 59.2829 73.304 59.1905 73.3118C59.1861 73.3124 59.1811 73.3124 59.1764 73.3124Z" fill="#E0E0E0"/>
<path d="M67.5558 68.4756C67.4671 68.4756 67.3932 68.4064 67.3882 68.317L64.7986 21.8476C64.7933 21.7548 64.8641 21.6755 64.9572 21.6705C65.0483 21.6628 65.1293 21.7363 65.134 21.8287L67.7235 68.2982C67.7289 68.3909 67.658 68.4702 67.5649 68.4753C67.5622 68.4756 67.5589 68.4756 67.5558 68.4756Z" fill="#E0E0E0"/>
<path d="M116.546 96.7587C116.517 96.7587 116.488 96.7513 116.462 96.7362L67.5567 68.5008L34.1214 87.8043C34.0407 87.8507 33.9376 87.8235 33.8919 87.7428C33.8452 87.6625 33.8727 87.5597 33.9534 87.5134L67.4727 68.1611C67.5245 68.1312 67.589 68.1312 67.6407 68.1611L116.63 96.4452C116.71 96.4916 116.738 96.5941 116.691 96.6747C116.66 96.7285 116.604 96.7587 116.546 96.7587Z" fill="#E0E0E0"/>
<path d="M118.48 88.1992C118.45 88.1992 118.419 88.1912 118.391 88.1737L66.8024 55.9136L31.9048 76.6307C31.8241 76.6784 31.7213 76.6512 31.6746 76.5719C31.6269 76.492 31.6534 76.3892 31.7334 76.3414L66.7191 55.5723C66.7728 55.5404 66.8404 55.541 66.8938 55.5743L118.569 87.8888C118.648 87.9378 118.672 88.0416 118.623 88.1199C118.591 88.1713 118.536 88.1992 118.48 88.1992Z" fill="#E0E0E0"/>
<path d="M120.413 79.6393C120.383 79.6393 120.352 79.6309 120.324 79.6135L66.2573 45.5293L29.7462 66.0162C29.6646 66.0616 29.5624 66.033 29.5171 65.952C29.4717 65.8711 29.5006 65.7689 29.5813 65.7232L66.1797 45.1876C66.2335 45.1573 66.2997 45.159 66.3517 45.1919L120.503 79.3295C120.581 79.3789 120.605 79.4828 120.555 79.561C120.524 79.6118 120.469 79.6393 120.413 79.6393Z" fill="#E0E0E0"/>
<path d="M122.347 71.0799C122.316 71.0799 122.284 71.0712 122.255 71.0524L65.6609 33.9597L27.5467 55.1569C27.4661 55.2016 27.3633 55.173 27.3183 55.0917C27.2729 55.0104 27.3021 54.9082 27.3831 54.8632L65.586 33.6169C65.6407 33.5867 65.7076 33.5887 65.76 33.6233L122.439 70.7718C122.516 70.8225 122.538 70.9267 122.488 71.0043C122.456 71.053 122.402 71.0799 122.347 71.0799Z" fill="#E0E0E0"/>
<path d="M124.281 62.5195C124.248 62.5195 124.215 62.5101 124.186 62.4903L64.9604 22.0342L25.3739 44.8402C25.2929 44.8865 25.1908 44.8587 25.1441 44.7784C25.0977 44.6981 25.1253 44.5952 25.2059 44.5489L64.8838 21.6905C64.9403 21.6579 65.0095 21.6612 65.0626 21.6972L124.376 62.2124C124.452 62.2648 124.472 62.3693 124.42 62.4459C124.387 62.4936 124.335 62.5195 124.281 62.5195Z" fill="#E0E0E0"/>
<g opacity="0.2">
<path d="M67.5558 68.4737C67.4671 68.4737 67.3932 68.4044 67.3882 68.3151L64.7986 21.8456C64.7933 21.7529 64.8641 21.6736 64.9572 21.6685C65.0483 21.6608 65.1293 21.7344 65.134 21.8268L67.7235 68.2963C67.7289 68.389 67.658 68.4683 67.5649 68.4733C67.5622 68.4737 67.5589 68.4737 67.5558 68.4737Z" fill="black"/>
<path d="M73.6799 72.0088C73.5881 72.0088 73.5132 71.9349 73.5119 71.8429L72.9497 27.3067C72.9484 27.214 73.023 27.1377 73.1157 27.1367C73.1164 27.1367 73.1171 27.1367 73.1177 27.1367C73.2095 27.1367 73.2844 27.2106 73.2857 27.3027L73.8479 71.8388C73.8492 71.9316 73.7746 72.0078 73.6819 72.0088C73.6812 72.0088 73.6805 72.0088 73.6799 72.0088Z" fill="black"/>
<path d="M79.8033 75.5439C79.802 75.5439 79.8003 75.5439 79.7989 75.5439C79.7062 75.5416 79.633 75.4643 79.6353 75.3716L80.7471 32.6559C80.7498 32.5635 80.8281 32.4896 80.9195 32.4923C81.0122 32.4946 81.0855 32.5719 81.0831 32.6646L79.9713 75.3803C79.9693 75.4717 79.8944 75.5439 79.8033 75.5439Z" fill="black"/>
<path d="M85.9266 79.0794C85.924 79.0794 85.9213 79.0794 85.9186 79.0791C85.8262 79.0744 85.7546 78.9958 85.759 78.903L87.7867 37.5058C87.7914 37.4134 87.8734 37.3388 87.9625 37.3462C88.0549 37.3509 88.1264 37.4295 88.1221 37.5223L86.0943 78.9195C86.0899 79.0095 86.016 79.0794 85.9266 79.0794Z" fill="black"/>
<path d="M92.0513 82.6155C92.0469 82.6155 92.0429 82.6155 92.0385 82.6152C91.9461 82.6082 91.8765 82.5275 91.8833 82.4351L94.875 42.3802C94.8821 42.2875 94.9603 42.2189 95.0551 42.225C95.1475 42.232 95.2171 42.3123 95.2103 42.4051L92.2186 82.46C92.2115 82.5483 92.1379 82.6155 92.0513 82.6155Z" fill="black"/>
<path d="M98.1747 86.1527C98.169 86.1527 98.1626 86.1524 98.1565 86.1517C98.0645 86.1419 97.9973 86.0593 98.0073 85.9669L102.098 47.299C102.108 47.2066 102.192 47.1377 102.283 47.1498C102.375 47.1596 102.442 47.2422 102.432 47.3346L98.3413 86.0025C98.3323 86.0885 98.2593 86.1527 98.1747 86.1527Z" fill="black"/>
<path d="M104.298 89.6857C104.29 89.6857 104.281 89.685 104.273 89.6837C104.181 89.6699 104.118 89.5846 104.132 89.4928L109.687 52.4828C109.7 52.3907 109.785 52.3282 109.877 52.3417C109.969 52.3554 110.032 52.4411 110.018 52.5328L104.464 89.5432C104.451 89.6259 104.38 89.6857 104.298 89.6857Z" fill="black"/>
<path d="M110.422 93.2222C110.411 93.2222 110.401 93.2212 110.391 93.2192C110.299 93.2024 110.239 93.1147 110.256 93.0233L116.891 57.4298C116.908 57.3385 116.997 57.28 117.086 57.2954C117.178 57.3126 117.238 57.4003 117.221 57.4913L110.587 93.0848C110.572 93.1658 110.501 93.2222 110.422 93.2222Z" fill="black"/>
<path d="M116.545 96.758C116.533 96.758 116.521 96.7567 116.508 96.7536C116.418 96.7331 116.361 96.6434 116.382 96.5527L124.116 62.3146C124.136 62.2246 124.225 62.1668 124.317 62.188C124.408 62.2085 124.465 62.2985 124.444 62.3889L116.709 96.627C116.692 96.7053 116.622 96.758 116.545 96.758Z" fill="black"/>
<path d="M34.0364 87.8266C33.9584 87.8266 33.8886 87.7718 33.8721 87.6922L25.124 44.7288C25.1055 44.6381 25.1643 44.5491 25.2554 44.5309C25.3448 44.5118 25.4348 44.5709 25.4536 44.662L34.2017 87.6253C34.2202 87.7164 34.1614 87.8047 34.0703 87.8235C34.0592 87.8256 34.0478 87.8266 34.0364 87.8266Z" fill="black"/>
<path d="M42.4171 82.9875C42.3355 82.9875 42.2639 82.9277 42.2515 82.8444L35.6118 38.6634C35.598 38.5717 35.6608 38.486 35.7529 38.4722C35.8426 38.4601 35.9303 38.5216 35.9437 38.6133L42.5834 82.7943C42.5972 82.886 42.5344 82.9714 42.4423 82.9852C42.4339 82.9868 42.4255 82.9875 42.4171 82.9875Z" fill="black"/>
<path d="M50.7962 78.1495C50.7118 78.1495 50.6393 78.086 50.6295 78.0003L45.5542 32.9132C45.5442 32.8211 45.6104 32.7378 45.7024 32.7274C45.7868 32.7186 45.8775 32.7831 45.8882 32.8755L50.9635 77.9627C50.9736 78.0548 50.9074 78.1381 50.8153 78.1485C50.8089 78.1492 50.8026 78.1495 50.7962 78.1495Z" fill="black"/>
<path d="M59.1764 73.3105C59.09 73.3105 59.0165 73.2443 59.0094 73.1566L55.1363 27.4425C55.1286 27.3501 55.1972 27.2688 55.2896 27.261C55.3742 27.2493 55.4633 27.3215 55.471 27.4142L59.3437 73.1284C59.3515 73.2208 59.2829 73.3021 59.1905 73.3098C59.1861 73.3105 59.1811 73.3105 59.1764 73.3105Z" fill="black"/>
<path d="M67.5558 68.4737C67.4671 68.4737 67.3932 68.4044 67.3882 68.3151L64.7986 21.8456C64.7933 21.7529 64.8641 21.6736 64.9572 21.6685C65.0483 21.6608 65.1293 21.7344 65.134 21.8268L67.7235 68.2963C67.7289 68.389 67.658 68.4683 67.5649 68.4733C67.5622 68.4737 67.5589 68.4737 67.5558 68.4737Z" fill="black"/>
<path d="M116.545 96.7573C116.516 96.7573 116.487 96.75 116.461 96.7348L67.5558 68.4994L34.1204 87.8029C34.0397 87.8493 33.9366 87.8221 33.8909 87.7415C33.8442 87.6612 33.8717 87.5583 33.9524 87.512L67.5558 68.1113L67.6398 68.1597L116.629 96.4439C116.709 96.4902 116.737 96.5927 116.69 96.6733C116.659 96.7271 116.603 96.7573 116.545 96.7573Z" fill="black"/>
<path d="M118.48 88.1966C118.449 88.1966 118.418 88.1885 118.391 88.1711L66.8019 55.911L31.9043 76.6281C31.8236 76.6758 31.7208 76.6486 31.6741 76.5693C31.6264 76.4894 31.653 76.3865 31.7329 76.3388L66.8066 55.5176L66.8933 55.572L118.569 87.8865C118.647 87.9355 118.672 88.0394 118.622 88.1176C118.59 88.1687 118.535 88.1966 118.48 88.1966Z" fill="black"/>
<path d="M120.413 79.6375C120.382 79.6375 120.351 79.6291 120.323 79.6117L66.2568 45.5275L29.7457 66.0144C29.6641 66.0598 29.5619 66.0312 29.5166 65.9502C29.4712 65.8693 29.5001 65.7671 29.5808 65.7214L66.2666 45.1367L66.3513 45.1901L120.502 79.3277C120.581 79.3771 120.605 79.481 120.555 79.5592C120.523 79.61 120.468 79.6375 120.413 79.6375Z" fill="black"/>
<path d="M122.347 71.0788C122.315 71.0788 122.283 71.0701 122.255 71.0512L65.6604 33.9585L27.5462 55.1558C27.4656 55.2004 27.3628 55.1719 27.3178 55.0906C27.2724 55.0093 27.3016 54.9071 27.3826 54.8621L65.6745 33.5664L65.7595 33.6222L122.439 70.7707C122.516 70.8214 122.538 70.9256 122.487 71.0032C122.455 71.0519 122.401 71.0788 122.347 71.0788Z" fill="black"/>
<path d="M124.28 62.5185C124.247 62.5185 124.215 62.5091 124.186 62.4893L64.9599 22.0332L25.3734 44.8392C25.2924 44.8856 25.1903 44.8577 25.1436 44.7774C25.0972 44.6971 25.1248 44.5943 25.2054 44.5479L64.9747 21.6367L65.0621 21.6962L124.375 62.2114C124.451 62.2638 124.471 62.3683 124.419 62.4449C124.387 62.4926 124.334 62.5185 124.28 62.5185Z" fill="black"/>
</g>
<path opacity="0.15" d="M36.3198 87.2347L62.1784 72.2676L85.5237 85.7728L59.6654 100.737L36.3198 87.2347Z" fill="black"/>
<path opacity="0.15" d="M65.5889 98.286L92.1856 82.875L115.531 96.3798L88.9345 111.789L65.5889 98.286Z" fill="black"/>
<path d="M57.6197 34.6172L57.6006 63.6731L80.9039 77.094L80.923 48.0384L57.6197 34.6172Z" fill="#1FD18E"/>
<path opacity="0.1" d="M57.6197 34.6172L57.6006 63.6731L80.9039 77.094L80.923 48.0384L57.6197 34.6172Z" fill="black"/>
<path d="M91.9561 41.6689L68.6529 28.248L57.6196 34.6179L80.9229 48.0391L91.9561 41.6689Z" fill="#1FD18E"/>
<path opacity="0.3" d="M91.9561 41.6689L68.6529 28.248L57.6196 34.6179L80.9229 48.0391L91.9561 41.6689Z" fill="white"/>
<path d="M86.2505 41.9975C86.2865 42.0597 86.3046 42.1269 86.305 42.1978C86.3046 42.3812 86.1756 42.561 85.9508 42.6907L84.5383 43.5061C84.5376 43.5065 84.5363 43.5072 84.5356 43.5078L84.4311 43.5683L84.4022 43.489L83.1123 42.7569L84.6908 41.8456C85.0924 41.6138 85.6837 41.592 86.0369 41.7959C86.1333 41.8507 86.2059 41.9199 86.2505 41.9975ZM84.54 43.2683L85.848 42.5129C86.0076 42.4209 86.0997 42.3056 86.0997 42.1974C86.0993 42.0902 86.0093 42.0163 85.9347 41.9726C85.6484 41.808 85.126 41.8305 84.7933 42.0227L84.6777 42.0896L84.9143 42.4995L84.4072 42.9L84.54 43.2683ZM84.6482 42.4484L84.5 42.1921L83.5249 42.7552L84.2944 43.192L84.1636 42.8311L84.6482 42.4484Z" fill="#455A64"/>
<path d="M87.2602 41.147C87.2884 41.1961 87.2716 41.2589 87.2225 41.2871L86.0361 41.9722C85.9871 42.0005 85.9242 41.9837 85.896 41.9346C85.8678 41.8856 85.8846 41.8227 85.9336 41.7945L87.1201 41.1094C87.1691 41.0812 87.232 41.098 87.2602 41.147Z" fill="#455A64"/>
<path d="M87.8554 41.4911C87.8729 41.5216 87.8746 41.561 87.8554 41.5935C87.8268 41.6426 87.7647 41.6594 87.7156 41.6312L86.5245 40.9431C86.4751 40.9162 86.4576 40.8527 86.4869 40.8033C86.5154 40.7542 86.5779 40.7374 86.6266 40.7656L87.8181 41.4534C87.8342 41.4625 87.8467 41.4756 87.8554 41.4911Z" fill="#455A64"/>
<path d="M83.6905 38.9955C83.7106 39.0301 83.7211 39.0678 83.7214 39.1071C83.7217 39.1971 83.6663 39.2808 83.5692 39.3369L83.3259 39.4774C83.2769 39.5056 83.214 39.4888 83.1858 39.4397C83.1576 39.3907 83.1744 39.3282 83.2234 39.2996L83.4667 39.1592C83.5033 39.138 83.5164 39.1168 83.5164 39.1078C83.5161 39.0987 83.5027 39.0785 83.4677 39.0587C83.3763 39.0073 83.1499 39.0221 82.9708 39.1252L81.3926 40.0365C81.3435 40.0647 81.2807 40.0479 81.2525 39.9988C81.2242 39.9498 81.241 39.8869 81.2898 39.8587L82.868 38.9475C83.0991 38.8141 83.3998 38.7849 83.5675 38.8799C83.623 38.9109 83.6646 38.9505 83.6905 38.9955Z" fill="#455A64"/>
<path d="M82.8493 40.7278L82.6954 40.8168C81.9717 41.2348 80.7947 41.2351 80.0713 40.8172C79.7017 40.6031 79.4974 40.3128 79.498 40.0003C79.498 39.6872 79.7017 39.3972 80.0713 39.1839L80.1227 39.1543L82.8493 40.7278ZM79.7806 40.2755C79.8582 40.4099 79.9916 40.5339 80.1744 40.6394C80.7883 40.9939 81.7587 41.0218 82.4293 40.7221L80.1237 39.3912C79.8519 39.5619 79.703 39.7766 79.703 40C79.703 40.0944 79.7296 40.1872 79.7806 40.2755Z" fill="#455A64"/>
<path d="M80.0298 36.8561C80.058 36.9052 80.0413 36.968 79.9925 36.9962L76.9702 38.7411C76.9212 38.7693 76.8583 38.7525 76.8301 38.7034C76.8019 38.6544 76.8187 38.5916 76.8677 38.5633L79.89 36.8181C79.9384 36.7903 80.0013 36.8071 80.0298 36.8561Z" fill="#455A64"/>
<path d="M77.7581 38.5152C77.7651 38.5273 77.7695 38.54 77.7712 38.5548C77.7779 38.6113 77.7372 38.6617 77.6808 38.6684L76.7686 38.7739L76.9722 38.1862C76.9903 38.1325 77.0488 38.1046 77.1025 38.1227C77.1563 38.1422 77.1845 38.2 77.166 38.2531L77.0693 38.532L77.6579 38.4644C77.6993 38.4594 77.7386 38.4809 77.7581 38.5152Z" fill="#455A64"/>
<path d="M79.0866 36.3072C79.1149 36.3563 79.0981 36.4191 79.049 36.4473L76.0264 38.1925C75.9773 38.2208 75.9145 38.204 75.8863 38.1552C75.858 38.1062 75.8748 38.0433 75.9239 38.0151L78.9465 36.2699C78.9956 36.241 79.0584 36.2582 79.0866 36.3072Z" fill="#455A64"/>
<path d="M76.8146 37.9645C76.8216 37.9766 76.8256 37.9894 76.8273 38.0042C76.834 38.0609 76.7937 38.1113 76.7373 38.1177L75.8247 38.2232L76.0283 37.6356C76.0465 37.5818 76.1049 37.5536 76.1584 37.5721C76.2121 37.5916 76.2407 37.6493 76.2219 37.7024L76.1251 37.9817L76.7138 37.9138C76.7558 37.9091 76.7951 37.9302 76.8146 37.9645Z" fill="#455A64"/>
<path d="M91.957 41.6699L91.9375 70.7259L80.9043 77.0957L80.9235 48.0401L91.957 41.6699Z" fill="#1FD18E"/>
<path d="M82.9305 65.9208L82.9309 60.8203L80.9048 61.9899V67.0901L82.9305 65.9208Z" fill="#37474F"/>
<path d="M80.9037 61.9892L57.6001 48.5684V53.6688L80.9034 67.0897L80.9037 61.9892Z" fill="#263238"/>
<path d="M85.5269 71.0397L85.5285 64.8865C85.5282 64.7339 85.6367 64.5464 85.7688 64.4698L88.9762 62.6178C89.2403 62.4653 89.4564 62.5903 89.4564 62.895L89.4554 69.0489C89.4554 69.2014 89.3472 69.3889 89.2151 69.4652L86.007 71.3168C85.7432 71.4694 85.5269 71.3444 85.5269 71.0397Z" fill="#FAFAFA"/>
<path d="M86.0923 70.8654V70.6561L88.9238 69.0215V69.2308L86.0923 70.8654Z" fill="#455A64"/>
<path d="M86.0923 70.0128L86.095 69.6499L88.9264 68.0156L88.9234 68.3778L86.0923 70.0128Z" fill="#455A64"/>
<path d="M86.0933 69.1604L86.0936 68.951L88.9247 67.3164V67.5257L86.0933 69.1604Z" fill="#455A64"/>
<path d="M86.0884 68.5231L86.0934 68.1011L88.9249 66.4668L88.9195 66.8885L86.0884 68.5231Z" fill="#455A64"/>
<path d="M86.0923 67.4569V67.2476L88.9238 65.6133V65.8226L86.0923 67.4569Z" fill="#455A64"/>
<path d="M86.0874 66.8473L86.0931 66.3964L88.9242 64.7617L88.9185 65.2126L86.0874 66.8473Z" fill="#455A64"/>
<path d="M86.0913 65.7541V65.5445L88.9228 63.9102V64.1195L86.0913 65.7541Z" fill="#455A64"/>
<path d="M86.0884 65.2688V65.1639L88.9199 63.5293V63.6341L86.0884 65.2688Z" fill="#455A64"/>
<path d="M86.1064 66.1337V66.0288L88.9379 64.3945L88.9376 64.499L86.1064 66.1337Z" fill="#455A64"/>
<path d="M86.0962 67.8567V67.7518L88.9273 66.1172V66.2217L86.0962 67.8567Z" fill="#455A64"/>
<path d="M86.0977 68.7958V68.6913L88.9288 67.0566V67.1611L86.0977 68.7958Z" fill="#455A64"/>
<path d="M86.1108 69.4637V69.3589L88.9423 67.7246L88.942 67.8291L86.1108 69.4637Z" fill="#455A64"/>
<path d="M86.0894 70.3899V70.285L88.9208 68.6504L88.9205 68.7552L86.0894 70.3899Z" fill="#455A64"/>
<path d="M86.0926 64.9026L86.0923 64.6929L88.9241 63.0586L88.9238 63.2679L86.0926 64.9026Z" fill="#455A64"/>
<path d="M82.0779 70.8837L62.2687 59.4258L39.7759 72.4441L59.5851 83.902L82.0779 70.8837Z" fill="#1FD18E"/>
<path opacity="0.3" d="M82.0779 70.8837L62.2687 59.4258L39.7759 72.4441L59.5851 83.902L82.0779 70.8837Z" fill="white"/>
<g opacity="0.2">
<path d="M39.7759 72.444L58.1487 83.071L78.6165 71.225L60.244 60.5977L39.7759 72.444Z" fill="black"/>
</g>
<path d="M59.585 98.7812L82.0781 85.7625V70.8848L59.585 83.9031V98.7812Z" fill="#1FD18E"/>
<path d="M62.067 93.845C61.9977 93.845 61.9326 93.8282 61.8734 93.7939C61.7202 93.7049 61.6318 93.51 61.6318 93.259V91.6828C61.6318 91.6818 61.6318 91.6808 61.6318 91.6798V91.5632L61.7121 91.5777L62.9483 90.8516V92.6132C62.9483 93.0611 62.6808 93.5668 62.3395 93.7637C62.2467 93.8178 62.1536 93.845 62.067 93.845ZM61.8297 91.7994V93.2587C61.8297 93.4367 61.8822 93.5698 61.9725 93.6219C62.0622 93.6736 62.1674 93.6336 62.2403 93.5923C62.5165 93.432 62.75 92.9842 62.75 92.6132V92.4842H62.2924L62.202 91.8663L61.8297 91.7994ZM62.4638 92.2856H62.75V91.1973L62.0129 91.6304L62.3778 91.6956L62.4638 92.2856Z" fill="#455A64"/>
<path d="M62.291 95.1025C62.2362 95.1025 62.1919 95.0581 62.1919 95.0034V93.6792C62.1919 93.6244 62.2362 93.5801 62.291 93.5801C62.3458 93.5801 62.3898 93.6244 62.3898 93.6792V95.0034C62.3898 95.0581 62.3458 95.1025 62.291 95.1025Z" fill="#455A64"/>
<path d="M61.7158 95.4333C61.6819 95.4333 61.6483 95.4158 61.6301 95.3839C61.6026 95.3362 61.6187 95.2757 61.6664 95.2485L62.8176 94.5842C62.8639 94.556 62.9258 94.5721 62.953 94.6205C62.9805 94.6679 62.9644 94.7283 62.917 94.7556L61.7655 95.4202C61.7501 95.4289 61.733 95.4333 61.7158 95.4333Z" fill="#455A64"/>
<path d="M65.8165 93.154C65.7778 93.154 65.7409 93.1445 65.708 93.1261C65.6327 93.0827 65.5894 92.996 65.5894 92.8878V92.6163C65.5894 92.5616 65.6337 92.5172 65.6885 92.5172C65.7432 92.5172 65.7876 92.5616 65.7876 92.6163V92.8878C65.7876 92.9285 65.799 92.9497 65.8067 92.9544C65.8145 92.9584 65.8377 92.9567 65.8713 92.9372C65.9583 92.8855 66.0554 92.6889 66.0554 92.489V90.728C66.0554 90.6733 66.0997 90.6289 66.1545 90.6289C66.2093 90.6289 66.2536 90.6733 66.2536 90.728V92.489C66.2536 92.7471 66.1327 93.0132 65.9724 93.1076C65.9196 93.1382 65.8662 93.154 65.8165 93.154Z" fill="#455A64"/>
<path d="M64.7729 91.6128V91.4408C64.7729 90.6334 65.3415 89.6482 66.0403 89.2447C66.3982 89.0384 66.7399 89.0081 67.0013 89.1593C67.2637 89.3105 67.4075 89.6213 67.4075 90.0336V90.0911L64.7729 91.6128ZM66.6344 89.2632C66.4845 89.2632 66.3165 89.3149 66.1398 89.4171C65.5461 89.7594 65.0542 90.5578 64.9809 91.2641L67.2086 89.9775C67.1972 89.6677 67.0893 89.4392 66.9025 89.3314C66.8232 89.2853 66.7328 89.2632 66.6344 89.2632Z" fill="#455A64"/>
<path d="M69.3745 91.1257C69.3197 91.1257 69.2754 91.0813 69.2754 91.0266V87.6538C69.2754 87.599 69.3197 87.5547 69.3745 87.5547C69.4293 87.5547 69.4736 87.599 69.4736 87.6538V91.0266C69.4736 91.0813 69.4293 91.1257 69.3745 91.1257Z" fill="#455A64"/>
<path d="M69.0855 88.4223C69.0721 88.4223 69.0593 88.4196 69.0462 88.4139C68.9955 88.3921 68.9729 88.3339 68.9945 88.2835L69.3469 87.4688L69.7404 87.923C69.7767 87.9643 69.772 88.0268 69.7306 88.0625C69.6883 88.0984 69.6265 88.094 69.5905 88.0524L69.4037 87.8367L69.1759 88.3622C69.1604 88.3998 69.1238 88.4223 69.0855 88.4223Z" fill="#455A64"/>
<path d="M70.292 90.6045C70.2372 90.6045 70.1929 90.5599 70.1929 90.5054V87.1323C70.1929 87.0775 70.2372 87.0332 70.292 87.0332C70.3464 87.0332 70.3911 87.0775 70.3911 87.1323V90.5054C70.3914 90.5599 70.3468 90.6045 70.292 90.6045Z" fill="#455A64"/>
<path d="M70.0029 87.9008C69.9895 87.9008 69.9767 87.8981 69.9636 87.8924C69.9132 87.8706 69.8904 87.8121 69.9119 87.7621L70.2647 86.9473L70.6581 87.4015C70.6944 87.4429 70.6897 87.5054 70.6484 87.541C70.6061 87.5766 70.5439 87.5726 70.5083 87.5309L70.3215 87.3152L70.094 87.8407C70.0779 87.8783 70.0412 87.9008 70.0029 87.9008Z" fill="#455A64"/>
<path d="M59.5851 98.7813L39.7759 87.3231V72.4453L59.5851 83.9032V98.7813Z" fill="#1FD18E"/>
<path opacity="0.1" d="M59.5851 98.7813L39.7759 87.3231V72.4453L59.5851 83.9032V98.7813Z" fill="black"/>
<g opacity="0.2">
<path d="M39.7759 77.4174L58.1487 88.0444V83.0723L39.7759 72.4453V77.4174Z" fill="black"/>
</g>
<path d="M48.7114 79.8622L50.168 80.7032V78.4426L48.7114 77.6016V79.8622Z" fill="#37474F"/>
<path d="M50.168 78.4436L72.6608 65.4253L71.2039 64.584L48.7114 77.6023L50.168 78.4436Z" fill="#455A64"/>
<path d="M42.6099 81.807L47.7591 84.7816C47.8867 84.8555 47.9912 85.0366 47.9912 85.1841L47.9916 88.7635C47.9916 89.0582 47.7829 89.1788 47.5276 89.0313L42.3777 86.0567C42.25 85.9831 42.1455 85.802 42.1455 85.6545V82.0748C42.1455 81.7801 42.3545 81.6598 42.6099 81.807Z" fill="#FAFAFA"/>
<path d="M42.4824 82.3613L42.6578 82.4625L42.6575 85.6219L42.4824 85.5207V82.3613Z" fill="#455A64"/>
<path d="M43.1948 82.7734L43.4966 82.9508V86.1102L43.1948 85.9328V82.7734Z" fill="#455A64"/>
<path d="M43.9077 83.1836L44.0831 83.2847L44.0828 86.4441L43.9077 86.343V83.1836Z" fill="#455A64"/>
<path d="M44.4473 83.4902L44.7977 83.6982V86.8576L44.4473 86.6496V83.4902Z" fill="#455A64"/>
<path d="M45.3345 84.0098L45.5095 84.1109V87.2706L45.3345 87.1695V84.0098Z" fill="#455A64"/>
<path d="M45.8481 84.2969L46.2231 84.5196L46.2228 87.6794L45.8481 87.4563V84.2969Z" fill="#455A64"/>
<path d="M46.7622 84.832L46.9373 84.9335V88.0929L46.7622 87.9918V84.832Z" fill="#455A64"/>
<path d="M47.1685 85.0625L47.2562 85.1129L47.2558 88.2723L47.1685 88.2219V85.0625Z" fill="#455A64"/>
<path d="M46.436 84.6582L46.5237 84.7089V87.8683L46.436 87.8176V84.6582Z" fill="#455A64"/>
<path d="M45 83.8164L45.0874 83.8671V87.0262L45 86.9758V83.8164Z" fill="#455A64"/>
<path d="M44.2119 83.3672L44.2993 83.4179V86.5773L44.2119 86.5269V83.3672Z" fill="#455A64"/>
<path d="M43.647 83.0547L43.7347 83.1054L43.7343 86.2648L43.647 86.2144V83.0547Z" fill="#455A64"/>
<path d="M42.8813 82.5898L42.969 82.6402V85.7996L42.8813 85.7493V82.5898Z" fill="#455A64"/>
<path d="M47.4754 85.2422L47.6505 85.3437V88.5031L47.4751 88.4019L47.4754 85.2422Z" fill="#455A64"/>
<path d="M76.0677 56.3684L56.2585 44.9102L33.7656 57.9285L53.5748 69.3867L76.0677 56.3684Z" fill="#1FD18E"/>
<path opacity="0.7" d="M76.0677 56.3684L56.2585 44.9102L33.7656 57.9285L53.5748 69.3867L76.0677 56.3684Z" fill="white"/>
<path d="M53.5755 84.2636L76.068 71.2453V56.3672L53.5752 69.3855L53.5755 84.2636Z" fill="#1FD18E"/>
<path opacity="0.6" d="M53.5755 84.2636L76.068 71.2453V56.3672L53.5752 69.3855L53.5755 84.2636Z" fill="white"/>
<path d="M56.0561 79.3294C55.9868 79.3294 55.9217 79.3122 55.8622 79.2783C55.709 79.1896 55.6206 78.9944 55.6206 78.7434V77.1672C55.6206 77.1662 55.6206 77.1652 55.6206 77.1642V77.0476L55.7009 77.0617L56.9371 76.3359V78.0972C56.9371 78.5451 56.6696 79.0508 56.3282 79.248C56.2358 79.3021 56.1424 79.3294 56.0561 79.3294ZM55.8188 77.2838V78.7434C55.8188 78.9215 55.8709 79.0542 55.9613 79.1066C56.0514 79.1583 56.1565 79.1187 56.2294 79.077C56.5056 78.9167 56.7391 78.4689 56.7391 78.0976V77.9682H56.2815L56.1911 77.3503L55.8188 77.2838ZM56.4529 77.77H56.7391V76.6817L56.0016 77.1148L56.3669 77.18L56.4529 77.77Z" fill="#455A64"/>
<path d="M56.2803 80.5849C56.2255 80.5849 56.1812 80.5406 56.1812 80.4858V79.1616C56.1812 79.1069 56.2255 79.0625 56.2803 79.0625C56.335 79.0625 56.3794 79.1069 56.3794 79.1616V80.4858C56.3794 80.5406 56.335 80.5849 56.2803 80.5849Z" fill="#455A64"/>
<path d="M55.7033 80.918C55.6691 80.918 55.6355 80.9005 55.6173 80.8683C55.5901 80.8209 55.6059 80.7604 55.6533 80.7328L56.8047 80.0686C56.8514 80.0404 56.9126 80.0565 56.9401 80.1049C56.9674 80.1526 56.9516 80.2127 56.9039 80.2399L55.7524 80.9045C55.7376 80.9136 55.7205 80.918 55.7033 80.918Z" fill="#455A64"/>
<path d="M59.8057 78.6383C59.7671 78.6383 59.7305 78.6289 59.6972 78.6104C59.6216 78.5671 59.5786 78.4804 59.5786 78.3719V78.1004C59.5786 78.0456 59.623 78.0013 59.6777 78.0013C59.7325 78.0013 59.7769 78.0456 59.7769 78.1004V78.3719C59.7769 78.4125 59.7883 78.4337 59.7957 78.4384C59.8034 78.4424 59.8266 78.4411 59.8602 78.4216C59.9475 78.3699 60.0446 78.1733 60.0446 77.9734V76.2124C60.0446 76.1576 60.089 76.1133 60.1438 76.1133C60.1985 76.1133 60.2429 76.1576 60.2429 76.2124V77.9734C60.2429 78.2314 60.1223 78.4972 59.9613 78.5916C59.9092 78.6229 59.8558 78.6383 59.8057 78.6383Z" fill="#455A64"/>
<path d="M58.7627 77.0971V76.9254C58.7627 76.118 59.3312 75.1325 60.0301 74.729C60.3879 74.523 60.7296 74.4924 60.9907 74.6436C61.2531 74.7952 61.3973 75.1056 61.3973 75.5179V75.5753L58.7627 77.0971ZM60.6238 74.7474C60.4739 74.7474 60.3056 74.7989 60.1292 74.901C59.5355 75.2437 59.0436 76.0421 58.9703 76.7483L61.198 75.4618C61.1866 75.1517 61.0787 74.9235 60.8919 74.8157C60.8126 74.7696 60.7222 74.7474 60.6238 74.7474Z" fill="#455A64"/>
<path d="M63.3662 76.6062C63.3114 76.6062 63.2671 76.5618 63.2671 76.507V73.1343C63.2671 73.0795 63.3114 73.0352 63.3662 73.0352C63.421 73.0352 63.4653 73.0795 63.4653 73.1343V76.507C63.4653 76.5618 63.421 76.6062 63.3662 76.6062Z" fill="#455A64"/>
<path d="M63.0772 73.9041C63.0637 73.9041 63.051 73.9014 63.0378 73.896C62.9874 73.8742 62.9646 73.816 62.9861 73.7656L63.3389 72.9512L63.7324 73.4054C63.7683 73.4468 63.7639 73.5093 63.7226 73.5452C63.6803 73.5808 63.6181 73.5765 63.5825 73.5351L63.3957 73.3194L63.1679 73.8449C63.1521 73.8816 63.1155 73.9041 63.0772 73.9041Z" fill="#455A64"/>
<path d="M64.2827 76.085C64.2279 76.085 64.1836 76.0407 64.1836 75.9859V72.6128C64.1836 72.558 64.2279 72.5137 64.2827 72.5137C64.3375 72.5137 64.3818 72.558 64.3818 72.6128V75.9859C64.3818 76.0407 64.3375 76.085 64.2827 76.085Z" fill="#455A64"/>
<path d="M63.9922 73.3829C63.9784 73.3829 63.9657 73.3802 63.9529 73.3749C63.9025 73.353 63.8796 73.2945 63.9011 73.2445L64.2536 72.4297L64.6471 72.884C64.6834 72.9253 64.6786 72.9878 64.6373 73.0234C64.595 73.0587 64.5332 73.055 64.4975 73.0137L64.3107 72.7979L64.0833 73.3234C64.0668 73.3604 64.0302 73.3829 63.9922 73.3829Z" fill="#455A64"/>
<path d="M53.5748 84.2641L33.7656 72.8058V57.9277L53.5748 69.386V84.2641Z" fill="#1FD18E"/>
<path opacity="0.4" d="M53.5748 84.2641L33.7656 72.8058V57.9277L53.5748 69.386V84.2641Z" fill="white"/>
<path d="M41.2891 64.536L44.8285 66.5869V64.3263L41.2891 62.2754V64.536Z" fill="#37474F"/>
<path d="M44.8285 64.3294L67.3213 51.311L63.7816 49.2598L41.2891 62.2781L44.8285 64.3294Z" fill="#455A64"/>
<path d="M36.5993 67.2895L41.7485 70.2641C41.8765 70.3381 41.981 70.5192 41.981 70.6663L41.9813 74.2461C41.9813 74.5408 41.7723 74.6614 41.5173 74.5139L36.3674 71.5393C36.2398 71.4657 36.1353 71.2846 36.1353 71.1371V67.5573C36.1353 67.2627 36.3442 67.142 36.5993 67.2895Z" fill="#FAFAFA"/>
<path d="M36.4712 67.8457L36.6462 67.9468V71.1062L36.4712 71.0051V67.8457Z" fill="#455A64"/>
<path d="M37.1846 68.2578L37.4866 68.4356V71.595L37.1846 71.4176V68.2578Z" fill="#455A64"/>
<path d="M37.8984 68.6699L38.0735 68.7714V71.9308L37.8984 71.8297V68.6699Z" fill="#455A64"/>
<path d="M38.4354 68.9727L38.7862 69.181L38.7858 72.3404L38.4351 72.1324L38.4354 68.9727Z" fill="#455A64"/>
<path d="M39.3242 69.4941L39.4996 69.5956L39.4993 72.755L39.3242 72.6539V69.4941Z" fill="#455A64"/>
<path d="M39.8374 69.7832L40.212 70.006V73.1654L39.8374 72.9426V69.7832Z" fill="#455A64"/>
<path d="M40.7523 70.3164L40.9273 70.4179L40.927 73.5773L40.752 73.4761L40.7523 70.3164Z" fill="#455A64"/>
<path d="M41.1582 70.5469L41.2459 70.5973V73.7567L41.1582 73.7063V70.5469Z" fill="#455A64"/>
<path d="M40.4268 70.1445L40.5145 70.1953L40.5141 73.3547L40.4268 73.3039V70.1445Z" fill="#455A64"/>
<path d="M38.9897 69.3027L39.0771 69.3535V72.5129L38.9897 72.4625V69.3027Z" fill="#455A64"/>
<path d="M38.2017 68.8516L38.2897 68.902V72.0617L38.2017 72.011V68.8516Z" fill="#455A64"/>
<path d="M37.6377 68.5391L37.7254 68.5895L37.7251 71.7492L37.6377 71.6985V68.5391Z" fill="#455A64"/>
<path d="M36.8701 68.0723L36.9575 68.123V71.2824L36.8701 71.232V68.0723Z" fill="#455A64"/>
<path d="M41.4644 70.7266L41.6397 70.8277L41.6394 73.9874L41.4644 73.886V70.7266Z" fill="#455A64"/>
<path d="M114.072 70.1326L92.6846 57.7617L68.3999 71.8173L89.787 84.1881L114.072 70.1326Z" fill="#1FD18E"/>
<g opacity="0.4">
<path d="M114.072 70.1326L92.6846 57.7617L68.3999 71.8173L89.787 84.1881L114.072 70.1326Z" fill="white"/>
</g>
<path d="M89.7881 110.567L114.073 96.5115V70.1328L89.7881 84.1884V110.567Z" fill="#1FD18E"/>
<g opacity="0.2">
<path d="M89.7881 110.567L114.073 96.5115V70.1328L89.7881 84.1884V110.567Z" fill="white"/>
</g>
<path d="M91.8896 106.087C91.8318 106.087 91.7771 106.073 91.7277 106.044C91.5993 105.969 91.5254 105.806 91.5254 105.596V104.276C91.5254 104.276 91.5254 104.275 91.5254 104.274V104.176L91.5929 104.188L92.6281 103.58V105.055C92.6281 105.43 92.404 105.853 92.1184 106.019C92.0401 106.064 91.9622 106.087 91.8896 106.087ZM91.6914 104.374V105.596C91.6914 105.745 91.7351 105.856 91.8107 105.9C91.8859 105.943 91.9739 105.91 92.0348 105.875C92.2659 105.741 92.4615 105.366 92.4615 105.055V104.947H92.0784L92.0028 104.429L91.6914 104.374ZM92.2223 104.781H92.4618V103.87L91.8446 104.233L92.15 104.287L92.2223 104.781Z" fill="#455A64"/>
<path d="M92.0766 107.138C92.0306 107.138 91.9937 107.101 91.9937 107.055V105.946C91.9937 105.9 92.0306 105.863 92.0766 105.863C92.1223 105.863 92.1593 105.901 92.1593 105.946V107.055C92.1596 107.101 92.1227 107.138 92.0766 107.138Z" fill="#455A64"/>
<path d="M91.595 107.416C91.5665 107.416 91.5386 107.402 91.5235 107.375C91.5003 107.335 91.5141 107.285 91.5537 107.262L92.5177 106.705C92.5567 106.681 92.6081 106.695 92.6309 106.735C92.6541 106.775 92.6407 106.826 92.6007 106.849L91.6367 107.405C91.6236 107.413 91.6095 107.416 91.595 107.416Z" fill="#455A64"/>
<path d="M95.0286 105.505C94.9963 105.505 94.9654 105.498 94.9378 105.482C94.875 105.446 94.8384 105.373 94.8384 105.282V105.055C94.8384 105.009 94.8757 104.972 94.9214 104.972C94.9674 104.972 95.0044 105.009 95.0044 105.055V105.282C95.0044 105.316 95.0138 105.334 95.0205 105.338C95.0269 105.341 95.0464 105.34 95.0746 105.324C95.1475 105.281 95.2288 105.116 95.2288 104.948V103.474C95.2288 103.428 95.2661 103.391 95.3118 103.391C95.3578 103.391 95.3948 103.428 95.3948 103.474V104.948C95.3948 105.164 95.2937 105.387 95.1593 105.466C95.1149 105.493 95.0702 105.505 95.0286 105.505Z" fill="#455A64"/>
<path d="M94.1548 104.216V104.072C94.1548 103.395 94.6309 102.571 95.2162 102.233C95.5159 102.06 95.8019 102.035 96.0209 102.162C96.2403 102.288 96.3613 102.548 96.3613 102.893V102.941L94.1548 104.216ZM95.7132 102.248C95.5878 102.248 95.447 102.291 95.2992 102.376C94.8019 102.663 94.39 103.332 94.3285 103.923L96.194 102.846C96.1846 102.586 96.0942 102.395 95.9376 102.305C95.8714 102.266 95.7958 102.248 95.7132 102.248Z" fill="#455A64"/>
<path d="M98.0093 103.807C97.9636 103.807 97.9263 103.77 97.9263 103.724V100.899C97.9263 100.854 97.9636 100.816 98.0093 100.816C98.055 100.816 98.0923 100.854 98.0923 100.899V103.724C98.0923 103.77 98.055 103.807 98.0093 103.807Z" fill="#455A64"/>
<path d="M97.7661 101.544C97.7547 101.544 97.7439 101.542 97.7331 101.537C97.6908 101.519 97.6717 101.47 97.6901 101.428L97.9851 100.746L98.3144 101.126C98.3447 101.161 98.341 101.213 98.3064 101.243C98.2711 101.273 98.219 101.27 98.1891 101.235L98.0329 101.054L97.8424 101.494C97.8289 101.526 97.798 101.544 97.7661 101.544Z" fill="#455A64"/>
<path d="M98.7773 103.371C98.7316 103.371 98.6943 103.334 98.6943 103.288V100.464C98.6943 100.418 98.7316 100.381 98.7773 100.381C98.823 100.381 98.8603 100.418 98.8603 100.464V103.288C98.8603 103.334 98.823 103.371 98.7773 103.371Z" fill="#455A64"/>
<path d="M98.534 101.107C98.5229 101.107 98.5118 101.104 98.5011 101.1C98.4587 101.082 98.4399 101.033 98.4581 100.991L98.7534 100.309L99.0827 100.689C99.1129 100.724 99.1089 100.776 99.0746 100.806C99.039 100.835 98.9873 100.832 98.9574 100.797L98.8008 100.617L98.6103 101.057C98.5968 101.088 98.5663 101.107 98.534 101.107Z" fill="#455A64"/>
<path d="M89.7873 110.566L68.3999 98.1951V71.8164L89.787 84.1873L89.7873 110.566Z" fill="#1FD18E"/>
<path opacity="0.15" d="M89.7873 110.566L68.3999 98.1951V71.8164L89.787 84.1873L89.7873 110.566Z" fill="black"/>
<path d="M103.905 79.1861L99.9839 81.4554V78.2869L103.905 76.0176V79.1861Z" fill="#37474F"/>
<path d="M99.9842 78.2868L78.6035 65.9123L82.5246 63.6426L103.905 76.0171L99.9842 78.2868Z" fill="#455A64"/>
<path d="M69.9461 94.6428L73.6451 96.7798C73.7369 96.8328 73.8121 96.9629 73.8121 97.0691L73.8125 99.6405C73.8125 99.8521 73.6626 99.9388 73.4791 99.833L69.7794 97.6964C69.6877 97.6433 69.6128 97.5132 69.6128 97.4074V94.8357C69.6128 94.6237 69.763 94.537 69.9461 94.6428Z" fill="#FAFAFA"/>
<path d="M69.854 95.043L69.98 95.1155V97.3856L69.854 97.3126V95.043Z" fill="#455A64"/>
<path d="M70.3682 95.3379L70.5849 95.4656V97.7353L70.3682 97.6076V95.3379Z" fill="#455A64"/>
<path d="M70.8794 95.6328L71.0054 95.7054L71.0051 97.9751L70.8794 97.9025V95.6328Z" fill="#455A64"/>
<path d="M71.2651 95.8535L71.5168 96.0027V98.2724L71.2651 98.1232V95.8535Z" fill="#455A64"/>
<path d="M71.9033 96.2246L72.0293 96.2972V98.5672L71.9033 98.4943V96.2246Z" fill="#455A64"/>
<path d="M72.2734 96.4316L72.5426 96.5916V98.8616L72.2734 98.7013V96.4316Z" fill="#455A64"/>
<path d="M72.9277 96.8164L73.0537 96.889V99.1587L72.9277 99.0861V96.8164Z" fill="#455A64"/>
<path d="M73.2202 96.9844L73.2834 97.0207L73.283 99.2903L73.2202 99.2541V96.9844Z" fill="#455A64"/>
<path d="M72.6958 96.6934L72.7586 96.7296V98.9993L72.6958 98.963V96.6934Z" fill="#455A64"/>
<path d="M71.6636 96.0879L71.7267 96.1242L71.7264 98.3939L71.6636 98.3576V96.0879Z" fill="#455A64"/>
<path d="M71.0977 95.7637L71.1605 95.8003V98.07L71.0977 98.0337V95.7637Z" fill="#455A64"/>
<path d="M70.6919 95.5391L70.7547 95.5757V97.845L70.6919 97.8091V95.5391Z" fill="#455A64"/>
<path d="M70.1421 95.2051L70.2049 95.2414V97.511L70.1421 97.4748V95.2051Z" fill="#455A64"/>
<path d="M73.4409 97.1113L73.5669 97.1839L73.5666 99.4536L73.4409 99.381V97.1113Z" fill="#455A64"/>
<path d="M90.7617 81.8703C90.7331 81.8703 90.7045 81.8633 90.679 81.8488L25.2064 44.8394C25.1257 44.7937 25.0972 44.6912 25.1429 44.6106C25.1886 44.5296 25.2911 44.5017 25.372 44.5471L90.7607 81.5088L124.196 62.2046C124.276 62.1582 124.379 62.1854 124.426 62.2661C124.473 62.3464 124.445 62.4492 124.364 62.4956L90.8457 81.8475C90.8195 81.8629 90.7906 81.8703 90.7617 81.8703Z" fill="#E0E0E0"/>
<path d="M83.0267 116.109C82.9978 116.109 82.9686 116.101 82.9427 116.086L33.9532 87.8021C33.9116 87.7782 33.8823 87.7376 33.8726 87.6902L25.1245 44.7269C25.106 44.6362 25.1648 44.5471 25.2559 44.529C25.3452 44.5098 25.4353 44.569 25.4541 44.66L34.1871 87.5491L83.027 115.747L116.398 96.48L124.117 62.3131C124.137 62.2231 124.226 62.1653 124.318 62.1865C124.408 62.207 124.465 62.297 124.444 62.3874L116.71 96.6255C116.7 96.6712 116.671 96.7105 116.63 96.7336L83.111 116.086C83.0848 116.101 83.0556 116.109 83.0267 116.109Z" fill="#E0E0E0"/>
<path d="M83.0262 116.11C83.0141 116.11 83.0017 116.108 82.9893 116.105C82.8986 116.085 82.8421 115.995 82.8626 115.905L90.5977 81.6664C90.6178 81.5757 90.7062 81.5179 90.7986 81.5398C90.8893 81.5603 90.9461 81.65 90.9253 81.7407L83.1902 115.979C83.1727 116.057 83.1032 116.11 83.0262 116.11Z" fill="#E0E0E0"/>
<path d="M91.4057 111.272C91.3936 111.272 91.3812 111.27 91.3688 111.267C91.2781 111.247 91.2213 111.157 91.2421 111.067L98.9768 76.8281C98.9973 76.7377 99.086 76.681 99.1778 76.7015C99.2685 76.7219 99.3249 76.812 99.3044 76.9024L91.5694 111.141C91.5519 111.219 91.4823 111.272 91.4057 111.272Z" fill="#E0E0E0"/>
<path d="M99.7845 106.434C99.7724 106.434 99.76 106.432 99.7476 106.429C99.6568 106.409 99.6004 106.319 99.6209 106.229L107.356 71.9904C107.376 71.9001 107.466 71.8433 107.557 71.8634C107.648 71.8839 107.704 71.974 107.684 72.0644L99.9485 106.302C99.931 106.381 99.8615 106.434 99.7845 106.434Z" fill="#E0E0E0"/>
<path d="M108.165 101.596C108.152 101.596 108.14 101.595 108.128 101.592C108.037 101.571 107.98 101.481 108.001 101.391L115.736 67.1522C115.756 67.0622 115.844 67.0054 115.937 67.0256C116.027 67.046 116.084 67.1361 116.063 67.2265L108.328 101.465C108.311 101.543 108.241 101.596 108.165 101.596Z" fill="#E0E0E0"/>
<path d="M40.16 91.3596C40.076 91.3596 40.0034 91.2964 39.9933 91.2114L35.1946 50.4066C35.1835 50.3145 35.2493 50.2308 35.3417 50.2201C35.4368 50.2083 35.5175 50.2752 35.5286 50.3673L40.3273 91.1721C40.3384 91.2645 40.2725 91.3475 40.1801 91.3586C40.1731 91.3593 40.1667 91.3596 40.16 91.3596Z" fill="#E0E0E0"/>
<path d="M46.2845 94.8937C46.1972 94.8937 46.1232 94.8258 46.1172 94.7371L43.3691 55.0176C43.3627 54.9252 43.4326 54.8445 43.5253 54.8382C43.615 54.8331 43.698 54.9017 43.7044 54.9941L46.4525 94.714C46.4586 94.8064 46.389 94.8867 46.2963 94.8931C46.2923 94.8937 46.2882 94.8937 46.2845 94.8937Z" fill="#E0E0E0"/>
<path d="M52.4074 98.4308C52.3153 98.4308 52.24 98.3562 52.2394 98.2642L51.9336 59.851C51.9329 59.7582 52.0075 59.6826 52.1003 59.6816C52.1785 59.6847 52.2689 59.7556 52.2696 59.8483L52.5754 98.2615C52.576 98.3542 52.5014 98.4302 52.4087 98.4308H52.4074Z" fill="#E0E0E0"/>
<path d="M58.5314 101.967C58.5294 101.967 58.527 101.967 58.525 101.967C58.4323 101.963 58.36 101.885 58.3634 101.792L59.7561 64.2653C59.7601 64.1729 59.8452 64.099 59.9305 64.1037C60.0232 64.1071 60.0955 64.185 60.0921 64.2778L58.6994 101.805C58.6957 101.895 58.6211 101.967 58.5314 101.967Z" fill="#E0E0E0"/>
<path d="M64.6555 105.501C64.6508 105.501 64.6464 105.5 64.6421 105.5C64.5497 105.493 64.4805 105.412 64.4878 105.32L67.3889 68.5705C67.3959 68.4781 67.4819 68.4109 67.5693 68.4163C67.6617 68.4237 67.7309 68.5047 67.7235 68.5971L64.8225 105.346C64.8158 105.434 64.7422 105.501 64.6555 105.501Z" fill="#E0E0E0"/>
<path d="M70.7796 109.037C70.7726 109.037 70.7655 109.037 70.7584 109.036C70.6667 109.024 70.6012 108.94 70.6126 108.848L75.1248 72.936C75.1365 72.8439 75.2232 72.7798 75.3126 72.7902C75.4043 72.8016 75.4698 72.8859 75.4584 72.978L70.9459 108.89C70.9352 108.975 70.8629 109.037 70.7796 109.037Z" fill="#E0E0E0"/>
<path d="M76.9032 112.571C76.8931 112.571 76.8831 112.57 76.873 112.569C76.7813 112.552 76.7211 112.465 76.7376 112.374L83.0893 77.3157C83.1058 77.2243 83.1945 77.1645 83.2845 77.1803C83.3759 77.1967 83.4364 77.2844 83.4199 77.3755L77.0682 112.433C77.0534 112.515 76.9825 112.571 76.9032 112.571Z" fill="#E0E0E0"/>
<path d="M90.7617 81.8703C90.7331 81.8703 90.7045 81.8633 90.679 81.8488L25.2064 44.8394C25.1257 44.7937 25.0972 44.6912 25.1429 44.6106C25.1886 44.5296 25.2911 44.5017 25.372 44.5471L90.7607 81.5088L124.196 62.2046C124.276 62.1582 124.379 62.1854 124.426 62.2661C124.473 62.3464 124.445 62.4492 124.364 62.4956L90.8457 81.8475C90.8195 81.8629 90.7906 81.8703 90.7617 81.8703Z" fill="#E0E0E0"/>
<path d="M88.8281 90.4301C88.7992 90.4301 88.7703 90.4224 88.7444 90.408L27.3807 55.1538C27.3004 55.1075 27.2726 55.005 27.3186 54.9243C27.365 54.8434 27.4678 54.8162 27.5481 54.8622L88.8278 90.0679L122.263 70.7644C122.343 70.7177 122.446 70.7452 122.492 70.8259C122.539 70.9062 122.511 71.009 122.431 71.0554L88.9121 90.4073C88.8862 90.4224 88.857 90.4301 88.8281 90.4301Z" fill="#E0E0E0"/>
<path d="M86.8941 98.9893C86.8652 98.9893 86.8363 98.9819 86.8104 98.9671L29.5795 66.0129C29.4989 65.9665 29.4714 65.864 29.5174 65.7834C29.5638 65.7028 29.6666 65.6755 29.7469 65.7216L86.8941 98.6271L120.329 79.3235C120.409 79.2772 120.512 79.3044 120.558 79.385C120.605 79.4653 120.577 79.5681 120.497 79.6145L86.9781 98.9664C86.9522 98.9815 86.923 98.9893 86.8941 98.9893Z" fill="#E0E0E0"/>
<path d="M84.9596 107.55C84.9304 107.55 84.9011 107.542 84.8753 107.527L31.7332 76.6296C31.6529 76.5829 31.6256 76.4801 31.672 76.3998C31.7187 76.3195 31.8219 76.2929 31.9018 76.3389L84.9599 107.187L118.395 87.8839C118.474 87.8369 118.578 87.8648 118.624 87.9454C118.671 88.0257 118.643 88.1285 118.563 88.1749L85.0436 107.527C85.0177 107.542 84.9885 107.55 84.9596 107.55Z" fill="#E0E0E0"/>
<path d="M83.0266 116.108C82.9977 116.108 82.9685 116.101 82.9426 116.086L33.9531 87.8016C33.8728 87.7553 33.8453 87.6528 33.8917 87.5721C33.9377 87.4918 34.0408 87.4646 34.1211 87.5106L83.0266 115.746L116.462 96.4425C116.542 96.3955 116.645 96.423 116.691 96.504C116.738 96.5843 116.71 96.6871 116.63 96.7335L83.1106 116.086C83.0848 116.101 83.0555 116.108 83.0266 116.108Z" fill="#E0E0E0"/>
<path d="M101.576 121.279L122.645 109.092L146.569 122.938L125.499 135.125L101.576 121.279Z" fill="#1FD18E"/>
<path opacity="0.7" d="M101.576 121.279L122.645 109.092L146.569 122.938L125.499 135.125L101.576 121.279Z" fill="white"/>
<g opacity="0.2">
<path d="M146.569 122.938L127.027 134.241L105.257 121.642L124.799 110.338L146.569 122.938Z" fill="black"/>
</g>
<path d="M125.499 150.95L101.575 137.104V121.279L125.499 135.126V150.95Z" fill="#1FD18E"/>
<path opacity="0.6" d="M125.499 150.95L101.575 137.104V121.279L125.499 135.126V150.95Z" fill="white"/>
<path d="M122.569 145.615C122.206 145.405 121.921 144.868 121.921 144.391V142.518L123.236 143.29L123.322 143.274V143.398C123.322 143.399 123.322 143.401 123.322 143.401V145.078C123.322 145.345 123.228 145.552 123.064 145.647C123.002 145.683 122.932 145.701 122.859 145.701C122.766 145.701 122.667 145.672 122.569 145.615ZM122.715 143.596L122.619 144.254H122.132V144.391C122.132 144.786 122.381 145.262 122.674 145.433C122.752 145.477 122.864 145.519 122.959 145.464C123.055 145.409 123.111 145.267 123.111 145.078V143.526L122.715 143.596ZM122.528 143.415L122.916 143.346L122.132 142.885V144.043H122.436L122.528 143.415Z" fill="#455A64"/>
<path d="M122.621 147.039C122.679 147.039 122.727 146.992 122.727 146.934V145.525C122.727 145.467 122.679 145.42 122.621 145.42C122.563 145.42 122.516 145.467 122.516 145.525V146.934C122.516 146.992 122.563 147.039 122.621 147.039Z" fill="#455A64"/>
<path d="M123.234 147.389C123.27 147.389 123.306 147.37 123.325 147.336C123.354 147.286 123.337 147.222 123.286 147.192L122.062 146.486C122.013 146.455 121.947 146.473 121.918 146.524C121.889 146.575 121.906 146.639 121.956 146.668L123.181 147.375C123.198 147.385 123.216 147.389 123.234 147.389Z" fill="#455A64"/>
<path d="M118.872 144.965C118.914 144.965 118.953 144.955 118.988 144.935C119.068 144.889 119.114 144.797 119.114 144.682V144.393C119.114 144.335 119.067 144.287 119.009 144.287C118.951 144.287 118.903 144.335 118.903 144.393V144.682C118.903 144.725 118.891 144.748 118.883 144.753C118.875 144.757 118.85 144.755 118.814 144.734C118.721 144.68 118.618 144.47 118.618 144.258V142.385C118.618 142.327 118.571 142.279 118.513 142.279C118.454 142.279 118.407 142.327 118.407 142.385V144.258C118.407 144.533 118.536 144.815 118.706 144.916C118.762 144.948 118.819 144.965 118.872 144.965Z" fill="#455A64"/>
<path d="M117.179 141.709V141.648C117.179 141.209 117.332 140.879 117.611 140.718C117.889 140.557 118.252 140.589 118.633 140.809C119.376 141.238 119.981 142.286 119.981 143.145V143.328L117.179 141.709ZM117.716 140.901C117.518 141.016 117.403 141.258 117.391 141.588L119.76 142.957C119.682 142.205 119.159 141.356 118.527 140.992C118.339 140.883 118.161 140.828 118.001 140.828C117.897 140.828 117.801 140.852 117.716 140.901Z" fill="#455A64"/>
<path d="M115.086 142.806C115.144 142.806 115.191 142.759 115.191 142.7V139.113C115.191 139.055 115.144 139.008 115.086 139.008C115.028 139.008 114.98 139.055 114.98 139.113V142.701C114.98 142.759 115.028 142.806 115.086 142.806Z" fill="#455A64"/>
<path d="M115.393 139.93C115.408 139.93 115.421 139.927 115.435 139.921C115.489 139.898 115.513 139.836 115.49 139.783L115.115 138.916L114.696 139.399C114.658 139.443 114.663 139.51 114.707 139.548C114.752 139.586 114.818 139.581 114.856 139.537L115.054 139.307L115.296 139.867C115.314 139.906 115.353 139.93 115.393 139.93Z" fill="#455A64"/>
<path d="M114.11 142.25C114.168 142.25 114.215 142.203 114.215 142.144V138.557C114.215 138.498 114.168 138.451 114.11 138.451C114.052 138.451 114.004 138.498 114.004 138.557V142.144C114.005 142.202 114.052 142.25 114.11 142.25Z" fill="#455A64"/>
<path d="M114.419 139.377C114.433 139.377 114.447 139.375 114.461 139.369C114.515 139.346 114.539 139.284 114.516 139.23L114.141 138.363L113.722 138.846C113.684 138.89 113.689 138.957 113.733 138.995C113.778 139.033 113.844 139.029 113.881 138.984L114.08 138.755L114.323 139.314C114.339 139.353 114.378 139.377 114.419 139.377Z" fill="#455A64"/>
<path d="M125.5 150.949L146.569 138.762V122.938L125.5 135.125V150.949Z" fill="#1FD18E"/>
<path opacity="0.4" d="M125.5 150.949L146.569 138.762V122.938L125.5 135.125V150.949Z" fill="white"/>
<g opacity="0.2">
<path d="M146.569 128.228L127.027 139.531V134.243L146.569 122.939V128.228Z" fill="black"/>
</g>
<path d="M137.065 130.83L135.516 131.725V129.32L137.065 128.426V130.83Z" fill="#37474F"/>
<path d="M135.514 129.319L111.591 115.473L113.14 114.578L137.064 128.425L135.514 129.319Z" fill="#455A64"/>
<path d="M143.554 132.897L138.077 136.061C137.942 136.139 137.83 136.332 137.83 136.489L137.83 140.296C137.83 140.609 138.052 140.738 138.324 140.581L143.801 137.417C143.937 137.339 144.048 137.147 144.048 136.99V133.182C144.048 132.869 143.825 132.74 143.554 132.897Z" fill="#FAFAFA"/>
<path d="M143.691 133.486L143.504 133.594V136.955L143.691 136.847V133.486Z" fill="#455A64"/>
<path d="M142.933 133.924L142.612 134.113V137.473L142.933 137.285V133.924Z" fill="#455A64"/>
<path d="M142.174 134.363L141.987 134.471L141.988 137.831L142.174 137.724V134.363Z" fill="#455A64"/>
<path d="M141.601 134.688L141.229 134.909V138.269L141.601 138.048V134.688Z" fill="#455A64"/>
<path d="M140.657 135.236L140.47 135.344V138.705L140.657 138.597V135.236Z" fill="#455A64"/>
<path d="M140.11 135.549L139.711 135.786L139.711 139.146L140.11 138.909V135.549Z" fill="#455A64"/>
<path d="M139.14 136.115L138.954 136.223V139.584L139.14 139.476V136.115Z" fill="#455A64"/>
<path d="M138.707 136.359L138.614 136.413V139.774L138.707 139.72V136.359Z" fill="#455A64"/>
<path d="M139.486 135.932L139.393 135.985V139.346L139.486 139.292V135.932Z" fill="#455A64"/>
<path d="M141.013 135.035L140.919 135.089L140.92 138.449L141.013 138.396V135.035Z" fill="#455A64"/>
<path d="M141.851 134.555L141.758 134.608V137.969L141.851 137.915V134.555Z" fill="#455A64"/>
<path d="M142.451 134.223L142.358 134.277V137.637L142.451 137.584V134.223Z" fill="#455A64"/>
<path d="M143.266 133.729L143.172 133.782L143.173 137.143L143.266 137.089V133.729Z" fill="#455A64"/>
<path d="M138.381 136.551L138.195 136.658L138.196 140.019L138.382 139.911L138.381 136.551Z" fill="#455A64"/>
<path d="M106.541 105.769L127.611 93.582L151.534 107.429L130.465 119.616L106.541 105.769Z" fill="#1FD18E"/>
<path opacity="0.3" d="M106.541 105.769L127.611 93.582L151.534 107.429L130.465 119.616L106.541 105.769Z" fill="white"/>
<path d="M130.464 135.441L106.541 121.594V105.77L130.464 119.616V135.441Z" fill="#1FD18E"/>
<path d="M127.534 130.103C127.171 129.893 126.886 129.356 126.886 128.879V127.006L128.201 127.778L128.287 127.763V127.887C128.287 127.888 128.287 127.889 128.287 127.89V129.566C128.287 129.833 128.193 130.041 128.03 130.135C127.967 130.171 127.898 130.189 127.824 130.189C127.732 130.189 127.632 130.161 127.534 130.103ZM127.68 128.085L127.584 128.742H127.097V128.879C127.097 129.274 127.346 129.751 127.639 129.921C127.716 129.965 127.829 130.007 127.924 129.952C128.02 129.896 128.076 129.755 128.076 129.566V128.014L127.68 128.085ZM127.493 127.904L127.881 127.834L127.097 127.374V128.531H127.402L127.493 127.904Z" fill="#455A64"/>
<path d="M127.587 131.527C127.645 131.527 127.692 131.48 127.692 131.422V130.014C127.692 129.956 127.645 129.908 127.587 129.908C127.528 129.908 127.481 129.956 127.481 130.014V131.422C127.481 131.48 127.528 131.527 127.587 131.527Z" fill="#455A64"/>
<path d="M128.199 131.879C128.235 131.879 128.271 131.86 128.29 131.826C128.319 131.776 128.302 131.712 128.252 131.682L127.027 130.976C126.978 130.946 126.913 130.963 126.883 131.014C126.854 131.065 126.871 131.129 126.922 131.158L128.146 131.865C128.163 131.875 128.181 131.879 128.199 131.879Z" fill="#455A64"/>
<path d="M123.836 129.454C123.877 129.454 123.916 129.443 123.951 129.424C124.032 129.378 124.078 129.286 124.078 129.17V128.881C124.078 128.823 124.03 128.776 123.972 128.776C123.914 128.776 123.867 128.823 123.867 128.881V129.17C123.867 129.213 123.854 129.236 123.846 129.241C123.838 129.245 123.813 129.244 123.778 129.223C123.685 129.168 123.582 128.959 123.582 128.746V126.873C123.582 126.815 123.534 126.768 123.476 126.768C123.418 126.768 123.371 126.815 123.371 126.873V128.746C123.371 129.021 123.499 129.303 123.67 129.404C123.726 129.437 123.783 129.454 123.836 129.454Z" fill="#455A64"/>
<path d="M122.144 126.199V126.138C122.144 125.7 122.297 125.369 122.576 125.208C122.854 125.047 123.217 125.08 123.598 125.299C124.341 125.728 124.946 126.776 124.946 127.635V127.818L122.144 126.199ZM122.682 125.391C122.483 125.505 122.368 125.748 122.356 126.078L124.726 127.447C124.648 126.696 124.124 125.846 123.493 125.482C123.305 125.373 123.126 125.319 122.967 125.319C122.862 125.318 122.766 125.342 122.682 125.391Z" fill="#455A64"/>
<path d="M120.051 127.295C120.109 127.295 120.157 127.247 120.157 127.189V123.602C120.157 123.543 120.11 123.496 120.051 123.496C119.993 123.496 119.946 123.543 119.946 123.602V127.189C119.946 127.247 119.993 127.295 120.051 127.295Z" fill="#455A64"/>
<path d="M120.359 124.42C120.373 124.42 120.387 124.417 120.401 124.411C120.455 124.388 120.479 124.326 120.456 124.272L120.081 123.406L119.663 123.889C119.624 123.933 119.629 124 119.673 124.038C119.718 124.076 119.784 124.071 119.822 124.027L120.02 123.798L120.263 124.356C120.28 124.396 120.319 124.42 120.359 124.42Z" fill="#455A64"/>
<path d="M119.077 126.742C119.135 126.742 119.182 126.694 119.182 126.636V123.049C119.182 122.991 119.134 122.943 119.077 122.943C119.018 122.943 118.971 122.99 118.971 123.049V126.636C118.971 126.694 119.019 126.742 119.077 126.742Z" fill="#455A64"/>
<path d="M119.386 123.868C119.4 123.868 119.413 123.865 119.427 123.859C119.481 123.836 119.505 123.774 119.482 123.72L119.107 122.854L118.689 123.337C118.65 123.381 118.655 123.447 118.699 123.485C118.744 123.523 118.81 123.519 118.848 123.474L119.047 123.245L119.289 123.804C119.306 123.843 119.345 123.868 119.386 123.868Z" fill="#455A64"/>
<path d="M130.464 135.442L151.533 123.254V107.43L130.464 119.617V135.442Z" fill="#1FD18E"/>
<path opacity="0.1" d="M130.464 135.442L151.533 123.254V107.43L130.464 119.617V135.442Z" fill="black"/>
<path d="M142.03 115.32L140.481 116.215V113.81L142.03 112.916V115.32Z" fill="#37474F"/>
<path d="M140.481 113.812L116.557 99.9651L118.106 99.0703L142.03 112.917L140.481 113.812Z" fill="#455A64"/>
<path d="M148.519 117.387L143.042 120.551C142.906 120.629 142.795 120.822 142.795 120.979L142.794 124.786C142.794 125.1 143.017 125.228 143.288 125.071L148.765 121.908C148.901 121.829 149.013 121.637 149.013 121.48L149.012 117.673C149.012 117.359 148.79 117.23 148.519 117.387Z" fill="#FAFAFA"/>
<path d="M148.654 117.98L148.468 118.088V121.448L148.654 121.341V117.98Z" fill="#455A64"/>
<path d="M147.897 118.416L147.576 118.605L147.576 121.965L147.897 121.776V118.416Z" fill="#455A64"/>
<path d="M147.138 118.855L146.952 118.963V122.323L147.138 122.216V118.855Z" fill="#455A64"/>
<path d="M146.567 119.18L146.194 119.401V122.761L146.567 122.54V119.18Z" fill="#455A64"/>
<path d="M145.62 119.73L145.434 119.838L145.434 123.199L145.62 123.091V119.73Z" fill="#455A64"/>
<path d="M145.074 120.039L144.675 120.276V123.637L145.074 123.4V120.039Z" fill="#455A64"/>
<path d="M144.104 120.605L143.917 120.713L143.918 124.074L144.104 123.966L144.104 120.605Z" fill="#455A64"/>
<path d="M143.672 120.854L143.578 120.907V124.268L143.672 124.214V120.854Z" fill="#455A64"/>
<path d="M144.451 120.424L144.357 120.478L144.358 123.838L144.451 123.784V120.424Z" fill="#455A64"/>
<path d="M145.977 119.527L145.884 119.581V122.942L145.977 122.888V119.527Z" fill="#455A64"/>
<path d="M146.814 119.049L146.721 119.103V122.463L146.814 122.409V119.049Z" fill="#455A64"/>
<path d="M147.416 118.717L147.322 118.771L147.323 122.131L147.416 122.077V118.717Z" fill="#455A64"/>
<path d="M148.23 118.221L148.137 118.275V121.635L148.23 121.581V118.221Z" fill="#455A64"/>
<path d="M143.345 121.043L143.159 121.15V124.511L143.345 124.404V121.043Z" fill="#455A64"/>
<path d="M24.7655 86.2357L22.4091 85.9753C22.182 85.9507 22.0022 85.7669 21.9817 85.5391L21.7106 82.5336C21.7035 82.451 21.6346 82.3885 21.552 82.3885C21.4693 82.3885 21.4004 82.4513 21.3934 82.5336L21.1222 85.5398C21.1011 85.7669 20.922 85.9507 20.6948 85.9753L18.3391 86.2357C18.2585 86.2451 18.1977 86.3129 18.1977 86.3943C18.1977 86.4756 18.2585 86.5434 18.3391 86.5528L20.6948 86.8136C20.922 86.8381 21.1017 87.0219 21.1222 87.2497L21.3934 90.2552C21.4004 90.3379 21.4693 90.4004 21.552 90.4004C21.6346 90.4004 21.7035 90.3379 21.7106 90.2552L21.9817 87.249C22.0022 87.0219 22.182 86.8381 22.4091 86.8136L24.7655 86.5528C24.8461 86.5434 24.9073 86.4756 24.9073 86.3943C24.9069 86.3126 24.8461 86.2447 24.7655 86.2357ZM22.3738 86.4961C21.9968 86.5377 21.6981 86.8421 21.6642 87.2201L21.5516 88.4654L21.4394 87.2208C21.4055 86.8421 21.1068 86.5377 20.7298 86.4961L19.8071 86.3943L20.7298 86.2924C21.1068 86.2508 21.4055 85.9464 21.4394 85.5684V85.5677L21.5516 84.3232L21.6642 85.5677C21.6981 85.9464 21.9968 86.2508 22.3738 86.2924L23.2965 86.3943L22.3738 86.4961ZM106.107 25.3457L102.458 24.9425C102.069 24.8999 101.762 24.5857 101.727 24.1963L101.307 19.541C101.299 19.4543 101.227 19.3878 101.14 19.3878C101.053 19.3878 100.98 19.4543 100.972 19.541L100.553 24.1963C100.518 24.5857 100.21 24.8995 99.8215 24.9425L96.1732 25.3457C96.0879 25.3551 96.0234 25.4274 96.0234 25.5131C96.0234 25.5987 96.0879 25.6706 96.1732 25.6801L99.8215 26.0829C100.21 26.1263 100.518 26.4401 100.553 26.8292L100.972 31.4848C100.98 31.5715 101.053 31.638 101.14 31.638C101.227 31.638 101.3 31.5715 101.307 31.4848L101.727 26.8292C101.762 26.4401 102.069 26.1263 102.458 26.0829L106.107 25.6801C106.192 25.6706 106.257 25.5984 106.257 25.5131C106.257 25.427 106.192 25.3551 106.107 25.3457ZM102.421 25.7486C101.874 25.8094 101.441 26.2509 101.392 26.7989L101.14 29.5965L100.888 26.7989C100.838 26.2509 100.405 25.8094 99.8581 25.7486L97.7218 25.5127L99.8581 25.2765C100.405 25.216 100.838 24.7745 100.888 24.2262L101.14 21.4286L101.392 24.2262C101.441 24.7745 101.874 25.216 102.421 25.2765L104.557 25.5127L102.421 25.7486ZM10.7429 79.6356L12.311 79.809C12.4622 79.8255 12.5818 79.9478 12.5956 80.0993L12.776 82.1002C12.7807 82.1553 12.8267 82.1969 12.8815 82.1969C12.9366 82.1969 12.9826 82.1553 12.987 82.1002L13.1674 80.099C13.1812 79.9478 13.3005 79.8255 13.452 79.809L15.0208 79.6356C15.0746 79.6296 15.1149 79.5842 15.1149 79.5301C15.1149 79.476 15.0746 79.4306 15.0208 79.4246L13.452 79.2512C13.3008 79.2348 13.1812 79.1125 13.1674 78.9609L12.987 76.96C12.9823 76.9049 12.9363 76.8633 12.8815 76.8633C12.8267 76.8633 12.7807 76.9049 12.776 76.96L12.5956 78.9613C12.5814 79.1125 12.4625 79.2348 12.311 79.2512L10.7429 79.4246C10.6891 79.4306 10.6484 79.476 10.6484 79.5301C10.6484 79.5842 10.6891 79.6292 10.7429 79.6356ZM12.3345 79.4622C12.5855 79.4347 12.7844 79.2321 12.8069 78.9801L12.8815 78.1512L12.9564 78.9797C12.9789 79.2321 13.1778 79.4347 13.4288 79.4622L14.043 79.5301L13.4288 79.598C13.1778 79.6255 12.9789 79.8285 12.9564 80.0801L12.8815 80.909L12.8069 80.0805C12.7844 79.8285 12.5855 79.6255 12.3345 79.598L11.7203 79.5301L12.3345 79.4622ZM15.2416 58.8812L16.8097 59.0546C16.9609 59.0711 17.0805 59.1934 17.0943 59.3449L17.2747 61.3458C17.2794 61.4009 17.3254 61.4426 17.3802 61.4426C17.4353 61.4426 17.481 61.4009 17.4857 61.3458L17.6661 59.3446C17.6799 59.1934 17.7992 59.0711 17.9507 59.0546L19.5195 58.8812C19.5733 58.8752 19.6136 58.8298 19.6136 58.7757C19.6136 58.7216 19.5733 58.6763 19.5195 58.6702L17.9507 58.4968C17.7995 58.4804 17.6799 58.3581 17.6661 58.2065L17.4857 56.2057C17.481 56.1509 17.435 56.1089 17.3802 56.1089C17.3254 56.1089 17.2794 56.1506 17.2747 56.2057L17.0943 58.2069C17.0802 58.3581 16.9609 58.4804 16.8097 58.4968L15.2416 58.6702C15.1878 58.6763 15.1471 58.7216 15.1471 58.7757C15.1475 58.8298 15.1881 58.8752 15.2416 58.8812ZM16.8335 58.7079C17.0845 58.6803 17.2834 58.4777 17.3059 58.2257V58.2254L17.3809 57.3968L17.4558 58.2254C17.4783 58.4777 17.6772 58.6803 17.9282 58.7079L18.5424 58.7757L17.9282 58.8436C17.6772 58.8712 17.4783 59.0741 17.4558 59.3258L17.3809 60.1547L17.3059 59.3261C17.2834 59.0741 17.0845 58.8712 16.8335 58.8436L16.2193 58.7757L16.8335 58.7079ZM21.7512 14.7725L23.4699 14.9627C23.6355 14.9805 23.7669 15.1145 23.7817 15.2809L23.9796 17.4736C23.9846 17.5337 24.035 17.5794 24.0952 17.5794C24.1553 17.5794 24.2057 17.5337 24.2107 17.4736L24.4086 15.2805C24.4238 15.1149 24.5548 14.9808 24.7205 14.9627L26.4394 14.7725C26.4982 14.7658 26.5426 14.716 26.5426 14.6569C26.5426 14.5978 26.4982 14.548 26.4394 14.5413L24.7205 14.3511C24.5548 14.3333 24.4238 14.1993 24.4086 14.033L24.2107 11.8402C24.2057 11.7801 24.1553 11.7344 24.0952 11.7344C24.035 11.7344 23.9846 11.7801 23.9796 11.8402L23.7817 14.0333C23.7662 14.1989 23.6355 14.333 23.4699 14.3511L21.7512 14.5413C21.6924 14.548 21.6477 14.5978 21.6477 14.6569C21.6477 14.716 21.6924 14.7654 21.7512 14.7725ZM23.4954 14.5823C23.7702 14.5521 23.9883 14.33 24.0132 14.0541L24.0952 13.1459L24.1771 14.0538C24.202 14.33 24.4197 14.5521 24.6946 14.5826L25.3676 14.6569L24.6946 14.7312C24.4194 14.7614 24.2017 14.9835 24.1771 15.2597L24.0952 16.1679L24.0132 15.26C23.9883 14.9838 23.7706 14.7617 23.4954 14.7312L22.8224 14.6569L23.4954 14.5823ZM88.0985 17.1803L89.6027 17.3466C89.7475 17.3624 89.8621 17.4796 89.8752 17.6248L90.0483 19.5444C90.053 19.5968 90.097 19.6371 90.1497 19.6371C90.2025 19.6371 90.2465 19.5968 90.2512 19.5444L90.4242 17.6248C90.437 17.4796 90.5523 17.3627 90.6971 17.3466L92.201 17.1803C92.2528 17.1746 92.2917 17.1309 92.2917 17.0791C92.2917 17.0274 92.2528 16.9837 92.201 16.978L90.6971 16.8117C90.5523 16.7959 90.4374 16.6786 90.4242 16.5335L90.2512 14.6139C90.2465 14.5615 90.2025 14.5212 90.1497 14.5212C90.097 14.5212 90.053 14.5615 90.0483 14.6139L89.8752 16.5335C89.8621 16.6786 89.7475 16.7959 89.6027 16.8117L88.0985 16.978C88.0467 16.9837 88.0077 17.0274 88.0077 17.0791C88.0077 17.1309 88.0467 17.1746 88.0985 17.1803ZM89.6249 17.0139C89.8655 16.9874 90.056 16.7929 90.0778 16.5516L90.1494 15.7566L90.221 16.5516C90.2428 16.7929 90.4333 16.9874 90.6742 17.0139L91.2636 17.0791L90.6742 17.1443C90.4333 17.1709 90.2428 17.3654 90.221 17.6066L90.1494 18.4016L90.0778 17.6066C90.056 17.3654 89.8655 17.1709 89.6249 17.1443L89.0356 17.0791L89.6249 17.0139ZM116.436 18.8623L118.026 19.0383C118.179 19.0551 118.3 19.1791 118.314 19.3323L118.497 21.3614C118.502 21.4169 118.548 21.4596 118.604 21.4596C118.66 21.4596 118.706 21.4169 118.711 21.3614L118.894 19.3323C118.908 19.1791 119.029 19.0551 119.182 19.0383L120.772 18.8623C120.827 18.8562 120.868 18.8102 120.868 18.7551C120.868 18.7003 120.827 18.6543 120.772 18.6482L119.182 18.4725C119.029 18.4557 118.908 18.3317 118.894 18.1785L118.711 16.1494C118.706 16.094 118.66 16.0513 118.604 16.0513C118.548 16.0513 118.502 16.094 118.497 16.1494L118.314 18.1785C118.3 18.3321 118.179 18.4557 118.026 18.4725L116.436 18.6482C116.381 18.6543 116.34 18.7003 116.34 18.7551C116.34 18.8102 116.381 18.8562 116.436 18.8623ZM118.049 18.6866C118.304 18.6583 118.505 18.453 118.529 18.1977L118.604 17.3573L118.68 18.1977C118.703 18.4527 118.904 18.6583 119.159 18.6866L119.782 18.7554L119.159 18.8243C118.904 18.8525 118.703 19.0578 118.68 19.3132L118.604 20.1535L118.529 19.3132C118.505 19.0582 118.304 18.8525 118.049 18.8243L117.427 18.7554L118.049 18.6866ZM145.09 53.3745L143.726 53.2237C143.594 53.2095 143.49 53.103 143.478 52.9713L143.321 51.2315C143.317 51.1838 143.277 51.1475 143.23 51.1475C143.182 51.1475 143.142 51.1838 143.138 51.2315L142.981 52.9717C142.969 53.103 142.865 53.2095 142.734 53.2237L141.37 53.3745C141.323 53.3799 141.288 53.4192 141.288 53.4663C141.288 53.5133 141.323 53.5526 141.37 53.558L142.734 53.7088C142.865 53.723 142.97 53.8295 142.981 53.9615L143.138 55.7013C143.142 55.749 143.182 55.7853 143.23 55.7853C143.277 55.7853 143.317 55.749 143.321 55.7013L143.478 53.9612C143.49 53.8298 143.594 53.7233 143.726 53.7092L145.09 53.5583C145.136 53.5529 145.172 53.5136 145.172 53.4666C145.172 53.4195 145.136 53.3799 145.09 53.3745ZM143.705 53.5254C143.487 53.5492 143.314 53.7256 143.295 53.9444L143.23 54.6641L143.165 53.9447C143.145 53.7253 142.972 53.5492 142.754 53.5251L142.22 53.4659L142.754 53.4068C142.972 53.3826 143.145 53.2065 143.165 52.9875C143.165 52.9871 143.165 52.9871 143.165 52.9871L143.23 52.2677L143.295 52.9871C143.314 53.2065 143.487 53.3826 143.705 53.4068L144.239 53.4659L143.705 53.5254ZM157.544 69.3614L156.18 69.2105C156.048 69.1964 155.944 69.0899 155.932 68.9582L155.776 67.2184C155.772 67.1707 155.732 67.1344 155.684 67.1344C155.636 67.1344 155.596 67.1707 155.592 67.2184L155.436 68.9585C155.423 69.0899 155.319 69.1964 155.188 69.2105L153.824 69.3614C153.777 69.3668 153.742 69.4061 153.742 69.4531C153.742 69.5002 153.777 69.5395 153.824 69.5449L155.188 69.6957C155.319 69.7098 155.424 69.8163 155.436 69.9481L155.592 71.6879C155.596 71.7356 155.636 71.7719 155.684 71.7719C155.732 71.7719 155.772 71.7356 155.776 71.6879L155.932 69.9477C155.944 69.8163 156.048 69.7098 156.18 69.6957L157.544 69.5449C157.591 69.5395 157.626 69.5002 157.626 69.4531C157.626 69.4061 157.591 69.3668 157.544 69.3614ZM156.16 69.5123C155.941 69.5361 155.769 69.7125 155.749 69.9313L155.684 70.651L155.619 69.9316C155.599 69.7125 155.426 69.5361 155.208 69.5119L154.674 69.4528L155.208 69.3937C155.426 69.3695 155.599 69.1934 155.619 68.9743C155.619 68.974 155.619 68.974 155.619 68.974L155.684 68.2546L155.749 68.974C155.769 69.1931 155.942 69.3695 156.16 69.3937L156.694 69.4528L156.16 69.5123ZM139.651 36.9824L137.526 36.7479C137.32 36.7251 137.158 36.5597 137.14 36.3548L136.895 33.6426C136.889 33.5683 136.826 33.5119 136.752 33.5119C136.678 33.5119 136.616 33.5683 136.608 33.6426L136.364 36.3548C136.346 36.5601 136.183 36.7254 135.978 36.7479L133.853 36.9824C133.78 36.9905 133.725 37.0523 133.725 37.1252C133.725 37.1985 133.78 37.2603 133.853 37.2684L135.978 37.5036C136.183 37.5264 136.345 37.6917 136.364 37.8967L136.608 40.6089C136.615 40.6831 136.677 40.7396 136.752 40.7396C136.826 40.7396 136.888 40.6831 136.895 40.6089L137.14 37.8967C137.158 37.6914 137.32 37.5264 137.526 37.5036L139.651 37.2684C139.724 37.2603 139.779 37.1985 139.779 37.1252C139.779 37.052 139.724 36.9905 139.651 36.9824ZM137.494 37.2173C137.153 37.2549 136.884 37.5298 136.854 37.8705L136.753 38.9941L136.651 37.8705C136.621 37.5298 136.351 37.2553 136.011 37.2173L135.179 37.1252L136.011 37.0335C136.351 36.9959 136.621 36.721 136.651 36.3803L136.753 35.2567L136.854 36.3803C136.884 36.7214 137.154 36.9962 137.494 37.0335L138.326 37.1252L137.494 37.2173ZM131.588 45.8098L129.869 45.6196C129.704 45.6015 129.573 45.4674 129.557 45.3015L129.36 43.1087C129.355 43.0486 129.304 43.0029 129.244 43.0029C129.184 43.0029 129.133 43.0486 129.128 43.1087L128.931 45.3018C128.915 45.4674 128.784 45.6015 128.619 45.6196L126.9 45.8098C126.841 45.8165 126.797 45.8663 126.797 45.9254C126.797 45.9849 126.841 46.0343 126.9 46.041L128.619 46.2312C128.784 46.249 128.916 46.383 128.931 46.5494L129.128 48.7421C129.133 48.8022 129.184 48.8479 129.244 48.8479C129.304 48.8479 129.355 48.8022 129.36 48.7421L129.557 46.549C129.573 46.3834 129.704 46.2493 129.869 46.2312L131.588 46.041C131.647 46.0343 131.691 45.9845 131.691 45.9254C131.691 45.8663 131.647 45.8165 131.588 45.8098ZM129.843 46C129.568 46.0302 129.351 46.2523 129.326 46.5282L129.244 47.4364L129.162 46.5285C129.137 46.2523 128.919 46.0302 128.645 45.9997L127.972 45.9254L128.645 45.8512C128.92 45.8209 129.137 45.5988 129.162 45.323L129.244 44.4147L129.326 45.3226C129.351 45.5991 129.569 45.8209 129.843 45.8515L130.516 45.9257L129.843 46ZM146.434 77.3152L144.374 77.0874C144.176 77.0659 144.019 76.9053 144 76.706L143.764 74.0788C143.758 74.0066 143.697 73.9518 143.625 73.9518C143.553 73.9518 143.492 74.0066 143.486 74.0788L143.249 76.7067C143.231 76.9053 143.074 77.0659 142.876 77.0874L140.817 77.3152C140.746 77.3233 140.693 77.3827 140.693 77.454C140.693 77.5252 140.746 77.5843 140.817 77.5927L142.876 77.8205C143.074 77.842 143.232 78.0027 143.249 78.2016L143.486 80.8291C143.492 80.9013 143.553 80.9558 143.625 80.9558C143.697 80.9558 143.758 80.901 143.764 80.8291L144 78.2012C144.019 78.0027 144.176 77.842 144.374 77.8205L146.434 77.5927C146.504 77.5847 146.557 77.5252 146.557 77.454C146.557 77.3827 146.504 77.3236 146.434 77.3152ZM144.343 77.543C144.013 77.5793 143.752 77.8454 143.723 78.176L143.624 79.2643L143.526 78.1764C143.496 77.8454 143.235 77.5793 142.906 77.543L142.099 77.454L142.906 77.3649C143.235 77.3286 143.496 77.0625 143.526 76.7319V76.7312L143.624 75.6433L143.723 76.7312C143.752 77.0625 144.013 77.3283 144.343 77.3649L145.149 77.454L144.343 77.543ZM155.487 19.203L152.783 18.9039C152.522 18.8757 152.316 18.6647 152.293 18.4036L151.981 14.9553C151.973 14.8605 151.894 14.7886 151.799 14.7886C151.705 14.7886 151.625 14.8605 151.617 14.9553L151.306 18.4043C151.282 18.6647 151.076 18.8757 150.816 18.9039L148.113 19.203C148.02 19.2137 147.95 19.2917 147.95 19.3851C147.95 19.4785 148.02 19.5565 148.113 19.5672L150.816 19.8662C151.077 19.8945 151.283 20.1055 151.306 20.3666L151.617 23.8149C151.625 23.9097 151.705 23.9816 151.799 23.9816C151.894 23.9816 151.973 23.9097 151.981 23.8149L152.293 20.3659C152.316 20.1055 152.522 19.8945 152.783 19.8662L155.487 19.5672C155.579 19.5565 155.649 19.4785 155.649 19.3851C155.649 19.2914 155.579 19.2134 155.487 19.203ZM152.742 19.5017C152.31 19.5494 151.967 19.8985 151.928 20.3326L151.799 21.7613L151.67 20.3333C151.631 19.8988 151.289 19.5494 150.856 19.5017L149.797 19.3848L150.856 19.2678C151.289 19.2201 151.631 18.871 151.67 18.4369V18.4362L151.799 17.0082L151.928 18.4362C151.967 18.871 152.31 19.2201 152.742 19.2678L153.801 19.3848L152.742 19.5017Z" fill="#F0F0F0"/>
</svg>
