<svg width="48" height="48" viewBox="0 0 48 48" fill="none" xmlns="http://www.w3.org/2000/svg">
<rect width="48" height="48" rx="1.81132" fill="#1FD18E"/>
<path d="M31.5 15.75H16.5C16.1022 15.75 15.7206 15.908 15.4393 16.1893C15.158 16.4706 15 16.8522 15 17.25V22.5C15 27.4425 17.3925 30.4378 19.3997 32.0803C21.5616 33.8484 23.7122 34.4484 23.8059 34.4738C23.9348 34.5088 24.0708 34.5088 24.1997 34.4738C24.2934 34.4484 26.4413 33.8484 28.6059 32.0803C30.6075 30.4378 33 27.4425 33 22.5V17.25C33 16.8522 32.842 16.4706 32.5607 16.1893C32.2794 15.908 31.8978 15.75 31.5 15.75ZM28.2825 22.2806L23.0325 27.5306C22.9628 27.6004 22.8801 27.6557 22.7891 27.6934C22.698 27.7312 22.6004 27.7506 22.5019 27.7506C22.4033 27.7506 22.3057 27.7312 22.2147 27.6934C22.1236 27.6557 22.0409 27.6004 21.9713 27.5306L19.7213 25.2806C19.5805 25.1399 19.5015 24.949 19.5015 24.75C19.5015 24.551 19.5805 24.3601 19.7213 24.2194C19.862 24.0786 20.0529 23.9996 20.2519 23.9996C20.4509 23.9996 20.6418 24.0786 20.7825 24.2194L22.5 25.9397L27.2194 21.2194C27.2891 21.1497 27.3718 21.0944 27.4628 21.0567C27.5539 21.019 27.6515 20.9996 27.75 20.9996C27.8485 20.9996 27.9461 21.019 28.0372 21.0567C28.1282 21.0944 28.2109 21.1497 28.2806 21.2194C28.3503 21.2891 28.4056 21.3718 28.4433 21.4628C28.481 21.5539 28.5004 21.6515 28.5004 21.75C28.5004 21.8485 28.481 21.9461 28.4433 22.0372C28.4056 22.1282 28.3503 22.2109 28.2806 22.2806H28.2825Z" fill="white"/>
<circle cx="23.5" cy="23.5" r="5.5" fill="white"/>
<path d="M28.9794 23.384L26.87 25.2042L27.5127 27.9262C27.5481 28.074 27.539 28.229 27.4864 28.3715C27.4339 28.5141 27.3402 28.6379 27.2173 28.7273C27.0944 28.8167 26.9478 28.8676 26.796 28.8737C26.6441 28.8798 26.4939 28.8408 26.3642 28.7615L23.997 27.3047L21.6284 28.7615C21.4988 28.8403 21.3487 28.879 21.1972 28.8727C21.0456 28.8664 20.8993 28.8153 20.7766 28.726C20.654 28.6367 20.5605 28.5131 20.508 28.3708C20.4555 28.2285 20.4462 28.0738 20.4814 27.9262L21.1264 25.2042L19.017 23.384C18.9023 23.2849 18.8194 23.1542 18.7785 23.0082C18.7377 22.8622 18.7408 22.7074 18.7874 22.5631C18.834 22.4188 18.922 22.2915 19.0406 22.197C19.1591 22.1025 19.3029 22.045 19.4539 22.0317L22.2195 21.8086L23.2864 19.2267C23.3442 19.086 23.4424 18.9656 23.5688 18.8809C23.6951 18.7962 23.8438 18.751 23.9959 18.751C24.148 18.751 24.2966 18.7962 24.423 18.8809C24.5493 18.9656 24.6476 19.086 24.7053 19.2267L25.7717 21.8086L28.5374 22.0317C28.6887 22.0445 28.8329 22.1017 28.9518 22.196C29.0708 22.2904 29.1593 22.4178 29.2062 22.5622C29.2531 22.7067 29.2563 22.8618 29.2155 23.008C29.1746 23.1543 29.0915 23.2853 28.9766 23.3845L28.9794 23.384Z" fill="#1FD18E"/>
</svg>
