<svg width="201" height="200" viewBox="0 0 201 200" fill="none" xmlns="http://www.w3.org/2000/svg">
<path d="M102.124 193.977C151.581 193.977 191.674 169.442 191.674 139.177C191.674 108.911 151.581 84.3764 102.124 84.3764C52.6677 84.3764 12.5752 108.911 12.5752 139.177C12.5752 169.442 52.6677 193.977 102.124 193.977Z" fill="#F5F5F5"/>
<path d="M147.437 161.917C147.093 161.917 146.582 161.858 146.099 161.58L130.268 152.439C129.701 152.112 129.362 151.564 129.362 150.974C129.362 150.384 129.701 149.836 130.268 149.509L156.483 134.374C156.966 134.095 157.477 134.036 157.821 134.036C158.165 134.036 158.677 134.095 159.159 134.374L174.99 143.514C175.558 143.841 175.896 144.388 175.896 144.979C175.896 145.57 175.558 146.117 174.99 146.444L148.775 161.58C148.292 161.858 147.781 161.917 147.437 161.917Z" fill="#E0E0E0"/>
<path d="M114.164 181.956C112.104 181.956 110.108 181.729 108.234 181.282C106.306 180.824 104.543 180.173 102.998 179.348L102.959 179.327C102.642 179.149 102.232 178.903 101.706 178.575C101.211 178.266 100.704 177.941 100.182 177.599C99.6592 177.257 99.1688 176.928 98.7104 176.612C98.2332 176.286 97.866 176.023 97.594 175.812C96.2396 174.753 95.2176 173.539 94.5492 172.201C93.8144 170.726 93.5984 169.171 93.9064 167.576C94.1984 166.063 95.0076 164.556 96.312 163.097C97.5452 161.717 99.2716 160.449 101.59 159.22C104.158 157.858 106.647 156.858 108.986 156.247C111.335 155.633 113.593 155.313 115.697 155.296L115.896 155.295C117.95 155.295 119.909 155.55 121.719 156.053C123.552 156.564 125.284 157.255 126.866 158.108C127.496 158.457 128.172 158.868 128.897 159.344C129.631 159.825 130.246 160.256 130.774 160.662C131.758 161.39 132.45 162.202 132.834 163.075C133.204 163.927 133.323 164.782 133.191 165.624C133.25 165.62 133.308 165.617 133.368 165.616L133.478 165.614C134.224 165.614 134.914 165.835 135.476 166.253C136.238 166.792 136.621 167.685 136.48 168.606C136.381 169.242 136.217 169.928 135.991 170.648C135.721 171.506 135.232 172.385 134.536 173.264C133.886 174.086 133.018 174.922 131.884 175.818C130.788 176.683 129.333 177.597 127.56 178.537C125.341 179.713 123.078 180.585 120.832 181.128C118.598 181.668 116.401 181.946 114.3 181.955L114.164 181.956ZM112.761 168.399C112.832 168.451 112.913 168.507 113.004 168.566C113.712 169.03 114.413 169.304 115.089 169.38C115.215 169.394 115.338 169.401 115.456 169.401C115.759 169.401 116.042 169.355 116.314 169.26C116.248 169.214 116.176 169.164 116.096 169.112C115.381 168.643 114.671 168.362 113.987 168.276C113.863 168.261 113.74 168.252 113.622 168.252C113.325 168.253 113.041 168.301 112.761 168.399Z" fill="#E0E0E0"/>
<path d="M67.2321 174.662L15.7413 145.002C14.6553 144.374 14.6553 143.358 15.7413 142.731L120.24 82.422C121.326 81.7948 123.087 81.7948 124.173 82.422L175.664 112.082C176.75 112.71 176.75 113.726 175.664 114.353L71.1653 174.662C70.0793 175.289 68.3181 175.289 67.2321 174.662Z" fill="#E0E0E0"/>
<path d="M63.7815 23.744L61.1607 25.2572C61.1735 25.14 61.1827 25.024 61.1827 24.9104V24.1512C61.1827 22.8 60.2343 22.2524 59.0639 22.928C58.5899 23.2016 58.1539 23.6352 57.8011 24.1424C57.6095 22.4436 56.2767 21.8108 54.6575 22.7452C52.9071 23.756 51.4879 26.214 51.4879 28.2352V29.3712C51.4879 29.8948 51.5847 30.3356 51.7563 30.6872L49.5795 31.944C48.9303 32.3188 48.4043 33.23 48.4043 33.9796C48.4043 34.7292 48.9303 35.0328 49.5795 34.658L63.7815 26.4588C64.4307 26.084 64.9567 25.1728 64.9567 24.4232C64.9567 23.6732 64.4307 23.3692 63.7815 23.744Z" fill="#EBEBEB"/>
<path d="M46.4574 16.7828L45.0118 17.3388V14.154C45.0118 11.6292 42.9982 11.024 40.8118 12.2864C38.6254 13.5488 36.853 16.6188 36.853 19.1432V19.6056C36.357 19.4076 35.7162 19.4844 35.0158 19.8888C33.4422 20.7972 32.167 23.0064 32.167 24.8232V25.0332L30.1514 26.1972C29.1154 26.7952 28.2754 28.25 28.2754 29.4464C28.2754 30.6428 29.1154 31.1276 30.1514 30.5296L46.4578 21.1152C47.4938 20.5168 48.3338 19.062 48.3338 17.8656C48.3334 16.6696 47.4934 16.1844 46.4574 16.7828Z" fill="#EBEBEB"/>
<path d="M24.8738 133.422L27.5962 131.848C27.5962 131.848 29.2166 125.116 28.571 119.057C27.663 110.539 22.0562 107.334 19.9242 108.069C17.7922 108.803 17.1746 111.282 20.7026 116.355C22.7838 119.348 25.3406 125.583 24.8738 133.422Z" fill="#1FD18E"/>
<g opacity="0.15">
<path d="M24.8738 133.422L27.5962 131.848C27.5962 131.848 29.2166 125.116 28.571 119.057C27.663 110.539 22.0562 107.334 19.9242 108.069C17.7922 108.803 17.1746 111.282 20.7026 116.355C22.7838 119.348 25.3406 125.583 24.8738 133.422Z" fill="black"/>
</g>
<path d="M26.0015 130.114C25.9927 130.114 25.9843 130.112 25.9755 130.111C25.8731 130.091 25.8055 129.992 25.8251 129.89C27.3175 122.034 24.5731 113.205 21.1743 109.532C21.1035 109.455 21.1079 109.336 21.1847 109.265C21.2615 109.195 21.3807 109.199 21.4515 109.275C24.9119 113.016 27.7103 121.988 26.1959 129.96C26.1787 130.054 26.0939 130.118 26.0015 130.114Z" fill="white"/>
<path d="M17.3511 138.733C16.9211 138.952 15.7771 137.973 15.4583 137.735C14.9127 137.328 14.4819 136.768 14.2083 136.146C13.8899 135.421 13.8391 134.66 13.9895 133.884C14.0675 133.481 14.2007 133.092 14.3339 132.704C14.4643 132.323 14.5951 131.943 14.7255 131.562C14.8543 131.186 14.9847 130.798 14.9543 130.402C14.8927 129.604 14.2175 129.013 13.6019 128.502C12.9215 127.937 12.2203 127.201 12.2723 126.247C12.3127 125.511 12.7283 124.846 13.2135 124.292C13.6987 123.737 14.2659 123.254 14.7091 122.664C15.0279 122.24 15.2855 121.736 15.2639 121.206C15.2503 120.876 15.1299 120.561 14.9879 120.264C14.6823 119.625 14.2663 119.034 14.0679 118.355C13.8691 117.676 13.9439 116.847 14.4891 116.396C14.9363 116.026 15.5747 116.003 16.1515 116.07C16.6851 116.133 17.1959 116.401 17.6515 116.685C19.1239 117.604 19.8979 119.441 21.4723 120.17C22.0795 120.452 22.7563 120.541 23.3939 120.744C24.0315 120.948 24.6739 121.311 24.9431 121.924C25.4739 123.132 24.3055 124.529 24.6571 125.801C24.9683 126.926 26.0227 127.404 26.5767 128.432C26.8187 128.882 26.8543 129.39 26.7863 129.896C26.6707 130.753 26.5131 131.378 26.0519 132.314C25.6707 133.088 24.5975 134.55 24.5975 134.55C24.5975 134.55 17.4171 138.7 17.3511 138.733Z" fill="#1FD18E"/>
<path d="M21.5185 136.561C21.5161 136.561 21.5133 136.561 21.5133 136.561C21.4065 136.551 21.3305 136.459 21.3397 136.355C22.0289 128.882 18.9177 120.438 16.4729 117.906C16.4005 117.832 16.4025 117.712 16.4777 117.639C16.5529 117.567 16.6721 117.569 16.7449 117.644C19.2385 120.226 22.4149 128.812 21.7161 136.39C21.7069 136.491 21.6193 136.566 21.5185 136.561Z" fill="white"/>
<path d="M20.776 127.347C20.7576 127.346 20.7388 127.343 20.7208 127.336C18.3524 126.471 15.3604 126.188 15.3308 126.186C15.2268 126.176 15.1504 126.084 15.16 125.98C15.1696 125.877 15.2528 125.798 15.3656 125.81C15.396 125.813 18.4356 126.099 20.8508 126.982C20.9488 127.017 20.9992 127.126 20.9632 127.224C20.9336 127.303 20.8564 127.352 20.776 127.347Z" fill="white"/>
<path d="M19.1457 143.108L67.0193 170.743C68.5729 171.64 70.4037 171.659 72.0141 170.836L168.396 115.187C169.914 114.31 171.146 112.349 171.146 110.807C171.146 109.265 169.916 107.304 168.397 106.428L120.701 78.8904C119.189 78.0172 116.714 78.0172 115.202 78.8904L19.1457 134.35C17.6273 135.226 16.3965 137.187 16.3965 138.729C16.3965 140.271 17.6273 142.232 19.1457 143.108Z" fill="#37474F"/>
<path d="M67.0193 170.743L19.1457 143.108C17.6273 142.231 16.3965 140.271 16.3965 138.729C16.3965 137.187 17.6273 135.226 19.1457 134.35L69.6245 105.205V171.429C68.7281 171.437 67.8353 171.214 67.0193 170.743Z" fill="#263238"/>
<path d="M68.1576 165.819C69.4908 166.588 71.6728 166.588 73.006 165.819L168.408 110.739C170.46 109.555 170.46 107.617 168.408 106.432L120.704 78.8904C119.192 78.0172 116.718 78.0172 115.206 78.8904L19.1496 134.35C17.6376 135.223 17.6376 136.651 19.1496 137.524L68.1576 165.819Z" fill="#455A64"/>
<path d="M72.7909 160.273C74.2337 161.106 76.5733 161.106 78.0161 160.273L160.107 112.877C161.55 112.044 161.55 110.694 160.107 109.86L115.231 83.954C113.794 83.1244 111.443 83.1244 110.006 83.954L27.9145 131.35C26.4777 132.18 26.4777 133.537 27.9145 134.367L72.7909 160.273Z" fill="#37474F"/>
<path d="M112.777 83.3408C113.671 83.3628 114.553 83.5628 115.231 83.9544L160.107 109.861C161.55 110.694 161.55 112.045 160.107 112.878L151.212 118.014L112.777 93.4704V83.3408Z" fill="#263238"/>
<path d="M109.975 85.9156C111.412 85.086 113.763 85.086 115.2 85.9156L160.077 111.822C160.362 111.986 160.587 112.172 160.759 112.369C160.591 112.552 160.374 112.724 160.107 112.877L78.0165 160.273C76.5737 161.106 74.2341 161.106 72.7913 160.273L27.9149 134.367C27.6333 134.204 27.4085 134.021 27.2373 133.826C27.4045 133.641 27.6157 133.466 27.8841 133.312L109.975 85.9156Z" fill="#FAFAFA"/>
<path d="M143.703 97.7436L135.75 93.1516C135.276 92.8776 135.252 92.4472 135.697 92.1904C136.142 91.9332 136.888 91.9472 137.362 92.2212L145.315 96.8132C145.79 97.0872 145.814 97.5176 145.368 97.7744C144.923 98.0312 144.178 98.0176 143.703 97.7436Z" fill="#263238"/>
<path d="M130.046 89.8703C129.601 89.6131 129.601 89.1967 130.046 88.9395C130.491 88.6827 131.213 88.6827 131.658 88.9395C132.103 89.1967 132.103 89.6131 131.658 89.8703C131.213 90.1271 130.491 90.1271 130.046 89.8703Z" fill="#263238"/>
<path d="M126.822 88.0064C126.377 87.7496 126.377 87.3328 126.822 87.0756C127.267 86.8188 127.989 86.8188 128.434 87.0756C128.879 87.3328 128.879 87.7492 128.434 88.0064C127.989 88.2632 127.267 88.2632 126.822 88.0064Z" fill="#263238"/>
<path d="M152.615 102.898C152.17 102.642 152.17 102.225 152.615 101.968C153.06 101.71 153.782 101.71 154.227 101.968C154.672 102.225 154.672 102.641 154.227 102.898C153.782 103.155 153.06 103.155 152.615 102.898Z" fill="#263238"/>
<path d="M149.391 101.034C148.945 100.777 148.945 100.361 149.391 100.104C149.836 99.8464 150.557 99.8464 151.003 100.104C151.448 100.361 151.448 100.777 151.003 101.034C150.557 101.292 149.836 101.292 149.391 101.034Z" fill="#263238"/>
<path d="M70.7861 147.035V147.209C70.7861 147.486 70.9809 147.824 71.2213 147.963L80.5597 153.354C80.8001 153.493 81.1901 153.493 81.4301 153.354L96.8937 144.426C97.1341 144.288 97.3289 143.95 97.3289 143.672V143.499C97.3289 143.221 97.1341 142.884 96.8937 142.745L87.5553 137.353C87.3149 137.214 86.9249 137.214 86.6849 137.353L71.2213 146.281C70.9809 146.42 70.7861 146.758 70.7861 147.035Z" fill="#1FD18E"/>
<path d="M70.7861 147.035V147.209C70.7861 147.486 70.9809 147.824 71.2213 147.963L80.5597 153.354C80.8001 153.493 81.1901 153.493 81.4301 153.354L96.8937 144.426C97.1341 144.288 97.3289 143.95 97.3289 143.672V143.499C97.3289 143.221 97.1341 142.884 96.8937 142.745L87.5553 137.353C87.3149 137.214 86.9249 137.214 86.6849 137.353L71.2213 146.281C70.9809 146.42 70.7861 146.758 70.7861 147.035Z" fill="#1FD18E"/>
<path opacity="0.3" d="M96.8937 142.745L87.5553 137.353C87.3149 137.214 86.9249 137.214 86.6845 137.353L80.9945 140.638V153.458H80.9941C81.1517 153.458 81.3093 153.424 81.4297 153.354L96.8933 144.426C97.1337 144.288 97.3285 143.95 97.3285 143.672V143.499C97.3289 143.221 97.1341 142.884 96.8937 142.745Z" fill="white"/>
<path opacity="0.15" d="M96.8937 142.745L87.5553 137.353C87.3149 137.214 86.9249 137.214 86.6845 137.353L80.9945 140.638V153.458H80.9941C81.1517 153.458 81.3093 153.424 81.4297 153.354L96.8933 144.426C97.1337 144.288 97.3285 143.95 97.3285 143.672V143.499C97.3289 143.221 97.1341 142.884 96.8937 142.745Z" fill="black"/>
<path opacity="0.3" d="M80.9959 140.638L71.2223 146.281C70.9819 146.42 70.7871 146.758 70.7871 147.035V147.209C70.7871 147.486 70.9819 147.824 71.2223 147.963L80.5607 153.354C80.6807 153.424 80.8383 153.458 80.9959 153.458H80.9963V140.638H80.9959Z" fill="white"/>
<path opacity="0.2" d="M80.9959 140.638L71.2223 146.281C70.9819 146.42 70.7871 146.758 70.7871 147.035V147.209C70.7871 147.486 70.9819 147.824 71.2223 147.963L80.5607 153.354C80.6807 153.424 80.8383 153.458 80.9959 153.458H80.9963V140.638H80.9959Z" fill="black"/>
<path d="M79.0645 151.312L71.2213 146.784C70.9809 146.645 70.9809 146.42 71.2213 146.281L86.6849 137.353C86.9253 137.214 87.3153 137.214 87.5553 137.353L96.8937 142.744C97.1341 142.883 97.1341 143.108 96.8937 143.247L94.3285 144.728L93.4305 145.247L81.4301 152.175C81.1897 152.314 80.7997 152.314 80.5593 152.175L79.7985 151.736L79.0645 151.312Z" fill="#1FD18E"/>
<path opacity="0.3" d="M79.0645 151.312L71.2213 146.784C70.9809 146.645 70.9809 146.42 71.2213 146.281L86.6849 137.353C86.9253 137.214 87.3153 137.214 87.5553 137.353L96.8937 142.744C97.1341 142.883 97.1341 143.108 96.8937 143.247L94.3285 144.728L93.4305 145.247L81.4301 152.175C81.1897 152.314 80.7997 152.314 80.5593 152.175L79.7985 151.736L79.0645 151.312Z" fill="white"/>
<path opacity="0.15" d="M86.1841 143.79L96.8937 142.745L86.2785 143.346L87.5553 137.354C87.4249 137.278 87.2517 137.248 87.0809 137.254L85.0781 145.354L71.0441 146.512C71.0341 146.61 71.0913 146.71 71.2209 146.784L82.5545 146.126L80.9945 152.28L82.9893 146.101L84.9249 145.989C85.1685 145.975 85.3909 145.876 85.5637 145.722H85.5649L85.5653 145.72C85.7265 145.576 85.8445 145.382 85.8921 145.159L86.1841 143.79Z" fill="black"/>
<path opacity="0.3" d="M74.3937 146.235L85.0793 145.354L85.4617 143.823L85.6729 142.97L87.0837 137.254C86.9393 137.259 86.7965 137.29 86.6857 137.354L78.9537 141.818L71.2217 146.282C71.1109 146.346 71.0537 146.428 71.0449 146.512L73.1881 146.335L74.3937 146.235Z" fill="white"/>
<path d="M85.3524 136.075C86.3292 135.511 87.9124 135.511 88.8892 136.075C89.8656 136.639 89.8656 137.553 88.8892 138.117C87.9128 138.681 86.3292 138.681 85.3524 138.117C84.376 137.553 84.376 136.638 85.3524 136.075Z" fill="#F28F8F"/>
<path d="M85.8857 137.432C85.8545 137.429 85.8301 137.421 85.8121 137.406C85.7949 137.392 85.7881 137.375 85.7921 137.357L85.9385 136.714C85.9425 136.699 85.9477 136.68 85.9549 136.658C85.9617 136.636 85.9793 136.616 86.0085 136.599L86.3665 136.392C86.3881 136.38 86.4145 136.374 86.4457 136.374C86.4773 136.374 86.5033 136.38 86.5249 136.392L88.4185 137.486C88.4397 137.498 88.4505 137.514 88.4509 137.532C88.4505 137.55 88.4401 137.565 88.4185 137.577L88.0345 137.799C88.0129 137.812 87.9865 137.818 87.9553 137.818C87.9237 137.818 87.8973 137.811 87.8761 137.799L86.5949 137.059L86.5101 137.413C86.5061 137.431 86.4917 137.445 86.4677 137.456C86.4433 137.467 86.4153 137.471 86.3841 137.469L85.8857 137.432Z" fill="#FAFAFA"/>
<path d="M103.313 140.222L92.8064 134.155C92.5672 134.017 92.5672 133.793 92.8064 133.655L130.934 111.641C131.174 111.503 131.561 111.503 131.8 111.641L142.309 117.708C142.548 117.846 142.548 118.07 142.309 118.208L104.179 140.222C103.94 140.36 103.552 140.36 103.313 140.222Z" fill="#1FD18E"/>
<path d="M101.293 133.367C101.258 133.388 101.221 133.398 101.183 133.398C101.146 133.398 101.118 133.397 101.099 133.396L98.9143 133.15L100.207 133.896C100.23 133.909 100.242 133.926 100.242 133.945C100.241 133.964 100.23 133.981 100.207 133.994L99.9527 134.14C99.9295 134.154 99.9011 134.16 99.8679 134.161C99.8343 134.16 99.8063 134.154 99.7831 134.14L97.7555 132.97C97.7323 132.956 97.7211 132.94 97.7207 132.921C97.7211 132.902 97.7323 132.885 97.7555 132.872L97.9751 132.745C98.0107 132.725 98.0475 132.714 98.0847 132.714C98.1227 132.714 98.1507 132.715 98.1695 132.716L100.355 132.963L99.0611 132.216C99.0383 132.203 99.0271 132.187 99.0267 132.167C99.0271 132.148 99.0383 132.132 99.0611 132.118L99.3159 131.972C99.3387 131.958 99.3671 131.952 99.4003 131.952C99.4343 131.952 99.4619 131.958 99.4855 131.972L101.513 133.142C101.536 133.156 101.548 133.172 101.548 133.191C101.547 133.211 101.536 133.227 101.513 133.24L101.293 133.367Z" fill="#FAFAFA"/>
<path d="M101.161 132.501C101.044 132.433 100.952 132.359 100.884 132.279C100.816 132.198 100.777 132.117 100.768 132.034C100.759 131.951 100.779 131.87 100.831 131.79C100.882 131.709 100.966 131.635 101.083 131.567C101.2 131.5 101.328 131.451 101.466 131.42C101.604 131.39 101.743 131.377 101.882 131.38C102.021 131.383 102.158 131.402 102.291 131.437C102.425 131.472 102.546 131.52 102.652 131.582L102.794 131.663C102.817 131.676 102.828 131.693 102.829 131.712C102.828 131.732 102.817 131.748 102.794 131.761L101.745 132.366C101.793 132.394 101.846 132.413 101.903 132.423C101.959 132.433 102.017 132.435 102.076 132.43C102.134 132.425 102.191 132.414 102.248 132.396C102.305 132.378 102.356 132.355 102.402 132.329C102.469 132.29 102.517 132.255 102.545 132.223C102.573 132.191 102.59 132.161 102.596 132.133C102.603 132.11 102.61 132.092 102.619 132.08C102.627 132.068 102.644 132.055 102.669 132.04L102.92 131.895C102.943 131.882 102.972 131.875 103.006 131.874C103.041 131.874 103.069 131.881 103.089 131.895C103.117 131.913 103.139 131.944 103.154 131.988C103.169 132.032 103.169 132.085 103.153 132.146C103.135 132.206 103.099 132.271 103.041 132.34C102.983 132.409 102.896 132.478 102.779 132.546C102.662 132.614 102.535 132.663 102.399 132.694C102.263 132.726 102.124 132.739 101.982 132.734C101.839 132.73 101.699 132.708 101.559 132.668C101.419 132.629 101.287 132.574 101.161 132.501ZM101.46 131.785C101.399 131.82 101.356 131.855 101.331 131.89C101.306 131.925 101.293 131.959 101.292 131.992C101.291 132.026 101.3 132.057 101.319 132.086C101.337 132.115 101.36 132.14 101.387 132.16L102.096 131.75C102.061 131.735 102.02 131.72 101.974 131.707C101.928 131.694 101.878 131.686 101.823 131.685C101.769 131.684 101.711 131.691 101.651 131.705C101.59 131.72 101.527 131.746 101.46 131.785Z" fill="#FAFAFA"/>
<path d="M104.749 130.611L104.134 129.93C104.123 129.916 104.116 129.902 104.11 129.885C104.105 129.869 104.117 129.852 104.146 129.835L104.385 129.698C104.408 129.685 104.436 129.678 104.47 129.678C104.503 129.678 104.531 129.685 104.555 129.698C104.563 129.703 104.569 129.707 104.573 129.712L105.547 130.821C105.559 130.835 105.568 130.851 105.572 130.868C105.576 130.885 105.563 130.902 105.534 130.919L105.295 131.057C105.266 131.074 105.237 131.081 105.209 131.078C105.181 131.075 105.153 131.07 105.126 131.064L103.984 130.756L104.517 131.415C104.528 131.431 104.535 131.447 104.541 131.463C104.546 131.479 104.534 131.496 104.505 131.513L104.266 131.651C104.237 131.668 104.207 131.675 104.178 131.673C104.149 131.67 104.122 131.666 104.097 131.658L102.175 131.097C102.167 131.094 102.159 131.091 102.151 131.086C102.127 131.073 102.116 131.057 102.116 131.037C102.116 131.018 102.127 131.001 102.15 130.988L102.389 130.85C102.418 130.833 102.447 130.826 102.475 130.829C102.504 130.833 102.529 130.837 102.553 130.843L103.732 131.198L103.136 130.506C103.123 130.494 103.117 130.479 103.116 130.46C103.115 130.441 103.125 130.425 103.148 130.412L103.387 130.274C103.41 130.261 103.438 130.255 103.471 130.255C103.503 130.256 103.529 130.26 103.551 130.267L104.749 130.611Z" fill="#FAFAFA"/>
<path d="M106.167 129.61C106.05 129.543 105.958 129.469 105.89 129.388C105.822 129.308 105.782 129.226 105.774 129.144C105.764 129.061 105.785 128.98 105.836 128.899C105.887 128.819 105.972 128.745 106.089 128.677C106.206 128.609 106.334 128.56 106.472 128.53C106.61 128.5 106.748 128.486 106.888 128.489C107.027 128.492 107.164 128.512 107.297 128.546C107.431 128.581 107.552 128.63 107.658 128.691L107.8 128.773C107.823 128.786 107.834 128.802 107.834 128.822C107.834 128.841 107.823 128.857 107.8 128.87L106.751 129.476C106.799 129.504 106.852 129.522 106.908 129.532C106.965 129.542 107.022 129.544 107.081 129.539C107.14 129.534 107.197 129.523 107.254 129.505C107.31 129.486 107.362 129.464 107.408 129.438C107.475 129.399 107.522 129.364 107.55 129.332C107.578 129.3 107.596 129.27 107.602 129.242C107.608 129.218 107.616 129.201 107.624 129.189C107.633 129.177 107.65 129.164 107.674 129.149L107.926 129.004C107.949 128.991 107.978 128.984 108.012 128.983C108.046 128.983 108.074 128.99 108.096 129.004C108.122 129.022 108.144 129.054 108.16 129.098C108.175 129.141 108.174 129.194 108.158 129.254C108.141 129.314 108.104 129.38 108.047 129.449C107.989 129.518 107.902 129.587 107.785 129.655C107.668 129.722 107.541 129.772 107.405 129.803C107.269 129.835 107.13 129.848 106.988 129.843C106.845 129.838 106.704 129.817 106.565 129.777C106.425 129.738 106.294 129.683 106.167 129.61ZM106.466 128.895C106.405 128.93 106.362 128.965 106.337 129C106.312 129.035 106.298 129.069 106.298 129.102C106.296 129.136 106.306 129.166 106.324 129.195C106.343 129.224 106.366 129.249 106.393 129.27L107.102 128.86C107.067 128.845 107.026 128.83 106.98 128.817C106.934 128.804 106.884 128.796 106.83 128.795C106.774 128.794 106.717 128.801 106.656 128.815C106.596 128.829 106.533 128.856 106.466 128.895Z" fill="#FAFAFA"/>
<path d="M107.8 127.907C107.79 127.843 107.804 127.781 107.842 127.721C107.881 127.661 107.939 127.609 108.016 127.564C108.148 127.488 108.28 127.44 108.414 127.42C108.546 127.4 108.677 127.399 108.804 127.417C108.79 127.377 108.785 127.336 108.792 127.294C108.798 127.251 108.812 127.211 108.834 127.171C108.856 127.132 108.885 127.096 108.922 127.061C108.958 127.026 109 126.996 109.046 126.97C109.165 126.901 109.284 126.855 109.404 126.832C109.524 126.809 109.641 126.803 109.757 126.813C109.874 126.823 109.986 126.848 110.095 126.888C110.203 126.928 110.307 126.976 110.405 127.032L111.25 127.52C111.273 127.534 111.284 127.55 111.284 127.569C111.284 127.588 111.273 127.605 111.25 127.618L111.011 127.756C110.988 127.769 110.959 127.776 110.926 127.776C110.893 127.776 110.865 127.769 110.841 127.756L110.013 127.278C109.87 127.195 109.744 127.154 109.633 127.152C109.522 127.151 109.417 127.179 109.319 127.236C109.235 127.284 109.191 127.341 109.186 127.407C109.181 127.473 109.244 127.546 109.376 127.627L110.22 128.115C110.243 128.128 110.255 128.144 110.255 128.164C110.254 128.183 110.243 128.2 110.22 128.213L109.981 128.351C109.958 128.364 109.93 128.37 109.897 128.371C109.863 128.37 109.835 128.364 109.812 128.35L108.984 127.872C108.841 127.79 108.714 127.748 108.604 127.747C108.492 127.746 108.388 127.774 108.29 127.83C108.204 127.88 108.16 127.939 108.156 128.007C108.153 128.075 108.221 128.15 108.362 128.231L109.191 128.709C109.214 128.722 109.225 128.739 109.225 128.758C109.225 128.778 109.214 128.794 109.191 128.807L108.952 128.945C108.929 128.958 108.9 128.965 108.867 128.965C108.834 128.965 108.806 128.958 108.782 128.945L107.32 128.101C107.297 128.088 107.285 128.071 107.285 128.052C107.285 128.032 107.296 128.016 107.32 128.003L107.558 127.865C107.582 127.852 107.61 127.845 107.643 127.845C107.677 127.845 107.705 127.852 107.728 127.865L107.8 127.907Z" fill="#FAFAFA"/>
<path d="M110.522 126.618C110.487 126.588 110.459 126.55 110.439 126.503C110.419 126.457 110.415 126.405 110.427 126.347C110.438 126.29 110.47 126.23 110.522 126.167C110.574 126.104 110.654 126.042 110.761 125.98C110.868 125.919 110.978 125.871 111.091 125.838C111.206 125.805 111.321 125.786 111.437 125.782C111.553 125.777 111.669 125.789 111.786 125.818C111.901 125.847 112.013 125.892 112.119 125.953L113.043 126.486C113.066 126.499 113.077 126.515 113.077 126.535C113.077 126.554 113.066 126.571 113.043 126.584L112.804 126.722C112.781 126.735 112.753 126.742 112.719 126.742C112.686 126.742 112.658 126.735 112.635 126.721L112.531 126.662C112.548 126.722 112.536 126.789 112.497 126.861C112.456 126.934 112.373 127.007 112.245 127.081C112.155 127.133 112.062 127.172 111.967 127.199C111.872 127.227 111.778 127.241 111.687 127.244C111.595 127.246 111.506 127.238 111.42 127.218C111.334 127.199 111.255 127.169 111.184 127.127C111.04 127.044 110.978 126.949 110.999 126.843C111.02 126.736 111.102 126.625 111.244 126.509L111.668 126.163C111.582 126.114 111.493 126.095 111.401 126.107C111.309 126.119 111.221 126.149 111.137 126.198C111.085 126.228 111.051 126.256 111.037 126.281C111.022 126.307 111.014 126.335 111.011 126.365C111.01 126.385 111.003 126.402 110.994 126.414C110.985 126.427 110.971 126.439 110.952 126.45L110.66 126.618C110.639 126.63 110.615 126.637 110.588 126.638C110.561 126.639 110.539 126.633 110.522 126.618ZM111.931 126.827C112.003 126.786 112.056 126.743 112.091 126.7C112.127 126.657 112.147 126.615 112.151 126.573C112.155 126.533 112.145 126.495 112.123 126.459C112.099 126.424 112.066 126.394 112.022 126.369L111.991 126.35L111.639 126.641C111.568 126.699 111.528 126.747 111.518 126.785C111.509 126.823 111.528 126.856 111.577 126.883C111.62 126.909 111.675 126.914 111.741 126.901C111.807 126.886 111.871 126.862 111.931 126.827Z" fill="#FAFAFA"/>
<path d="M111.654 124.812C111.678 124.798 111.706 124.792 111.739 124.792C111.772 124.792 111.801 124.798 111.824 124.812L112.068 124.953C112.092 124.966 112.103 124.982 112.103 125.002C112.103 125.021 112.092 125.038 112.069 125.051L111.799 125.207C111.776 125.22 111.747 125.227 111.714 125.227C111.68 125.227 111.652 125.22 111.629 125.207L111.384 125.065C111.361 125.052 111.35 125.036 111.35 125.016C111.35 124.997 111.361 124.981 111.384 124.968L111.654 124.812ZM113.867 126.009C113.89 126.023 113.902 126.039 113.902 126.058C113.901 126.078 113.89 126.094 113.867 126.107L113.628 126.245C113.605 126.258 113.577 126.265 113.544 126.265C113.51 126.265 113.482 126.258 113.459 126.245L111.996 125.401C111.973 125.388 111.962 125.371 111.962 125.352C111.962 125.332 111.973 125.316 111.996 125.303L112.235 125.165C112.258 125.152 112.286 125.145 112.32 125.145C112.353 125.145 112.382 125.152 112.405 125.165L113.867 126.009Z" fill="#FAFAFA"/>
<path d="M114.71 125.524C114.733 125.537 114.744 125.553 114.744 125.573C114.744 125.592 114.733 125.609 114.71 125.622L114.471 125.759C114.448 125.773 114.42 125.779 114.386 125.779C114.353 125.779 114.324 125.773 114.302 125.759L112.242 124.571C112.22 124.557 112.208 124.541 112.208 124.521C112.208 124.502 112.22 124.486 112.242 124.473L112.481 124.335C112.504 124.322 112.532 124.315 112.566 124.315C112.6 124.315 112.628 124.322 112.651 124.335L114.71 125.524Z" fill="#FAFAFA"/>
<path d="M102.258 135.058L133.367 117.097C133.75 116.876 134.31 116.842 134.618 117.02C134.926 117.198 134.866 117.521 134.484 117.742L103.371 135.705C102.988 135.926 102.429 135.96 102.122 135.781C101.814 135.602 101.875 135.278 102.258 135.058Z" fill="#FAFAFA"/>
<path d="M104.442 136.319L135.55 118.358C135.933 118.138 136.493 118.103 136.802 118.281C137.11 118.459 137.05 118.782 136.667 119.003L105.555 136.966C105.172 137.187 104.613 137.221 104.305 137.042C103.998 136.864 104.059 136.54 104.442 136.319Z" fill="#FAFAFA"/>
<path d="M58.2509 147.976L42.0029 138.596L114.788 96.5728L131.368 105.762L58.2509 147.976Z" fill="#E0E0E0"/>
<path d="M53.8564 89.4916L123.079 49.5256L125.849 51.1248C126.565 51.5384 127.151 52.5532 127.151 53.3804V104.445C127.151 105.272 126.565 106.287 125.849 106.7L59.2308 145.162C58.5148 145.576 57.3424 145.576 56.6264 145.162L55.1588 144.315C54.4428 143.902 53.8568 142.887 53.8568 142.06L53.8564 89.4916Z" fill="#1FD18E"/>
<path opacity="0.2" d="M53.8564 89.4916L123.079 49.5256L125.849 51.1248C126.565 51.5384 127.151 52.5532 127.151 53.3804V104.445C127.151 105.272 126.565 106.287 125.849 106.7L59.2308 145.162C58.5148 145.576 57.3424 145.576 56.6264 145.162L55.1588 144.315C54.4428 143.902 53.8568 142.887 53.8568 142.06L53.8564 89.4916Z" fill="black"/>
<path d="M122.698 45.0364L122.981 44.8824L121.905 44.2576V44.2584C121.813 44.2044 121.718 44.158 121.62 44.122L91.1544 32.8332C90.348 32.5344 89.3008 32.8676 88.8148 33.5768L54.736 83.344C54.2504 84.0536 53.8564 85.3256 53.8564 86.1852C53.8564 87.6076 53.8564 89.4904 53.8564 89.4904L54.9128 90.104L123.08 49.5252V46.2196C123.08 45.8172 122.932 45.3996 122.698 45.0364Z" fill="#1FD18E"/>
<path opacity="0.1" d="M90.226 33.818C90.0912 33.9216 89.9716 34.0516 89.8732 34.1916L55.7916 83.9572C55.5424 84.3256 55.314 84.8448 55.1584 85.3792L54.0996 84.7668C54.1776 84.5072 54.2708 84.2528 54.3748 84.0144C54.38 84.004 54.38 83.9988 54.3852 83.9936C54.432 83.89 54.4788 83.7912 54.5304 83.6924C54.5408 83.6768 54.546 83.6612 54.5564 83.6456C54.6136 83.5364 54.6756 83.4328 54.738 83.3444L88.8144 33.5788C88.8664 33.5008 88.9232 33.4388 88.9856 33.3712C89.0428 33.314 89.1048 33.2572 89.1672 33.2052L90.226 33.818Z" fill="black"/>
<path opacity="0.35" d="M122.969 44.8776C122.875 44.8204 122.777 44.774 122.678 44.7376L92.2082 33.4444C91.5646 33.2056 90.7654 33.3716 90.2258 33.818L89.167 33.2056C89.7118 32.7644 90.5062 32.5932 91.1546 32.832L121.619 44.12C121.718 44.1564 121.811 44.2032 121.905 44.26L122.969 44.8776Z" fill="white"/>
<path d="M54.5537 83.6436C54.6125 83.536 54.6729 83.4352 54.7353 83.344C54.6733 83.4352 54.6125 83.536 54.5537 83.6436Z" fill="#1FD18E"/>
<path d="M88.9863 33.3716C89.0435 33.3132 89.1047 33.258 89.1687 33.2056C89.1047 33.2576 89.0427 33.3116 88.9863 33.3716Z" fill="#1FD18E"/>
<path d="M54.0977 84.768C54.1757 84.5072 54.2697 84.2508 54.3745 84.0128C54.2693 84.2508 54.1757 84.5068 54.0977 84.768Z" fill="#1FD18E"/>
<path d="M54.3828 83.9916C54.4292 83.8872 54.4788 83.7888 54.5288 83.6936C54.4788 83.7888 54.4296 83.8872 54.3828 83.9916Z" fill="#1FD18E"/>
<path opacity="0.2" d="M88.8145 33.5768C88.8649 33.5032 88.9245 33.4368 88.9857 33.3716C88.9233 33.4352 88.8649 33.5032 88.8145 33.5768Z" fill="black"/>
<path d="M89.8709 34.19L55.7917 83.9576C55.3061 84.6672 54.9121 85.9392 54.9121 86.7988C54.9121 88.2212 54.9121 90.104 54.9121 90.104L124.136 50.1356L124.135 46.8332C124.135 45.9732 123.481 45.034 122.675 44.7352L92.2097 33.4464C91.4041 33.1476 90.3565 33.4808 89.8709 34.19Z" fill="#1FD18E"/>
<path opacity="0.05" d="M124.135 46.8332C124.135 46.438 123.993 46.0284 123.765 45.6696L55.1577 85.3788C55.1577 85.3788 55.1541 85.3848 55.1509 85.3896C55.0041 85.8824 54.9121 86.3876 54.9121 86.7988C54.9121 88.2212 54.9121 90.104 54.9121 90.104L124.136 50.1356L124.135 46.8332Z" fill="black"/>
<path d="M121.179 32.8056C121.179 32.45 121.055 32.1992 120.854 32.0808C120.65 31.9608 118.945 30.9784 118.741 30.8612C118.538 30.744 118.257 30.7608 117.947 30.94L61.1675 63.72C60.5471 64.0784 60.0439 64.9496 60.0439 65.666L60.0443 133.665C60.0443 134.023 60.17 134.274 60.3732 134.392C60.5764 134.51 62.2783 135.492 62.4819 135.609C62.6851 135.726 62.9663 135.71 63.2763 135.53L120.056 102.75C120.676 102.392 121.179 101.52 121.179 100.804L121.179 32.8056Z" fill="#1FD18E"/>
<path opacity="0.95" d="M121.179 32.8056C121.179 32.45 121.055 32.1992 120.854 32.0808C120.65 31.9608 118.945 30.9784 118.741 30.8612C118.538 30.744 118.257 30.7608 117.947 30.94L61.1675 63.72C60.5471 64.0784 60.0439 64.9496 60.0439 65.666L60.0443 133.665C60.0443 134.023 60.17 134.274 60.3732 134.392C60.5764 134.51 62.2783 135.492 62.4819 135.609C62.6851 135.726 62.9663 135.71 63.2763 135.53L120.056 102.75C120.676 102.392 121.179 101.52 121.179 100.804L121.179 32.8056Z" fill="white"/>
<path d="M63.2763 135.531L120.056 102.75C120.676 102.392 121.179 101.521 121.179 100.804L121.179 32.8056C121.179 32.0892 120.676 31.7984 120.055 32.1568L63.2759 64.9368C62.6555 65.2952 62.1523 66.1664 62.1523 66.8828L62.1527 134.882C62.1527 135.599 62.6559 135.889 63.2763 135.531Z" fill="#1FD18E"/>
<path opacity="0.8" d="M63.2763 135.531L120.056 102.75C120.676 102.392 121.179 101.521 121.179 100.804L121.179 32.8056C121.179 32.0892 120.676 31.7984 120.055 32.1568L63.2759 64.9368C62.6555 65.2952 62.1523 66.1664 62.1523 66.8828L62.1527 134.882C62.1527 135.599 62.6559 135.889 63.2763 135.531Z" fill="white"/>
<path d="M62.1507 134.882C62.1507 135.198 62.2495 135.432 62.4155 135.567C62.0367 135.354 60.5627 134.498 60.3759 134.394C60.1683 134.275 60.0439 134.026 60.0439 133.668V65.6648C60.0439 65.3068 60.1683 64.9124 60.3759 64.5592L62.4831 65.7736C62.2755 66.1264 62.1511 66.526 62.1511 66.8844V134.882H62.1507Z" fill="#1FD18E"/>
<path opacity="0.7" d="M62.1507 134.882C62.1507 135.198 62.2495 135.432 62.4155 135.567C62.0367 135.354 60.5627 134.498 60.3759 134.394C60.1683 134.275 60.0439 134.026 60.0439 133.668V65.6648C60.0439 65.3068 60.1683 64.9124 60.3759 64.5592L62.4831 65.7736C62.2755 66.1264 62.1511 66.526 62.1511 66.8844V134.882H62.1507Z" fill="white"/>
<path opacity="0.05" d="M62.1507 134.882C62.1507 135.198 62.2495 135.432 62.4155 135.567C62.0367 135.354 60.5627 134.498 60.3759 134.394C60.1683 134.275 60.0439 134.026 60.0439 133.668V65.6648C60.0439 65.3068 60.1683 64.9124 60.3759 64.5592L62.4831 65.7736C62.2755 66.1264 62.1511 66.526 62.1511 66.8844V134.882H62.1507Z" fill="black"/>
<path d="M82.8736 83.4896C82.6236 89.8152 83.0492 103.371 83.0492 103.371C83.0492 103.371 89.7544 105.398 94.3132 104.642C98.872 103.886 108.62 96.9812 108.62 96.9812L106.996 82.3104L82.8736 83.4896Z" fill="#37474F"/>
<path d="M98.4407 103.141L99.5299 92.808C103.803 90.26 105.194 86.7324 105.194 86.7324C101.305 91.8252 97.2471 91.0008 97.2471 91.0008V103.688C97.6355 103.52 98.0347 103.337 98.4407 103.141Z" fill="#263238"/>
<path d="M109.673 64.43C110.759 58.9244 111.251 51.608 106.461 50.2652C105.214 49.9156 102.037 50.1584 102.037 50.1584L96.8728 50.4148C93.9972 50.7816 89.9632 51.3532 88.9068 51.6132C86.1324 52.2956 85.3088 56.8272 84.0652 66.8696C83.2864 73.1576 82.624 78.0664 82.624 84.1864C87.6976 88.7352 103.555 86.944 107.164 83.9852C107.313 77.0488 107.691 74.4756 109.673 64.43Z" fill="#455A64"/>
<path d="M95.9969 48.5392C95.9473 49.5448 97.1045 51.2416 98.8749 52.4328C100.645 53.624 102.171 54.1064 102.365 54.6036C101.525 54.7612 100.765 55.1776 100.14 56.62C99.5429 57.9976 99.5485 58.042 97.5049 56.62C95.4613 55.198 93.6333 51.9352 93.6377 50.8484C93.6421 49.7616 95.2441 47.6588 96.0305 47.8372L95.9969 48.5392Z" fill="#37474F"/>
<path d="M102.365 54.6036C102.964 53.95 103.531 52.306 103.604 51.5956C103.676 50.8852 103.865 49.018 103.865 49.018C103.865 49.018 104.352 49.1436 104.572 49.4772C104.793 49.8108 105.88 52.0584 105.845 53.3136C105.81 54.5688 105.516 56.266 105.092 56.982C104.667 57.6976 104.383 56.4348 104.106 55.9456C103.746 55.31 103.252 54.6208 102.365 54.6036Z" fill="#37474F"/>
<path d="M101.556 56.0436C101.556 56.0436 101.654 60.5776 101.238 62.988C101.238 62.988 102.602 63.238 103.934 62.9156C103.934 62.9156 103.243 63.7676 100.708 63.376C100.707 63.376 101.487 58.6436 101.556 56.0436Z" fill="#37474F"/>
<path d="M112.289 35.1096C112.231 31.1364 108.962 27.9632 104.989 28.022C101.272 28.0768 98.2567 30.9416 97.9311 34.5636L94.6639 32.2392C94.6639 32.2392 93.4723 32.0532 92.5599 33.014C91.6655 33.9564 92.2155 36.8556 93.3887 39.686C93.3887 39.686 94.5687 44.8536 95.0239 45.6988C95.4791 46.544 96.3967 46.7724 96.3967 46.7724L96.2839 43.628L109.353 42.6896L108.06 41.7696C110.589 40.624 112.333 38.0632 112.289 35.1096Z" fill="#263238"/>
<path d="M96.0934 39.8864C95.6802 40.1416 95.3034 39.2676 94.5518 38.8192C93.913 38.438 92.4774 37.7696 91.5302 39.3552C90.5102 41.0632 92.3614 43.4248 93.6578 43.9112C95.5774 44.632 96.265 43.1268 96.265 43.1268L95.8686 51.1276C98.4826 55.8892 106.241 55.5824 103.603 51.5952L103.92 48.51C103.92 48.51 105.987 48.7924 106.991 48.622C108.661 48.3384 109.695 47.002 110.176 45.1824C110.949 42.2596 111.224 39.9052 110.447 34.1908C109.596 27.928 102.297 27.9704 98.3934 30.5088C94.489 33.048 96.0934 39.8864 96.0934 39.8864Z" fill="#FFA8A7"/>
<path d="M112.041 28.344C111.511 28.0548 110.869 28.0324 110.275 28.1412C110.409 27.2404 109.798 26.3572 108.996 25.9932C108.025 25.552 107.147 25.708 106.292 26.3544C106.469 25.7184 105.891 25.0704 105.245 24.9296C104.6 24.7888 103.936 25.0104 103.32 25.2464C102.402 25.5972 101.499 25.9872 100.567 26.2988C98.9242 26.8476 97.1762 27.1608 95.6906 28.0508C95.3398 28.2608 95.0014 28.5076 94.7622 28.8392C94.4278 29.3028 94.3162 29.898 94.3422 30.4692C94.351 30.6596 94.3826 30.8456 94.4214 31.0296C94.311 30.9096 94.183 30.8036 94.0318 30.7252C93.3302 30.362 92.4806 30.6572 92.1338 31.3844L94.6082 32.666C94.5466 33.1644 94.485 33.6628 94.4346 34.1624C94.3014 35.482 94.0454 37.0196 94.3434 38.332C94.377 38.4804 94.4018 38.6532 94.5046 38.7724C94.5046 38.7724 95.1446 39.2364 95.7918 40.0244C95.9834 40.2576 96.2146 40.634 96.5246 40.7256C96.8334 40.8168 97.2706 40.6436 97.3798 40.3356C97.4454 40.1508 97.427 39.948 97.4078 39.7528C97.3278 38.9396 97.2478 38.1268 97.1678 37.3136C97.1466 37.0964 97.1262 36.8696 97.2074 36.6672C97.3162 36.3948 97.581 36.2244 97.8038 36.034C98.3722 35.5484 98.731 34.826 98.775 34.08C98.789 33.8456 98.7734 33.6056 98.8406 33.3804C98.8918 33.2084 99.0274 32.94 99.2238 32.9396C99.6054 32.938 101.677 33.3892 102.197 33.4604C104.908 33.832 107.82 33.904 110.211 32.574C111.143 32.056 112.712 30.982 112.875 29.8304C112.959 29.2312 112.571 28.6332 112.041 28.344Z" fill="#263238"/>
<path d="M103.921 48.51C103.921 48.51 100.173 47.8124 98.8558 47.1372C97.9746 46.6852 97.2422 45.8904 97.0234 45.3772C97.0234 45.3772 97.2846 46.4824 98.0806 47.4696C99.0542 48.6768 103.819 49.5044 103.819 49.5044L103.921 48.51Z" fill="#F28F8F"/>
<path d="M103.76 39.2135C103.766 39.6163 103.457 39.9467 103.069 39.9511C102.681 39.9559 102.362 39.6331 102.357 39.2303C102.351 38.8275 102.66 38.4975 103.047 38.4927C103.435 38.4883 103.754 38.8111 103.76 39.2135Z" fill="#263238"/>
<path d="M102.395 36.5964L100.749 37.3964C100.537 36.9244 100.734 36.3628 101.189 36.142C101.643 35.9208 102.183 36.1244 102.395 36.5964Z" fill="#263238"/>
<path d="M102.415 43.5983L105.389 44.6647C105.109 45.5167 104.216 45.9691 103.394 45.6747C102.573 45.3803 102.134 44.4507 102.415 43.5983Z" fill="#B16668"/>
<path d="M104.293 45.7128C104.175 44.8704 103.401 44.2784 102.556 44.3888C102.49 44.3976 102.428 44.4172 102.365 44.4336C102.469 44.9896 102.842 45.4772 103.394 45.6752C103.695 45.7828 104.006 45.7884 104.293 45.7128Z" fill="#F28F8F"/>
<path d="M110.198 37.1399L108.608 36.3103C108.824 35.8743 109.354 35.7067 109.793 35.9355C110.232 36.1647 110.413 36.7039 110.198 37.1399Z" fill="#263238"/>
<path d="M109.389 39.0948C109.395 39.4976 109.085 39.8276 108.698 39.8324C108.31 39.8372 107.991 39.5144 107.985 39.1116C107.979 38.7088 108.289 38.3788 108.676 38.374C109.064 38.3692 109.383 38.692 109.389 39.0948Z" fill="#263238"/>
<path d="M105.809 38.6583L105.949 43.1987L108.626 42.5759L105.809 38.6583Z" fill="#F28F8F"/>
<path d="M125.395 105.125C125.374 105.161 125.354 105.192 125.323 105.228L96.4763 96.0816C94.2107 95.0756 91.5583 95.8948 90.2427 98.0004L59.4043 143.835L58.2639 144.494L58.2535 144.499C57.9079 144.691 57.5983 144.717 57.3711 144.598L89.0867 97.352C90.4027 95.2464 93.0603 94.4268 95.3255 95.428L125.395 105.125Z" fill="#1FD18E"/>
<path opacity="0.4" d="M87.4027 102.5L87.4755 102.437L59.4035 143.837L58.2619 144.496L58.2515 144.502C57.9091 144.694 57.5975 144.714 57.3691 144.6L86.2923 101.835L87.4027 102.5Z" fill="white"/>
<path opacity="0.4" d="M125.398 105.126C125.377 105.163 125.356 105.194 125.325 105.23L96.4744 96.08C94.2116 95.0732 91.5596 95.8932 90.2412 98.0004L89.0996 97.336C90.418 95.2392 93.0648 94.4296 95.3276 95.426L125.398 105.126Z" fill="white"/>
<path d="M127.128 53.0536H127.123C127.061 52.68 126.864 52.5764 126.61 52.7524C126.511 52.82 126.397 52.934 126.277 53.0952L126.132 53.2976L97.6659 96.5752L93.4155 102.497C92.9379 103.172 91.8895 103.561 91.0747 103.374L87.4055 102.502L59.3959 92.1904C59.1935 92.1436 59.0015 92.1384 58.8251 92.1696C58.7523 92.1852 58.6799 92.206 58.6123 92.2372L59.6679 91.6268L86.5219 101.468L90.0575 102.73C90.8671 102.922 91.9155 102.533 92.3983 101.853L96.6487 95.9368L125.255 52.4568C125.349 52.3272 125.463 52.2336 125.577 52.1608L123.102 50.7336L124.139 50.1368L125.852 51.1228C126.474 51.4864 126.998 52.3012 127.128 53.0536Z" fill="#1FD18E"/>
<path opacity="0.4" d="M97.6627 96.5728L93.4123 102.494C92.9347 103.169 91.8863 103.558 91.0715 103.372L87.4023 102.5L87.4751 102.437L87.6515 102.157L90.0543 102.728C90.8639 102.92 91.9123 102.53 92.3951 101.85L96.6039 95.9964L97.6627 96.5728Z" fill="white"/>
<path opacity="0.1" d="M125.849 51.1208L124.136 50.1348L123.098 50.7316L125.574 52.1588C125.576 52.1604 125.578 52.162 125.58 52.1636L125.576 52.1612C125.451 52.2396 125.342 52.3356 125.254 52.4572L96.6451 95.9348L96.6035 95.992V95.9972L97.6623 96.5732L126.129 53.2956L126.274 53.0932C126.393 52.9324 126.508 52.818 126.606 52.7508C126.86 52.5744 127.058 52.678 127.12 53.0516H127.125C126.996 52.2988 126.472 51.484 125.849 51.1208Z" fill="black"/>
<path d="M59.9636 93.0188L53.8564 89.4916L53.8568 142.06C53.8568 142.887 54.4428 143.902 55.1588 144.315L56.6264 145.162C57.3428 145.576 58.5148 145.576 59.2308 145.162L59.9636 144.739V93.0188Z" fill="#1FD18E"/>
<path opacity="0.15" d="M59.9636 93.0188L53.8564 89.4916L53.8568 142.06C53.8568 142.887 54.4428 143.902 55.1588 144.315L56.6264 145.162C57.3428 145.576 58.5148 145.576 59.2308 145.162L59.9636 144.739V93.0188Z" fill="black"/>
<path d="M127.154 53.3808V104.444C127.154 104.875 126.998 105.347 126.749 105.762C126.542 106.104 126.282 106.411 125.986 106.618L125.934 106.644C125.903 106.665 125.882 106.686 125.851 106.702L59.2344 145.158L59.224 145.164C58.8764 145.361 58.5648 145.387 58.3364 145.268C58.134 145.164 57.994 144.951 57.9472 144.645C57.9368 144.572 57.9316 144.494 57.9316 144.411V93.3432C57.9316 92.518 58.5804 91.9992 59.3952 92.1912L87.4048 102.503L91.074 103.375C91.8888 103.562 92.9372 103.172 93.4148 102.498L97.6652 96.576L126.132 53.2984L126.277 53.096C126.759 52.4256 127.154 52.5504 127.154 53.3808Z" fill="#1FD18E"/>
<path d="M125.85 106.702C125.88 106.686 125.905 106.666 125.936 106.646L125.986 106.616C126.281 106.411 126.542 106.105 126.748 105.764C126.994 105.355 127.147 104.888 127.152 104.468L97.667 96.576L117.412 111.574L125.85 106.702Z" fill="#1FD18E"/>
<path opacity="0.2" d="M125.85 106.702C125.88 106.686 125.905 106.666 125.936 106.646L125.986 106.616C126.281 106.411 126.542 106.105 126.748 105.764C126.994 105.355 127.147 104.888 127.152 104.468L97.667 96.576L117.412 111.574L125.85 106.702Z" fill="black"/>
<path d="M57.9307 144.408C57.9307 144.84 58.0863 145.135 58.3367 145.266C58.5671 145.386 58.8783 145.361 59.2239 145.165L59.2339 145.16L82.1695 131.919L87.4075 102.5L57.9319 143.56L57.9307 144.408Z" fill="#1FD18E"/>
<path opacity="0.15" d="M90.2313 97.9948L58.3345 145.264C58.0853 145.135 57.9297 144.839 57.9297 144.408L57.9317 143.56L89.0897 97.3512C89.0897 97.346 89.0949 97.3408 89.1001 97.3356L90.2313 97.9948Z" fill="black"/>
<path d="M126.748 105.764C126.542 106.105 126.282 106.411 125.986 106.616L125.936 106.646L59.2331 145.16L59.2231 145.165C58.8771 145.36 58.5663 145.385 58.3359 145.265L90.2359 97.9868C91.5579 95.876 94.2295 95.0564 96.5079 96.0624L126.748 105.764Z" fill="#1FD18E"/>
<path opacity="0.15" d="M54.0995 84.7668L55.1583 85.3792C55.0079 85.8772 54.9143 86.386 54.9143 86.8012C54.9143 88.2232 54.9143 90.102 54.9143 90.102L53.8555 89.4896C53.8555 89.4896 53.8555 87.6056 53.8555 86.1836C53.8555 85.7736 53.9491 85.2648 54.0995 84.7668Z" fill="black"/>
<path d="M59.6671 91.6268L58.6115 92.2372L57.5423 91.6196L54.9111 90.104L55.9335 89.4968L59.6671 91.6268Z" fill="#1FD18E"/>
<path opacity="0.1" d="M59.7139 91.6469L55.9335 89.4973L54.9111 90.1045L57.5423 91.6197L58.6115 92.2373L58.6227 92.2309C58.6867 92.2029 58.7543 92.1821 58.8227 92.1677C58.9991 92.1365 59.1911 92.1417 59.3935 92.1885L61.5219 92.9737L85.9723 101.975L86.3547 101.408L59.7139 91.6469Z" fill="black"/>
<path d="M88.9068 51.6132C85.5132 51.8572 83.186 52.6652 80.9988 57.92C79.5848 61.3172 74.042 73.5248 73.5052 75.5424C72.8748 77.9128 71.458 95.9236 71.458 95.9236L74.6968 97.1388C74.6968 97.1388 73.5868 101.015 72.65 103.23C71.57 105.783 76.8448 105.248 78.5388 102.926C80.238 100.598 81.3876 97.4988 80.462 96.4092C79.2384 94.9688 77.8908 94.0308 77.8908 94.0308L81.4368 77.962L88.8724 62.1552C88.8724 62.1552 92.6028 54.386 88.9068 51.6132Z" fill="#FFA8A7"/>
<path d="M77.8905 94.0308C76.1573 93.0528 74.6045 93.0928 74.6045 93.0928C74.6045 93.0928 76.3077 92.5468 78.0449 93.0924L77.8905 94.0308Z" fill="#F28F8F"/>
<path d="M89.6776 51.4572C87.7716 51.4412 84.2156 51.356 81.9124 55.5164C79.6092 59.6768 76.3516 67.5828 76.3516 67.5828C76.3516 67.5828 77.706 70.9136 84.9532 71.6092L90.5052 59.7964C90.5052 59.7964 91.8568 54.3756 89.6776 51.4572Z" fill="#37474F"/>
<path d="M114.267 54.1852C117.129 56.442 121.78 59.9924 124.04 61.4136C125.748 59.346 128.891 55.1644 129.654 54.2484C130.624 53.084 133.686 51.182 133.686 51.182L134.842 55.8204C134.842 55.8204 129.036 66.53 126.933 68.5124C124.716 70.6012 123.112 69.7352 118.78 67.7496C114.687 65.8736 110.244 63.548 110.244 63.548C111.125 55.7636 110.528 51.5472 106.809 50.2344C109.309 50.5452 111.864 52.2916 114.267 54.1852Z" fill="#FFA8A7"/>
<path d="M121.745 59.8468C120.248 60.258 117.155 64.6596 117.72 67.444L109.838 63.5484C110.792 58.1748 110.998 51.5368 106.461 50.2648C106.125 50.1688 105.649 50.1208 105.133 50.0968C107.393 49.8728 108.868 49.9388 111.236 51.7188C113.604 53.4988 121.745 59.8468 121.745 59.8468Z" fill="#37474F"/>
<path d="M124.04 61.4136C122.911 62.4032 122.546 64.1888 122.327 64.8952C122.327 64.8952 122.092 62.832 123.388 60.9888L124.04 61.4136Z" fill="#F28F8F"/>
<path d="M135.014 45.9924L137.714 44.3536C137.714 44.3536 138.025 58.9312 138.035 59.4052C138.045 59.8792 138.602 60.3416 138.602 60.3416L135.901 61.9784C135.901 61.9784 135.344 61.516 135.334 61.0428C135.324 60.5692 135.014 45.9924 135.014 45.9924Z" fill="#37474F"/>
<path d="M137.844 50.4293C137.844 50.4293 138.62 50.6141 138.917 51.8173C139.214 53.0209 139.363 55.3201 138.672 56.0777C137.981 56.8353 137.036 57.1657 136.409 56.8933C135.235 56.3837 135.592 54.0029 136.533 53.4537C138.036 52.5761 137.856 51.6093 137.856 51.6093L137.844 50.4293Z" fill="#FFA8A7"/>
<path d="M131.688 46.0364L132.872 47.48L133.085 57.7604L131.882 59.77L135.901 61.978C135.55 61.674 135.368 61.3616 135.334 61.0424L135.054 47.8844L131.688 46.0364Z" fill="#455A64"/>
<path d="M131.883 59.7704L131.896 60.402L135.914 62.61L135.901 61.9788L131.883 59.7704Z" fill="#1FD18E"/>
<path d="M135.915 62.61L138.616 60.9732L138.602 60.342L135.901 61.9788L135.915 62.61Z" fill="#1FD18E"/>
<path opacity="0.1" d="M135.915 62.61L138.616 60.9732L138.602 60.342L135.901 61.9788L135.915 62.61Z" fill="black"/>
<path d="M132.474 38.9024C131.949 38.7724 131.34 38.9936 130.776 39.5972L130.756 39.6192C129.641 40.8124 129.124 43.0464 129.6 44.6084L129.609 44.6372C129.855 45.4464 130.321 45.9152 130.866 46.0148L133.202 46.5772L134.633 39.4236L132.474 38.9024Z" fill="#1FD18E"/>
<path opacity="0.7" d="M132.474 38.9024C131.949 38.7724 131.34 38.9936 130.776 39.5972L130.756 39.6192C129.641 40.8124 129.124 43.0464 129.6 44.6084L129.609 44.6372C129.855 45.4464 130.321 45.9152 130.866 46.0148L133.202 46.5772L134.633 39.4236L132.474 38.9024Z" fill="white"/>
<path opacity="0.05" d="M130.866 46.0144L133.202 46.5768L133.676 44.2056L129.426 43.2208C129.417 43.7096 129.47 44.184 129.599 44.608L129.608 44.6368C129.855 45.446 130.32 45.9152 130.866 46.0144Z" fill="black"/>
<path d="M137.21 39.1028L137.209 39.1044C136.619 38.9688 135.946 39.1868 135.307 39.7828C135.239 39.844 135.173 39.9108 135.105 39.982C135.027 40.0664 134.952 40.1528 134.879 40.2452C134.757 40.3964 134.643 40.5564 134.535 40.7272C134.338 41.0364 134.165 41.3736 134.017 41.73C133.622 42.6868 133.413 43.7728 133.436 44.7868C133.448 45.2984 133.519 45.7904 133.657 46.24C133.948 47.1944 134.482 47.7736 135.115 47.9412L132.891 47.428L132.892 47.4232C132.103 47.2048 131.42 46.5936 131.134 45.6544C131.003 45.2252 130.932 44.7556 130.916 44.2692C130.881 43.2364 131.091 42.1236 131.495 41.1456C131.643 40.7896 131.816 40.4508 132.013 40.1428C132.121 39.972 132.235 39.8108 132.357 39.6608C132.43 39.568 132.506 39.4804 132.583 39.3976C132.649 39.3268 132.718 39.2608 132.787 39.1988C133.427 38.6352 134.215 38.4468 134.941 38.5816L134.941 38.58L135.003 38.5936C135.029 38.6 135.056 38.6056 135.082 38.6132L137.21 39.1028Z" fill="#1FD18E"/>
<path opacity="0.1" d="M132.89 47.428L132.891 47.4232C132.103 47.2048 131.419 46.5936 131.133 45.6544C131.002 45.2252 130.931 44.7556 130.915 44.2692L133.435 44.7864C133.448 45.298 133.519 45.79 133.656 46.2396C133.947 47.194 134.481 47.7732 135.114 47.9408L132.89 47.428Z" fill="black"/>
<path d="M138.718 40.8192C139.315 42.7788 138.667 45.5796 137.269 47.076C136.567 47.8292 135.807 48.1088 135.15 47.95C135.138 47.948 135.126 47.9448 135.114 47.9412C134.481 47.7736 133.947 47.1944 133.656 46.24C133.059 44.2804 133.707 41.4796 135.105 39.982C135.802 39.2356 136.555 38.954 137.208 39.104C137.863 39.2536 138.419 39.8376 138.718 40.8192Z" fill="#1FD18E"/>
<path opacity="0.2" d="M138.718 40.8192C139.315 42.7788 138.667 45.5796 137.269 47.076C136.567 47.8292 135.807 48.1088 135.15 47.95C135.138 47.948 135.126 47.9448 135.114 47.9412C134.481 47.7736 133.947 47.1944 133.656 46.24C133.059 44.2804 133.707 41.4796 135.105 39.982C135.802 39.2356 136.555 38.954 137.208 39.104C137.863 39.2536 138.419 39.8376 138.718 40.8192Z" fill="black"/>
<path d="M147.982 37.4412C147.982 37.4412 145.368 39.9764 144.119 45.3676C143.874 46.4264 143.724 47.4108 143.642 48.3068C143.307 51.9728 144.102 54.1852 144.102 54.1852C142.489 52.2048 140.627 50.2124 138.164 49.0032C136.64 48.2548 135.208 47.7516 135.208 47.7516L135.209 47.7488C134.612 47.6092 134.121 47.06 133.853 46.1792C133.676 45.5992 133.612 44.9428 133.65 44.2684C133.671 43.842 133.733 43.4084 133.832 42.9832C134.086 41.8864 134.581 40.8456 135.256 40.1224C135.885 39.4496 136.567 39.1724 137.164 39.3092L137.165 39.3068C137.165 39.3068 138.672 39.4844 140.37 39.4828C143.113 39.48 145.662 38.51 147.982 37.4412Z" fill="#1FD18E"/>
<path opacity="0.7" d="M147.982 37.4412C147.982 37.4412 145.368 39.9764 144.119 45.3676C143.874 46.4264 143.724 47.4108 143.642 48.3068C143.307 51.9728 144.102 54.1852 144.102 54.1852C142.489 52.2048 140.627 50.2124 138.164 49.0032C136.64 48.2548 135.208 47.7516 135.208 47.7516L135.209 47.7488C134.612 47.6092 134.121 47.06 133.853 46.1792C133.676 45.5992 133.612 44.9428 133.65 44.2684C133.671 43.842 133.733 43.4084 133.832 42.9832C134.086 41.8864 134.581 40.8456 135.256 40.1224C135.885 39.4496 136.567 39.1724 137.164 39.3092L137.165 39.3068C137.165 39.3068 138.672 39.4844 140.37 39.4828C143.113 39.48 145.662 38.51 147.982 37.4412Z" fill="white"/>
<path opacity="0.05" d="M143.642 48.3068C143.307 51.9728 144.102 54.1852 144.102 54.1852C142.489 52.2048 140.627 50.2124 138.164 49.0032C136.64 48.2548 135.208 47.7516 135.208 47.7516L135.209 47.7488C134.612 47.6092 134.121 47.06 133.853 46.1792C133.676 45.5992 133.612 44.9428 133.65 44.2684C136.356 44.7288 140.817 45.7388 143.642 48.3068Z" fill="black"/>
<path d="M155.169 40.0833C155.791 42.1265 155.845 44.5545 155.427 46.9389L155.427 46.9401C154.891 49.9941 153.586 52.9729 151.717 54.9729C148.391 58.5341 144.542 57.6416 143.121 52.9808C142.796 51.914 142.627 50.7436 142.597 49.5293C142.527 46.5377 143.311 43.2812 144.737 40.6725C144.938 40.3045 145.151 39.9508 145.377 39.6116C145.471 39.4704 145.567 39.3312 145.665 39.1956L145.667 39.1952C145.806 39.002 145.949 38.8148 146.097 38.6344C146.251 38.4468 146.408 38.2648 146.571 38.0916C149.898 34.5304 153.747 35.4208 155.169 40.0833Z" fill="#1FD18E"/>
<path opacity="0.1" d="M155.427 46.94C154.891 49.994 153.585 52.9728 151.717 54.9728C148.39 58.534 144.542 57.6416 143.121 52.9808C142.796 51.914 142.626 50.7436 142.597 49.5292L142.598 49.5288C143.055 50.0484 144.299 50.6096 144.554 49.8728C144.585 50.9588 144.738 51.9964 145.024 52.9328C145.432 54.2724 146.061 55.2624 146.841 55.7976C147.506 56.2536 148.262 56.3584 149.085 56.106C149.885 55.8632 150.725 55.2848 151.516 54.4396C153.105 52.7384 154.268 50.1976 154.835 47.548C154.835 47.548 155.151 47.6844 155.427 46.94Z" fill="black"/>
<path d="M154.748 40.4956C155.376 42.554 155.361 45.0984 154.836 47.5484C154.269 50.1976 153.107 52.7388 151.517 54.44C150.726 55.2852 149.886 55.8636 149.086 56.1064C148.263 56.3588 147.507 56.254 146.842 55.798C146.062 55.2628 145.434 54.2732 145.025 52.9332C144.739 51.9968 144.587 50.9592 144.555 49.8732C144.543 49.4632 144.548 49.046 144.571 48.6252C144.609 47.8928 144.698 47.1448 144.836 46.4056C144.864 46.2532 144.894 46.102 144.925 45.9516C144.977 45.7008 145.034 45.4496 145.098 45.202C145.312 44.3524 145.59 43.5216 145.922 42.7348C145.925 42.7268 145.93 42.7168 145.933 42.7076C146.155 42.1836 146.401 41.6808 146.667 41.204C146.86 40.8608 147.064 40.5324 147.278 40.2196C147.368 40.088 147.46 39.96 147.554 39.8344C147.667 39.6844 147.783 39.538 147.901 39.3948C148.017 39.2568 148.135 39.1236 148.255 38.994C149.048 38.144 149.889 37.5692 150.689 37.3244C152.46 36.7832 153.978 37.9708 154.748 40.4956Z" fill="#1FD18E"/>
<path opacity="0.3" d="M154.748 40.4956C155.376 42.554 155.361 45.0984 154.836 47.5484C154.269 50.1976 153.107 52.7388 151.517 54.44C150.726 55.2852 149.886 55.8636 149.086 56.1064C148.263 56.3588 147.507 56.254 146.842 55.798C146.062 55.2628 145.434 54.2732 145.025 52.9332C144.739 51.9968 144.587 50.9592 144.555 49.8732C144.543 49.4632 144.548 49.046 144.571 48.6252C144.609 47.8928 144.698 47.1448 144.836 46.4056C144.864 46.2532 144.894 46.102 144.925 45.9516C144.977 45.7008 145.034 45.4496 145.098 45.202C145.312 44.3524 145.59 43.5216 145.922 42.7348C145.925 42.7268 145.93 42.7168 145.933 42.7076C146.155 42.1836 146.401 41.6808 146.667 41.204C146.86 40.8608 147.064 40.5324 147.278 40.2196C147.368 40.088 147.46 39.96 147.554 39.8344C147.667 39.6844 147.783 39.538 147.901 39.3948C148.017 39.2568 148.135 39.1236 148.255 38.994C149.048 38.144 149.889 37.5692 150.689 37.3244C152.46 36.7832 153.978 37.9708 154.748 40.4956Z" fill="black"/>
<path d="M148.885 43.5356L147.78 49.106C146.977 49.0552 145.625 48.994 144.555 49.0432C144.557 48.9044 144.563 48.766 144.571 48.6256C144.609 47.8932 144.698 47.1452 144.836 46.406C144.865 46.2536 144.894 46.1024 144.926 45.952C144.977 45.7012 145.035 45.45 145.099 45.2024C145.313 44.3528 145.59 43.522 145.922 42.7352C145.925 42.7272 145.931 42.7172 145.934 42.708C145.983 42.5928 146.033 42.478 146.084 42.3652C147.346 43.06 148.885 43.5356 148.885 43.5356Z" fill="#1FD18E"/>
<g opacity="0.4">
<path d="M148.885 43.5356L147.78 49.106C146.977 49.0552 145.625 48.994 144.555 49.0432C144.557 48.9044 144.563 48.766 144.571 48.6256C144.609 47.8932 144.698 47.1452 144.836 46.406C144.865 46.2536 144.894 46.1024 144.926 45.952C144.977 45.7012 145.035 45.45 145.099 45.2024C145.313 44.3528 145.59 43.522 145.922 42.7352C145.925 42.7272 145.931 42.7172 145.934 42.708C145.983 42.5928 146.033 42.478 146.084 42.3652C147.346 43.06 148.885 43.5356 148.885 43.5356Z" fill="white"/>
</g>
<path d="M147.991 49.0284C147.411 49.2052 146.922 48.8424 146.683 48.058L146.676 48.034C146.3 46.8012 146.71 45.0316 147.59 44.0896L147.607 44.0712C147.841 43.82 148.095 43.648 148.339 43.5732C148.919 43.3964 149.408 43.7592 149.647 44.544L149.654 44.568C150.03 45.8008 149.62 47.5704 148.74 48.5124L148.723 48.5308C148.488 48.7816 148.235 48.9536 147.991 49.0284Z" fill="#1FD18E"/>
<g opacity="0.7">
<path d="M147.991 49.0284C147.411 49.2052 146.922 48.8424 146.683 48.058L146.676 48.034C146.3 46.8012 146.71 45.0316 147.59 44.0896L147.607 44.0712C147.841 43.82 148.095 43.648 148.339 43.5732C148.919 43.3964 149.408 43.7592 149.647 44.544L149.654 44.568C150.03 45.8008 149.62 47.5704 148.74 48.5124L148.723 48.5308C148.488 48.7816 148.235 48.9536 147.991 49.0284Z" fill="white"/>
</g>
<path d="M146.645 34.6976C146.326 34.7948 145.989 34.6152 145.892 34.2968L144.191 28.7196C144.094 28.4008 144.273 28.064 144.592 27.9668C144.911 27.8696 145.248 28.0492 145.345 28.3676L147.045 33.9448C147.143 34.2636 146.963 34.6004 146.645 34.6976Z" fill="#E0E0E0"/>
<path d="M141.985 37.6048C141.785 37.6656 141.56 37.6212 141.397 37.4688L137.136 33.4888C136.892 33.2612 136.879 32.88 137.107 32.6364C137.333 32.3936 137.715 32.38 137.959 32.6072L142.22 36.5872C142.463 36.8148 142.476 37.196 142.249 37.4396C142.174 37.5196 142.083 37.5748 141.985 37.6048Z" fill="#E0E0E0"/>
<path d="M144.899 66.092C144.801 66.122 144.694 66.1272 144.587 66.1024C144.263 66.0272 144.061 65.7032 144.136 65.3788L145.451 59.6988C145.527 59.374 145.85 59.1716 146.175 59.2472C146.5 59.3224 146.702 59.6464 146.627 59.9708L145.311 65.6508C145.26 65.8688 145.098 66.0312 144.899 66.092Z" fill="#E0E0E0"/>
<path d="M155.481 63.6824C155.162 63.7796 154.825 63.6 154.728 63.2812L153.027 57.704C152.93 57.3856 153.109 57.0484 153.428 56.9512C153.747 56.854 154.084 57.0336 154.181 57.3524L155.881 62.9296C155.979 63.2484 155.799 63.5856 155.481 63.6824Z" fill="#E0E0E0"/>
<path d="M161.757 56.0709C161.557 56.1317 161.332 56.0873 161.169 55.9349L156.907 51.9553C156.664 51.7281 156.651 51.3465 156.878 51.1029C157.105 50.8601 157.487 50.8461 157.731 51.0737L161.992 55.0533C162.236 55.2805 162.249 55.6621 162.021 55.9057C161.946 55.9861 161.855 56.0409 161.757 56.0709Z" fill="#E0E0E0"/>
<path d="M165.756 48.5596C165.658 48.5896 165.552 48.5948 165.445 48.5704L159.765 47.254C159.44 47.1788 159.238 46.8548 159.314 46.5304C159.389 46.2056 159.713 46.004 160.037 46.0788L165.717 47.3948C166.042 47.47 166.244 47.794 166.168 48.1184C166.118 48.3364 165.956 48.4988 165.756 48.5596Z" fill="#E0E0E0"/>
<path d="M165.467 40.0532L159.89 41.7536C159.571 41.8508 159.234 41.6712 159.137 41.3528C159.04 41.0344 159.219 40.6972 159.538 40.6L165.115 38.8996C165.434 38.8024 165.77 38.982 165.868 39.3004C165.965 39.6192 165.786 39.956 165.467 40.0532Z" fill="#E0E0E0"/>
<path d="M156.984 37.0928C156.784 37.1536 156.559 37.1092 156.396 36.9568C156.152 36.7296 156.139 36.348 156.366 36.1044L160.346 31.8436C160.572 31.6004 160.954 31.5872 161.198 31.8144C161.442 32.0416 161.455 32.4232 161.227 32.6668L157.248 36.9276C157.173 37.008 157.082 37.0628 156.984 37.0928Z" fill="#E0E0E0"/>
<path d="M152.134 34.5104C152.036 34.5404 151.929 34.5456 151.823 34.5212C151.498 34.446 151.296 34.122 151.371 33.7976L152.688 28.1176C152.763 27.7928 153.087 27.5908 153.411 27.666C153.736 27.7412 153.938 28.0652 153.863 28.3896L152.546 34.0696C152.496 34.2872 152.333 34.4496 152.134 34.5104Z" fill="#E0E0E0"/>
<path d="M129.654 54.2488C130.805 52.79 130.849 51.8768 131.745 51.162C132.642 50.4468 133.544 50.4008 134.878 50.7836C135.884 51.0724 137.064 50.928 137.472 51.3016C137.587 51.3788 137.407 52.026 136.934 52.2576C136.366 52.5364 135.448 52.4684 134.771 52.472C133.229 52.4804 134.493 53.9928 133.009 55.5272C132.378 56.6276 129.654 54.2488 129.654 54.2488Z" fill="#FFA8A7"/>
<path d="M164.98 77.394L179.131 68.3316L185.364 70.3328L164.98 77.394Z" fill="#1FD18E"/>
<path d="M164.98 77.394L177.211 67.1944L174.493 64.056L164.98 77.394Z" fill="#1FD18E"/>
<path d="M177.211 67.1944V69.5612L164.98 77.394L177.211 67.1944Z" fill="#1FD18E"/>
<path opacity="0.25" d="M177.211 67.1944V69.5612L164.98 77.394L177.211 67.1944Z" fill="black"/>
<path d="M180.113 65.8248C180.001 65.8248 179.889 65.778 179.81 65.6864C179.666 65.5192 179.684 65.2664 179.851 65.122C180.098 64.9088 180.34 64.6892 180.577 64.4628C180.736 64.3104 180.989 64.316 181.142 64.476C181.295 64.6356 181.289 64.8888 181.129 65.0416C180.883 65.2768 180.632 65.5056 180.375 65.7276C180.299 65.7928 180.206 65.8248 180.113 65.8248Z" fill="#E0E0E0"/>
<path d="M182.217 63.7272C182.123 63.7272 182.029 63.6944 181.953 63.628C181.787 63.4824 181.771 63.2296 181.916 63.0636C182.335 62.586 182.743 62.078 183.131 61.5536C183.262 61.376 183.513 61.338 183.69 61.4692C183.868 61.6004 183.906 61.8508 183.775 62.0284C183.374 62.5712 182.951 63.0968 182.517 63.5908C182.439 63.6808 182.328 63.7272 182.217 63.7272ZM184.562 60.56C184.489 60.56 184.416 60.5404 184.35 60.4992C184.163 60.3824 184.106 60.1356 184.223 59.948C184.561 59.408 184.887 58.8412 185.192 58.2632C185.295 58.068 185.537 57.9932 185.733 58.096C185.928 58.1996 186.003 58.4412 185.9 58.6368C185.585 59.232 185.25 59.8156 184.902 60.3724C184.825 60.4936 184.695 60.56 184.562 60.56ZM186.403 57.0744C186.349 57.0744 186.295 57.0636 186.242 57.0404C186.04 56.9508 185.949 56.7148 186.038 56.5128C186.297 55.9256 186.542 55.3184 186.765 54.7072C186.84 54.5 187.07 54.3936 187.277 54.4684C187.485 54.544 187.592 54.7736 187.516 54.9812C187.288 55.6084 187.037 56.2324 186.769 56.836C186.703 56.9856 186.557 57.0744 186.403 57.0744ZM187.756 53.3692C187.719 53.3692 187.681 53.364 187.643 53.3532C187.432 53.2912 187.31 53.0688 187.372 52.8568C187.553 52.2384 187.717 51.604 187.86 50.9708C187.909 50.7552 188.121 50.6196 188.338 50.6684C188.553 50.7168 188.689 50.9308 188.64 51.1464C188.494 51.796 188.325 52.4468 188.14 53.0816C188.089 53.256 187.929 53.3692 187.756 53.3692ZM188.623 49.5208C188.602 49.5208 188.581 49.5192 188.559 49.5156C188.341 49.4808 188.193 49.2756 188.227 49.0576C188.329 48.42 188.412 47.77 188.474 47.1244C188.495 46.9044 188.695 46.7372 188.91 46.7648C189.13 46.786 189.291 46.9812 189.27 47.2012C189.207 47.8628 189.121 48.53 189.017 49.1836C188.986 49.3804 188.816 49.5208 188.623 49.5208ZM188.997 45.5932C188.993 45.5932 188.988 45.5932 188.984 45.5932C188.763 45.586 188.59 45.4016 188.597 45.1808C188.606 44.8728 188.611 44.5644 188.611 44.2564C188.611 43.9152 188.605 43.5744 188.593 43.2336C188.585 43.0128 188.758 42.8272 188.979 42.82C189.207 42.8032 189.385 42.9848 189.393 43.2056C189.405 43.5556 189.411 43.906 189.411 44.2564C189.411 44.5728 189.406 44.8892 189.397 45.2056C189.389 45.422 189.212 45.5932 188.997 45.5932ZM188.857 41.6508C188.654 41.6508 188.481 41.4976 188.459 41.292C188.393 40.6448 188.303 39.9968 188.192 39.3656C188.154 39.148 188.299 38.9404 188.517 38.9024C188.739 38.8644 188.942 39.0104 188.981 39.2276C189.094 39.8776 189.187 40.5448 189.256 41.2104C189.279 41.4304 189.119 41.6268 188.899 41.6496C188.884 41.65 188.871 41.6508 188.857 41.6508ZM188.174 37.7652C187.995 37.7652 187.833 37.6444 187.786 37.4632C187.627 36.8336 187.443 36.2064 187.238 35.5996C187.167 35.3904 187.28 35.1632 187.489 35.0928C187.699 35.0208 187.925 35.1356 187.996 35.344C188.207 35.97 188.398 36.6172 188.562 37.2672C188.616 37.4812 188.486 37.6988 188.272 37.7532C188.239 37.7616 188.206 37.7652 188.174 37.7652ZM186.911 34.0292C186.756 34.0292 186.609 33.9388 186.544 33.7876C186.287 33.192 186.003 32.6044 185.701 32.042C185.596 31.8476 185.669 31.6048 185.863 31.5004C186.057 31.396 186.301 31.4688 186.405 31.6632C186.718 32.246 187.012 32.8544 187.278 33.4708C187.366 33.674 187.272 33.9092 187.069 33.9964C187.017 34.0188 186.964 34.0292 186.911 34.0292ZM185.042 30.5592C184.912 30.5592 184.785 30.496 184.708 30.3792C184.353 29.8404 183.97 29.314 183.569 28.8144C183.431 28.642 183.459 28.3904 183.631 28.2524C183.805 28.1144 184.056 28.1424 184.193 28.3144C184.609 28.8332 185.007 29.38 185.375 29.9396C185.497 30.124 185.446 30.372 185.261 30.4936C185.194 30.5376 185.117 30.5592 185.042 30.5592ZM182.581 27.4808C182.475 27.4808 182.37 27.4392 182.291 27.3568C181.853 26.8976 181.384 26.4416 180.898 26.0016C180.734 25.8532 180.721 25.6004 180.869 25.4364C181.017 25.2728 181.271 25.2604 181.435 25.408C181.936 25.8612 182.419 26.3312 182.87 26.8044C183.023 26.9644 183.017 27.2176 182.857 27.37C182.779 27.4444 182.68 27.4808 182.581 27.4808ZM179.657 24.8324C179.57 24.8324 179.483 24.8044 179.41 24.7464C178.909 24.352 178.382 23.9624 177.842 23.5884C177.661 23.4624 177.615 23.2132 177.741 23.0316C177.866 22.85 178.115 22.8048 178.298 22.9304C178.851 23.3136 179.391 23.7132 179.905 24.118C180.079 24.2548 180.108 24.5064 179.971 24.6796C179.893 24.78 179.775 24.8324 179.657 24.8324ZM176.415 22.5836C176.344 22.5836 176.273 22.5648 176.207 22.5248C175.661 22.1912 175.091 21.8644 174.514 21.5524C174.32 21.4476 174.247 21.2048 174.352 21.0108C174.457 20.8168 174.701 20.7428 174.894 20.8488C175.484 21.1672 176.066 21.5012 176.624 21.842C176.813 21.9572 176.872 22.2032 176.757 22.392C176.681 22.5156 176.55 22.5836 176.415 22.5836ZM172.943 20.708C172.886 20.708 172.827 20.6956 172.772 20.6688C172.187 20.3908 171.587 20.1224 170.987 19.872C170.783 19.7868 170.687 19.5524 170.773 19.3484C170.858 19.144 171.093 19.0484 171.296 19.1336C171.907 19.3896 172.52 19.6628 173.116 19.9468C173.315 20.0416 173.4 20.2804 173.305 20.4796C173.236 20.624 173.093 20.708 172.943 20.708ZM132.553 19.714C132.389 19.714 132.235 19.612 132.177 19.4488C132.102 19.2404 132.211 19.0116 132.419 18.9376C133.045 18.7136 133.677 18.4984 134.299 18.2984C134.512 18.2316 134.735 18.3464 134.803 18.5568C134.87 18.7672 134.755 18.9928 134.544 19.0604C133.931 19.2576 133.306 19.4696 132.688 19.6908C132.644 19.7068 132.598 19.714 132.553 19.714ZM169.305 19.182C169.259 19.182 169.213 19.174 169.167 19.1576C168.566 18.9372 167.943 18.7248 167.315 18.5256C167.105 18.4588 166.988 18.234 167.055 18.0232C167.122 17.8132 167.347 17.6952 167.557 17.7632C168.196 17.966 168.83 18.1824 169.442 18.406C169.649 18.482 169.756 18.712 169.681 18.9192C169.621 19.0816 169.467 19.182 169.305 19.182ZM136.31 18.5056C136.136 18.5056 135.976 18.3916 135.926 18.216C135.865 18.0036 135.987 17.782 136.199 17.7212C136.828 17.5408 137.474 17.3668 138.118 17.2048C138.333 17.1512 138.55 17.2808 138.604 17.4952C138.658 17.7096 138.528 17.9268 138.313 17.9808C137.677 18.1404 137.041 18.312 136.421 18.49C136.383 18.5004 136.347 18.5056 136.31 18.5056ZM165.543 17.9884C165.508 17.9884 165.473 17.984 165.438 17.9744C164.821 17.8072 164.182 17.648 163.538 17.5012C163.323 17.4524 163.188 17.238 163.237 17.0224C163.286 16.8076 163.497 16.6708 163.716 16.7216C164.371 16.8708 165.02 17.0324 165.647 17.2028C165.86 17.2608 165.986 17.48 165.928 17.6936C165.88 17.8712 165.719 17.9884 165.543 17.9884ZM140.138 17.5432C139.954 17.5432 139.788 17.4152 139.747 17.2276C139.701 17.012 139.838 16.7992 140.054 16.7524C140.701 16.6124 141.356 16.4824 142.001 16.3652C142.222 16.3256 142.427 16.4708 142.466 16.6876C142.505 16.9052 142.361 17.1132 142.144 17.1528C141.507 17.268 140.861 17.3964 140.223 17.5344C140.195 17.5404 140.166 17.5432 140.138 17.5432ZM161.695 17.1128C161.671 17.1128 161.646 17.1108 161.621 17.106C160.992 16.9888 160.342 16.8812 159.689 16.7856C159.471 16.7536 159.319 16.5504 159.351 16.332C159.383 16.1132 159.585 15.9588 159.805 15.994C160.467 16.0908 161.128 16.2004 161.767 16.3192C161.985 16.3596 162.128 16.5684 162.088 16.7856C162.052 16.9784 161.884 17.1128 161.695 17.1128ZM144.018 16.84C143.823 16.84 143.651 16.6968 143.623 16.498C143.591 16.2792 143.742 16.0764 143.961 16.0444C144.617 15.9484 145.28 15.8632 145.93 15.7904C146.148 15.7684 146.347 15.924 146.372 16.144C146.397 16.3636 146.238 16.5612 146.019 16.5856C145.377 16.6572 144.724 16.7412 144.077 16.8356C144.057 16.8388 144.037 16.84 144.018 16.84ZM157.789 16.544C157.775 16.544 157.761 16.5432 157.747 16.5416C157.109 16.4736 156.453 16.4164 155.795 16.3704C155.575 16.3548 155.409 16.1636 155.424 15.9436C155.439 15.7232 155.633 15.564 155.851 15.572C156.518 15.6184 157.185 15.6772 157.831 15.746C158.051 15.7696 158.21 15.9664 158.187 16.1864C158.165 16.3916 157.991 16.544 157.789 16.544ZM147.937 16.4044C147.73 16.4044 147.555 16.2448 147.539 16.0344C147.522 15.814 147.687 15.6224 147.908 15.6056C148.57 15.5556 149.237 15.5164 149.89 15.49C150.112 15.4672 150.298 15.6524 150.306 15.8732C150.315 16.094 150.144 16.2804 149.923 16.2892C149.279 16.3152 148.621 16.354 147.968 16.4032C147.958 16.404 147.948 16.4044 147.937 16.4044ZM153.852 16.272C153.847 16.272 153.843 16.272 153.839 16.2716C153.267 16.2536 152.692 16.2448 152.128 16.2448L151.881 16.2452C151.88 16.2452 151.88 16.2452 151.879 16.2452C151.659 16.2452 151.48 16.0676 151.479 15.8472C151.478 15.626 151.656 15.4464 151.877 15.4452L152.128 15.4448C152.7 15.4448 153.284 15.454 153.864 15.4724C154.085 15.4792 154.258 15.664 154.252 15.8844C154.245 16.1008 154.067 16.272 153.852 16.272Z" fill="#E0E0E0"/>
<path d="M129.743 20.7961C129.586 20.7961 129.437 20.7028 129.373 20.5484C129.289 20.344 129.386 20.11 129.591 20.026C129.902 19.898 130.214 19.7721 130.524 19.6497C130.731 19.5701 130.962 19.6701 131.043 19.8749C131.124 20.0805 131.023 20.3129 130.818 20.3941C130.511 20.5153 130.203 20.6393 129.895 20.7661C129.845 20.7865 129.794 20.7961 129.743 20.7961Z" fill="#E0E0E0"/>
<path d="M40.6777 57.264L59.0717 48.248L45.8061 60.862L40.6777 57.264Z" fill="#1FD18E"/>
<path d="M59.0717 48.248L38.7901 54.92L33.6621 51.3216L59.0717 48.248Z" fill="#1FD18E"/>
<path d="M38.79 54.92L39.5916 60.0704L40.6776 57.264L59.0716 48.248L38.79 54.92Z" fill="#1FD18E"/>
<path opacity="0.25" d="M38.79 54.92L39.5916 60.0704L40.6776 57.264L59.0716 48.248L38.79 54.92Z" fill="black"/>
<path d="M39.5918 60.0704L42.387 58.4632L40.6778 57.264L39.5918 60.0704Z" fill="#1FD18E"/>
<path opacity="0.25" d="M40.6777 57.264L42.3869 58.4632L41.9409 58.7196L40.6777 57.264Z" fill="black"/>
<path d="M42.0597 111.252C42.0149 111.252 41.9689 111.244 41.9245 111.228C41.2757 110.995 40.6425 110.756 40.0421 110.519C39.8365 110.438 39.7361 110.205 39.8177 110C39.8989 109.794 40.1317 109.694 40.3369 109.775C40.9293 110.01 41.5545 110.246 42.1953 110.476C42.4033 110.55 42.5113 110.78 42.4369 110.987C42.3777 111.15 42.2237 111.252 42.0597 111.252ZM38.3449 109.777C38.2913 109.777 38.2365 109.766 38.1845 109.743C37.5617 109.469 36.9469 109.184 36.3569 108.895C36.1585 108.798 36.0765 108.558 36.1733 108.36C36.2705 108.162 36.5101 108.079 36.7085 108.176C37.2893 108.461 37.8941 108.742 38.5065 109.011C38.7089 109.1 38.8005 109.336 38.7117 109.538C38.6457 109.688 38.4985 109.777 38.3449 109.777ZM34.7581 108.016C34.6933 108.016 34.6273 108 34.5665 107.966C33.9717 107.641 33.3841 107.299 32.8213 106.952C32.6329 106.836 32.5749 106.59 32.6905 106.402C32.8061 106.214 33.0525 106.155 33.2409 106.271C33.7925 106.612 34.3677 106.946 34.9509 107.265C35.1445 107.371 35.2157 107.614 35.1093 107.808C35.0365 107.941 34.8993 108.016 34.7581 108.016ZM31.3597 105.916C31.2809 105.916 31.2013 105.892 31.1313 105.844C30.5725 105.454 30.0265 105.048 29.5089 104.636C29.3357 104.498 29.3073 104.246 29.4449 104.074C29.5821 103.901 29.8337 103.872 30.0065 104.01C30.5113 104.411 31.0437 104.808 31.5889 105.188C31.7701 105.314 31.8141 105.563 31.6881 105.745C31.6105 105.856 31.4861 105.916 31.3597 105.916ZM28.2369 103.428C28.1405 103.428 28.0437 103.393 27.9669 103.323C27.4649 102.864 26.9789 102.386 26.5221 101.901C26.3705 101.74 26.3781 101.487 26.5385 101.336C26.6989 101.184 26.9521 101.192 27.1041 101.352C27.5473 101.822 28.0193 102.286 28.5069 102.732C28.6697 102.881 28.6813 103.134 28.5321 103.297C28.4533 103.384 28.3453 103.428 28.2369 103.428ZM25.5005 100.522C25.3833 100.522 25.2677 100.472 25.1889 100.373C24.7657 99.848 24.3593 99.2988 23.9805 98.7412C23.8565 98.5584 23.9045 98.3096 24.0873 98.1856C24.2697 98.0608 24.5185 98.1092 24.6433 98.292C25.0093 98.832 25.4021 99.3636 25.8117 99.8716C25.9505 100.044 25.9233 100.296 25.7513 100.434C25.6773 100.494 25.5885 100.522 25.5005 100.522ZM23.2605 97.218C23.1205 97.218 22.9853 97.1448 22.9117 97.0144C22.5829 96.4312 22.2717 95.8228 21.9877 95.206C21.8953 95.0056 21.9829 94.768 22.1837 94.6756C22.3837 94.5828 22.6217 94.6712 22.7141 94.8716C22.9893 95.4684 23.2897 96.0572 23.6081 96.6212C23.7165 96.8132 23.6489 97.0576 23.4561 97.166C23.3945 97.2016 23.3269 97.218 23.2605 97.218ZM21.5869 93.5932C21.4245 93.5932 21.2713 93.4932 21.2117 93.332C20.9813 92.7092 20.7689 92.0612 20.5793 91.4056C20.5181 91.1936 20.6405 90.9716 20.8529 90.9104C21.0653 90.8504 21.2869 90.9716 21.3481 91.184C21.5321 91.8212 21.7385 92.4504 21.9617 93.0552C22.0385 93.2624 21.9329 93.4924 21.7253 93.5688C21.6801 93.5852 21.6333 93.5932 21.5869 93.5932ZM20.4737 89.7568C20.2897 89.7568 20.1241 89.6292 20.0833 89.442C19.9429 88.7972 19.8181 88.128 19.7117 87.4528C19.6777 87.2344 19.8265 87.0296 20.0449 86.9952C20.2633 86.962 20.4677 87.11 20.5025 87.3284C20.6061 87.988 20.7281 88.6416 20.8653 89.2712C20.9121 89.4872 20.7753 89.7 20.5593 89.7472C20.5309 89.754 20.5017 89.7568 20.4737 89.7568ZM19.8493 85.808C19.6469 85.808 19.4733 85.6552 19.4521 85.45C19.3841 84.8044 19.3293 84.1272 19.2889 83.4384C19.2757 83.218 19.4441 83.0288 19.6645 83.0156C19.8841 83.01 20.0737 83.1712 20.0873 83.3912C20.1273 84.068 20.1809 84.7328 20.2473 85.3664C20.2705 85.5864 20.1109 85.7828 19.8913 85.806C19.8769 85.8072 19.8629 85.808 19.8493 85.808ZM19.6413 81.8156C19.6389 81.8156 19.6365 81.8156 19.6341 81.8156C19.4129 81.8116 19.2373 81.6292 19.2413 81.4084C19.2533 80.7348 19.2937 80.0524 19.3617 79.3796C19.3841 79.16 19.5785 79.0036 19.8001 79.0216C20.0201 79.044 20.1801 79.24 20.1581 79.46C20.0921 80.1108 20.0529 80.7712 20.0417 81.4224C20.0373 81.6412 19.8589 81.8156 19.6413 81.8156ZM20.0405 77.8396C20.0165 77.8396 19.9925 77.8376 19.9677 77.8328C19.7505 77.7928 19.6069 77.5848 19.6465 77.3672C19.7681 76.7052 19.9181 76.0384 20.0925 75.3852C20.1497 75.1716 20.3725 75.0444 20.5821 75.102C20.7957 75.1592 20.9225 75.378 20.8653 75.5916C20.6961 76.2244 20.5509 76.8704 20.4333 77.512C20.3981 77.7048 20.2301 77.8396 20.0405 77.8396ZM21.0713 73.978C21.0273 73.978 20.9821 73.9708 20.9381 73.9548C20.7297 73.8812 20.6205 73.6528 20.6945 73.4448C20.9185 72.81 21.1717 72.1752 21.4473 71.5576C21.5373 71.356 21.7725 71.2644 21.9753 71.3552C22.1769 71.4452 22.2677 71.6812 22.1777 71.8832C21.9113 72.4812 21.6661 73.0964 21.4485 73.7108C21.3905 73.876 21.2361 73.978 21.0713 73.978ZM22.6977 70.328C22.6333 70.328 22.5677 70.3124 22.5069 70.2796C22.3129 70.1736 22.2409 69.9312 22.3465 69.7372C22.6697 69.1436 23.0197 68.5564 23.3873 67.9924C23.5077 67.8072 23.7549 67.7552 23.9409 67.8756C24.1261 67.9964 24.1785 68.244 24.0577 68.4292C23.7013 68.9756 23.3625 69.5444 23.0497 70.1196C22.9769 70.2524 22.8393 70.328 22.6977 70.328ZM24.8797 66.9796C24.7945 66.9796 24.7081 66.9524 24.6357 66.896C24.4605 66.7608 24.4285 66.5096 24.5637 66.3352C24.9769 65.8008 25.4165 65.2768 25.8701 64.7788C26.0189 64.6168 26.2717 64.6036 26.4353 64.7528C26.5985 64.9016 26.6105 65.1544 26.4613 65.318C26.0221 65.8 25.5965 66.3072 25.1965 66.8244C25.1173 66.9264 24.9993 66.9796 24.8797 66.9796ZM27.5713 64.0276C27.4641 64.0276 27.3577 63.9848 27.2789 63.9004C27.1281 63.7392 27.1373 63.486 27.2989 63.3352C27.7933 62.874 28.3121 62.4284 28.8405 62.0112C29.0145 61.8736 29.2657 61.9032 29.4021 62.0768C29.5393 62.2504 29.5101 62.502 29.3365 62.6384C28.8253 63.0424 28.3233 63.4736 27.8445 63.92C27.7669 63.992 27.6689 64.0276 27.5713 64.0276ZM30.7061 61.5508C30.5769 61.5508 30.4493 61.4884 30.3725 61.3724C30.2501 61.1884 30.3001 60.94 30.4841 60.8176C31.0445 60.4448 31.6285 60.0904 32.2201 59.7628C32.4129 59.656 32.6569 59.7252 32.7637 59.9192C32.8709 60.1124 32.8009 60.356 32.6073 60.4628C32.0345 60.7796 31.4693 61.1232 30.9269 61.484C30.8593 61.5292 30.7821 61.5508 30.7061 61.5508ZM34.2009 59.6156C34.0485 59.6156 33.9029 59.528 33.8361 59.3804C33.7449 59.1792 33.8345 58.942 34.0357 58.8512C34.6477 58.5744 35.2805 58.3172 35.9161 58.0876C36.1233 58.0124 36.3533 58.1196 36.4281 58.328C36.5033 58.536 36.3957 58.7652 36.1877 58.84C35.5717 59.0628 34.9585 59.312 34.3649 59.5804C34.3121 59.6044 34.2561 59.6156 34.2009 59.6156Z" fill="#E0E0E0"/>
<path d="M134.51 166.152C134.513 166.004 134.444 165.886 134.306 165.795C134.072 165.612 133.776 165.526 133.424 165.536C133.07 165.545 132.762 165.62 132.498 165.76L130.887 166.613C131.02 166.375 131.118 166.13 131.178 165.88C131.225 165.682 131.247 165.482 131.242 165.28C131.234 164.944 131.241 163.078 131.242 162.902C131.246 162.541 131.166 162.174 131.002 161.799C130.758 161.242 130.281 160.704 129.571 160.181C129.08 159.803 128.49 159.388 127.801 158.937C127.112 158.486 126.485 158.104 125.918 157.789C124.458 157.002 122.879 156.373 121.183 155.901C119.486 155.429 117.662 155.201 115.714 155.216C113.766 155.232 111.692 155.528 109.492 156.103C107.292 156.677 104.971 157.612 102.527 158.908C100.442 160.013 98.8663 161.161 97.8035 162.351C96.7387 163.542 96.0944 164.718 95.8704 165.876C95.8012 166.234 95.7692 166.589 95.7732 166.939C95.778 167.332 95.7707 169.016 95.7715 169.353C95.7731 170.15 95.9623 170.926 96.3391 171.682C96.8763 172.758 97.7036 173.732 98.8204 174.606C99.0556 174.788 99.3971 175.033 99.8459 175.34C100.292 175.648 100.77 175.967 101.279 176.301C101.788 176.634 102.282 176.952 102.763 177.252C103.246 177.553 103.637 177.789 103.94 177.959C105.34 178.706 106.927 179.29 108.698 179.711C110.467 180.133 112.332 180.339 114.292 180.33C116.249 180.321 118.273 180.063 120.364 179.558C122.453 179.053 124.541 178.249 126.626 177.144C128.303 176.256 129.642 175.415 130.645 174.624C131.648 173.832 132.421 173.091 132.969 172.398C133.516 171.706 133.888 171.048 134.084 170.424C134.28 169.8 134.42 169.218 134.504 168.676C134.508 168.65 134.51 168.625 134.51 168.601C134.511 168.455 134.51 166.175 134.51 166.152ZM128.512 169.026C128.297 169.34 127.992 169.686 127.593 170.063C127.192 170.44 126.673 170.846 126.036 171.279C125.396 171.712 124.585 172.19 123.603 172.71C122.214 173.446 120.802 173.999 119.371 174.368C117.939 174.736 116.534 174.937 115.154 174.971C113.776 175.005 112.447 174.887 111.169 174.618C109.892 174.35 108.702 173.939 107.601 173.388C107.273 173.23 106.884 173.011 106.434 172.73C105.983 172.448 105.522 172.154 105.053 171.847C104.584 171.54 104.142 171.243 103.724 170.955C103.307 170.668 102.992 170.427 102.781 170.231C101.967 169.528 101.39 168.781 101.05 167.991C101.012 167.901 100.978 167.81 100.946 167.72C101.188 167.027 101.641 166.336 102.308 165.646C103.08 164.847 104.161 164.078 105.551 163.342C107.204 162.465 108.775 161.798 110.266 161.34C111.091 161.086 111.894 160.898 112.678 160.765L112.265 160.983C112.002 161.123 111.854 161.296 111.822 161.502C111.791 161.709 111.884 161.883 112.104 162.026L112.373 162.203C111.682 162.12 110.972 162.124 110.243 162.214C109.514 162.306 108.659 162.611 107.678 163.131C106.79 163.602 106.143 164.122 105.736 164.693C105.379 165.192 105.202 165.705 105.203 166.232C105.203 166.308 105.204 168.282 105.204 168.688C105.204 168.763 105.207 168.838 105.214 168.913C105.273 169.519 105.546 170.138 106.031 170.768C106.515 171.398 107.218 172.013 108.136 172.614C109.054 173.216 110.024 173.688 111.048 174.032C112.072 174.376 113.11 174.588 114.165 174.668C115.218 174.748 116.25 174.692 117.258 174.501C118.266 174.31 119.214 173.979 120.1 173.509C120.843 173.116 121.417 172.752 121.82 172.42C122.224 172.088 122.513 171.781 122.688 171.499C122.863 171.216 122.959 170.953 122.975 170.708C122.992 170.464 122.995 170.224 122.988 169.992C123.663 170.036 124.475 169.979 125.424 169.819C126.37 169.659 127.445 169.262 128.642 168.627C128.706 168.593 128.764 168.556 128.826 168.522C128.732 168.685 128.629 168.852 128.512 169.026ZM114.236 166.666C115.228 166.791 116.215 167.173 117.192 167.813C117.548 168.046 117.844 168.275 118.083 168.499C117.945 168.598 117.792 168.695 117.614 168.789C116.774 169.234 115.86 169.4 114.866 169.288C113.872 169.176 112.885 168.8 111.908 168.16C111.541 167.92 111.236 167.682 110.994 167.448C111.12 167.357 111.258 167.269 111.418 167.184C112.304 166.715 113.244 166.542 114.236 166.666ZM125.386 164.298C124.961 164.483 124.486 164.591 123.953 164.614C123.322 164.641 122.766 164.497 122.287 164.184L116.872 160.638C117.418 160.701 117.959 160.788 118.494 160.916C119.786 161.223 121.053 161.699 122.295 162.341C122.886 162.643 123.476 162.986 124.064 163.372C124.539 163.684 124.974 163.992 125.386 164.298Z" fill="#1FD18E"/>
<path opacity="0.2" d="M134.51 166.152C134.513 166.004 134.444 165.886 134.306 165.795C134.072 165.612 133.776 165.526 133.424 165.536C133.07 165.545 132.762 165.62 132.498 165.76L130.887 166.613C131.02 166.375 131.118 166.13 131.178 165.88C131.225 165.682 131.247 165.482 131.242 165.28C131.234 164.944 131.241 163.078 131.242 162.902C131.246 162.541 131.166 162.174 131.002 161.799C130.758 161.242 130.281 160.704 129.571 160.181C129.08 159.803 128.49 159.388 127.801 158.937C127.112 158.486 126.485 158.104 125.918 157.789C124.458 157.002 122.879 156.373 121.183 155.901C119.486 155.429 117.662 155.201 115.714 155.216C113.766 155.232 111.692 155.528 109.492 156.103C107.292 156.677 104.971 157.612 102.527 158.908C100.442 160.013 98.8663 161.161 97.8035 162.351C96.7387 163.542 96.0944 164.718 95.8704 165.876C95.8012 166.234 95.7692 166.589 95.7732 166.939C95.778 167.332 95.7707 169.016 95.7715 169.353C95.7731 170.15 95.9623 170.926 96.3391 171.682C96.8763 172.758 97.7036 173.732 98.8204 174.606C99.0556 174.788 99.3971 175.033 99.8459 175.34C100.292 175.648 100.77 175.967 101.279 176.301C101.788 176.634 102.282 176.952 102.763 177.252C103.246 177.553 103.637 177.789 103.94 177.959C105.34 178.706 106.927 179.29 108.698 179.711C110.467 180.133 112.332 180.339 114.292 180.33C116.249 180.321 118.273 180.063 120.364 179.558C122.453 179.053 124.541 178.249 126.626 177.144C128.303 176.256 129.642 175.415 130.645 174.624C131.648 173.832 132.421 173.091 132.969 172.398C133.516 171.706 133.888 171.048 134.084 170.424C134.28 169.8 134.42 169.218 134.504 168.676C134.508 168.65 134.51 168.625 134.51 168.601C134.511 168.455 134.51 166.175 134.51 166.152ZM128.512 169.026C128.297 169.34 127.992 169.686 127.593 170.063C127.192 170.44 126.673 170.846 126.036 171.279C125.396 171.712 124.585 172.19 123.603 172.71C122.214 173.446 120.802 173.999 119.371 174.368C117.939 174.736 116.534 174.937 115.154 174.971C113.776 175.005 112.447 174.887 111.169 174.618C109.892 174.35 108.702 173.939 107.601 173.388C107.273 173.23 106.884 173.011 106.434 172.73C105.983 172.448 105.522 172.154 105.053 171.847C104.584 171.54 104.142 171.243 103.724 170.955C103.307 170.668 102.992 170.427 102.781 170.231C101.967 169.528 101.39 168.781 101.05 167.991C101.012 167.901 100.978 167.81 100.946 167.72C101.188 167.027 101.641 166.336 102.308 165.646C103.08 164.847 104.161 164.078 105.551 163.342C107.204 162.465 108.775 161.798 110.266 161.34C111.091 161.086 111.894 160.898 112.678 160.765L112.265 160.983C112.002 161.123 111.854 161.296 111.822 161.502C111.791 161.709 111.884 161.883 112.104 162.026L112.373 162.203C111.682 162.12 110.972 162.124 110.243 162.214C109.514 162.306 108.659 162.611 107.678 163.131C106.79 163.602 106.143 164.122 105.736 164.693C105.379 165.192 105.202 165.705 105.203 166.232C105.203 166.308 105.204 168.282 105.204 168.688C105.204 168.763 105.207 168.838 105.214 168.913C105.273 169.519 105.546 170.138 106.031 170.768C106.515 171.398 107.218 172.013 108.136 172.614C109.054 173.216 110.024 173.688 111.048 174.032C112.072 174.376 113.11 174.588 114.165 174.668C115.218 174.748 116.25 174.692 117.258 174.501C118.266 174.31 119.214 173.979 120.1 173.509C120.843 173.116 121.417 172.752 121.82 172.42C122.224 172.088 122.513 171.781 122.688 171.499C122.863 171.216 122.959 170.953 122.975 170.708C122.992 170.464 122.995 170.224 122.988 169.992C123.663 170.036 124.475 169.979 125.424 169.819C126.37 169.659 127.445 169.262 128.642 168.627C128.706 168.593 128.764 168.556 128.826 168.522C128.732 168.685 128.629 168.852 128.512 169.026ZM114.236 166.666C115.228 166.791 116.215 167.173 117.192 167.813C117.548 168.046 117.844 168.275 118.083 168.499C117.945 168.598 117.792 168.695 117.614 168.789C116.774 169.234 115.86 169.4 114.866 169.288C113.872 169.176 112.885 168.8 111.908 168.16C111.541 167.92 111.236 167.682 110.994 167.448C111.12 167.357 111.258 167.269 111.418 167.184C112.304 166.715 113.244 166.542 114.236 166.666ZM125.386 164.298C124.961 164.483 124.486 164.591 123.953 164.614C123.322 164.641 122.766 164.497 122.287 164.184L116.872 160.638C117.418 160.701 117.959 160.788 118.494 160.916C119.786 161.223 121.053 161.699 122.295 162.341C122.886 162.643 123.476 162.986 124.064 163.372C124.539 163.684 124.974 163.992 125.386 164.298Z" fill="black"/>
<path opacity="0.1" d="M100.946 167.72C101.188 167.027 101.641 166.336 102.307 165.646C103.079 164.847 104.161 164.078 105.55 163.342C107.203 162.465 108.774 161.798 110.265 161.34C111.09 161.086 111.893 160.898 112.677 160.765L114.134 159.993C114.396 159.854 114.704 159.784 115.057 159.788C115.406 159.791 115.692 159.864 115.911 160.008L116.873 160.638C117.418 160.701 117.959 160.788 118.494 160.916C119.787 161.223 121.054 161.699 122.296 162.341C122.886 162.643 123.476 162.986 124.064 163.372C124.54 163.683 124.975 163.991 125.386 164.298C125.464 164.264 125.544 164.232 125.618 164.193C126.097 163.938 126.376 163.631 126.455 163.27C126.532 162.91 126.275 162.508 125.685 162.064C125.194 161.686 124.654 161.304 124.064 160.918C123.476 160.533 122.886 160.19 122.296 159.887C121.054 159.245 119.787 158.77 118.494 158.462C117.2 158.154 115.876 158.034 114.527 158.1C113.175 158.166 111.753 158.428 110.265 158.886C108.774 159.345 107.203 160.012 105.55 160.888C104.161 161.624 103.079 162.393 102.307 163.193C101.534 163.992 101.047 164.794 100.844 165.599C100.643 166.404 100.711 167.201 101.05 167.991C101.011 167.9 100.977 167.81 100.946 167.72Z" fill="black"/>
<path opacity="0.1" d="M117.192 165.359C116.215 164.719 115.228 164.337 114.237 164.212C113.245 164.088 112.305 164.262 111.419 164.731C110.578 165.176 110.207 165.698 110.301 166.298C110.36 166.675 110.593 167.059 110.999 167.451C110.997 167.45 110.996 167.449 110.995 167.448C111.121 167.358 111.259 167.269 111.419 167.184C112.304 166.715 113.244 166.542 114.236 166.666C115.228 166.791 116.215 167.173 117.192 167.813C117.549 168.046 117.844 168.275 118.084 168.499C118.017 168.547 117.946 168.594 117.871 168.641C118.576 168.21 118.894 167.734 118.817 167.212C118.73 166.631 118.191 166.014 117.192 165.359Z" fill="black"/>
<path opacity="0.1" d="M114.165 172.214C113.11 172.134 112.072 171.922 111.048 171.578C110.024 171.234 109.053 170.761 108.135 170.16C107.217 169.559 106.514 168.944 106.03 168.314C105.546 167.684 105.272 167.065 105.214 166.459C105.202 166.34 105.207 166.222 105.213 166.104C105.211 166.146 105.202 166.189 105.202 166.232C105.203 166.307 105.203 168.282 105.203 168.688C105.203 168.762 105.206 168.837 105.213 168.912C105.272 169.519 105.545 170.138 106.03 170.767C106.514 171.398 107.217 172.012 108.135 172.614C109.053 173.215 110.023 173.688 111.047 174.032C112.071 174.376 113.109 174.588 114.164 174.668L114.165 172.214Z" fill="black"/>
<path opacity="0.1" d="M122.986 167.538C122.994 167.77 122.991 168.009 122.974 168.254L122.986 169.991C123.662 170.036 124.474 169.978 125.422 169.818V167.364C124.474 167.524 123.662 167.582 122.986 167.538Z" fill="black"/>
<path opacity="0.1" d="M108.698 177.257C106.927 176.836 105.341 176.252 103.94 175.505C103.637 175.335 103.246 175.099 102.764 174.798C102.283 174.498 101.789 174.18 101.28 173.847C100.771 173.513 100.293 173.194 99.8465 172.886C99.3977 172.58 99.0561 172.334 98.8209 172.152C97.7041 171.278 96.8769 170.304 96.3397 169.228C95.9605 168.468 95.7753 167.686 95.7765 166.883C95.7765 166.902 95.7741 166.92 95.7741 166.939C95.7789 167.332 95.7717 169.016 95.7725 169.353C95.7741 170.15 95.9633 170.926 96.3401 171.682C96.8773 172.758 97.7045 173.732 98.8213 174.606C99.0565 174.788 99.3981 175.033 99.8469 175.34C100.293 175.648 100.771 175.967 101.28 176.301C101.789 176.634 102.283 176.952 102.764 177.252C103.247 177.553 103.638 177.789 103.941 177.959C105.341 178.706 106.928 179.29 108.699 179.711C110.468 180.133 112.333 180.339 114.293 180.33V177.876C112.333 177.885 110.468 177.679 108.698 177.257Z" fill="black"/>
<path d="M129.572 160.181C130.282 160.704 130.759 161.243 131.003 161.8C131.246 162.357 131.305 162.899 131.178 163.427C131.052 163.954 130.766 164.456 130.319 164.929C129.872 165.402 129.311 165.817 128.641 166.173C127.444 166.808 126.369 167.205 125.423 167.364C124.474 167.524 123.662 167.582 122.986 167.538C122.994 167.77 122.991 168.009 122.974 168.254C122.958 168.499 122.862 168.762 122.687 169.045C122.512 169.327 122.223 169.634 121.819 169.966C121.416 170.298 120.842 170.661 120.099 171.055C119.213 171.525 118.265 171.856 117.256 172.047C116.249 172.238 115.216 172.294 114.164 172.214C113.109 172.134 112.071 171.922 111.047 171.578C110.023 171.234 109.052 170.761 108.134 170.16C107.217 169.559 106.514 168.944 106.03 168.314C105.545 167.684 105.272 167.065 105.213 166.459C105.154 165.852 105.326 165.263 105.735 164.692C106.142 164.122 106.789 163.601 107.676 163.131C108.658 162.61 109.512 162.306 110.241 162.214C110.97 162.124 111.681 162.12 112.372 162.203L112.102 162.026C111.883 161.882 111.789 161.708 111.82 161.502C111.853 161.296 112 161.122 112.264 160.983L114.133 159.992C114.395 159.853 114.703 159.784 115.056 159.787C115.406 159.791 115.691 159.864 115.91 160.008L122.286 164.183C122.765 164.497 123.322 164.641 123.952 164.614C124.583 164.587 125.138 164.447 125.618 164.192C126.096 163.938 126.375 163.631 126.454 163.27C126.531 162.91 126.274 162.508 125.684 162.064C125.193 161.686 124.652 161.304 124.063 160.918C123.475 160.532 122.885 160.189 122.294 159.887C121.052 159.244 119.786 158.769 118.493 158.462C117.199 158.154 115.875 158.033 114.526 158.099C113.173 158.165 111.752 158.428 110.264 158.886C108.773 159.344 107.202 160.011 105.549 160.888C104.16 161.624 103.078 162.393 102.306 163.192C101.533 163.992 101.046 164.794 100.843 165.599C100.642 166.404 100.71 167.201 101.049 167.99C101.388 168.781 101.966 169.527 102.78 170.231C102.991 170.426 103.305 170.667 103.722 170.955C104.14 171.242 104.583 171.54 105.051 171.846C105.521 172.154 105.982 172.448 106.432 172.729C106.883 173.01 107.272 173.23 107.599 173.387C108.701 173.938 109.89 174.349 111.167 174.618C112.445 174.887 113.775 175.004 115.152 174.97C116.533 174.937 117.938 174.736 119.369 174.368C120.801 173.999 122.212 173.446 123.601 172.71C124.584 172.189 125.394 171.712 126.034 171.279C126.672 170.846 127.19 170.44 127.592 170.063C127.99 169.685 128.296 169.34 128.51 169.026C128.723 168.712 128.897 168.413 129.029 168.13C129.134 167.886 129.227 167.7 129.313 167.572C129.399 167.444 129.573 167.309 129.838 167.17L132.497 165.76C132.761 165.621 133.068 165.546 133.423 165.536C133.775 165.526 134.071 165.612 134.305 165.795C134.464 165.9 134.531 166.042 134.503 166.222C134.419 166.764 134.279 167.346 134.083 167.97C133.886 168.594 133.515 169.252 132.968 169.944C132.42 170.637 131.646 171.378 130.644 172.17C129.641 172.961 128.302 173.802 126.625 174.69C124.54 175.796 122.452 176.6 120.363 177.105C118.272 177.61 116.248 177.867 114.291 177.876C112.331 177.886 110.466 177.68 108.697 177.258C106.926 176.837 105.339 176.252 103.939 175.505C103.636 175.335 103.244 175.099 102.762 174.798C102.282 174.498 101.788 174.181 101.278 173.847C100.769 173.514 100.291 173.194 99.8456 172.887C99.3968 172.58 99.0552 172.335 98.82 172.152C97.7032 171.279 96.876 170.304 96.3388 169.228C95.8028 168.153 95.6464 167.036 95.8704 165.876C96.094 164.718 96.7384 163.542 97.8036 162.351C98.8668 161.161 100.442 160.013 102.527 158.908C104.971 157.612 107.292 156.678 109.492 156.103C111.692 155.528 113.766 155.233 115.714 155.216C117.662 155.201 119.487 155.429 121.184 155.901C122.88 156.374 124.458 157.003 125.919 157.789C126.486 158.104 127.113 158.486 127.802 158.938C128.49 159.389 129.08 159.803 129.572 160.181ZM111.908 168.16C112.886 168.8 113.872 169.177 114.867 169.288C115.86 169.4 116.775 169.234 117.615 168.789C118.501 168.32 118.903 167.794 118.818 167.212C118.73 166.631 118.191 166.013 117.192 165.359C116.215 164.719 115.228 164.337 114.237 164.212C113.245 164.088 112.305 164.262 111.419 164.731C110.579 165.176 110.208 165.698 110.302 166.298C110.395 166.899 110.93 167.52 111.908 168.16Z" fill="#1FD18E"/>
<path d="M130.131 149.282V149.576C130.131 150.047 130.461 150.619 130.869 150.854L146.7 159.994C147.108 160.23 147.768 160.23 148.176 159.994L174.391 144.859C174.799 144.624 175.129 144.051 175.129 143.581V143.286C175.129 142.816 174.799 142.244 174.391 142.008L158.56 132.868C158.152 132.633 157.492 132.633 157.084 132.868L130.869 148.004C130.461 148.24 130.131 148.812 130.131 149.282Z" fill="#1FD18E"/>
<path d="M130.131 149.282V149.576C130.131 150.047 130.461 150.619 130.869 150.854L146.7 159.994C147.108 160.23 147.768 160.23 148.176 159.994L174.391 144.859C174.799 144.624 175.129 144.051 175.129 143.581V143.286C175.129 142.816 174.799 142.244 174.391 142.008L158.56 132.868C158.152 132.633 157.492 132.633 157.084 132.868L130.869 148.004C130.461 148.24 130.131 148.812 130.131 149.282Z" fill="#1FD18E"/>
<path opacity="0.2" d="M147.438 138.438L130.869 148.004C130.461 148.24 130.131 148.812 130.131 149.282V149.576C130.131 150.047 130.461 150.619 130.869 150.854L146.7 159.994C146.904 160.112 147.171 160.171 147.438 160.171H147.438V138.438Z" fill="black"/>
<path opacity="0.15" d="M147.438 138.438L130.869 148.004C130.461 148.24 130.131 148.812 130.131 149.282V149.576C130.131 150.047 130.461 150.619 130.869 150.854L146.7 159.994C146.904 160.112 147.171 160.171 147.438 160.171H147.438V138.438Z" fill="black"/>
<path opacity="0.2" d="M174.391 142.009L158.56 132.869C158.152 132.634 157.491 132.634 157.084 132.869L147.438 138.438V160.172C147.705 160.172 147.972 160.113 148.176 159.995L174.391 144.86C174.799 144.624 175.129 144.052 175.129 143.582V143.287C175.129 142.816 174.799 142.244 174.391 142.009Z" fill="black"/>
<path d="M144.166 156.533L130.869 148.856C130.462 148.621 130.462 148.239 130.869 148.004L157.084 132.868C157.492 132.633 158.153 132.633 158.56 132.868L174.392 142.008C174.799 142.244 174.799 142.625 174.392 142.86L170.043 145.371L168.52 146.25L148.177 157.996C147.769 158.231 147.108 158.231 146.701 157.996L145.411 157.251L144.166 156.533Z" fill="#1FD18E"/>
<path opacity="0.15" d="M156.235 143.78L174.391 142.009L156.396 143.028L158.56 132.869C158.339 132.741 158.045 132.689 157.756 132.7L154.361 146.432L130.569 148.394C130.552 148.56 130.649 148.729 130.869 148.856L150.083 147.741L147.438 158.173L150.82 147.698L154.101 147.508C154.515 147.484 154.891 147.317 155.184 147.055L155.186 147.055L155.187 147.052C155.46 146.807 155.66 146.479 155.741 146.1L156.235 143.78Z" fill="black"/>
<path opacity="0.3" d="M136.245 147.926L154.361 146.432L155.009 143.836L155.367 142.391L157.759 132.7C157.513 132.708 157.271 132.761 157.084 132.869L143.977 140.436L130.869 148.004C130.681 148.112 130.584 148.252 130.569 148.394L134.203 148.094L136.245 147.926Z" fill="white"/>
</svg>
