<svg width="28" height="28" viewBox="0 0 28 28" fill="none" xmlns="http://www.w3.org/2000/svg">
<mask id="mask0_2351_28669" style="mask-type:alpha" maskUnits="userSpaceOnUse" x="0" y="0" width="28" height="28">
<rect width="28" height="28" fill="#D9D9D9"/>
</mask>
<g mask="url(#mask0_2351_28669)">
<path d="M7 22.167H10.904V16.2887C10.904 15.9901 11.005 15.7396 11.207 15.5374C11.4092 15.3354 11.6597 15.2344 11.9583 15.2344H16.0417C16.3403 15.2344 16.5908 15.3354 16.793 15.5374C16.995 15.7396 17.096 15.9901 17.096 16.2887V22.167H21V11.8464C21 11.7867 20.9869 11.7325 20.9606 11.6839C20.9346 11.6353 20.8991 11.5922 20.8542 11.5547L14.2132 6.56283C14.1533 6.51053 14.0822 6.48438 14 6.48438C13.9177 6.48438 13.8467 6.51053 13.7868 6.56283L7.14583 11.5547C7.10092 11.5922 7.06543 11.6353 7.03938 11.6839C7.01313 11.7325 7 11.7867 7 11.8464V22.167ZM5.25 22.167V11.8464C5.25 11.5125 5.32467 11.1963 5.474 10.8976C5.62353 10.5987 5.83003 10.3527 6.0935 10.1594L12.7347 5.15613C13.1032 4.87496 13.5244 4.73438 13.9983 4.73438C14.4721 4.73438 14.8944 4.87496 15.2653 5.15613L21.9065 10.1594C22.17 10.3527 22.3765 10.5987 22.526 10.8976C22.6753 11.1963 22.75 11.5125 22.75 11.8464V22.167C22.75 22.6442 22.5776 23.0551 22.2329 23.3999C21.8881 23.7446 21.4772 23.917 21 23.917H16.4007C16.1018 23.917 15.8514 23.8159 15.6494 23.6137C15.4472 23.4116 15.346 23.1612 15.346 22.8623V16.9844H12.654V22.8623C12.654 23.1612 12.5528 23.4116 12.3506 23.6137C12.1486 23.8159 11.8982 23.917 11.5993 23.917H7C6.52283 23.917 6.11187 23.7446 5.76712 23.3999C5.42237 23.0551 5.25 22.6442 5.25 22.167Z" fill="white"/>
</g>
</svg>
