<svg width="20" height="20" viewBox="0 0 20 20" fill="none" xmlns="http://www.w3.org/2000/svg">
<path d="M5.4376 17.5C5.10427 17.5 4.8126 17.375 4.5626 17.125C4.3126 16.875 4.1876 16.5833 4.1876 16.25V4.375H3.95843C3.78135 4.375 3.63291 4.31476 3.51312 4.19427C3.39333 4.07377 3.33344 3.92447 3.33344 3.74635C3.33344 3.56823 3.39333 3.42014 3.51312 3.30208C3.63291 3.18403 3.78135 3.125 3.95843 3.125H7.2501C7.2501 2.94444 7.31 2.79514 7.42979 2.67708C7.54958 2.55903 7.69802 2.5 7.8751 2.5H12.1251C12.3022 2.5 12.4506 2.5599 12.5704 2.67969C12.6902 2.79948 12.7501 2.94792 12.7501 3.125H16.0418C16.2189 3.125 16.3673 3.18524 16.4871 3.30573C16.6069 3.42623 16.6668 3.57553 16.6668 3.75365C16.6668 3.93177 16.6069 4.07986 16.4871 4.19792C16.3673 4.31597 16.2189 4.375 16.0418 4.375H15.8126V16.25C15.8126 16.5833 15.6876 16.875 15.4376 17.125C15.1876 17.375 14.8959 17.5 14.5626 17.5H5.4376ZM5.4376 4.375V16.25H14.5626V4.375H5.4376ZM7.64593 13.8333C7.64593 14.0104 7.70618 14.1589 7.82666 14.2786C7.94716 14.3984 8.09647 14.4583 8.27458 14.4583C8.4527 14.4583 8.6008 14.3984 8.71885 14.2786C8.83691 14.1589 8.89593 14.0104 8.89593 13.8333V6.77083C8.89593 6.59375 8.83569 6.44531 8.71521 6.32552C8.59471 6.20573 8.4454 6.14583 8.26729 6.14583C8.08916 6.14583 7.94107 6.20573 7.82302 6.32552C7.70496 6.44531 7.64593 6.59375 7.64593 6.77083V13.8333ZM11.1043 13.8333C11.1043 14.0104 11.1645 14.1589 11.285 14.2786C11.4055 14.3984 11.5548 14.4583 11.7329 14.4583C11.911 14.4583 12.0591 14.3984 12.1772 14.2786C12.2952 14.1589 12.3543 14.0104 12.3543 13.8333V6.77083C12.3543 6.59375 12.294 6.44531 12.1735 6.32552C12.053 6.20573 11.9037 6.14583 11.7256 6.14583C11.5475 6.14583 11.3994 6.20573 11.2814 6.32552C11.1633 6.44531 11.1043 6.59375 11.1043 6.77083V13.8333Z" fill="#FF3A44"/>
</svg>
