<svg width="20" height="20" viewBox="0 0 20 20" fill="none" xmlns="http://www.w3.org/2000/svg">
<path d="M5.4401 17.5C5.10677 17.5 4.8151 17.375 4.5651 17.125C4.3151 16.875 4.1901 16.5833 4.1901 16.25V4.375H3.96094C3.78385 4.375 3.63542 4.31476 3.51562 4.19427C3.39583 4.07377 3.33594 3.92447 3.33594 3.74635C3.33594 3.56823 3.39583 3.42014 3.51562 3.30208C3.63542 3.18403 3.78385 3.125 3.96094 3.125H7.2526C7.2526 2.94444 7.3125 2.79514 7.43229 2.67708C7.55208 2.55903 7.70052 2.5 7.8776 2.5H12.1276C12.3047 2.5 12.4531 2.5599 12.5729 2.67969C12.6927 2.79948 12.7526 2.94792 12.7526 3.125H16.0443C16.2214 3.125 16.3698 3.18524 16.4896 3.30573C16.6094 3.42623 16.6693 3.57553 16.6693 3.75365C16.6693 3.93177 16.6094 4.07986 16.4896 4.19792C16.3698 4.31597 16.2214 4.375 16.0443 4.375H15.8151V16.25C15.8151 16.5833 15.6901 16.875 15.4401 17.125C15.1901 17.375 14.8984 17.5 14.5651 17.5H5.4401ZM5.4401 4.375V16.25H14.5651V4.375H5.4401ZM7.64844 13.8333C7.64844 14.0104 7.70868 14.1589 7.82917 14.2786C7.94967 14.3984 8.09897 14.4583 8.27708 14.4583C8.45521 14.4583 8.6033 14.3984 8.72135 14.2786C8.83941 14.1589 8.89844 14.0104 8.89844 13.8333V6.77083C8.89844 6.59375 8.83819 6.44531 8.71771 6.32552C8.59721 6.20573 8.4479 6.14583 8.26979 6.14583C8.09167 6.14583 7.94358 6.20573 7.82552 6.32552C7.70746 6.44531 7.64844 6.59375 7.64844 6.77083V13.8333ZM11.1068 13.8333C11.1068 14.0104 11.167 14.1589 11.2875 14.2786C11.408 14.3984 11.5573 14.4583 11.7354 14.4583C11.9135 14.4583 12.0616 14.3984 12.1797 14.2786C12.2977 14.1589 12.3568 14.0104 12.3568 13.8333V6.77083C12.3568 6.59375 12.2965 6.44531 12.176 6.32552C12.0555 6.20573 11.9062 6.14583 11.7281 6.14583C11.55 6.14583 11.4019 6.20573 11.2839 6.32552C11.1658 6.44531 11.1068 6.59375 11.1068 6.77083V13.8333Z" fill="#202020"/>
</svg>
