<svg width="24" height="24" viewBox="0 0 24 24" fill="none" xmlns="http://www.w3.org/2000/svg">
<rect x="0.6" y="0.6" width="22.8" height="22.8" rx="11.4" fill="#1FD18E"/>
<rect x="0.6" y="0.6" width="22.8" height="22.8" rx="11.4" stroke="white" stroke-width="1.2"/>
<mask id="mask0_822_25660" style="mask-type:alpha" maskUnits="userSpaceOnUse" x="3" y="3" width="18" height="18">
<rect x="3.6001" y="3.6004" width="16.8" height="16.8" fill="#D9D9D9"/>
</mask>
<g mask="url(#mask0_822_25660)">
<path d="M7.10174 16.9016H7.98481L15.1504 9.73596L14.2673 8.85289L7.10174 16.0185V16.9016ZM6.05176 17.9515V15.5823L15.285 6.35312C15.3909 6.25697 15.5078 6.18268 15.6357 6.13024C15.7636 6.0778 15.8977 6.05157 16.038 6.05157C16.1784 6.05157 16.3143 6.07648 16.4459 6.1263C16.5775 6.17611 16.694 6.2553 16.7954 6.36388L17.6502 7.22945C17.7588 7.33085 17.8362 7.44754 17.8824 7.57952C17.9286 7.71148 17.9517 7.84344 17.9517 7.9754C17.9517 8.11616 17.9277 8.25049 17.8796 8.37839C17.8315 8.50631 17.7551 8.62319 17.6502 8.72904L8.42096 17.9515H6.05176ZM14.7011 9.30217L14.2673 8.85289L15.1504 9.73596L14.7011 9.30217Z" fill="white"/>
</g>
</svg>
