<svg width="16" height="16" viewBox="0 0 16 16" fill="none" xmlns="http://www.w3.org/2000/svg">
<path d="M14.2069 4.58531L11.4144 1.79218C11.3215 1.6993 11.2113 1.62562 11.0899 1.57535C10.9686 1.52508 10.8385 1.49921 10.7072 1.49921C10.5759 1.49921 10.4458 1.52508 10.3245 1.57535C10.2031 1.62562 10.0929 1.6993 10 1.79218L2.29313 9.49968C2.19987 9.5922 2.12593 9.70234 2.0756 9.82369C2.02528 9.94504 1.99959 10.0752 2.00001 10.2066V12.9997C2.00001 13.2649 2.10536 13.5193 2.2929 13.7068C2.48043 13.8943 2.73479 13.9997 3.00001 13.9997H5.79313C5.9245 14.0001 6.05464 13.9744 6.17599 13.9241C6.29735 13.8738 6.40748 13.7998 6.50001 13.7066L14.2069 5.99968C14.2998 5.90682 14.3734 5.79657 14.4237 5.67523C14.474 5.55389 14.4999 5.42383 14.4999 5.29249C14.4999 5.16115 14.474 5.0311 14.4237 4.90976C14.3734 4.78842 14.2998 4.67817 14.2069 4.58531ZM5.79313 12.9997H3.00001V10.2066L8.50001 4.70656L11.2931 7.49968L5.79313 12.9997ZM12 6.79218L9.20688 3.99968L10.7069 2.49968L13.5 5.29218L12 6.79218Z" fill="#202020"/>
</svg>
