<svg width="40" height="40" viewBox="0 0 48 48" fill="none" xmlns="http://www.w3.org/2000/svg">
<path d="M8.06674 37.4452C10.3334 35.7631 12.8026 34.4349 15.4744 33.4606C18.1462 32.4862 20.9898 31.999 24.0051 31.999C27.0205 31.999 29.8641 32.4862 32.5359 33.4606C35.2076 34.4349 37.6769 35.7631 39.9435 37.4452C41.6017 35.6229 42.9154 33.5135 43.8846 31.117C44.8539 28.7203 45.3385 26.1254 45.3385 23.3323C45.3385 17.4212 43.2607 12.3878 39.1051 8.23229C34.9496 4.07674 29.9162 1.99896 24.0051 1.99896C18.094 1.99896 13.0607 4.07674 8.90514 8.23229C4.74959 12.3878 2.67181 17.4212 2.67181 23.3323C2.67181 26.1254 3.15643 28.7203 4.12567 31.117C5.09492 33.5135 6.40861 35.6229 8.06674 37.4452ZM24.0051 25.3322C21.571 25.3322 19.518 24.4963 17.8462 22.8246C16.1744 21.1528 15.3385 19.0998 15.3385 16.6656C15.3385 14.2314 16.1744 12.1785 17.8462 10.5067C19.518 8.83492 21.571 7.99902 24.0051 7.99902C26.4393 7.99902 28.4923 8.83492 30.1641 10.5067C31.8358 12.1785 32.6717 14.2314 32.6717 16.6656C32.6717 19.0998 31.8358 21.1528 30.1641 22.8246C28.4923 24.4963 26.4393 25.3322 24.0051 25.3322ZM24.0051 48.6656C20.4872 48.6656 17.1872 48.004 14.1052 46.6809C11.0232 45.3578 8.34196 43.5561 6.06161 41.2758C3.7813 38.9955 1.97961 36.3143 0.656541 33.2322C-0.66657 30.1502 -1.32812 26.8502 -1.32812 23.3323C-1.32812 19.8143 -0.66657 16.5144 0.656541 13.4324C1.97961 10.3503 3.7813 7.66911 6.06161 5.38876C8.34196 3.10845 11.0232 1.30676 14.1052 -0.0163088C17.1872 -1.33942 20.4872 -2.00098 24.0051 -2.00098C27.5231 -2.00098 30.8231 -1.33942 33.9051 -0.0163088C36.9871 1.30676 39.6683 3.10845 41.9487 5.38876C44.229 7.66911 46.0307 10.3503 47.3537 13.4324C48.6769 16.5144 49.3384 19.8143 49.3384 23.3323C49.3384 26.8502 48.6769 30.1502 47.3537 33.2322C46.0307 36.3143 44.229 38.9955 41.9487 41.2758C39.6683 43.5561 36.9871 45.3578 33.9051 46.6809C30.8231 48.004 27.5231 48.6656 24.0051 48.6656Z" fill="#B7B7B7"/>
</svg>
