<svg width="16" height="16" viewBox="0 0 16 16" fill="none" xmlns="http://www.w3.org/2000/svg">
<g clip-path="url(#clip0_362_27300)">
<rect width="16" height="16" rx="4" fill="white"/>
<path fill-rule="evenodd" clip-rule="evenodd" d="M1.77778 16H14.2222C15.2041 16 16 15.2041 16 14.2222V1.77778C16 0.795938 15.2041 0 14.2222 0H1.77778C0.795938 0 0 0.795938 0 1.77778V14.2222C0 15.2041 0.795938 16 1.77778 16Z" fill="white"/>
<path fill-rule="evenodd" clip-rule="evenodd" d="M12.5078 12.5H10.6586V9.35037C10.6586 8.48682 10.3305 8.00425 9.64697 8.00425C8.90342 8.00425 8.51494 8.50644 8.51494 9.35037V12.5H6.73281V6.5H8.51494V7.3082C8.51494 7.3082 9.05078 6.31669 10.324 6.31669C11.5967 6.31669 12.5078 7.09385 12.5078 8.70117V12.5ZM4.60674 5.71435C3.99971 5.71435 3.50781 5.21859 3.50781 4.60717C3.50781 3.99575 3.99971 3.5 4.60674 3.5C5.21377 3.5 5.70537 3.99575 5.70537 4.60717C5.70537 5.21859 5.21377 5.71435 4.60674 5.71435ZM3.68652 12.5H5.54482V6.5H3.68652V12.5Z" fill="#112C2C"/>
</g>
<defs>
<clipPath id="clip0_362_27300">
<rect width="16" height="16" rx="4" fill="white"/>
</clipPath>
</defs>
</svg>
