<svg width="16" height="17" viewBox="0 0 16 17" fill="none" xmlns="http://www.w3.org/2000/svg">
<path d="M6.69829 12.5615C7.89004 12.5615 9.04771 12.1639 9.98791 11.4314L13.535 14.9791C13.8 15.235 14.2222 15.2277 14.4781 14.9627C14.7278 14.7041 14.7278 14.2943 14.4781 14.0358L10.931 10.4882C12.7482 8.14863 12.3251 4.77873 9.98586 2.96128C7.64667 1.14383 4.27731 1.56705 2.46013 3.9066C0.64296 6.24615 1.06612 9.61605 3.40531 11.4335C4.34705 12.1652 5.50575 12.5621 6.69829 12.5615ZM3.84823 4.34753C5.42229 2.7732 7.97434 2.77318 9.54843 4.34748C11.1225 5.92177 11.1226 8.47422 9.54849 10.0485C7.97443 11.6229 5.42237 11.6229 3.84828 10.0486C3.84826 10.0486 3.84826 10.0486 3.84823 10.0485C2.27417 8.48572 2.26489 5.94258 3.82748 4.36828C3.83439 4.36134 3.84129 4.35444 3.84823 4.34753Z" fill="#181818"/>
</svg>
