<svg width="16" height="16" viewBox="0 0 16 16" fill="none" xmlns="http://www.w3.org/2000/svg">
<g clip-path="url(#clip0_362_27296)">
<path fill-rule="evenodd" clip-rule="evenodd" d="M3.28515 3.26721C3.31737 3.31319 4.06371 4.39951 4.94368 5.68123C5.82364 6.96296 6.63753 8.14829 6.75232 8.3153C6.86711 8.48231 6.96103 8.62231 6.96103 8.62641C6.96103 8.63051 6.91828 8.68321 6.86604 8.74352C6.8138 8.80383 6.66665 8.97456 6.53906 9.12291C6.41146 9.27125 6.19636 9.52129 6.06105 9.67854C5.92576 9.83579 5.68774 10.1125 5.53211 10.2935C5.37649 10.4745 5.09663 10.7999 4.91021 11.0166C4.33364 11.6869 4.25043 11.7837 3.81153 12.2949C3.57717 12.5678 3.35244 12.8288 3.31213 12.8748C3.27182 12.9209 3.23884 12.9633 3.23884 12.9692C3.23884 12.9761 3.38604 12.98 3.65358 12.98H4.06831L4.52426 12.4486C4.77503 12.1563 5.02241 11.8687 5.07399 11.8094C5.18551 11.6811 6.036 10.6915 6.10749 10.6068C6.13486 10.5744 6.17462 10.5283 6.19584 10.5043C6.21707 10.4803 6.3844 10.286 6.56768 10.0723C6.75095 9.85871 6.90595 9.6787 6.91209 9.6723C6.91824 9.66591 7.01526 9.55303 7.1277 9.42146C7.24015 9.2899 7.33562 9.18225 7.33986 9.18225C7.34411 9.18225 7.9217 10.0185 8.62343 11.0406C9.32514 12.0628 9.9118 12.9171 9.92712 12.9393L9.95496 12.9795L11.3776 12.9797C12.5474 12.9799 12.7992 12.9774 12.7947 12.9658C12.79 12.9534 12.1084 11.9592 10.3598 9.41421C9.10103 7.58207 8.93365 7.33587 8.93846 7.32338C8.94312 7.31123 9.11457 7.11069 10.2418 5.79902C10.4351 5.57402 10.7017 5.2637 10.8341 5.10942C10.9665 4.95514 11.1002 4.79978 11.1312 4.76417C11.1622 4.72857 11.3251 4.53922 11.4933 4.34341C11.6614 4.14759 11.9473 3.81485 12.1285 3.60401C12.3097 3.39316 12.4647 3.21231 12.4728 3.20212C12.4867 3.18467 12.4631 3.18359 12.0663 3.18359H11.6451L11.4577 3.40207C11.2084 3.69283 10.7576 4.21716 10.6296 4.36533C10.573 4.4308 10.5025 4.51307 10.4728 4.54816C10.4432 4.58324 10.3846 4.65105 10.3427 4.69885C10.3009 4.74664 10.0899 4.99209 9.8738 5.24428C9.65776 5.49647 9.47804 5.70524 9.47442 5.70821C9.4708 5.71117 9.42451 5.76487 9.37154 5.82754C9.27891 5.93716 9.18464 6.04688 8.75228 6.54829C8.5625 6.76838 8.55277 6.77783 8.53677 6.7576C8.52757 6.74595 7.97141 5.93707 7.30088 4.96011L6.08173 3.18382L4.65414 3.1837L3.22656 3.18359L3.28515 3.26721ZM4.39935 3.84972C4.41008 3.86609 4.6768 4.24846 4.99209 4.69944C5.59004 5.55474 7.93977 8.91777 9.45091 11.0811C9.9338 11.7724 10.3348 12.3441 10.342 12.3516C10.3523 12.3623 10.4929 12.3646 10.999 12.3624L11.6429 12.3596L9.95793 9.94826C9.03122 8.62203 7.6895 6.70187 6.97632 5.68123L5.67964 3.82554L5.02976 3.82275L4.37988 3.81997L4.39935 3.84972Z" fill="#112C2C"/>
<path fill-rule="evenodd" clip-rule="evenodd" d="M0 8.00001V16L8.0027 15.9973L16.0054 15.9946L16.0081 7.9973L16.0108 0H8.0054H0V8.00001ZM0.0053621 8.00539C0.0053621 12.4054 0.00659204 14.2054 0.00809171 12.0054C0.00959137 9.80539 0.00959137 6.20539 0.00809171 4.00539C0.00659204 1.80539 0.0053621 3.60539 0.0053621 8.00539ZM3.28299 3.26635C3.31521 3.31233 4.06155 4.39865 4.94152 5.68038C5.82149 6.9621 6.63537 8.14743 6.75017 8.31444C6.86495 8.48146 6.95887 8.62145 6.95887 8.62555C6.95887 8.62965 6.91612 8.68236 6.86388 8.74267C6.81164 8.80298 6.66449 8.9737 6.5369 9.12205C6.4093 9.2704 6.1942 9.52043 6.0589 9.67768C5.9236 9.83493 5.68558 10.1117 5.52995 10.2927C5.37433 10.4736 5.09447 10.799 4.90805 11.0157C4.33148 11.686 4.24827 11.7828 3.80937 12.294C3.57501 12.567 3.35028 12.8279 3.30997 12.874C3.26966 12.92 3.23668 12.9625 3.23668 12.9684C3.23668 12.9753 3.38389 12.9791 3.65142 12.9791H4.06615L4.5221 12.4477C4.77288 12.1555 5.02026 11.8678 5.07183 11.8085C5.18335 11.6802 6.03384 10.6906 6.10533 10.606C6.1327 10.5736 6.17246 10.5274 6.19368 10.5035C6.21492 10.4795 6.38224 10.2851 6.56552 10.0715C6.7488 9.85786 6.90379 9.67784 6.90993 9.67144C6.91608 9.66506 7.0131 9.55217 7.12555 9.4206C7.23799 9.28904 7.33346 9.18139 7.3377 9.18139C7.34195 9.18139 7.91955 10.0177 8.62127 11.0398C9.32298 12.0619 9.90964 12.9163 9.92496 12.9384L9.9528 12.9786L11.3754 12.9789C12.5453 12.9791 12.797 12.9766 12.7926 12.9649C12.7878 12.9525 12.1062 11.9584 10.3577 9.41335C9.09888 7.58122 8.9315 7.33501 8.9363 7.32252C8.94096 7.31037 9.11242 7.10984 10.2396 5.79816C10.433 5.57317 10.6995 5.26285 10.8319 5.10856C10.9643 4.95428 11.098 4.79892 11.129 4.76332C11.16 4.72771 11.323 4.53837 11.4911 4.34255C11.6593 4.14673 11.9451 3.814 12.1263 3.60315C12.3076 3.3923 12.4625 3.21146 12.4706 3.20126C12.4846 3.18382 12.4609 3.18274 12.0642 3.18274H11.6429L11.4556 3.40121C11.2062 3.69198 10.7554 4.21631 10.6274 4.36447C10.5709 4.42994 10.5003 4.51222 10.4707 4.5473C10.441 4.58239 10.3825 4.6502 10.3406 4.69799C10.2987 4.74579 10.0877 4.99123 9.87164 5.24343C9.65561 5.49562 9.47588 5.70438 9.47226 5.70735C9.46864 5.71032 9.42235 5.76401 9.36939 5.82669C9.27675 5.9363 9.18248 6.04603 8.75012 6.54743C8.56034 6.76753 8.55061 6.77698 8.53461 6.75675C8.52541 6.7451 7.96925 5.93622 7.29872 4.95926L6.07957 3.18296L4.65199 3.18285L3.2244 3.18274L3.28299 3.26635ZM4.39719 3.84887C4.40792 3.86524 4.67464 4.24761 4.98993 4.69858C5.58788 5.55389 7.93761 8.91691 9.44875 11.0802C9.93164 11.7715 10.3326 12.3433 10.3398 12.3507C10.3501 12.3614 10.4907 12.3637 10.9968 12.3615L11.6407 12.3587L9.95578 9.9474C9.02906 8.62117 7.68734 6.70101 6.97417 5.68038L5.67749 3.82468L5.0276 3.8219L4.37772 3.81911L4.39719 3.84887Z" fill="white"/>
</g>
<defs>
<clipPath id="clip0_362_27296">
<rect width="16" height="16" rx="4" fill="white"/>
</clipPath>
</defs>
</svg>
