<svg width="20" height="21" viewBox="0 0 20 21" fill="none" xmlns="http://www.w3.org/2000/svg">
<mask id="mask0_2819_211745" style="mask-type:alpha" maskUnits="userSpaceOnUse" x="0" y="0" width="20" height="21">
<rect y="0.5" width="20" height="20" fill="#D9D9D9"/>
</mask>
<g mask="url(#mask0_2819_211745)">
<path d="M12.9372 13.8987L13.7112 13.1247L10.5429 9.95622V5.50128H9.45964V10.4212L12.9372 13.8987ZM10.0027 18.0846C8.95808 18.0846 7.97619 17.8872 7.05701 17.4925C6.13783 17.0978 5.33232 16.5547 4.64047 15.8631C3.94861 15.1716 3.40523 14.3654 3.01032 13.4447C2.61542 12.5239 2.41797 11.54 2.41797 10.4931C2.41797 9.44622 2.61533 8.46187 3.01005 7.54009C3.40477 6.6183 3.9479 5.81496 4.63943 5.13005C5.33097 4.44514 6.13713 3.90523 7.05791 3.51032C7.97868 3.11542 8.96252 2.91797 10.0094 2.91797C11.0563 2.91797 12.0407 3.117 12.9626 3.51505C13.8845 3.91311 14.6864 4.45332 15.3683 5.13568C16.0502 5.81805 16.5901 6.62048 16.9879 7.54295C17.3857 8.46541 17.5846 9.45105 17.5846 10.4999C17.5846 11.5445 17.3872 12.5264 16.9925 13.4456C16.5978 14.3647 16.0581 15.1702 15.3736 15.8621C14.689 16.554 13.8851 17.0973 12.9619 17.4922C12.0387 17.8871 11.0523 18.0846 10.0027 18.0846ZM10.0112 17.0013C11.8095 17.0013 13.3408 16.3659 14.605 15.095C15.8692 13.8242 16.5013 12.2896 16.5013 10.4913C16.5013 8.69305 15.8692 7.1618 14.605 5.89759C13.3408 4.63339 11.8095 4.00128 10.0112 4.00128C8.21293 4.00128 6.67836 4.63339 5.40753 5.89759C4.1367 7.1618 3.50128 8.69305 3.50128 10.4913C3.50128 12.2896 4.1367 13.8242 5.40753 15.095C6.67836 16.3659 8.21293 17.0013 10.0112 17.0013Z" fill="white"/>
</g>
</svg>
