<svg width="27" height="41" viewBox="0 0 34 41" fill="none" xmlns="http://www.w3.org/2000/svg">
<path d="M16.9996 40.3725C16.5774 40.3725 16.1552 40.2996 15.733 40.1538C15.3108 40.0079 14.9288 39.7822 14.5871 39.4767C12.6427 37.685 10.8233 35.8399 9.12887 33.9413C7.43443 32.0427 5.96151 30.1448 4.71012 28.2476C3.45873 26.3504 2.46845 24.4698 1.73929 22.6059C1.0101 20.742 0.645508 18.942 0.645508 17.2059C0.645508 12.206 2.26287 8.15806 5.49759 5.06222C8.73228 1.96638 12.5663 0.418457 16.9996 0.418457C21.4329 0.418457 25.2669 1.96638 28.5016 5.06222C31.7364 8.15806 33.3537 12.206 33.3537 17.2059C33.3537 18.942 32.9891 20.7386 32.2599 22.5955C31.5308 24.4525 30.544 26.333 29.2995 28.2372C28.0551 30.1414 26.5857 32.0393 24.8912 33.9309C23.1968 35.8226 21.3773 37.6642 19.4329 39.4558C19.0962 39.7614 18.7136 39.9906 18.2852 40.1434C17.8566 40.2961 17.4281 40.3725 16.9996 40.3725ZM17.0033 20.7101C18.0814 20.7101 19.0031 20.3262 19.7683 19.5585C20.5336 18.7907 20.9162 17.8678 20.9162 16.7897C20.9162 15.7116 20.5324 14.79 19.7647 14.0247C18.9969 13.2594 18.074 12.8768 16.9959 12.8768C15.9178 12.8768 14.9962 13.2607 14.2309 14.0284C13.4656 14.7961 13.083 15.719 13.083 16.7971C13.083 17.8752 13.4668 18.7969 14.2346 19.5622C15.0023 20.3274 15.9252 20.7101 17.0033 20.7101Z" fill="#1FD18E"/>
</svg>
